<svg fill="none" height="101" viewBox="0 0 101 101" width="101" xmlns="http://www.w3.org/2000/svg" xmlns:xlink="http://www.w3.org/1999/xlink"><linearGradient id="a" gradientUnits="userSpaceOnUse" x1="55.0768" x2="55.0768" y1="13.2568" y2="92.4235"><stop offset="0" stop-color="#fff"/><stop offset=".221154" stop-color="#7d7d7d"/><stop offset=".495192" stop-color="#fff"/><stop offset=".774038" stop-color="#7d7d7d"/><stop offset="1" stop-color="#fff"/></linearGradient><path d="m21.7435 79.9235v-58.3333 47.2916-8.8541zm0 8.3333c-2.2917 0-4.2528-.8152-5.8833-2.4458-1.6306-1.6306-2.4473-3.5931-2.45-5.8875v-58.3333c0-2.2917.8166-4.2528 2.45-5.8834 1.6333-1.6305 3.5944-2.4472 5.8833-2.45h58.3333c2.2917 0 4.2542.8167 5.8875 2.45 1.6334 1.6334 2.4486 3.5945 2.4459 5.8834v33.3333h-8.3334v-33.3333h-58.3333v58.3333h29.1667v8.3333zm51.4583 4.1667-14.7916-14.7917 5.9375-5.8333 8.8541 8.8542 17.7084-17.7084 5.8333 5.9375zm-38.9583-37.5c1.1805 0 2.1708-.4 2.9708-1.2s1.1986-1.7889 1.1959-2.9667c-.0028-1.1777-.4028-2.1666-1.2-2.9666-.7973-.8-1.7862-1.2-2.9667-1.2-1.1806 0-2.1695.4-2.9667 1.2s-1.1972 1.7889-1.2 2.9666c-.0028 1.1778.3972 2.1681 1.2 2.9709.8028.8027 1.7917 1.2014 2.9667 1.1958zm0-16.6667c1.1805 0 2.1708-.4 2.9708-1.2s1.1986-1.7889 1.1959-2.9666c-.0028-1.1778-.4028-2.1667-1.2-2.9667-.7973-.8-1.7862-1.2-2.9667-1.2-1.1806 0-2.1695.4-2.9667 1.2s-1.1972 1.7889-1.2 2.9667c-.0028 1.1777.3972 2.168 1.2 2.9708s1.7917 1.2014 2.9667 1.1958zm12.5 16.6667h25v-8.3333h-25zm0-16.6667h25v-8.3333h-25z" fill="url(#a)"/></svg>