<svg fill="none" height="101" viewBox="0 0 100 101" width="100" xmlns="http://www.w3.org/2000/svg" xmlns:xlink="http://www.w3.org/1999/xlink"><linearGradient id="a" gradientUnits="userSpaceOnUse" x1="18.0464" x2="79.4066" y1="12.8652" y2="101.203"><stop offset="0" stop-color="#fff"/><stop offset=".221154" stop-color="#555"/><stop offset=".475962" stop-color="#fff"/><stop offset=".725962" stop-color="#1c1c1c"/><stop offset=".927885" stop-color="#fff"/></linearGradient><path d="m66.6663 12.9657h12.5c2.2102 0 4.3298.878 5.8926 2.4408s2.4408 3.6824 2.4408 5.8926v12.5m-54.1667 54.1666h-12.5c-2.2101 0-4.3297-.8779-5.8925-2.4407-1.5629-1.5628-2.4408-3.6825-2.4408-5.8926v-12.5m33.3333-50v25c0 4.6042-8.3958 8.3333-18.75 8.3333s-18.74999-3.7291-18.74999-8.3333v-25m37.49999 0c0 4.6042-8.3958 8.3333-18.75 8.3333s-18.74999-3.7291-18.74999-8.3333m37.49999 0c0-4.6042-8.3958-8.33333-18.75-8.33333s-18.74999 3.72913-18.74999 8.33333m37.49999 12.5c0 4.6042-8.3958 8.3333-18.75 8.3333s-18.74999-3.7291-18.74999-8.3333m72.91669 29.1667v8.3333h-16.6667v-8.3333c0-2.2102.878-4.3298 2.4408-5.8926s3.6824-2.4408 5.8925-2.4408c2.2102 0 4.3298.878 5.8926 2.4408s2.4408 3.6824 2.4408 5.8926zm-27.0834 8.3333h37.5001v25h-37.5001z" stroke="url(#a)" stroke-linecap="round" stroke-linejoin="round" stroke-width="5"/></svg>