<svg fill="none" height="101" viewBox="0 0 100 101" width="100" xmlns="http://www.w3.org/2000/svg" xmlns:xlink="http://www.w3.org/1999/xlink"><linearGradient id="a" gradientUnits="userSpaceOnUse" x1="-.000001" x2="50" y1="6.30999" y2="100.757"><stop offset="0" stop-color="#fff"/><stop offset=".245192" stop-color="#686868"/><stop offset=".461538" stop-color="#fff"/><stop offset=".663462" stop-color="#4c4c4c"/><stop offset=".942308" stop-color="#fff"/></linearGradient><clipPath id="b"><path d="m0 .756836h100v100h-100z"/></clipPath><g clip-path="url(#b)" fill="url(#a)"><path d="m6.25 38.2568v18.75h18.75v6.25h-25v-25zm56.25 0v25h-25v-6.25h18.75v-18.75zm-37.5-37.499964v6.250004h-18.75v18.74996h-6.25v-24.999964zm37.5 0v24.999964h-6.25v-18.74996h-18.75v-6.250004z"/><path d="m50 75.7568c3.3152 0 6.4946 1.317 8.8388 3.6612s3.6612 5.5236 3.6612 8.8388-1.317 6.4947-3.6612 8.8389-5.5236 3.6613-8.8388 3.6613-6.4946-1.3171-8.8388-3.6613-3.6612-5.5237-3.6612-8.8389 1.317-6.4946 3.6612-8.8388 5.5236-3.6612 8.8388-3.6612zm37.5 0c3.3152 0 6.4946 1.317 8.8388 3.6612s3.6612 5.5236 3.6612 8.8388-1.317 6.4947-3.6612 8.8389-5.5236 3.6613-8.8388 3.6613-6.4946-1.3171-8.8388-3.6613-3.6612-5.5237-3.6612-8.8389 1.317-6.4946 3.6612-8.8388 5.5236-3.6612 8.8388-3.6612zm-37.5 5.4688c-.9234 0-1.8377.1818-2.6907.5352-.8531.3534-1.6282.8713-2.2811 1.5242-.653.6529-1.1709 1.428-1.5242 2.2811-.3534.8531-.5352 1.7674-.5352 2.6907 0 .9234.1818 1.8377.5352 2.6908.3533.8531.8712 1.6282 1.5242 2.2811.6529.6529 1.428 1.1708 2.2811 1.5242.853.3533 1.7673.5352 2.6907.5352 1.8648 0 3.6532-.7408 4.9718-2.0594 1.3187-1.3186 2.0594-3.1071 2.0594-4.9719s-.7407-3.6532-2.0594-4.9718c-1.3186-1.3186-3.107-2.0594-4.9718-2.0594zm37.5 0c-.9234 0-1.8377.1818-2.6907.5352-.8531.3534-1.6282.8713-2.2811 1.5242-.653.6529-1.1709 1.428-1.5242 2.2811-.3534.8531-.5352 1.7674-.5352 2.6907 0 .9234.1818 1.8377.5352 2.6908.3533.8531.8712 1.6282 1.5242 2.2811.6529.6529 1.428 1.1708 2.2811 1.5242.853.3533 1.7673.5352 2.6907.5352 1.8648 0 3.6532-.7408 4.9718-2.0594 1.3187-1.3186 2.0594-3.1071 2.0594-4.9719s-.7407-3.6532-2.0594-4.9718c-1.3186-1.3186-3.107-2.0594-4.9718-2.0594zm0-42.9688c3.3152 0 6.4946 1.317 8.8388 3.6612s3.6612 5.5236 3.6612 8.8388-1.317 6.4947-3.6612 8.8389-5.5236 3.6611-8.8388 3.6611-6.4946-1.3169-8.8388-3.6611-3.6612-5.5237-3.6612-8.8389 1.317-6.4946 3.6612-8.8388 5.5236-3.6612 8.8388-3.6612zm0 5.4688c-1.8648 0-3.6532.7408-4.9718 2.0594-1.3187 1.3186-2.0594 3.107-2.0594 4.9718s.7407 3.6533 2.0594 4.9719c1.3186 1.3186 3.107 2.0594 4.9718 2.0594s3.6532-.7408 4.9718-2.0594c1.3187-1.3186 2.0594-3.1071 2.0594-4.9719s-.7407-3.6532-2.0594-4.9718c-1.3186-1.3186-3.107-2.0594-4.9718-2.0594zm-56.25-24.2188c3.3152 0 6.4946 1.317 8.8388 3.6612s3.6612 5.5236 3.6612 8.8388-1.317 6.4947-3.6612 8.8389-5.5236 3.6611-8.8388 3.6611-6.4946-1.3169-8.8388-3.6611-3.6612-5.5237-3.6612-8.8389 1.317-6.4946 3.6612-8.8388 5.5236-3.6612 8.8388-3.6612zm0 5.4688c-.9234 0-1.8377.1819-2.6907.5352-.8531.3534-1.6282.8713-2.2811 1.5242-.653.6529-1.1709 1.428-1.5242 2.2811-.3534.8531-.5352 1.7674-.5352 2.6907 0 .9234.1818 1.8377.5352 2.6908.3533.8531.8712 1.6282 1.5242 2.2811.6529.6529 1.428 1.1708 2.2811 1.5242.853.3533 1.7673.5352 2.6907.5352 1.8648 0 3.6532-.7408 4.9718-2.0594 1.3187-1.3186 2.0594-3.1071 2.0594-4.9719s-.7407-3.6532-2.0594-4.9718c-1.3186-1.3186-3.107-2.0594-4.9718-2.0594z"/></g></svg>