<svg fill="none" height="32" viewBox="0 0 32 32" width="32" xmlns="http://www.w3.org/2000/svg" xmlns:xlink="http://www.w3.org/1999/xlink"><linearGradient id="a" gradientUnits="userSpaceOnUse" x1="27.9833" x2="-.960561" y1="5.30494" y2="26.2231"><stop offset=".0549256" stop-color="#fff"/><stop offset=".145805" stop-color="#494949"/><stop offset=".427722" stop-color="#fff"/><stop offset=".648801" stop-color="#676767"/><stop offset=".74557" stop-color="#fff" stop-opacity=".433942"/><stop offset=".989234"/></linearGradient><clipPath id="b"><path d="m0 0h32v32h-32z"/></clipPath><g clip-path="url(#b)" fill="url(#a)"><path d="m0 15.8475h5.9433c0-.0277 0-.0555.001-.0832v.0832h6.6721c1.8287.3574 3.2177 1.9332 3.272 3.8528l.0264.8833.0245-.8833c.0562-1.9196 1.4433-3.4954 3.272-3.8528h7.0295v.0488c0 .7622-.0835 1.5106-.2162 2.2314-1.0287 6.1438-6.3843 10.8204-12.8322 10.8204-6.3879 0-11.703-4.5967-12.828008-10.6577.997508 6.7867 6.246908 12.1829 12.954708 13.3979.9307.1681 1.8884.2561 2.867.2561 8.3082 0 15.1358-6.3308 15.9225-14.4296.05-.5146.0755-1.037.0755-1.5673v-.2933h-12.9675c-1.8321-.3521-3.2211-1.9297-3.2773-3.8529l-.0245-.8833-.0264.8833c-.0562 1.9232-1.4452 3.5008-3.2773 3.8529h-6.6659c.0149-.8705.1179-1.7226.2935-2.5403.0009-.001.0009-.0029.0009-.0048 1.2791-5.86482 6.5018-10.25779 12.7521-10.25779 6.1551 0 11.3202 4.27146 12.6955 10.01439-1.2791-6.41012-6.3753-11.44101-12.8221-12.609574-.9308-.168148-1.8885-.256126-2.867-.256126-8.1729 0-14.9127 6.12597-15.880184 14.0352-.0647627.5359-.1034272 1.0774-.11501353 1.619-.00096749.0656-.00193498.1321-.00290247.1933z"/><path d="m5.9433 15.8475h-5.9433v.0039h5.9433z"/></g></svg>