<svg fill="none" height="58" viewBox="0 0 58 58" width="58" xmlns="http://www.w3.org/2000/svg" xmlns:xlink="http://www.w3.org/1999/xlink"><clipPath id="a"><path d="m.078125 0h57.8093v57.8093h-57.8093z"/></clipPath><g clip-path="url(#a)"><path d="m47.7474 13.7217h4.4125c3.1583 0 5.7276-2.5693 5.7276-5.72748 0-3.15822-2.5693-5.7275-5.7276-5.7275h-29.247c-6.0997 0-11.834 2.37513-16.14679 6.68791-.5174.51741-1.01271 1.06247-1.47113 1.61877-2.43268 2.946-4.09654 6.4811-4.81201 10.2242-.268619 1.4111-.404845 2.859-.404845 4.3038 0 1.394.126608 2.7906.376443 4.152 1.148652 6.2469 4.779712 11.5051 9.763632 14.8358h-4.42949c-3.14882 0-5.710585 2.5617-5.710585 5.7105 0 3.1489 2.561765 5.7106 5.710585 5.7106h26.25049l2.9929.0322c.0069.0001.0137.0001.0207.0001 6.0996 0 11.8339-2.3751 16.1467-6.6879.5166-.5165 1.0115-1.0612 1.4695-1.6172 2.4415-2.9564 4.1082-6.5036 4.8206-10.2603.264-1.4024.3979-2.8383.3979-4.2677 0-1.3942-.1266-2.7908-.3764-4.1519-1.1487-6.2469-4.7798-11.5052-9.7637-14.8359zm6.293-5.72748c0 1.03691-.8435 1.88041-1.8805 1.88041h-25.583c-2.8001 0-5.4311 1.09007-7.4071 3.06787l-.0003.0003-.0003.0003c-.0718.0718-.14.1462-.2095.2197-.05.0529-.1019.1045-.1507.1583-.0711.0783-.1384.1592-.2069.2393-.0439.0514-.0898.1015-.1327.1536-.0624.0759-.1211.1544-.1812.2318-.0454.0585-.0928.1157-.1368.175-.0538.0724-.1039.147-.1557.2206-.0468.0665-.0955.1319-.1407.1994-.0383.0572-.0733.1163-.1105.1742-.055.0859-.1114.1711-.1638.2584-.0139.0231-.0262.047-.0399.0702-.5922 1.0042-1.0114 2.0986-1.2391 3.2467-.0058.0291-.0097.0587-.0152.0878-.1219.6437-.186 1.3032-.186 1.9729 0 .3396.016.6746.0467.9848.0002.002.0005.004.0007.006.0002.0016.0002.0032.0004.0048.0002.0023.0007.0046.001.0069.2447 2.5806 1.4349 4.9686 3.3534 6.7259 1.9355 1.7732 4.4478 2.7497 7.0742 2.7497h5.272c.0974 0 .1941.0027.2905.0067.0296.0013.0589.0032.0884.0049.0685.0038.1369.0086.2049.0144.0315.0027.0629.0055.0943.0087.0725.0072.1445.0157.2162.0254.023.003.0461.0055.069.0088.0935.0134.1864.0287.2786.046.0203.0038.0404.0084.0607.0123.0725.0143.1446.0296.2163.0462.0295.0069.0589.0141.0882.0213.065.0161.1297.0331.1939.051.0272.0075.0544.0148.0814.0227.086.0252.1714.0516.2559.08.0028.001.0057.0018.0085.0028.0886.03.1762.0622.263.0958.0229.0088.0455.0182.0683.0274.0647.0258.129.0526.1927.0804.0248.0108.0496.0217.0743.0329.0679.0306.1352.0624.2019.0953.016.0079.0322.0154.048.0233.0844.0425.1678.0865.2501.1324.0069.0039.0136.0081.0205.0119.0739.0416.1468.0847.2189.129.0183.0112.0364.0227.0545.0341.0642.0403.1276.0816.1902.124.015.0102.0302.0203.0452.0306.1565.108.3084.2223.4548.3432.0067.0055.0132.0113.0199.0168.0664.0553.1317.1118.1958.1696.0101.0091.0202.0182.0302.0274.0683.0623.1356.1258.2012.191.0005.0004.0009.0008.0014.0013.1398.1388.2734.2841.4005.4352.0028.0035.0057.0069.0085.0103.0615.0735.1215.1483.1799.2245.0012.0015.0024.003.0036.0046.1813.2374.3471.4877.4956.7497l.0005.0009c.0966.1704.1856.3458.2672.5257h-11.878c-4.9972 0-9.5481-2.5427-12.1742-6.8024-1.2652-2.0501-1.9916-4.41-2.1008-6.8322-.0107-.2173-.0161-.4382-.0161-.6565 0-2.6946.7527-5.3177 2.1782-7.5875.5679-.9069 1.2431-1.7542 2.0076-2.5185 2.6983-2.69986 6.2871-4.18669 10.1053-4.18669h26.1555c1.037 0 1.8805.8435 1.8805 1.88041zm-49.80209 20.56398c-.20776-1.132-.3131-2.2952-.3131-3.4568 0-1.2039.11338-2.4098.33669-3.5829.5942-3.1088 1.97719-6.0465 4.00074-8.4971.38155-.463.79324-.9159 1.22378-1.3465.43775-.4377.89328-.8516 1.36468-1.2406-.0743.1128-.1473.2264-.219.3409-1.80945 2.8814-2.76589 6.2119-2.76589 9.6313 0 .281.00699.5653.02036.8376.13826 3.067 1.06156 6.0656 2.66933 8.6708 3.3314 5.4037 9.1065 8.6298 15.4485 8.6298h12.384c-.0087.0534-.0176.1067-.0276.1597-.0046.0245-.0086.0492-.0135.0735-.0194.0965-.0408.1924-.0644.2876-.0054.0219-.0117.0435-.0174.0654-.0191.0738-.0392.1474-.0609.2205-.0094.0317-.0193.0633-.0292.0949-.0203.0648-.0415.1292-.0638.1933-.0107.0308-.0213.0618-.0325.0925-.0269.0739-.0553.1472-.0849.2201-.0074.0183-.0142.0368-.0217.0551-.0376.0903-.0774.1797-.119.2683-.011.0234-.0228.0464-.0341.0697-.0318.0656-.0645.1308-.0985.1955-.0156.0296-.0316.0591-.0477.0885-.0326.0599-.0664.1193-.101.1782-.0162.0276-.0321.0553-.0488.0827-.0445.0734-.0906.146-.1381.2178-.007.0106-.0135.0215-.0206.0321-.0549.0819-.1121.1625-.1708.2421-.0171.0233-.0351.0462-.0526.0693-.043.0568-.0868.1132-.1318.1687-.0216.0267-.0435.0533-.0656.0797-.045.0538-.091.107-.1378.1596-.0207.0232-.0411.0467-.0621.0697-.0677.0741-.1368.1472-.2082.2187-1.2507 1.2518-2.9153 1.9413-4.6869 1.9413h-8.936c-9.1661 0-17.0199-6.532-18.67459-15.531zm-.3131 21.2415c0-1.0275.83599-1.8635 1.8635-1.8635h26.06019c2.7999 0 5.431-1.0899 7.4078-3.0686 1.9788-1.9789 3.0685-4.6103 3.0685-7.4094 0-.3448-.0172-.6903-.0503-1.0203-.0001-.0008-.0001-.0017-.0002-.0025-.0001-.0017-.0004-.0034-.0006-.0051 0-.0006 0-.0012-.0001-.0018-.0001-.001-.0003-.0019-.0004-.0028-.1575-1.6085-.6824-3.1414-1.5217-4.492-.5046-.8121-1.1227-1.5584-1.8428-2.2156-1.9333-1.7644-4.4406-2.7361-7.0602-2.7361h-5.272c-.0979 0-.195-.0027-.2918-.0069-.0299-.0012-.0596-.0032-.0894-.0049-.0684-.0038-.1367-.0085-.2045-.0144-.032-.0027-.0639-.0055-.0958-.0088-.0719-.0072-.1435-.0158-.2148-.0252-.0238-.0032-.0478-.0058-.0715-.0093-.0938-.0135-.187-.0288-.2795-.0462-.0196-.0037-.039-.0081-.0587-.0119-.0736-.0145-.1469-.0301-.2196-.047-.0292-.0067-.0583-.014-.0874-.0212-.0655-.0161-.1305-.0333-.1952-.0513-.0272-.0076-.0545-.0149-.0815-.0229-.0832-.0244-.1659-.0501-.2478-.0776-.0059-.002-.0119-.0037-.0177-.0057-.0895-.0304-.1778-.0629-.2655-.0969-.0206-.008-.041-.0165-.0615-.0248-.0674-.0269-.1344-.0548-.2007-.0839-.0233-.0102-.0465-.0205-.0697-.031-.0697-.0315-.1389-.0642-.2073-.0981-.0146-.0072-.0294-.0141-.0439-.0215-.1701-.0858-.3359-.1788-.4972-.2784-.0138-.0086-.0274-.0173-.0411-.026-.0693-.0436-.1378-.0883-.2054-.1343-.0113-.0078-.0226-.0153-.0339-.0231-.2404-.1662-.4694-.3478-.6853-.544-.0032-.003-.0065-.0059-.0097-.0089-.6612-.6034-1.1995-1.3416-1.5725-2.1769h11.5179c5.0109 0 9.5678 2.5532 12.1906 6.8318 1.2545 2.0412 1.9751 4.391 2.0844 6.804.0107.2149.0161.4355.0161.6554 0 2.7057-.7593 5.3384-2.1975 7.6162-.5646.8973-1.2334 1.7349-1.988 2.4894-.3373.3374-.6886.6559-1.0525.9548-2.5472 2.0927-5.7126 3.2307-9.0531 3.2307h-26.25719c-1.02751 0-1.8635-.8359-1.8635-1.8635zm49.78419-13.5369c-.5915 3.1192-1.977 6.0672-4.0081 8.5268-.3813.4627-.7924.9152-1.2221 1.3448-.3946.3946-.8034.7696-1.2255 1.1247.0474-.0727.0942-.1459.1404-.2194 1.8252-2.8909 2.79-6.2338 2.79-9.6676 0-.2834-.007-.5682-.0204-.8379-.1384-3.0543-1.0545-6.0404-2.6484-8.634-3.3267-5.4265-9.1097-8.6663-15.4694-8.6663h-12.0033c.007-.042.0138-.084.0217-.1257.0055-.0295.0107-.059.0166-.0884.0195-.0961.0406-.1919.0642-.2868.0016-.0063.0035-.0124.0051-.0187.0224-.0888.047-.1769.0731-.2645.0091-.0307.019-.0613.0286-.0918.0201-.064.041-.1276.063-.1909.0115-.0331.0231-.0662.0352-.0992.0238-.065.0489-.1296.0747-.1938.011-.0271.0213-.0545.0326-.0815.0369-.0882.0755-.1756.1163-.2622.0108-.023.0226-.0455.0337-.0685.0315-.065.0639-.1297.0976-.1937.0169-.0321.0344-.064.0519-.0958.0305-.0557.0618-.1109.094-.1657.0184-.0315.0368-.063.0558-.0942.0378-.062.077-.1234.1169-.1844.014-.0212.0273-.0429.0415-.0641.0535-.0795.109-.1579.166-.2354.0187-.0252.0382-.0499.0573-.075.0412-.0542.083-.1081.126-.1612.0231-.0285.0466-.0569.0702-.0851.043-.0514.087-.1021.1317-.1525.0222-.0248.044-.0499.0665-.0745.0655-.0715.1323-.142.2013-.2111.002-.002.004-.0042.006-.0062 1.2506-1.2518 2.9151-1.9413 4.6868-1.9413h8.4759c9.166 0 17.0198 6.5321 18.6745 15.5311.2078 1.1319.3131 2.2949.3131 3.4567 0 1.1912-.1115 2.3876-.331 3.5533z" fill="#fff"/></g></svg>