<svg fill="none" height="201" viewBox="0 0 201 201" width="201" xmlns="http://www.w3.org/2000/svg" xmlns:xlink="http://www.w3.org/1999/xlink"><clipPath id="a"><path d="m.056152.02417h200v200h-200z"/></clipPath><g clip-path="url(#a)" fill="#fff"><path d="m.0561523 99.2494h36.9320477c0-.1742 0-.3484.006-.5225v.5225h41.4607c11.3637 2.1866 19.9946 12.0126 20.3309 23.9346l.1622 5.496.1561-5.496c.3424-11.922 8.9669-21.748 20.3309-23.9346h43.683v.3243c0 4.7153-.402 9.3333-1.177 13.8263-6.559 38.193-39.839 67.257-79.9064 67.257-39.695 0-72.72297-28.517-79.7141-66.182 6.19835 42.127 38.8299 75.66 80.5009 83.21 5.7839 1.045 11.748 1.591 17.8326 1.591 51.611 0 94.039-39.34 98.928-89.666.312-3.201.474-6.451.474-9.7359v-1.826h-80.585c-11.382-2.1682-20.0245-12.0003-20.3669-23.9347l-.1561-5.4956-.1622 5.4956c-.3423 11.9344-8.9853 21.7665-20.3669 23.9347h-41.4187c.1021-5.4055.7327-10.679 1.8379-15.7722.006-.006.006-.018.006-.0301 7.9342-36.4575 40.3916-63.7556 79.2279-63.7556 38.289 0 70.38 26.5413 78.879 62.23-7.904-39.833-39.605-71.09511-79.666-78.35665-5.784-1.04507-11.748-1.591577-17.8325-1.591577-50.7703 0-92.65141 38.067127-98.66361 87.215827-.402441 3.3034-.642704 6.6608-.7147015 10.0603-.0060121.3964-.0120241.7988-.0180362 1.2013z"/><path d="m36.9882 99.2494h-36.9320477v.024h36.9320477z"/></g></svg>