<svg fill="none" height="187" viewBox="0 0 626 187" width="626" xmlns="http://www.w3.org/2000/svg" xmlns:xlink="http://www.w3.org/1999/xlink"><linearGradient id="a" gradientUnits="userSpaceOnUse" x1="442.387" x2="442.387" y1="17.8221" y2="183.534"><stop offset=".447839" stop-color="#fff"/><stop offset=".865627" stop-color="#212121"/></linearGradient><linearGradient id="b" gradientUnits="userSpaceOnUse" x1="162.782" x2="-5.52959" y1="31.5165" y2="153.158"><stop offset=".0549256" stop-color="#fff"/><stop offset=".145805" stop-color="#494949"/><stop offset=".427722" stop-color="#fff"/><stop offset=".648801" stop-color="#676767"/><stop offset=".74557" stop-color="#fff" stop-opacity=".433942"/><stop offset=".989234"/></linearGradient><path d="m299.2 155.273c-8.035 0-15.267-1.377-21.695-4.132-6.428-2.87-11.479-6.888-15.152-12.053s-5.51-11.192-5.51-18.079h21.006c.46 5.165 2.468 9.412 6.027 12.741 3.673 3.329 8.781 4.994 15.324 4.994 6.773 0 12.053-1.607 15.841-4.821 3.788-3.329 5.682-7.577 5.682-12.742 0-4.018-1.205-7.289-3.616-9.814-2.296-2.526-5.223-4.477-8.781-5.855-3.444-1.377-8.265-2.869-14.464-4.476-7.805-2.0665-14.176-4.1327-19.112-6.1989-4.821-2.181-8.953-5.5099-12.397-9.9866-3.444-4.4768-5.165-10.4457-5.165-17.907 0-6.8873 1.721-12.9137 5.165-18.0792 3.444-5.1654 8.265-9.1256 14.463-11.8805 6.199-2.755 13.373-4.1324 21.523-4.1324 11.594 0 21.064 2.9271 28.41 8.7813 7.462 5.7394 11.594 13.6598 12.397 23.7612h-21.695c-.344-4.362-2.41-8.0926-6.198-11.1919s-8.781-4.6489-14.98-4.6489c-5.625 0-10.216 1.4348-13.775 4.3045-3.558 2.8697-5.337 7.0021-5.337 12.3972 0 3.6732 1.09 6.7151 3.271 9.1257 2.296 2.2957 5.166 4.1323 8.609 5.5098 3.444 1.3775 8.15 2.8697 14.119 4.4767 7.921 2.181 14.349 4.362 19.285 6.543 5.05 2.181 9.298 5.5672 12.741 10.159 3.559 4.476 5.338 10.503 5.338 18.079 0 6.084-1.664 11.823-4.993 17.218-3.214 5.395-7.978 9.757-14.292 13.086-6.198 3.214-13.545 4.821-22.039 4.821zm98.1.345c-8.954 0-17.046-2.009-24.278-6.027-7.231-4.132-12.914-9.872-17.046-17.218-4.132-7.461-6.198-16.07-6.198-25.828 0-9.6417 2.123-18.1935 6.37-25.6547s10.044-13.2007 17.391-17.2183c7.346-4.0175 15.554-6.0263 24.622-6.0263s17.275 2.0088 24.622 6.0263c7.346 4.0176 13.143 9.7571 17.39 17.2183 4.248 7.4612 6.371 16.013 6.371 25.6547 0 9.643-2.181 18.194-6.543 25.656-4.362 7.461-10.331 13.258-17.907 17.39-7.461 4.018-15.726 6.027-24.794 6.027zm0-17.047c5.051 0 9.757-1.205 14.119-3.615 4.477-2.411 8.092-6.027 10.847-10.848s4.133-10.675 4.133-17.563c0-6.8868-1.32-12.6836-3.96-17.3899-2.641-4.8212-6.142-8.437-10.504-10.8475-4.362-2.4106-9.068-3.6159-14.119-3.6159-5.05 0-9.757 1.2053-14.119 3.6159-4.247 2.4105-7.633 6.0263-10.158 10.8475-2.526 4.7063-3.788 10.5031-3.788 17.3899 0 10.217 2.582 18.137 7.748 23.762 5.28 5.51 11.881 8.264 19.801 8.264zm80.74-111.9182v127.4152h-19.629v-127.4152zm28.221 19.9732c-3.559 0-6.543-1.2053-8.954-3.6159-2.41-2.4105-3.616-5.395-3.616-8.9535 0-3.5584 1.206-6.5429 3.616-8.9534 2.411-2.4106 5.395-3.6159 8.954-3.6159 3.443 0 6.371 1.2053 8.781 3.6159 2.411 2.4105 3.616 5.395 3.616 8.9534 0 3.5585-1.205 6.543-3.616 8.9535-2.41 2.4106-5.338 3.6159-8.781 3.6159zm9.642 12.5693v94.8727h-19.629v-94.8727zm11.691 47.0057c0-9.5273 1.951-17.9643 5.854-25.3107 4.018-7.3465 9.413-13.0285 16.185-17.0461 6.888-4.1324 14.521-6.1985 22.901-6.1985 6.198 0 12.282 1.3774 18.251 4.1323 6.084 2.6402 10.905 6.1986 14.463 10.6753v-45.8005h19.801v127.4152h-19.801v-14.291c-3.214 4.591-7.69 8.379-13.43 11.364-5.625 2.984-12.11 4.477-19.457 4.477-8.264 0-15.84-2.067-22.728-6.199-6.772-4.247-12.167-10.101-16.185-17.563-3.903-7.576-5.854-16.127-5.854-25.655zm77.654.344c0-6.542-1.377-12.2245-4.132-17.0456-2.64-4.8211-6.141-8.4943-10.503-11.0197-4.362-2.5253-9.068-3.788-14.119-3.788s-9.757 1.2627-14.119 3.788c-4.362 2.4106-7.921 6.0264-10.675 10.8475-2.641 4.7064-3.961 10.331-3.961 16.8738 0 6.543 1.32 12.282 3.961 17.218 2.754 4.936 6.313 8.724 10.675 11.364 4.477 2.526 9.183 3.788 14.119 3.788 5.051 0 9.757-1.262 14.119-3.788 4.362-2.525 7.863-6.198 10.503-11.019 2.755-4.936 4.132-10.676 4.132-17.219z" fill="url(#a)"/><g fill="url(#b)"><path d="m.0561523 92.8225h34.5608477c0-.163 0-.326.0056-.489v.489h38.7988c10.6341 2.0459 18.7109 11.2415 19.0256 22.3975l.1517 5.143.1462-5.143c.3204-11.156 8.3911-20.3516 19.0261-22.3975h40.878v.3036c0 4.4121-.377 8.7339-1.102 12.9389-6.137 35.741-37.281 62.939-74.7757 62.939-37.1464 0-68.0539-26.687-74.59618-61.933 5.80039 39.422 36.33688 70.802 75.33238 77.867 5.4126.978 10.9938 1.489 16.6875 1.489 48.298 0 88.001-36.814 92.576-83.909.293-2.9958.444-6.0365.444-9.1109v-1.7087h-75.411c-10.651-2.029-18.7387-11.2299-19.0591-22.398l-.1462-5.1428-.1517 5.1428c-.3204 11.1681-8.4084 20.369-19.0593 22.398h-38.7594c.0955-5.0585.6857-9.9934 1.7198-14.7596.0057-.0056.0057-.0169.0057-.0281 7.4248-34.1168 37.7983-59.6623 74.1412-59.6623 35.831 0 65.861 24.8373 73.815 58.2346-7.397-37.2755-37.063-66.53056-74.552-73.32588-5.412-.97797-10.9935-1.489395-16.6871-1.489395-47.5107 0-86.70286 35.623075-92.329055 81.616275-.376603 3.0913-.601439 6.2332-.6688145 9.4144-.005626.3709-.0112521.7475-.0168782 1.1241z"/><path d="m34.617 92.8225h-34.5608477v.0225h34.5608477z"/></g></svg>