<svg fill="none" height="170" viewBox="0 0 171 170" width="171" xmlns="http://www.w3.org/2000/svg" xmlns:xlink="http://www.w3.org/1999/xlink"><clipPath id="a"><path d="m31.6709 31.0752h107.85v107.85h-107.85z"/></clipPath><g clip-path="url(#a)" fill="#000"><path d="m139.521 31.0752v107.8498h-107.8501v-107.8498zm-11.965 67.069v-10.785h-4.044v12.8068h-2.865v-12.8068h-3.96c-.381-.273-.241-.77-.253-1.1796h11.122v-43.3084h-83.8363l-.2528.2528v26.5411h4.0444l4.1286 11.1237 2.2006-5.984-1.7793-5.1397h2.612l4.3814 11.1237 3.9792-11.1036 1.3294-.0193-4.9905 13.9967-2.3411-.1784-2.3601-6.574-2.5235 6.5757-2.4225.1425-4.5385-12.5658c-.2933-.656-1.0823-.7493-1.72-.724l.1685 56.6214h83.9205z"/><path d="m77.1698 100.672h-8.173c-.9277 0-2.641-.8942-3.2904-1.5966-2.2445-2.4277-2.2581-9.4035.0049-11.7997 1.9854-2.1022 7.0276-2.1801 9.1051-.175 2.506 2.4187 2.295 9.3921.2055 12.1417.4363.6639 1.2917.6716 1.9797.8396zm-7.4602-13.7786c-1.173.2184-1.8773 1.2963-2.1959 2.3531-.5015 1.6633-.4877 6.4708.088 8.1021.8071 2.2871 3.5898 3.1094 5.0194 1.0497 1.2705-1.8305 1.2326-8.0552.253-10.0294-.6148-1.2393-1.829-1.7242-3.1645-1.4755z"/><path d="m69.2126 69.2062c5.7015-.6503 7.6334 2.9537 7.4499 8.1254-.1726 4.867-2.4463 7.3349-7.4758 6.8051-4.4849-.4725-5.3845-4.4466-5.1588-8.319.2003-3.436 1.4653-6.1873 5.1847-6.6115zm.4987 1.1742c-1.1942.2011-1.8684 1.2622-2.197 2.3515-.5301 1.7579-.5221 6.3731.0881 8.1022.8158 2.3119 3.5836 3.1183 5.0194 1.0496 1.2671-1.8257 1.2082-7.9115.2982-9.9061-.5952-1.3043-1.7973-1.8348-3.2087-1.5972z"/><path d="m101.268 83.6518v-13.9868h6.487c.967 0 2.936.8777 3.631 1.5938 2.024 2.0873 2.042 7.9501.47 10.2588-.729 1.0708-2.657 2.1342-3.932 2.1342zm2.864-12.9757v11.3748c0 .5069 1.386.613 1.775.5969 1.693-.0702 3.116-.7037 3.669-2.3994.631-1.9358.73-6.8147-.636-8.3976-1.072-1.242-3.295-1.1578-4.808-1.1747z"/><path d="m84.6689 69.6652c2.3162.2346 4.3604 1.3564 4.3101 3.9592-.0414 2.1467-1.4405 3.2351-3.382 3.7069l4.0431 6.3206h-2.949l-4.4648-6.9942c1.0756-.1928 2.2996-.2455 3.0314-1.1797.7695-.9823.7811-3.1643-.1594-4.0515-.7382-.6966-3.0405-1.0489-3.8839-.4975v12.7229h-2.8648v-13.9867c2.0271.1496 4.3261-.202 6.3193 0z"/><path d="m107.587 86.1797 6.488 10.9535v-10.9535h1.348v13.9863h-2.443l-6.825-11.4586v11.4586h-1.348v-13.9863z"/><path d="m81.2144 86.1797v10.8692c0 .0751.3932 1.2345.4714 1.3822.9618 1.8179 5.1655 1.4836 5.6897-.9505.0591-.2746.2424-1.4085.2424-1.6113v-9.6896h1.5167v10.8692c0 .2279-.5322 1.5576-.7013 1.8264-1.6547 2.6307-8.1834 2.4667-9.5368-.3511-.1533-.3191-.5469-1.694-.5469-1.9808v-10.3637z"/><path d="m93.7687 86.1797 1.7924 4.3585 5.0499-.0814 1.523-4.2537 1.325-.0227-4.9904 13.9966-2.4178-.018-4.5177-12.7548c-.2833-.5927-1.0267-.4509-1.5562-.6345l-.1683-.59zm6.0665 5.561c-.979.134-2.4852 0-3.5388 0-.0363 0-.1891-.2511-.2511-.1685l2.1048 5.7312 1.9359-5.7312c-.063-.0842-.2029.1619-.2508.1685z"/><path d="m94.1904 69.665v11.8803c0 .1406.2608.6143.2.8929.0123.0207.3678.2025.3898.2025h4.9712v1.0111h-8.2573v-13.9868z"/></g></svg>