<svg fill="none" height="39" viewBox="0 0 170 39" width="170" xmlns="http://www.w3.org/2000/svg" xmlns:xlink="http://www.w3.org/1999/xlink"><clipPath id="a"><path d="m.529297.248535h169.033v38.426h-169.033z"/></clipPath><g clip-path="url(#a)" fill="#000"><path d="m167.451.248535c1.133.342924 1.763.960025 2.111 2.089695v10.30917h-2.955v-10.16985h-4.786v10.16985h-2.815v-10.16985h-4.785v10.16985h-2.815v-12.398865z"/><path d="m70.7595.248535v2.229015h-12.1039v7.94085h9.4298v-2.92557h-4.7853v-1.95039h7.4594v4.94566c0 .8967-1.271 2.0884-2.194 2.147-3.2888-.2491-7.1874.3764-10.4027.0125-1.0922-.1237-2.0639-1.0688-2.1818-2.1591-.193-1.78423-.2043-6.30912.0003-8.08075.1319-1.14249.9772-1.74881 1.9705-2.159215z"/><path d="m15.448.248535v2.229015h-12.10397v7.94085h9.42987v-2.92557h-4.64458v-1.95039h7.31868v5.08496c0 .7995-1.3341 1.9959-2.1938 2.0079-3.2492-.2428-7.08407.3671-10.26246.0125-1.27656-.1424-2.179636-1.0428-2.322279-2.2986-.196812-1.7327-.177339-5.90949.002064-7.66106.13583-1.32616.863045-2.04957 2.109525-2.439605z"/><path d="m52.3231.248535v2.229015h-11.8929l-.2111.20897v7.73188h9.4298v-2.92557h-4.6445v-1.95039h7.3187v5.08496c0 .0615-.3649.8315-.4451.9526-.3988.6024-1.1582.9878-1.8768 1.0678-3.1449.3503-6.9204-.2623-10.1343 0-1.3479-.1936-2.1838-1.1068-2.3203-2.44-.1714-1.67393-.2059-6.01985.0104-7.64871.1627-1.22557.9438-1.967431 2.0991-2.310555z"/><path d="m88.0716.248535v2.089695h-10.0632l-.2111.20897v2.36833l.2111.20897h7.6706v2.0897h-7.8817v3.3435h10.2743v2.0897h-13.0892v-12.398865z"/><path d="m141.273.248535v2.089695h-10.063l-.212.20897v2.36833l.212.20897h7.67v2.0897h-7.882v3.3435h10.275v2.0897h-13.089v-12.398865z"/><path d="m111.998.248535v4.736655h9.43v-4.736655h2.815v12.398865h-2.815v-5.29389h-9.43v5.29389h-2.814v-12.398865z"/><path d="m22.3443.248535-.0072 9.689365.2183.4805h8.0928v-10.169865h2.9556l-.0338 10.484665c-.3394 1.2057-1.1779 1.8284-2.4233 1.9201-2.3506.1731-7.1551.2485-9.4362-.0055-1.3653-.152-2.1855-1.124-2.3202-2.44l-.0016-9.959265z"/><path d="m103.413.248535c.64.177786 1.97 1.196745 1.97 1.880725v10.51814h-2.815v-10.16985h-8.5852v10.16985h-2.8148v-12.398865z"/><path d="m147.465.248535h-2.955v12.398865h2.955z"/><path d="m1.27083 37.7111.71299-.1253c.28905-.0513.44952-.2471.48175-.5877.03206-.3404.04818-.7867.04818-1.3393v-8.0549c0-.5524-.01612-1.0004-.04818-1.3441-.03223-.3435-.1927-.541-.48175-.5925l-.71299-.1156c-.07708 0-.12859-.0273-.15416-.0819-.02576-.0545-.03855-.1333-.03855-.2361 0-.0964.01279-.2152.03855-.3565.42394.013.74505.0193.9635.0193.86068.0257 1.48696.0385 1.87884.0385.41098 0 1.07265-.0128 1.98482-.0385l.9346-.0193c.02558.1413.03854.2601.03854.3565 0 .1028-.01296.1798-.03854.2312-.02575.0515-.07708.0804-.15416.0868l-.71299.1156c-.30201.0578-.4673.2617-.49621.6118-.0289.3502-.04336.7917-.04336 1.3248v8.0549c0 .5333.01446.9732.04336 1.32.02891.3469.1942.5492.49621.607l.71299.1253c.07708 0 .12841.0257.15416.0771.02558.0515.03854.1286.03854.2312 0 .1093-.01296.2281-.03854.3565-.42394-.0129-.7419-.0192-.95387-.0192-.86085-.0257-1.49028-.0386-1.88847-.0386-.41115 0-1.07282.0129-1.98482.0386l-.9346.0192c-.02576-.1284-.03855-.2472-.03855-.3565 0-.1026.01279-.1782.03855-.2264.02557-.0482.07708-.0755.15416-.0819z"/><path d="m18.4211 36.873-7.1589-8.4788h-.0385l.0578 5.463c.0193 1.3875.0899 2.3333.212 2.8376.1219.5043.4206.7949.896.8719l.7998.1446c.0706 0 .1219.0274.1541.0819.0321.0546.0482.13.0482.2264 0 .0642-.0065.1317-.0193.2023l-.0385.1542-.9635-.0289c-.2057 0-.4673-.0048-.7853-.0145-.3179-.0096-.5829-.0144-.7949-.0144-.2056 0-.4625.0032-.7708.0096-.3083.0063-.57177.0129-.79005.0193l-.94424.0289c-.04502-.1478-.06745-.2665-.06745-.3565 0-.1863.07376-.2891.22161-.3083l.65519-.1253c.36613-.0514.58773-.326.66482-.8238.07708-.4977.11562-1.3022.11562-2.4136v-6.8409c0-.5651-.10765-.9956-.32278-1.2911-.2153-.2953-.54123-.4784-.97796-.5492l-.52993-.077c-.07708-.0193-.13007-.0514-.15897-.0964-.02891-.0448-.04336-.1188-.04336-.2216 0-.0899.01594-.2216.04817-.395.80935.0385 1.50623.0578 2.09081.0578 1.02132 0 1.68132-.016 1.98002-.0482.2987-.0321.4817.0016.5492.1012.0674.0996.2794.395.6359.8864s.7595.994 1.2092 1.5079l5.5691 6.6578h.0385l-.0193-4.6441c-.0257-1.3552-.1011-2.2898-.2264-2.8038-.1252-.5139-.4256-.8157-.9009-.9057l-.79-.1349c-.0771 0-.1318-.0273-.1638-.0819-.0323-.0545-.0482-.1333-.0482-.236 0-.0579.0096-.1253.0289-.2024l.0289-.1541.9539.0289c.2183 0 .488.0048.8093.0144.3211.0097.5878.0145.7997.0145.2055 0 .4608-.0032.766-.0097.305-.0063.5637-.0128.7756-.0192l.9443-.0289.0385.1541c.0128.0771.0193.1445.0193.2024 0 .1027-.0161.1798-.0482.2312-.0322.0515-.0867.0804-.1638.0867l-.6359.1156c-.3598.0515-.5846.3148-.6745.7901-.09.4755-.1348 1.2911-.1348 2.4473v5.6076c0 .8609.0159 1.6524.0481 2.3751.0321.7226.0771 1.2734.1349 1.6524-.1992.0256-.7195.0385-1.5609.0385-.1478 0-.2794-.1011-.395-.3035-.1156-.2023-.4914-.6696-1.1273-1.4019z"/><path d="m29.3855 38.4723c-.1349-.6422-.3437-1.32-.6263-2.033l-3.2374-8.5752c-.3083-.8222-.554-1.3827-.7371-1.6814-.183-.2986-.4095-.4832-.6793-.554l-.3757-.077c-.0771-.0193-.1301-.0514-.159-.0964-.0289-.0448-.0434-.1188-.0434-.2216 0-.0964.0128-.2152.0386-.3565.3018 0 .5781.0033.8286.0096l.6263.0193c.4817.0193.9442.0289 1.3874.0289.456 0 .9474-.0096 1.4742-.0289l.6841-.0193c.2633 0 .5523-.0032.8671-.0096.0256.1413.0386.2601.0386.3565 0 .1028-.0145.1768-.0434.2216-.0289.045-.0819.0771-.159.0964l-.5492.0963c-.2184.0385-.3694.0931-.4528.1638-.0836.0708-.1253.1734-.1253.3083 0 .1286.0738.4177.2216.8672.1477.4496.2472.7419.2987.8768l2.6979 7.6117h.0385l2.3509-6.9276c.1349-.424.2393-.7789.3132-1.0647.0737-.2857.1108-.5669.1108-.8431 0-.5909-.2281-.9216-.6841-.9924l-.5685-.0963c-.077-.0193-.1285-.0514-.1541-.0964-.0258-.0448-.0386-.1188-.0386-.2216 0-.0964.0128-.2152.0386-.3565.2119 0 .4384.0048.6792.0144.2409.0097.4192.0145.5348.0145.3532.0193.7226.0289 1.108.0289.3725 0 .7162-.0096 1.031-.0289.0963 0 .2568-.0048.4817-.0145.2248-.0096.4464-.0144.6648-.0144l.0386.1542c.0128.0707.0193.1382.0193.2023 0 .1028-.0145.1768-.0434.2216-.0289.045-.0819.0771-.159.0964l-.3372.077c-.2827.0578-.5203.2409-.713.5492-.1927.3084-.4273.8705-.7034 1.6862l-3.1603 8.9317c-.1349.3918-.2408.7082-.3179.949-.0771.2409-.1414.4834-.1927.7275-.0964.0514-.4755.0771-1.137.0771-.6616 0-1.0535-.0257-1.1754-.0771z"/><path d="m48.2891 38.3567c-.0515-.0193-.1847-.029-.3999-.029-.2153 0-.5219-.0033-.9201-.0096h-6.2917c-.4497 0-1.0021.0129-1.6573.0386l-.9249.0192c-.0258-.1284-.0386-.2472-.0386-.3565 0-.1026.0128-.1782.0386-.2264.0256-.0482.0771-.0755.1541-.0819l.713-.1253c.2891-.0513.4496-.2471.4818-.5877.0321-.3404.0482-.7867.0482-1.3393v-8.0549c0-.5524-.0161-1.0004-.0482-1.3441-.0322-.3435-.1927-.541-.4818-.5925l-.713-.1156c-.077 0-.1285-.0273-.1541-.0819-.0258-.0545-.0386-.1333-.0386-.2361 0-.0964.0128-.2152.0386-.3565.3146.0385 1.1497.0578 2.5051.0578h3.6324l1.9752.0096c.5716 0 .9185-.0159 1.0406-.0481.0641.0449.1075.0787.1301.1011.0224.0226.0368.0371.0433.0434.0899.8543.2216 1.7536.3951 2.6978-.0771.0322-.1575.0594-.2409.0819-.0836.0226-.1607.0337-.2313.0337-.0642 0-.1141-.0144-.1493-.0433-.0354-.0289-.0756-.0786-.1204-.1494l-.1831-.4335c-.2312-.5203-.522-.8608-.872-1.0214-.3502-.1604-.9748-.2408-1.874-.2408h-1.4742c-.1606.1734-.2408.7837-.2408 1.8306v2.9484c.0192.0515.0609.0963.1252.1348h1.2815c.6615 0 1.1529-.0465 1.4741-.1397.3212-.093.5011-.2778.5396-.554l.0771-.5299c0-.0771.0256-.1301.0771-.159.0513-.0289.1219-.0433.2119-.0433.122 0 .2472.016.3758.0481l-.0482 1.2911c0 .1992-.0033.4177-.0096.6552 0 .2313.0032.4432.0096.6359l.0482 1.3008c-.1542.0257-.2794.0385-.3758.0385-.09 0-.1589-.0145-.2071-.0434s-.0756-.0785-.0819-.1493l-.0771-.6359c-.0385-.2761-.2184-.4609-.5396-.554s-.8126-.1397-1.4741-.1397h-1.2815c-.0643.0385-.106.0867-.1252.1445v3.0158c0 .8671.0754 1.4565.2264 1.768.1508.3116.4512.4673.9009.4673h1.5223c.8479 0 1.4564-.0755 1.8258-.2264.3693-.1509.7338-.5251 1.0936-1.1225l.318-.5299c.0448-.0642.085-.1092.1204-.1349.0352-.0256.0786-.0386.1301-.0386.0321 0 .1075.0113.2264.0337.1188.0226.2072.0564.265.1012-.1607.546-.3052 1.1627-.4336 1.85-.1286.6874-.2409 1.0631-.3372 1.1273z"/><path d="m50.3238 37.904c-.045-.6487-.0915-1.2251-.1397-1.7295-.0482-.5042-.1076-.9394-.1782-1.3055.1604-.0578.2986-.0867.4143-.0867.2247 0 .3468.0819.3661.2457s.1027.4272.2505.79c.1477.363.3484.6889.6022.978.2537.289.5733.5092.9587.66.3854.1509.8382.2264 1.3585.2264.7386 0 1.3345-.1797 1.7873-.5395.4529-.3598.6793-.8768.6793-1.5513 0-.5459-.1654-1.0309-.4962-1.4549-.3309-.4239-1.055-.9346-2.1727-1.532-1.1177-.5973-1.8966-1.2076-2.3365-1.8306-.4401-.623-.66-1.3649-.66-2.2257 0-1.1818.4302-2.1405 1.2911-2.8761.8607-.7355 1.988-1.1032 3.3819-1.1032.5459 0 1.0599.0289 1.5416.0867.4818.0578.8896.1382 1.2237.2409.1219.1093.1734.1671.1541.1734-.0192.0064.0256.5653.1349 1.6765l.0867.8575c-.0322.0193-.0835.0371-.1541.053-.0708.0161-.1446.0241-.2216.0241-.2185 0-.3373-.0641-.3565-.1927-.0193-.1285-.0901-.3339-.212-.6166-.1221-.2827-.2811-.5283-.4769-.7371-.1961-.2087-.4449-.371-.7468-.4866-.302-.1156-.652-.1734-1.0502-.1734-.6552 0-1.174.1782-1.556.5347-.3823.3565-.5733.8303-.5733 1.4212 0 .4562.1525.8705.4576 1.2429.305.3726.8639.7805 1.6765 1.2237.8125.4432 1.4774.8416 1.9945 1.1947.517.3533.9409.7901 1.2718 1.3104.3308.5203.4962 1.1434.4962 1.8692 0 1.3104-.5106 2.3718-1.5319 3.1844-1.0214.8127-2.2515 1.2188-3.6903 1.2188-.8801 0-1.662-.0819-2.3461-.2457s-1.0936-.3387-1.2285-.5251z"/><path d="m68.2444 38.3567c-.8609-.0257-1.4872-.0385-1.8789-.0385-.4111 0-1.0728.0128-1.9848.0385l-.9346.0193c-.0257-.1285-.0385-.2472-.0385-.3565 0-.1027.0128-.1783.0385-.2264.0256-.0482.0771-.0755.1542-.0819l.713-.1253c.2953-.0578.4543-.2634.4769-.6166.0224-.3532.0337-.7901.0337-1.3104v-7.737c0-.6359-.0161-1.0854-.0482-1.3489-.0322-.2633-.0804-.4399-.1445-.5299h-1.0695c-.8608 0-1.4534.0674-1.7776.2023-.3245.1349-.5605.4689-.7082 1.0021l-.1349.5299c-.0322.09-.0723.1493-.1205.1783-.0481.0289-.1204.0433-.2167.0433h-.0771c-.0836 0-.196-.0128-.3372-.0385.0385-.4625.1091-1.6027.2119-3.4205.0256-.0128.1123-.0192.2602-.0192.1284 0 .2071.016.236.0481.0289.0323.0593.098.0916.1975.032.0997.0785.1672.1397.2024.0609.0353.8783.053 2.4521.053h5.4245c1.5865 0 2.412-.0177 2.4762-.053.0642-.0352.1123-.1027.1446-.2024.032-.0995.0609-.1652.0867-.1975.0256-.0321.1026-.0481.2312-.0481.1349 0 .2216.0064.2602.0192.0513 1.7666.0963 2.9066.1349 3.4205-.1414.0257-.2539.0385-.3373.0385h-.077c-.0964 0-.1687-.0144-.2168-.0433-.0482-.029-.0853-.0883-.1108-.1783l-.1446-.5299c-.1221-.5332-.3357-.8672-.6407-1.0021-.3052-.1349-.8946-.2023-1.768-.2023h-1.0406c-.0708.09-.1221.2714-.1542.5444-.0322.2731-.0481.7178-.0481 1.3344v7.737c0 .514.0144.949.0433 1.3055s.1942.5637.4962.6215l.7034.1253c.0706 0 .1219.0274.1541.0819.0321.0546.0482.13.0482.2264 0 .0642-.0065.1317-.0193.2023l-.0385.1542c-.4112-.013-.726-.0193-.9442-.0193z"/><path d="m89.4314 38.3566c-.8608-.0257-1.4806-.0385-1.8596-.0385-.4175 0-1.0888.0128-2.0137.0385l-.925.0193c-.0257-.1285-.0385-.2472-.0385-.3565 0-.1027.0144-.1783.0433-.2264.0289-.0482.0819-.0755.159-.0819l.7034-.1253c.2119-.0385.3533-.146.4239-.3228.0707-.1766.106-.4769.106-.9008 0-.1092-.0064-.3436-.0193-.7034l-.1156-7.1299h-.0385l-3.989 9.8855c-.122.0386-.3854.0578-.79.0578-.4047 0-.6713-.0192-.7997-.0578l-4.1335-9.8277h-.0385l-.0578 5.7425c0 1.0213.0385 1.7985.1156 2.3316.0771.5333.3404.8416.7901.925l.6937.1253c.0771 0 .1301.0257.159.0771.0289.0515.0433.1285.0433.2312 0 .0963-.0128.2216-.0385.3758-.3083 0-.6986-.013-1.1707-.0386-.4721-.0257-.8656-.0385-1.1802-.0385-.1992 0-.4497.0032-.7515.0096-.3021.0063-.5526.0129-.7516.0193l-.7708.0289-.0289-.1542c-.0193-.0706-.0289-.1381-.0289-.2023 0-.0964.0159-.1701.0482-.2216.032-.0514.0834-.0803.1541-.0867l.6263-.1253c.3661-.0578.5878-.379.6648-.9635.0771-.5844.1253-1.3425.1446-2.2739l.1638-6.8987c0-1.1562-.2763-1.7632-.8287-1.821l-.5395-.0578c-.0771 0-.1318-.0289-.1638-.0867-.0322-.0578-.0482-.1412-.0482-.2505 0-.0642.0096-.1316.0289-.2024l.0289-.1541c.7901.0385 1.532.0578 2.2257.0578.9185 0 1.5095-.016 1.7728-.0482.2634-.0321.4368 0 .5203.0963l.0867.2602c.3983 1.1177.6713 1.866.819 2.245l3.1603 7.708h.0385l2.958-7.708c.3661-1.0021.6552-1.837.8672-2.5052.0835-.0963.2585-.1284.5251-.0963.2665.0322.7949.0482 1.5849.0482 1.0406 0 1.805-.0193 2.2932-.0578.0257.1413.0385.2665.0385.3757 0 .1093-.0144.1879-.0433.2361s-.0819.0756-.159.0819l-.5492.0578c-.2569.0322-.4464.1782-.5685.4384-.122.2601-.183.6826-.183 1.267v.2698l.2023 8.0549c.0128.4754.0369.9042.0723 1.2863.0353.3822.2007.5959.4962.6407l.6744.1253c.0771 0 .1285.0257.1542.0771.0257.0515.0385.1285.0385.2312 0 .1093-.0128.228-.0385.3565-.424-.013-.7451-.0193-.9635-.0193z"/><path d="m101.918 38.3567c-.052-.0193-.185-.029-.4-.029s-.522-.0033-.92-.0096h-6.2917c-.4497 0-1.0021.0129-1.6572.0386l-.925.0192c-.0257-.1284-.0386-.2472-.0386-.3565 0-.1026.0129-.1782.0386-.2264.0256-.0482.0771-.0755.1541-.0819l.713-.1253c.2891-.0513.4496-.2471.4818-.5877.0321-.3404.0482-.7867.0482-1.3393v-8.0549c0-.5524-.0161-1.0004-.0482-1.3441-.0322-.3435-.1927-.541-.4818-.5925l-.713-.1156c-.077 0-.1285-.0273-.1541-.0819-.0257-.0545-.0386-.1333-.0386-.2361 0-.0964.0129-.2152.0386-.3565.3146.0385 1.1498.0578 2.5051.0578h3.6324l1.9752.0096c.5712 0 .9182-.0159 1.0402-.0481.065.0449.108.0787.13.1011.023.0226.037.0371.044.0434.09.8543.221 1.7536.395 2.6978-.077.0322-.158.0594-.241.0819-.084.0226-.161.0337-.231.0337-.064 0-.114-.0144-.15-.0433-.035-.0289-.075-.0786-.12-.1494l-.183-.4335c-.231-.5203-.522-.8608-.8721-1.0214-.3502-.1604-.9747-.2408-1.874-.2408h-1.4742c-.1605.1734-.2408.7837-.2408 1.8306v2.9484c.0192.0515.061.0963.1252.1348h1.2815c.6615 0 1.1529-.0465 1.4742-.1397.3211-.093.501-.2778.5395-.554l.0771-.5299c0-.0771.0256-.1301.0771-.159.0514-.0289.1219-.0433.2119-.0433.122 0 .2476.016.3756.0481l-.048 1.2911c0 .1992-.003.4177-.01.6552 0 .2313.004.4432.01.6359l.048 1.3008c-.154.0257-.2792.0385-.3756.0385-.09 0-.1589-.0145-.2071-.0434s-.0756-.0785-.0819-.1493l-.0771-.6359c-.0385-.2761-.2184-.4609-.5395-.554-.3213-.0931-.8127-.1397-1.4742-.1397h-1.2815c-.0642.0385-.106.0867-.1252.1445v3.0158c0 .8671.0754 1.4565.2264 1.768.1508.3116.4512.4673.9009.4673h1.5223c.8479 0 1.4565-.0755 1.8255-.2264.37-.1509.734-.5251 1.094-1.1225l.318-.5299c.045-.0642.085-.1092.12-.1349.036-.0256.079-.0386.13-.0386.033 0 .108.0113.227.0337.119.0226.207.0564.265.1012-.161.546-.305 1.1627-.434 1.85-.128.6874-.241 1.0631-.337 1.1273z"/><path d="m113.876 36.873-7.159-8.4788h-.038l.058 5.463c.019 1.3875.09 2.3333.212 2.8376.121.5043.42.7949.896.8719l.799.1446c.071 0 .122.0274.154.0819.033.0546.049.13.049.2264 0 .0642-.007.1317-.02.2023l-.038.1542-.964-.0289c-.205 0-.467-.0048-.785-.0145-.318-.0096-.583-.0144-.795-.0144-.205 0-.462.0032-.771.0096-.308.0063-.571.0129-.79.0193l-.944.0289c-.045-.1478-.067-.2665-.067-.3565 0-.1863.073-.2891.221-.3083l.655-.1253c.367-.0514.588-.326.665-.8238.077-.4977.116-1.3022.116-2.4136v-6.8409c0-.5651-.108-.9956-.323-1.2911-.215-.2953-.541-.4784-.978-.5492l-.53-.077c-.077-.0193-.13-.0514-.159-.0964-.029-.0448-.043-.1188-.043-.2216 0-.0899.016-.2216.048-.395.809.0385 1.506.0578 2.091.0578 1.021 0 1.681-.016 1.98-.0482.299-.0321.482.0016.549.1012.068.0996.279.395.636.8864.356.4914.76.994 1.209 1.5079l5.569 6.6578h.039l-.019-4.6441c-.026-1.3552-.102-2.2898-.227-2.8038-.125-.5139-.425-.8157-.901-.9057l-.79-.1349c-.077 0-.132-.0273-.164-.0819-.032-.0545-.048-.1333-.048-.236 0-.0579.01-.1253.029-.2024l.029-.1541.954.0289c.218 0 .488.0048.809.0144.321.0097.588.0145.8.0145.205 0 .461-.0032.766-.0097.305-.0063.564-.0128.776-.0192l.944-.0289.038.1541c.013.0771.02.1445.02.2024 0 .1027-.017.1798-.049.2312-.032.0515-.086.0804-.163.0867l-.636.1156c-.36.0515-.585.3148-.675.7901-.09.4755-.135 1.2911-.135 2.4473v5.6076c0 .8609.016 1.6524.049 2.3751.032.7226.077 1.2734.134 1.6524-.199.0256-.719.0385-1.56.0385-.148 0-.28-.1011-.396-.3035-.115-.2023-.491-.6696-1.127-1.4019z"/><path d="m127.278 38.3567c-.861-.0257-1.488-.0385-1.879-.0385-.411 0-1.073.0128-1.985.0385l-.935.0193c-.025-.1285-.038-.2472-.038-.3565 0-.1027.013-.1783.038-.2264.026-.0482.077-.0755.154-.0819l.713-.1253c.296-.0578.455-.2634.477-.6166.023-.3532.034-.7901.034-1.3104v-7.737c0-.6359-.016-1.0854-.048-1.3489-.032-.2633-.08-.4399-.145-.5299h-1.069c-.861 0-1.453.0674-1.778.2023-.324.1349-.56.4689-.708 1.0021l-.135.5299c-.032.09-.072.1493-.12.1783-.048.0289-.121.0433-.217.0433h-.077c-.084 0-.196-.0128-.337-.0385.038-.4625.109-1.6027.212-3.4205.025-.0128.112-.0192.26-.0192.128 0 .207.016.236.0481.029.0323.059.098.091.1975.032.0997.079.1672.14.2024.061.0353.878.053 2.452.053h5.425c1.586 0 2.412-.0177 2.476-.053.064-.0352.112-.1027.144-.2024.033-.0995.062-.1652.087-.1975.026-.0321.103-.0481.231-.0481.135 0 .222.0064.261.0192.051 1.7666.096 2.9066.134 3.4205-.141.0257-.253.0385-.337.0385h-.077c-.096 0-.168-.0144-.217-.0433-.048-.029-.085-.0883-.11-.1783l-.145-.5299c-.122-.5332-.336-.8672-.641-1.0021s-.894-.2023-1.768-.2023h-1.04c-.071.09-.122.2714-.154.5444-.033.2731-.049.7178-.049 1.3344v7.737c0 .514.015.949.044 1.3055s.194.5637.496.6215l.703.1253c.071 0 .122.0274.154.0819.033.0546.049.13.049.2264 0 .0642-.007.1317-.02.2023l-.038.1542c-.411-.013-.726-.0193-.944-.0193z"/><path d="m132.539 37.904c-.045-.6487-.092-1.2251-.14-1.7295-.048-.5042-.108-.9394-.178-1.3055.16-.0578.298-.0867.414-.0867.225 0 .347.0819.366.2457s.103.4272.251.79c.147.363.348.6889.602.978.254.289.573.5092.959.66.385.1509.838.2264 1.358.2264.739 0 1.335-.1797 1.787-.5395.453-.3598.68-.8768.68-1.5513 0-.5459-.166-1.0309-.497-1.4549-.33-.4239-1.055-.9346-2.172-1.532-1.118-.5973-1.897-1.2076-2.337-1.8306s-.66-1.3649-.66-2.2257c0-1.1818.43-2.1405 1.291-2.8761.861-.7355 1.988-1.1032 3.382-1.1032.546 0 1.06.0289 1.542.0867s.889.1382 1.224.2409c.121.1093.173.1671.154.1734-.02.0064.025.5653.135 1.6765l.086.8575c-.032.0193-.083.0371-.154.053-.071.0161-.144.0241-.221.0241-.219 0-.338-.0641-.357-.1927-.019-.1285-.09-.3339-.212-.6166s-.281-.5283-.477-.7371c-.196-.2087-.445-.371-.747-.4866s-.652-.1734-1.05-.1734c-.655 0-1.174.1782-1.556.5347s-.573.8303-.573 1.4212c0 .4562.152.8705.457 1.2429.305.3726.864.7805 1.677 1.2237s1.477.8416 1.994 1.1947c.517.3533.941.7901 1.272 1.3104s.496 1.1434.496 1.8692c0 1.3104-.51 2.3718-1.532 3.1844-1.021.8127-2.251 1.2188-3.69 1.2188-.88 0-1.662-.0819-2.346-.2457s-1.093-.3387-1.228-.5251z"/></g></svg>