<svg fill="none" height="170" viewBox="0 0 171 170" width="171" xmlns="http://www.w3.org/2000/svg" xmlns:xlink="http://www.w3.org/1999/xlink"><clipPath id="a"><path d="m.595703 0h170v170h-170z"/></clipPath><g clip-path="url(#a)"><path d="m118.673 80.9123v9.5381c0 2.2385 6.229 1.5968 6.229 0v-9.5381h2.725v9.1488c0 2.4599 6.619 2.4602 6.619 0v-9.1488h2.725v9.5381c0 .1033-.685 1.6443-.837 1.8884-1.38 2.2198-4.923 2.5668-7.269 1.9335-.896-.242-2.138-1.3006-2.607-1.3013-.455-.0006-1.327.9585-2.259 1.2474-1.72.5328-4.366.4921-5.919-.4494-.406-.2458-2.132-2.2121-2.132-2.54v-10.3167z" fill="#010101"/><path d="m66.1159 82.4695h10.5115v-6.229h2.7251v18.2977c-.5508.0658-2.7251.1039-2.7251-.584v-9.1488h-10.5115v9.1488c0 .8156-3.1145.8158-3.1145 0v-17.1297c0-.8156 3.1145-.8158 3.1145 0z" fill="#030303"/><path d="m139.696 76.2405 2.727-.002v5.0614c2.929-.4035 6.652-1.1477 9.145.7821.404.3124 1.754 1.7913 1.754 2.1394v10.3168c-.693-.0527-2.123.2521-2.556-.3645-1.561-2.2228 2.425-10.3818-3.064-10.9485-8.63-.8909-3.899 6.3023-5.335 10.6747-.32.9724-1.833.5913-2.671.6383z" fill="#040404"/><path d="m113.223 94.5381h-2.726v-9.1488c0-2.7796-8.564-3.2985-8.564.3893v8.7595h-2.7256v-9.1488c0-.641 1.0446-2.5492 1.5966-3.0751 2.176-2.0718 8.953-2.1068 11.076.1353.252.2662 1.343 2.0246 1.343 2.1612z" fill="#010101"/><g fill="#000"><path d="m23.2915 99.21c2.1539-.1217 4.9469-.5721 7.0076-1.168 2.1918-.6338 3.8998-1.6673 5.8397-2.7252 3.0144-1.6438 6.8427-4.1905 8.9541-6.6183.3839-.4414 1.1006-1.6816 1.5573-2.3358 1.661-2.3797 2.863-4.5137 3.5038-7.397.0544-.2448.3596-.5542.3893-.7786.8266-6.2551-1.3581-11.6808-7.2513-14.3555-1.8687-.8482-3.7163-.9564-5.596-1.6063h-5.4504l-5.8428 1.3595c-6.6242 1.9805-14.4084 7.7036-17.71746 13.8168-6.20123 11.4565-.6711 21.3588 12.27026 21.8084.7646.0265 1.5731.043 2.3359 0zm-3.8931-2.7252c-7.0079-2.3986-9.9361-8.8276-8.3156-15.9069 3.645-15.9238 31.4679-23.2739 35.5674-5.5053.3879 1.6815.8624 3.8705 0 5.4504-.1402 1.2167-.6947 2.7468-1.168 3.8931-.4229 1.0245-.9511 1.8149-1.5572 2.7252-2.792 4.193-5.5669 6.2401-10.1221 8.1755-1.8127.7702-3.3218 1.6466-5.4504 1.9466-1.5562.2194-4.6508.2051-6.229 0-.7923-.103-1.9361-.5085-2.7251-.7786z"/><path d="m46.6502 86.3627c-.4567.6542-1.1734 1.8944-1.5573 2.3358.4149 2.6346.484 4.8291-.3891 7.3969-.6335 1.8631-1.7691 3.3208-3.1145 4.6716-5.4723 5.495-14.2442 5.508-18.2978-1.557-.7628.043-1.5713.0265-2.3359 0 1.4442 4.516 5.3203 7.321 9.733 8.565h5.061c2.2359-.838 4.2494-1.485 6.1952-2.954 1.2219-.922 4.06-3.928 4.7055-5.2218.5488-1.0999 1.0565-3.394 1.168-4.6717.2782-3.1887-.3076-5.5708-1.1681-8.5648z"/><path d="m50.5433 78.1871c-.0297.2244-.3349.5338-.3893.7786 7.2489 4.032 5.4769 13.9864-2.3357 15.9618-.1115 1.2777-.6192 3.5718-1.168 4.6717 10.7129-2.7842 13.0984-14.9653 3.893-21.4121z"/><path d="m24.8489 85.1947c-1.046 1.3845-2.2511 2.9676-2.7252 4.6717 1.2966 3.1563 3.78 5.1753 6.2288 7.397 2.1286-.3 3.6377-1.1764 5.4504-1.9466-4.098-2.0481-9.0252-4.886-8.954-10.1221z"/><path d="m45.5555 75.5852c-7.6574-2.3747-18.159-2.5898-22.6663 5.5085-1.4029 2.5205-.7543 3.7389-1.1548 6.0475 1.1799-.356 1.9356-2.02 3.1145-3.1145-.5267-.1652-.0102-1.2935.1151-1.632 1.5202-4.1067 6.423-6.8293 10.6387-7.2743 2.3181-.2447 8.9937.043 10.8061 1.4692.409.3219.3231 3.2241.2414 3.9334.8624-1.5799.3879-3.7689 0-5.4504.154 1.213-.3549.7421-1.0947.5126z"/><path d="m37.502 96.0775c-.7258-.0969-1.5814.4975-1.3632-.7607-1.9399 1.0579-3.6479 2.0914-5.8397 2.7252 1.4848.9605 4.0734 1.8917 5.8198 2.161 1.8761.29 3.8003-.18 5.4704.564 1.3454-1.3508 2.481-2.8085 3.1145-4.6716-2.6205.5024-4.6053.3286-7.2018-.0179z"/><path d="m26.7954 82.4695v.3893c4.7481-2.4306 10.1873-3.0865 14.5896.3989 1.1445.9062 2.6116 2.31 2.54 3.8836.6061-.9103 1.1343-1.7007 1.5572-2.7252-2.8466-1.788-4.7687-3.9103-8.3746-4.278-4.0614-.4141-6.9383.1443-10.3122 2.3314z"/><path d="m22.1237 89.8664c.4741-1.7041 1.6792-3.2872 2.7252-4.6717.6205-.8213 1.3752-1.4839 1.9465-2.3359v-.3893c-.61.3954-1.4108 1.0599-1.9465 1.5572-1.1789 1.0945-1.9346 2.7585-3.1145 3.1145-.5044 2.9068-1.3177 4.8949-1.5621 7.9935-.0586.7427.438 1.566-.7739 1.3501.789.2701 1.9328.6756 2.7251.7786-.5841-2.2964-.6411-5.0921.0002-7.397z"/></g><g fill="#010101"><path d="m169.293 82.2656c-.255-.2695-2.002-1.3533-2.151-1.3533h-9.927v2.3358h9.149c.296 0 1.695 2.0222 1.362 2.3359h-9.149c-2.447 0-3.719 6.1896-1.352 7.9711 1.883 1.4175 9.928 1.4131 11.824.1643 2.12-1.3973 1.922-9.6755.244-11.4538zm-2.16 9.1521c-1.1 1.1345-7.543 1.1844-8.1-.0754-.457-1.031-.547-2.9503.791-3.3439.99-.2916 6.775-.2365 7.418.4035.699.696.564 2.3221-.109 3.0158z"/><path d="m96.4571 84.6357c-.2033-1.3175-2.013-3.7234-3.2842-3.7234h-9.9274v2.3358h9.1488c.2838 0 1.7587 1.6892 1.3626 2.3359h-9.1488c-.1246 0-1.7603 1.3205-1.9396 1.5644-1.0585 1.4396-.823 5.2308.5883 6.4052 1.8828 1.567 11.3935 1.6674 12.7912-.812.6282-1.1143.6346-6.6444.4091-8.1059zm-4.9341 7.4743c-3.1776.5634-9.2128.0597-5.747-4.1901h7.0076c.611 0 2.4048 3.5402-1.2606 4.1901z"/></g></g></svg>