<svg fill="none" height="170" viewBox="0 0 170 170" width="170" xmlns="http://www.w3.org/2000/svg"><g fill="#000"><path d="m36.6896 68.1365c.6135.5204.5389.8087.0903 1.3845-1.562 2.0051-3.8865 3.8164-5.4705 5.8558-.3373.3079-.6093.7084-1.0725.8417l-29.489938-.0267c-.470675-.3129-.501265-.8056-.130473-1.2186 1.741401-1.7522 3.340741-3.6502 5.052441-5.428.48386-.5025.97401-1.022 1.55332-1.4087z"/><path d="m168.791 87.8018v2.5492l-10.127.0911v2.3671h7.892c.045 0 .736.2885.839.3454.799.44 1.176 1.2647 1.396 2.1127-.071.8699.096 1.8805 0 2.7313-.121 1.0681-1.277 2.5494-2.418 2.5494h-10.446v-2.7314h10.127v-2.3672h-7.983c-.666 0-1.704-1.0843-1.949-1.6962-.287-.714-.28-2.9698-.154-3.771.202-1.2841 1.388-2.1735 2.647-2.2747 3.222.0821 6.459-.0971 9.679-.0005.173.0052.345-.0084.497.0948z"/><path d="m34.833 85.1022c.7355.7953 1.4565 1.6155 2.1765 2.4267.2796.5502-.0656 1.0022-.6475 1.084l-28.81249.0004c-.56443-.0768-.86569-.3966-1.24213-.7631-1.97988-1.9273-3.76282-4.2436-5.744992-6.1938-.452851-.5995-.063173-1.2589.680762-1.2326l28.63965.0136.5118.1265c1.5391 1.4243 3.0084 2.9919 4.4384 4.5383z"/><path d="m7.28946 92.8307 29.08514-.0259c.6882-.0219.9755.6892.5466 1.1918-1.4809 1.4974-2.8424 3.1138-4.2901 4.6406-.4778.5039-1.3943 1.5938-1.8694 1.9578-.1627.125-.3237.239-.5248.296l-29.268555.026c-.542509-.072-.766904-.755-.447257-1.1845 1.761222-1.7332 3.334442-3.6559 5.056612-5.4235.36253-.3721 1.27064-1.3984 1.71176-1.4783z"/><path d="m153.829 87.7108v2.7313h-9.853v2.3671h9.853v2.6402h-9.853v2.3672h9.853v2.7314h-12.59v-12.8372z"/><path d="m78.2905 87.7108v2.7313h-9.8528v2.3671h9.8528v2.6402h-9.8528v2.3672h9.8528v2.7314h-12.4529l-.1369-.137v-12.5637l.1369-.1365z"/><path d="m141.148 81.3377h-2.737v-4.1879h-8.028v4.1879h-2.737v-10.7886c0-.9382 1.04-1.9628 1.957-2.053 3.068-.3019 6.639.2302 9.76.0105.778.109 1.785 1.1888 1.785 1.9515zm-2.737-10.1968h-8.028v3.2776h8.028z"/><path d="m109.582 81.3377h-2.736v-4.1879h-8.0287v4.1879h-2.7369v-10.8796c0-.7627 1.0075-1.8425 1.7849-1.9515 3.1217.2197 6.6917-.3124 9.7607-.0105.912.0897 1.956 1.1303 1.956 2.053zm-2.736-10.1968h-8.0287v3.2776h8.0287z"/><path d="m63.2375 68.5006v2.6403h-10.2177v2.3671h7.6177c1.0017 0 2.1598.9852 2.4607 1.9144.2646.8167.2456 3.5634-.1169 4.3395-.306.6552-1.3282 1.5758-2.0701 1.5758h-10.5371v-2.7313h10.1265v-2.3671h-7.8914c-1.0154 0-2.1516-1.4387-2.2388-2.4089-.0754-.8393-.0923-3.0747.2321-3.7817.2526-.5507 1.2967-1.5481 1.9155-1.5481z"/><path d="m67.6841 68.5225c2.8148.193 6.1663-.3332 8.9189-.0221 1.1958.1351 2.1671 1.259 2.3267 2.4123-.1649 2.5328.2176 5.3335.0027 7.8336-.1193 1.3877-1.1365 2.4196-2.513 2.5906-2.6837-.172-5.6555.2319-8.3043.0041-1.3176-.1133-2.4601-1.0759-2.5957-2.417-.2603-2.5724.1855-5.5675.0069-8.1848.2629-1.0878 1.0426-1.9697 2.1578-2.2167zm8.5081 2.6184h-7.937v7.4655h7.937z"/><path d="m122.537 78.6064v-10.1058h2.646v11.6081c0 .3043-.642.9274-.942 1.0627-.517.2331-2.41.2412-3.019.1584-.731-.0994-1.123-.5959-1.437-1.2055l-4.743-8.9686-.533-.0148v10.1968h-2.737v-11.4259c0-.4598.776-1.2924 1.252-1.3905.446-.0917 2.878-.0707 3.268.066.596.2086.861.806 1.152 1.3088 1.53 2.6408 2.783 5.7268 4.382 8.2821.204.3259.249.5041.711.4282z"/><path d="m91.0627 97.9076v-10.1058h2.6457v11.517c0 .4211-.812 1.1332-1.2535 1.2072-.5305.089-2.2588.09-2.7983.014-.7822-.111-1.0929-.7924-1.4377-1.3876-1.53-2.6412-2.7816-5.7249-4.382-8.2821-.204-.3259-.2488-.5041-.7112-.4282v10.1059h-2.7369v-11.335c0-.0282.1701-.4547.2046-.5242.2026-.4068.6877-.7882 1.1401-.8652.5254-.0893 2.2626-.0897 2.7983-.0139.8692.123 1.2421 1.0007 1.6202 1.6607 1.5466 2.7006 2.8704 5.5629 4.3727 8.2912.1072.2009.3451.1475.538.146z"/><path d="m139.232 100.548h-2.965l-2.554-4.6434h-4.425v4.6434h-2.6l-.137-.137v-12.5637l.137-.1365h8.849c.453 0 1.628.5284 2.007.8193 2.54 1.9456 1.97 5.7453-.859 7.0649zm-9.944-7.3746h6.067c.507 0 1.119-.8212 1.132-1.3289.012-.4755-.569-1.4024-1.041-1.4024h-6.158z"/><path d="m113.688 87.8018v8.2394c0 .6525.858 1.5232 1.462 1.7272.724.2444 3.559.2166 4.425.1424.539-.0461 1.07-.2555 1.461-.6367.14-.1371.589-.8271.589-.9598v-8.5125h2.737v9.0588c0 1.7086-2.127 3.5474-3.783 3.6904-1.429.123-4.533.151-5.934-.003-1.47-.161-3.603-1.9716-3.603-3.5053v-9.2409z"/><path d="m53.2022 87.7108 3.5244 10.0932.5391.0187 3.5999-10.1119h2.8281l-4.0889 11.8976c-.5426 1.1756-2.4232 1.0256-3.5328.9436-.7812-.058-1.2838-.284-1.6575-.9863l-4.0404-11.8549z"/><path d="m83.9468 68.5006v10.1058h9.8072l.1369.1366v2.5947h-11.267c-.4709 0-1.414-.9465-1.414-1.4111v-11.426z"/><path d="m108.853 87.8018v2.6403h-5.109v10.1059h-2.737v-10.1059h-5.0178v-2.6403z"/></g></svg>