<svg fill="none" height="170" viewBox="0 0 170 170" width="170" xmlns="http://www.w3.org/2000/svg" xmlns:xlink="http://www.w3.org/1999/xlink"><clipPath id="a"><path d="m23.3984 45.0444h123.203v80.356h-123.203z"/></clipPath><g clip-path="url(#a)" fill="#000"><path d="m23.5589 69.7362c.5248-4.1704 3.3021-10.1672 5.8961-13.5007 9.2151-11.8426 25.7724-14.7367 38.4079-6.5117l-7.2092 7.6021c-8.4681-3.433-19.6162-1.2241-24.0663 7.2834-8.4827 16.217 7.5632 31.9814 23.896 25.1817l7.3685 6.7507c.288 1.2522-4.8339 3.4552-5.9807 3.8563-16.8261 5.891-36.1844-5.238-38.3123-23.2696-.2079-1.7615-.2199-5.6447 0-7.3922z"/><path d="m146.602 71.5843v3.6961c-1.084 7.4898-3.637 13.6231-9.22 18.7973-9.963 9.2343-23.426 10.1093-35.075 3.3693l7.681-7.8241c8.091 4.205 19.533.9797 23.806-7.147 8.669-16.4914-8.087-32.3728-24.33-25.1827l-7.147-6.9613c11.471-9.0149 29.214-5.5306 38.028 5.6491 3.202 4.0621 5.857 10.4572 6.257 15.6033z"/><path d="m95.3234 90.8963c-3.3407-3.1246-6.8376-6.1026-10.0203-9.4113l-12.9195 12.2312c-.5623.0985-6.9465-5.984-7.3347-6.7367-.4594-.8909-.1382-.905.3072-1.5537 1.4796-2.1547 11.4612-10.3952 11.6756-11.1749.2294-.8337-.1209-1.1591-.53-1.7707-1.3034-1.9491-11.7126-10.8488-11.7126-11.6763 1.9847-1.3351 4.978-5.8935 6.7613-6.8128.5914-.3049.6288-.3049 1.2202 0 2.3301 1.2011 10.5599 11.7337 12.0862 12.0044l12.9195-12.2312 7.5947 7.0396-12.2488 12.4049 12.2158 13.3832-7.1159 7.1209c-1.3251.2346-2.1461-2.1126-2.8987-2.8166z"/><path d="m143.525 109.161v16.017c-2.176.906-2.598-1.26-2.773-1.255-.893.024-1.559 1.207-3.059 1.314-8.344.596-7.78-12.557-.066-11.768 1.338.137 2.095 1.349 3.434 1.233l.006-5.544zm-3.84 7.545c-2.629-2.676-7.639 2.202-4.624 5.241 2.994 3.017 7.786-2.023 4.624-5.241z"/><path d="m57.3956 120.25h-8.613c.6308 5.114 6.4298-.11 7.3802 3.379-2.963 2.736-8.9294 1.902-10.1785-2.113-2.8841-9.271 11.9204-11.531 11.4113-1.266zm-3.1212-3.643c-2.1715-.965-5.1964-1.302-5.4887 1.791l5.537.001z"/><path d="m34.0176 109.161 2.4581-.003.0064 5.545c8.27-3.326 8.4652 2.137 8.2914 8.942-.0454 1.774-.993 2.217-2.4637.93-1.2559-1.826 1.5264-8.916-2.9679-8.501-3.7252.344-2.8272 6.456-2.8662 9.106l-2.4581-.002z"/><path d="m88.6315 113.582c7.2356-.766 8.5189 10.559 1.6325 11.572-8.4072 1.236-9.4669-10.742-1.6325-11.572zm-.0243 2.462c-.5698.082-1.707.641-1.9935 1.12-2.372 8.58 8.6679 6.562 4.257-.563-.71-.435-1.4135-.679-2.2635-.557z"/><path d="m118.301 124.254-.928.918c-1.668.657-1.579-1.257-1.847-1.258-1.648-.006-2.444 2.215-5.682.799-3.559-1.557-2.478-7.479-2.614-10.626h2.455c-1.557 11.236 7.405 12.047 5.537-.001l3.079.003z"/><path d="m119.532 114.089 2.069-.003.692 1.236c7.858-5.583 9.062 3.778 8.31 9.858h-2.455c-.184-3.202 1.008-7.226-2.277-9.164-4.782.02-3.825 5.699-3.881 9.164l-2.458-.002z"/><path d="m72.1603 123.946c-11.3771 7.252-14.3841-15.284-.271-9.26l-.3534 1.859c-8.5597-2.824-8.9218 8.405-.3811 5.605 1.0656.276.7742 1.23 1.0055 1.796 1.054-.672 3.4888-3.521 3.489-4.621.0001-1.149-3.5768-4.64-2.8709-5.232 3.4238-1.571 3.8085 2.857 4.6178 3.08 1.4066.388 1.5178-2.522 2.2764-2.951.7459-.423 2.0515-.03 2.9433-.129l-2.8708 5.232 3.486 5.849c-2.9718.594-4.1862-1.053-4.9303-3.688-1.3085-1.088-2.0245 3.069-3.4782 3.586-.7987.285-1.8114.086-2.6639.102-.0953-.378.1102-.963.0016-1.228z"/><path d="m100.46 116.553-2.1822-.575-.2827-1.886 2.4679-.001c-1.1396-4.228 4.688-7.193 6.761-3.399-.263 1.33-5.193-.491-4.3 3.394h3.377c1.259 2.419-1.387 2.719-3.38 2.467v8.625h-2.461z"/><path d="m29.7082 111.006-.0008 3.087 3.0834-.001v1.843l-3.0834-.001.2665 6.21c7.935 2.046-.6669 4.848-2.4174 1.187-.8493-1.776.0546-4.454-.3823-6.395l-2.3773-1.019.0003-1.807c2.3364.109 2.5824-.953 2.4907-3.07z"/></g></svg>