<svg width="474" height="35" viewBox="0 0 474 35" fill="none" xmlns="http://www.w3.org/2000/svg">
<g clip-path="url(#clip0_793_841)">
<path d="M20.7343 14.7302V20.4209H34.0672V28.6043H7.60428V6.39568H41.494V0H7.14802C5.25225 0 3.43412 0.748109 2.09361 2.07975C0.753093 3.4114 1.39996e-10 5.21749 1.39994e-10 7.10072L1.39996e-10 27.8741C-1.18499e-05 29.7597 0.752271 31.5683 2.09206 32.904C3.43185 34.2396 5.24992 34.9933 7.14802 35H34.3206C36.2231 35 38.0477 34.2492 39.393 32.9129C40.7382 31.5765 41.494 29.764 41.494 27.8741V14.7302H20.7343Z" fill="black"/>
<path d="M84.2041 0V28.4281H60.9603V0H52.5449V27.8741C52.5449 29.7597 53.2972 31.5683 54.637 32.904C55.9768 34.2396 57.7948 34.9933 59.6929 35H85.4715C87.3696 34.9933 89.1876 34.2396 90.5274 32.904C91.8672 31.5683 92.6195 29.7597 92.6195 27.8741V0H84.2041Z" fill="black"/>
<path d="M124.203 14.7302V20.4209H137.536V28.6043H111.225V6.39568H145.039V0H110.693C109.754 0 108.825 0.183666 107.958 0.54051C107.09 0.897355 106.302 1.42039 105.639 2.07975C104.975 2.73912 104.448 3.52189 104.089 4.38339C103.73 5.24489 103.545 6.16824 103.545 7.10072V27.8741C103.545 29.7597 104.297 31.5683 105.637 32.904C106.977 34.2396 108.795 34.9933 110.693 35H137.866C139.768 35 141.593 34.2492 142.938 32.9129C144.283 31.5765 145.039 29.764 145.039 27.8741V14.7302H124.203Z" fill="black"/>
<path d="M175.912 14.7302V20.4209H189.245V28.6043H162.858V6.39568H196.672V0H162.224C160.328 0 158.51 0.748109 157.17 2.07975C155.829 3.4114 155.076 5.21749 155.076 7.10072V27.8741C155.076 29.7597 155.828 31.5683 157.168 32.904C158.508 34.2396 160.326 34.9933 162.224 35H189.498C191.401 35 193.225 34.2492 194.571 32.9129C195.916 31.5765 196.672 29.764 196.672 27.8741V14.7302H175.912Z" fill="black"/>
<path d="M245.238 5.99281V0H208.51V35H245.238V29.0072H216.672V19.4892H238.648V13.4964H216.672V5.99281H245.238Z" fill="black"/>
<path d="M286.884 0H253.932V35H262.043V6.26978H285.895V35H294.032V7.10072C294.032 5.21749 293.278 3.4114 291.938 2.07975C290.597 0.748109 288.779 0 286.884 0Z" fill="black"/>
<path d="M338.795 0V13.446H312.611V0H304.449V35H312.611V19.8921H338.795V35H346.957V0H338.795Z" fill="black"/>
<path d="M394.586 5.99281V0H357.857V35H394.586V29.0072H366.019V19.4892H387.996V13.4964H366.019V5.99281H394.586Z" fill="black"/>
<path d="M411.974 0H403.812V35H411.974V0Z" fill="black"/>
<path d="M466.853 0H422.799V35H430.91V6.26978H444.268V35H452.43V6.26978H465.788V35H474.001V7.10072C474.001 5.21749 473.248 3.4114 471.907 2.07975C470.567 0.748109 468.749 0 466.853 0Z" fill="black"/>
</g>
<defs>
<clipPath id="clip0_793_841">
<rect width="474" height="35" fill="white"/>
</clipPath>
</defs>
</svg>
