<svg fill="none" height="170" viewBox="0 0 171 170" width="171" xmlns="http://www.w3.org/2000/svg"><g fill="#000"><path d="m41.665 72.7415c.3346.5109.1275.8516-.171 1.2771-.4295.6121-3.6596 3.9897-4.2522 4.4298-.2023.1503-.3668.3429-.6352.3864l-21.4264.0459c-.5182.0584-1.1157-.2817-.8469-.8583l5.0283-5.2809z"/><path d="m14.4242 97.2582c-.0772-.2839-.2295-.5378-.0915-.8443.0571-.1268 1.6003-1.7537 1.8768-2.0524.6893-.745 1.9568-2.2053 2.6541-2.7941.1918-.162.4388-.2526.6638-.3576l22.099.0315.3144.4831-5.043 5.5338z"/><path d="m116.918 72.7415c.44.1947 1.191.9784 1.191 1.4471v8.0871h-2.043v-3.0646h-5.959v3.0646h-2.043v-8.2573c0-.426.834-1.0634 1.192-1.2769zm-.852 2.043h-5.959v2.3836h5.959z"/><path d="m118.28 97.2582h-2.043v-3.0646h-5.959v3.0646h-2.043c.221-2.495-.297-5.4876-.004-7.9208.102-.8482.558-1.5142 1.447-1.6172 1.606-.1861 5.35-.1536 6.992-.0044.891.0809 1.455.533 1.599 1.4662.368 2.3857-.251 5.5992.011 8.0762zm-2.043-7.6615h-5.959v2.5538h5.959z"/><path d="m59.8822 72.7415v2.043h-7.4912v1.7026h5.7036c.4183 0 1.4871.809 1.6589 1.2354.2412.5987.2122 2.8428-.0294 3.4587-.1413.3605-.9864 1.0945-1.289 1.0945h-8.0871v-1.8728h7.4061c.4846-.449.1786-1.2643.2553-1.8728h-6.044c-2.0379 0-2.3851-5.3073-.0851-5.7886z"/><path d="m93.4225 72.7415c.2359.2051 1.0215.828 1.0215 1.1066v8.4276h-1.8728v-3.0646h-6.1292v3.0646h-1.8728v-8.4276c0-.2786.7856-.9015 1.0216-1.1066zm-.8513 2.043h-6.1292v2.3836h6.1292z"/><path d="m99.5517 72.7415 4.5953 7.6614.002-7.6614h2.043c-.228 2.6069.304 5.7165.003 8.2612-.208 1.764-2.608 1.5513-3.753.8509l-3.5944-6.7907-.658-.2784v7.4912h-2.043v-8.4276c0-.1876.6031-.9712.8512-1.1066z"/><path d="m96.4871 97.2582v-9.5343h7.5759c.771 0 1.998 1.2636 2.263 1.994.315.8691.314 3.5721.215 4.5699-.152 1.529-1.154 2.5341-2.563 2.9704zm2.043-2.0431h5.0229c1.196 0 1.034-3.3626.94-4.175-.068-.5861-.748-1.4434-1.281-1.4434h-4.6819z"/><path d="m70.0975 72.7415c.7688.3928 1.3278.7224 1.4933 1.6569.1927 1.088.1809 4.9492.043 6.0936-.0931.772-.5948 1.5056-1.3611 1.7035-.8253.2132-6.1177.2204-7.0608.0705-1.0557-.1678-1.5301-1.3397-1.6252-2.2906-.1211-1.2116-.164-5.4849.4297-6.3768.2917-.4383.7547-.518 1.1007-.8571zm-.5107 2.043h-5.9589v5.6184h5.9589z"/><path d="m143.818 97.2582h-6.98c-.769-.3929-1.328-.7225-1.494-1.657-.192-1.088-.181-4.9492-.043-6.0935.093-.772.595-1.5057 1.361-1.7036.826-.2132 6.118-.2204 7.061-.0705 1.056.1678 1.53 1.3397 1.625 2.2907.121 1.2115.164 5.4848-.429 6.3768-.292.4382-.755.5179-1.101.8571zm-.511-7.6615h-5.959v5.6184h5.959z"/><path d="m62.9468 97.2582c-.8435-.4055-1.3878-1.0211-1.5172-1.973-.156-1.1477-.1583-4.4486-.0189-5.6073.0967-.8044.8092-1.8137 1.631-1.9443.864-.1373 6.3566-.1343 7.0625.0684.8012.2301 1.265 1.0816 1.3556 1.8796.1214 1.0688.158 4.9521-.0392 5.9201-.151.741-.849 1.3375-1.4933 1.6565zm6.4697-7.6615h-5.9589v5.6184h5.9589z"/><path d="m147.053 97.2582c.23-2.663-.308-5.8301-.003-8.4308.163-1.3906 1.879-1.257 2.991-1.1122.77.1002 1.104.9787 1.468 1.5969 1.081 1.8402 1.977 3.9235 3.022 5.7979l.524.1051v-7.4912l1.873-.0009.009 8.4374-.69 1.0978h-2.554c-1-.6893-3.921-7.533-4.341-7.6654-.085-.0267-.439-.0598-.429.1011l.003 7.5643z"/><path d="m84.9097 97.2582c.2302-2.663-.3082-5.8301-.0031-8.4308.1631-1.3906 1.8789-1.257 2.9912-1.1122.7703.1002 1.1045.9787 1.4678 1.5969 1.0815 1.8402 1.9769 3.9235 3.0224 5.7979l.5237.1051v-7.4912l1.8737-.0009.008 8.4374-.6899 1.0978h-2.5538c-.9994-.6893-3.9211-7.533-4.3412-7.6654-.0849-.0267-.4391-.0598-.4284.1011l.0024 7.5643z"/><path d="m50.348 97.2582v-9.5343h9.364v1.8728h-7.321v1.8728h7.321v2.0431h-7.321v3.7456z"/><path d="m75.716 97.2582c-.9597-.3541-2.5539-1.5017-2.5539-2.639v-6.8953h2.0431v6.5548c0 1.1964 3.698 1.0361 4.5156.9403.4857-.057 1.4433-.6486 1.4433-1.1105v-6.3846h2.0431v6.5548c0 .0606-.3184 1.0051-.384 1.1484-.4625 1.0095-1.2177 1.3894-2.1698 1.8311z"/><path d="m123.728 97.2582v-7.6615h-3.746v-1.8728h9.535v1.8728h-3.746v7.6615z"/><path d="m75.3755 72.7415v7.6614h7.4912v1.8728h-8.5979c-.5469 0-.8831-.9783-.9363-1.4473-.2848-2.5125.2113-5.5202-.0001-8.0869z"/><path d="m131.389 97.2582-.001-9.5352 1.946-.0021.098 9.5373z"/><path d="m14.7147 81.9702 21.8919.0009c1.9789 1.3033 3.2527 3.452 5.0668 4.9769l.143.838-.5688.2866-21.7651-.044-.809-.5531-4.3398-4.6925c-.2111-.348.0377-.6787.381-.8128z"/></g></svg>