<svg xmlns="http://www.w3.org/2000/svg" width="1441" height="682" fill="none"><g opacity=".4"><path stroke="url(#a)" stroke-width=".612" d="M26.163 10.766H-6.865v33.028m33.028-33.028v33.028m0-33.028H59.19M26.163 43.794H-6.865m33.028 0v33.028m0-33.028H59.19m-66.056 0v33.028m33.028 0H-6.865m33.028 0v33.028m0-33.028H59.19m-66.056 0v33.028m33.028 0H-6.865m33.028 0v33.028m0-33.028H59.19m-66.056 0v33.028m33.028 0H-6.865m33.028 0v33.028m0-33.028H59.19m-66.056 0v33.028m33.028 0H-6.865m33.028 0v33.028m0-33.028H59.19m-66.056 0v33.028m33.028 0H-6.865m33.028 0v33.028m0-33.028H59.19m-66.056 0v33.028m33.028 0H-6.865m33.028 0v33.028m0-33.028H59.19m-66.056 0v33.028m33.028 0H-6.865m33.028 0v33.028m0-33.028H59.19m-66.056 0v33.028m33.028 0H-6.865m33.028 0v33.028m0-33.028H59.19m-66.056 0v33.028m33.028 0H-6.865m33.028 0v33.028m0-33.028H59.19m-66.056 0v33.028m33.028 0H-6.865m33.028 0v33.028m0-33.028H59.19m-66.056 0v33.028m33.028 0H-6.865m33.028 0v33.028m0-33.028H59.19m-66.056 0v33.028m33.028 0H-6.865m33.028 0v33.028m0-33.028H59.19m-66.056 0v33.028m33.028 0H-6.865m33.028 0v33.028m0-33.028H59.19m-66.056 0v33.028m33.028 0H-6.865m33.028 0v33.028m0-33.028H59.19m-66.056 0v33.028m33.028 0H-6.865m33.028 0v33.028m0-33.028H59.19m-66.056 0v33.028m33.028 0H-6.865m33.028 0v33.028m0-33.028H59.19m-66.056 0v33.028m33.028 0H-6.865m33.028 0v33.028m0-33.028H59.19m-66.056 0v33.028m33.028 0H-6.865m33.028 0v33.028m0-33.028H59.19m-66.056 0v33.028h33.028m0 0H59.19m0-660.56v33.028m0-33.028h33.028M59.19 43.794v33.028m0-33.028h33.028M59.19 76.822v33.028m0-33.028h33.028M59.19 109.85v33.028m0-33.028h33.028M59.19 142.878v33.028m0-33.028h33.028M59.19 175.906v33.028m0-33.028h33.028M59.19 208.934v33.028m0-33.028h33.028M59.19 241.962v33.028m0-33.028h33.028M59.19 274.99v33.028m0-33.028h33.028M59.19 308.018v33.028m0-33.028h33.028M59.19 341.046v33.028m0-33.028h33.028M59.19 374.074v33.028m0-33.028h33.028M59.19 407.102v33.028m0-33.028h33.028M59.19 440.13v33.028m0-33.028h33.028M59.19 473.158v33.028m0-33.028h33.028M59.19 506.186v33.028m0-33.028h33.028M59.19 539.214v33.028m0-33.028h33.028M59.19 572.242v33.028m0-33.028h33.028M59.19 605.27v33.028m0-33.028h33.028M59.19 638.298v33.028m0-33.028h33.028M59.19 671.326h33.028m0-660.56v33.028m0-33.028h33.028M92.219 43.794v33.028m0-33.028h33.028M92.219 76.822v33.028m0-33.028h33.028M92.219 109.85v33.028m0-33.028h33.028m-33.028 33.028v33.028m0-33.028h33.028m-33.028 33.028v33.028m0-33.028h33.028m-33.028 33.028v33.028m0-33.028h33.028m-33.028 33.028v33.028m0-33.028h33.028M92.219 274.99v33.028m0-33.028h33.028m-33.028 33.028v33.028m0-33.028h33.028m-33.028 33.028v33.028m0-33.028h33.028m-33.028 33.028v33.028m0-33.028h33.028m-33.028 33.028v33.028m0-33.028h33.028M92.219 440.13v33.028m0-33.028h33.028m-33.028 33.028v33.028m0-33.028h33.028m-33.028 33.028v33.028m0-33.028h33.028m-33.028 33.028v33.028m0-33.028h33.028m-33.028 33.028v33.028m0-33.028h33.028M92.219 605.27v33.028m0-33.028h33.028m-33.028 33.028v33.028m0-33.028h33.028m-33.028 33.028h33.028m0-660.56v33.028m0-33.028h33.028m-33.028 33.028v33.028m0-33.028h33.028m-33.028 33.028v33.028m0-33.028h33.028m-33.028 33.028v33.028m0-33.028h33.028m-33.028 33.028v33.028m0-33.028h33.028m-33.028 33.028v33.028m0-33.028h33.028m-33.028 33.028v33.028m0-33.028h33.028m-33.028 33.028v33.028m0-33.028h33.028m-33.028 33.028v33.028m0-33.028h33.028m-33.028 33.028v33.028m0-33.028h33.028m-33.028 33.028v33.028m0-33.028h33.028m-33.028 33.028v33.028m0-33.028h33.028m-33.028 33.028v33.028m0-33.028h33.028m-33.028 33.028v33.028m0-33.028h33.028m-33.028 33.028v33.028m0-33.028h33.028m-33.028 33.028v33.028m0-33.028h33.028m-33.028 33.028v33.028m0-33.028h33.028m-33.028 33.028v33.028m0-33.028h33.028m-33.028 33.028v33.028m0-33.028h33.028m-33.028 33.028v33.028m0-33.028h33.028m-33.028 33.028h33.028m0-660.56v33.028m0-33.028h33.028m-33.028 33.028v33.028m0-33.028h33.028m-33.028 33.028v33.028m0-33.028h33.028m-33.028 33.028v33.028m0-33.028h33.028m-33.028 33.028v33.028m0-33.028h33.028m-33.028 33.028v33.028m0-33.028h33.028m-33.028 33.028v33.028m0-33.028h33.028m-33.028 33.028v33.028m0-33.028h33.028m-33.028 33.028v33.028m0-33.028h33.028m-33.028 33.028v33.028m0-33.028h33.028m-33.028 33.028v33.028m0-33.028h33.028m-33.028 33.028v33.028m0-33.028h33.028m-33.028 33.028v33.028m0-33.028h33.028m-33.028 33.028v33.028m0-33.028h33.028m-33.028 33.028v33.028m0-33.028h33.028m-33.028 33.028v33.028m0-33.028h33.028m-33.028 33.028v33.028m0-33.028h33.028m-33.028 33.028v33.028m0-33.028h33.028m-33.028 33.028v33.028m0-33.028h33.028m-33.028 33.028v33.028m0-33.028h33.028m-33.028 33.028h33.028m0-660.56v33.028m0-33.028h33.028m-33.028 33.028v33.028m0-33.028h33.028m-33.028 33.028v33.028m0-33.028h33.028m-33.028 33.028v33.028m0-33.028h33.028m-33.028 33.028v33.028m0-33.028h33.028m-33.028 33.028v33.028m0-33.028h33.028m-33.028 33.028v33.028m0-33.028h33.028m-33.028 33.028v33.028m0-33.028h33.028m-33.028 33.028v33.028m0-33.028h33.028m-33.028 33.028v33.028m0-33.028h33.028m-33.028 33.028v33.028m0-33.028h33.028m-33.028 33.028v33.028m0-33.028h33.028m-33.028 33.028v33.028m0-33.028h33.028m-33.028 33.028v33.028m0-33.028h33.028m-33.028 33.028v33.028m0-33.028h33.028m-33.028 33.028v33.028m0-33.028h33.028m-33.028 33.028v33.028m0-33.028h33.028m-33.028 33.028v33.028m0-33.028h33.028m-33.028 33.028v33.028m0-33.028h33.028m-33.028 33.028v33.028m0-33.028h33.028m-33.028 33.028h33.028m0-660.56v33.028m0-33.028h33.028m-33.028 33.028v33.028m0-33.028h33.028m-33.028 33.028v33.028m0-33.028h33.028m-33.028 33.028v33.028m0-33.028h33.028m-33.028 33.028v33.028m0-33.028h33.028m-33.028 33.028v33.028m0-33.028h33.028m-33.028 33.028v33.028m0-33.028h33.028m-33.028 33.028v33.028m0-33.028h33.028m-33.028 33.028v33.028m0-33.028h33.028m-33.028 33.028v33.028m0-33.028h33.028m-33.028 33.028v33.028m0-33.028h33.028m-33.028 33.028v33.028m0-33.028h33.028m-33.028 33.028v33.028m0-33.028h33.028m-33.028 33.028v33.028m0-33.028h33.028m-33.028 33.028v33.028m0-33.028h33.028m-33.028 33.028v33.028m0-33.028h33.028m-33.028 33.028v33.028m0-33.028h33.028m-33.028 33.028v33.028m0-33.028h33.028m-33.028 33.028v33.028m0-33.028h33.028m-33.028 33.028v33.028m0-33.028h33.028m-33.028 33.028h33.028m0-660.56v33.028m0-33.028h33.028m-33.028 33.028v33.028m0-33.028h33.028m-33.028 33.028v33.028m0-33.028h33.028m-33.028 33.028v33.028m0-33.028h33.028m-33.028 33.028v33.028m0-33.028h33.028m-33.028 33.028v33.028m0-33.028h33.028m-33.028 33.028v33.028m0-33.028h33.028m-33.028 33.028v33.028m0-33.028h33.028m-33.028 33.028v33.028m0-33.028h33.028m-33.028 33.028v33.028m0-33.028h33.028m-33.028 33.028v33.028m0-33.028h33.028m-33.028 33.028v33.028m0-33.028h33.028m-33.028 33.028v33.028m0-33.028h33.028m-33.028 33.028v33.028m0-33.028h33.028m-33.028 33.028v33.028m0-33.028h33.028m-33.028 33.028v33.028m0-33.028h33.028m-33.028 33.028v33.028m0-33.028h33.028m-33.028 33.028v33.028m0-33.028h33.028m-33.028 33.028v33.028m0-33.028h33.028m-33.028 33.028v33.028m0-33.028h33.028m-33.028 33.028h33.028m0-660.56v33.028m0-33.028h33.028m-33.028 33.028v33.028m0-33.028h33.028m-33.028 33.028v33.028m0-33.028h33.028m-33.028 33.028v33.028m0-33.028h33.028m-33.028 33.028v33.028m0-33.028h33.028m-33.028 33.028v33.028m0-33.028h33.028m-33.028 33.028v33.028m0-33.028h33.028m-33.028 33.028v33.028m0-33.028h33.028m-33.028 33.028v33.028m0-33.028h33.028m-33.028 33.028v33.028m0-33.028h33.028m-33.028 33.028v33.028m0-33.028h33.028m-33.028 33.028v33.028m0-33.028h33.028m-33.028 33.028v33.028m0-33.028h33.028m-33.028 33.028v33.028m0-33.028h33.028m-33.028 33.028v33.028m0-33.028h33.028m-33.028 33.028v33.028m0-33.028h33.028m-33.028 33.028v33.028m0-33.028h33.028m-33.028 33.028v33.028m0-33.028h33.028m-33.028 33.028v33.028m0-33.028h33.028m-33.028 33.028v33.028m0-33.028h33.028m-33.028 33.028h33.028m0-660.56v33.028m0-33.028h33.028m-33.028 33.028v33.028m0-33.028h33.028m-33.028 33.028v33.028m0-33.028h33.028m-33.028 33.028v33.028m0-33.028h33.028m-33.028 33.028v33.028m0-33.028h33.028m-33.028 33.028v33.028m0-33.028h33.028m-33.028 33.028v33.028m0-33.028h33.028m-33.028 33.028v33.028m0-33.028h33.028m-33.028 33.028v33.028m0-33.028h33.028m-33.028 33.028v33.028m0-33.028h33.028m-33.028 33.028v33.028m0-33.028h33.028m-33.028 33.028v33.028m0-33.028h33.028m-33.028 33.028v33.028m0-33.028h33.028m-33.028 33.028v33.028m0-33.028h33.028m-33.028 33.028v33.028m0-33.028h33.028m-33.028 33.028v33.028m0-33.028h33.028m-33.028 33.028v33.028m0-33.028h33.028m-33.028 33.028v33.028m0-33.028h33.028m-33.028 33.028v33.028m0-33.028h33.028m-33.028 33.028v33.028m0-33.028h33.028m-33.028 33.028h33.028m0-660.56v33.028m0-33.028h33.028m-33.028 33.028v33.028m0-33.028h33.028m-33.028 33.028v33.028m0-33.028h33.028m-33.028 33.028v33.028m0-33.028h33.028m-33.028 33.028v33.028m0-33.028h33.028m-33.028 33.028v33.028m0-33.028h33.028m-33.028 33.028v33.028m0-33.028h33.028m-33.028 33.028v33.028m0-33.028h33.028m-33.028 33.028v33.028m0-33.028h33.028m-33.028 33.028v33.028m0-33.028h33.028m-33.028 33.028v33.028m0-33.028h33.028m-33.028 33.028v33.028m0-33.028h33.028m-33.028 33.028v33.028m0-33.028h33.028m-33.028 33.028v33.028m0-33.028h33.028m-33.028 33.028v33.028m0-33.028h33.028m-33.028 33.028v33.028m0-33.028h33.028m-33.028 33.028v33.028m0-33.028h33.028m-33.028 33.028v33.028m0-33.028h33.028m-33.028 33.028v33.028m0-33.028h33.028m-33.028 33.028v33.028m0-33.028h33.028m-33.028 33.028h33.028m0-660.56v33.028m0-33.028h33.028m-33.028 33.028v33.028m0-33.028h33.028m-33.028 33.028v33.028m0-33.028h33.028m-33.028 33.028v33.028m0-33.028h33.028m-33.028 33.028v33.028m0-33.028h33.028m-33.028 33.028v33.028m0-33.028h33.028m-33.028 33.028v33.028m0-33.028h33.028m-33.028 33.028v33.028m0-33.028h33.028m-33.028 33.028v33.028m0-33.028h33.028m-33.028 33.028v33.028m0-33.028h33.028m-33.028 33.028v33.028m0-33.028h33.028m-33.028 33.028v33.028m0-33.028h33.028m-33.028 33.028v33.028m0-33.028h33.028m-33.028 33.028v33.028m0-33.028h33.028m-33.028 33.028v33.028m0-33.028h33.028m-33.028 33.028v33.028m0-33.028h33.028m-33.028 33.028v33.028m0-33.028h33.028m-33.028 33.028v33.028m0-33.028h33.028m-33.028 33.028v33.028m0-33.028h33.028m-33.028 33.028v33.028m0-33.028h33.028m-33.028 33.028h33.028m0-660.56v33.028m0-33.028h33.028m-33.028 33.028v33.028m0-33.028h33.028m-33.028 33.028v33.028m0-33.028h33.028m-33.028 33.028v33.028m0-33.028h33.028m-33.028 33.028v33.028m0-33.028h33.028m-33.028 33.028v33.028m0-33.028h33.028m-33.028 33.028v33.028m0-33.028h33.028m-33.028 33.028v33.028m0-33.028h33.028m-33.028 33.028v33.028m0-33.028h33.028m-33.028 33.028v33.028m0-33.028h33.028m-33.028 33.028v33.028m0-33.028h33.028m-33.028 33.028v33.028m0-33.028h33.028m-33.028 33.028v33.028m0-33.028h33.028m-33.028 33.028v33.028m0-33.028h33.028m-33.028 33.028v33.028m0-33.028h33.028m-33.028 33.028v33.028m0-33.028h33.028m-33.028 33.028v33.028m0-33.028h33.028m-33.028 33.028v33.028m0-33.028h33.028m-33.028 33.028v33.028m0-33.028h33.028m-33.028 33.028v33.028m0-33.028h33.028m-33.028 33.028h33.028m0-660.56v33.028m0-33.028h33.028m-33.028 33.028v33.028m0-33.028h33.028m-33.028 33.028v33.028m0-33.028h33.028m-33.028 33.028v33.028m0-33.028h33.028m-33.028 33.028v33.028m0-33.028h33.028m-33.028 33.028v33.028m0-33.028h33.028m-33.028 33.028v33.028m0-33.028h33.028m-33.028 33.028v33.028m0-33.028h33.028m-33.028 33.028v33.028m0-33.028h33.028m-33.028 33.028v33.028m0-33.028h33.028m-33.028 33.028v33.028m0-33.028h33.028m-33.028 33.028v33.028m0-33.028h33.028m-33.028 33.028v33.028m0-33.028h33.028m-33.028 33.028v33.028m0-33.028h33.028m-33.028 33.028v33.028m0-33.028h33.028m-33.028 33.028v33.028m0-33.028h33.028m-33.028 33.028v33.028m0-33.028h33.028m-33.028 33.028v33.028m0-33.028h33.028m-33.028 33.028v33.028m0-33.028h33.028m-33.028 33.028v33.028m0-33.028h33.028m-33.028 33.028h33.028m0-660.56v33.028m0-33.028h33.028m-33.028 33.028v33.028m0-33.028h33.028m-33.028 33.028v33.028m0-33.028h33.028m-33.028 33.028v33.028m0-33.028h33.028m-33.028 33.028v33.028m0-33.028h33.028m-33.028 33.028v33.028m0-33.028h33.028m-33.028 33.028v33.028m0-33.028h33.028m-33.028 33.028v33.028m0-33.028h33.028m-33.028 33.028v33.028m0-33.028h33.028m-33.028 33.028v33.028m0-33.028h33.028m-33.028 33.028v33.028m0-33.028h33.028m-33.028 33.028v33.028m0-33.028h33.028m-33.028 33.028v33.028m0-33.028h33.028m-33.028 33.028v33.028m0-33.028h33.028m-33.028 33.028v33.028m0-33.028h33.028m-33.028 33.028v33.028m0-33.028h33.028m-33.028 33.028v33.028m0-33.028h33.028m-33.028 33.028v33.028m0-33.028h33.028m-33.028 33.028v33.028m0-33.028h33.028m-33.028 33.028v33.028m0-33.028h33.028m-33.028 33.028h33.028m0-660.56v33.028m0-33.028h33.028m-33.028 33.028v33.028m0-33.028h33.028m-33.028 33.028v33.028m0-33.028h33.028m-33.028 33.028v33.028m0-33.028h33.028m-33.028 33.028v33.028m0-33.028h33.028m-33.028 33.028v33.028m0-33.028h33.028m-33.028 33.028v33.028m0-33.028h33.028m-33.028 33.028v33.028m0-33.028h33.028m-33.028 33.028v33.028m0-33.028h33.028m-33.028 33.028v33.028m0-33.028h33.028m-33.028 33.028v33.028m0-33.028h33.028m-33.028 33.028v33.028m0-33.028h33.028m-33.028 33.028v33.028m0-33.028h33.028m-33.028 33.028v33.028m0-33.028h33.028m-33.028 33.028v33.028m0-33.028h33.028m-33.028 33.028v33.028m0-33.028h33.028m-33.028 33.028v33.028m0-33.028h33.028m-33.028 33.028v33.028m0-33.028h33.028m-33.028 33.028v33.028m0-33.028h33.028m-33.028 33.028v33.028m0-33.028h33.028m-33.028 33.028h33.028m0-660.56v33.028m0-33.028h33.028m-33.028 33.028v33.028m0-33.028h33.028m-33.028 33.028v33.028m0-33.028h33.028m-33.028 33.028v33.028m0-33.028h33.028m-33.028 33.028v33.028m0-33.028h33.028m-33.028 33.028v33.028m0-33.028h33.028m-33.028 33.028v33.028m0-33.028h33.028m-33.028 33.028v33.028m0-33.028h33.028m-33.028 33.028v33.028m0-33.028h33.028m-33.028 33.028v33.028m0-33.028h33.028m-33.028 33.028v33.028m0-33.028h33.028m-33.028 33.028v33.028m0-33.028h33.028m-33.028 33.028v33.028m0-33.028h33.028m-33.028 33.028v33.028m0-33.028h33.028m-33.028 33.028v33.028m0-33.028h33.028m-33.028 33.028v33.028m0-33.028h33.028m-33.028 33.028v33.028m0-33.028h33.028m-33.028 33.028v33.028m0-33.028h33.028m-33.028 33.028v33.028m0-33.028h33.028m-33.028 33.028v33.028m0-33.028h33.028m-33.028 33.028h33.028m0-660.56v33.028m0-33.028h33.028m-33.028 33.028v33.028m0-33.028h33.028m-33.028 33.028v33.028m0-33.028h33.028m-33.028 33.028v33.028m0-33.028h33.028m-33.028 33.028v33.028m0-33.028h33.028m-33.028 33.028v33.028m0-33.028h33.028m-33.028 33.028v33.028m0-33.028h33.028m-33.028 33.028v33.028m0-33.028h33.028m-33.028 33.028v33.028m0-33.028h33.028m-33.028 33.028v33.028m0-33.028h33.028m-33.028 33.028v33.028m0-33.028h33.028m-33.028 33.028v33.028m0-33.028h33.028m-33.028 33.028v33.028m0-33.028h33.028m-33.028 33.028v33.028m0-33.028h33.028m-33.028 33.028v33.028m0-33.028h33.028m-33.028 33.028v33.028m0-33.028h33.028m-33.028 33.028v33.028m0-33.028h33.028m-33.028 33.028v33.028m0-33.028h33.028m-33.028 33.028v33.028m0-33.028h33.028m-33.028 33.028v33.028m0-33.028h33.028m-33.028 33.028h33.028m0-660.56v33.028m0-33.028h33.028m-33.028 33.028v33.028m0-33.028h33.028m-33.028 33.028v33.028m0-33.028h33.028m-33.028 33.028v33.028m0-33.028h33.028m-33.028 33.028v33.028m0-33.028h33.028m-33.028 33.028v33.028m0-33.028h33.028m-33.028 33.028v33.028m0-33.028h33.028m-33.028 33.028v33.028m0-33.028h33.028m-33.028 33.028v33.028m0-33.028h33.028m-33.028 33.028v33.028m0-33.028h33.028m-33.028 33.028v33.028m0-33.028h33.028m-33.028 33.028v33.028m0-33.028h33.028m-33.028 33.028v33.028m0-33.028h33.028m-33.028 33.028v33.028m0-33.028h33.028m-33.028 33.028v33.028m0-33.028h33.028m-33.028 33.028v33.028m0-33.028h33.028m-33.028 33.028v33.028m0-33.028h33.028m-33.028 33.028v33.028m0-33.028h33.028m-33.028 33.028v33.028m0-33.028h33.028m-33.028 33.028v33.028m0-33.028h33.028m-33.028 33.028h33.028m0-660.56v33.028m0-33.028h33.028m-33.028 33.028v33.028m0-33.028h33.028m-33.028 33.028v33.028m0-33.028h33.028m-33.028 33.028v33.028m0-33.028h33.028m-33.028 33.028v33.028m0-33.028h33.028m-33.028 33.028v33.028m0-33.028h33.028m-33.028 33.028v33.028m0-33.028h33.028m-33.028 33.028v33.028m0-33.028h33.028m-33.028 33.028v33.028m0-33.028h33.028m-33.028 33.028v33.028m0-33.028h33.028m-33.028 33.028v33.028m0-33.028h33.028m-33.028 33.028v33.028m0-33.028h33.028m-33.028 33.028v33.028m0-33.028h33.028m-33.028 33.028v33.028m0-33.028h33.028m-33.028 33.028v33.028m0-33.028h33.028m-33.028 33.028v33.028m0-33.028h33.028m-33.028 33.028v33.028m0-33.028h33.028m-33.028 33.028v33.028m0-33.028h33.028m-33.028 33.028v33.028m0-33.028h33.028m-33.028 33.028v33.028m0-33.028h33.028m-33.028 33.028h33.028m0-660.56v33.028m0-33.028h33.028m-33.028 33.028v33.028m0-33.028h33.028m-33.028 33.028v33.028m0-33.028h33.028m-33.028 33.028v33.028m0-33.028h33.028m-33.028 33.028v33.028m0-33.028h33.028m-33.028 33.028v33.028m0-33.028h33.028m-33.028 33.028v33.028m0-33.028h33.028m-33.028 33.028v33.028m0-33.028h33.028m-33.028 33.028v33.028m0-33.028h33.028m-33.028 33.028v33.028m0-33.028h33.028m-33.028 33.028v33.028m0-33.028h33.028m-33.028 33.028v33.028m0-33.028h33.028m-33.028 33.028v33.028m0-33.028h33.028m-33.028 33.028v33.028m0-33.028h33.028m-33.028 33.028v33.028m0-33.028h33.028m-33.028 33.028v33.028m0-33.028h33.028m-33.028 33.028v33.028m0-33.028h33.028m-33.028 33.028v33.028m0-33.028h33.028m-33.028 33.028v33.028m0-33.028h33.028m-33.028 33.028v33.028m0-33.028h33.028m-33.028 33.028h33.028m0-660.56v33.028m0-33.028h33.028m-33.028 33.028v33.028m0-33.028h33.028m-33.028 33.028v33.028m0-33.028h33.028m-33.028 33.028v33.028m0-33.028h33.028m-33.028 33.028v33.028m0-33.028h33.028m-33.028 33.028v33.028m0-33.028h33.028m-33.028 33.028v33.028m0-33.028h33.028m-33.028 33.028v33.028m0-33.028h33.028m-33.028 33.028v33.028m0-33.028h33.028m-33.028 33.028v33.028m0-33.028h33.028m-33.028 33.028v33.028m0-33.028h33.028m-33.028 33.028v33.028m0-33.028h33.028m-33.028 33.028v33.028m0-33.028h33.028m-33.028 33.028v33.028m0-33.028h33.028m-33.028 33.028v33.028m0-33.028h33.028m-33.028 33.028v33.028m0-33.028h33.028m-33.028 33.028v33.028m0-33.028h33.028m-33.028 33.028v33.028m0-33.028h33.028m-33.028 33.028v33.028m0-33.028h33.028m-33.028 33.028v33.028m0-33.028h33.028m-33.028 33.028h33.028m0-660.56v33.028m0-33.028h33.028m-33.028 33.028v33.028m0-33.028h33.028m-33.028 33.028v33.028m0-33.028h33.028m-33.028 33.028v33.028m0-33.028h33.028m-33.028 33.028v33.028m0-33.028h33.028m-33.028 33.028v33.028m0-33.028h33.028m-33.028 33.028v33.028m0-33.028h33.028m-33.028 33.028v33.028m0-33.028h33.028m-33.028 33.028v33.028m0-33.028h33.028m-33.028 33.028v33.028m0-33.028h33.028m-33.028 33.028v33.028m0-33.028h33.028m-33.028 33.028v33.028m0-33.028h33.028m-33.028 33.028v33.028m0-33.028h33.028m-33.028 33.028v33.028m0-33.028h33.028m-33.028 33.028v33.028m0-33.028h33.028m-33.028 33.028v33.028m0-33.028h33.028m-33.028 33.028v33.028m0-33.028h33.028m-33.028 33.028v33.028m0-33.028h33.028m-33.028 33.028v33.028m0-33.028h33.028m-33.028 33.028v33.028m0-33.028h33.028m-33.028 33.028h33.028m0-660.56v33.028m0-33.028h33.028m-33.028 33.028v33.028m0-33.028h33.028m-33.028 33.028v33.028m0-33.028h33.028m-33.028 33.028v33.028m0-33.028h33.028m-33.028 33.028v33.028m0-33.028h33.028m-33.028 33.028v33.028m0-33.028h33.028m-33.028 33.028v33.028m0-33.028h33.028m-33.028 33.028v33.028m0-33.028h33.028m-33.028 33.028v33.028m0-33.028h33.028m-33.028 33.028v33.028m0-33.028h33.028m-33.028 33.028v33.028m0-33.028h33.028m-33.028 33.028v33.028m0-33.028h33.028m-33.028 33.028v33.028m0-33.028h33.028m-33.028 33.028v33.028m0-33.028h33.028m-33.028 33.028v33.028m0-33.028h33.028m-33.028 33.028v33.028m0-33.028h33.028m-33.028 33.028v33.028m0-33.028h33.028m-33.028 33.028v33.028m0-33.028h33.028m-33.028 33.028v33.028m0-33.028h33.028m-33.028 33.028v33.028m0-33.028h33.028m-33.028 33.028h33.028m0-660.56v33.028m0-33.028h33.028m-33.028 33.028v33.028m0-33.028h33.028m-33.028 33.028v33.028m0-33.028h33.028m-33.028 33.028v33.028m0-33.028h33.028m-33.028 33.028v33.028m0-33.028h33.028m-33.028 33.028v33.028m0-33.028h33.028m-33.028 33.028v33.028m0-33.028h33.028m-33.028 33.028v33.028m0-33.028h33.028m-33.028 33.028v33.028m0-33.028h33.028m-33.028 33.028v33.028m0-33.028h33.028m-33.028 33.028v33.028m0-33.028h33.028m-33.028 33.028v33.028m0-33.028h33.028m-33.028 33.028v33.028m0-33.028h33.028m-33.028 33.028v33.028m0-33.028h33.028m-33.028 33.028v33.028m0-33.028h33.028m-33.028 33.028v33.028m0-33.028h33.028m-33.028 33.028v33.028m0-33.028h33.028m-33.028 33.028v33.028m0-33.028h33.028m-33.028 33.028v33.028m0-33.028h33.028m-33.028 33.028v33.028m0-33.028h33.028m-33.028 33.028h33.028m0-660.56v33.028m0-33.028h33.028m-33.028 33.028v33.028m0-33.028h33.028m-33.028 33.028v33.028m0-33.028h33.028m-33.028 33.028v33.028m0-33.028h33.028m-33.028 33.028v33.028m0-33.028h33.028m-33.028 33.028v33.028m0-33.028h33.028m-33.028 33.028v33.028m0-33.028h33.028m-33.028 33.028v33.028m0-33.028h33.028m-33.028 33.028v33.028m0-33.028h33.028m-33.028 33.028v33.028m0-33.028h33.028m-33.028 33.028v33.028m0-33.028h33.028m-33.028 33.028v33.028m0-33.028h33.028m-33.028 33.028v33.028m0-33.028h33.028m-33.028 33.028v33.028m0-33.028h33.028m-33.028 33.028v33.028m0-33.028h33.028m-33.028 33.028v33.028m0-33.028h33.028m-33.028 33.028v33.028m0-33.028h33.028m-33.028 33.028v33.028m0-33.028h33.028m-33.028 33.028v33.028m0-33.028h33.028m-33.028 33.028v33.028m0-33.028h33.028m-33.028 33.028h33.028m0-660.56v33.028m0-33.028h33.028m-33.028 33.028v33.028m0-33.028h33.028m-33.028 33.028v33.028m0-33.028h33.028m-33.028 33.028v33.028m0-33.028h33.028m-33.028 33.028v33.028m0-33.028h33.028m-33.028 33.028v33.028m0-33.028h33.028m-33.028 33.028v33.028m0-33.028h33.028m-33.028 33.028v33.028m0-33.028h33.028m-33.028 33.028v33.028m0-33.028h33.028m-33.028 33.028v33.028m0-33.028h33.028m-33.028 33.028v33.028m0-33.028h33.028m-33.028 33.028v33.028m0-33.028h33.028m-33.028 33.028v33.028m0-33.028h33.028m-33.028 33.028v33.028m0-33.028h33.028m-33.028 33.028v33.028m0-33.028h33.028m-33.028 33.028v33.028m0-33.028h33.028m-33.028 33.028v33.028m0-33.028h33.028m-33.028 33.028v33.028m0-33.028h33.028m-33.028 33.028v33.028m0-33.028h33.028m-33.028 33.028v33.028m0-33.028h33.028m-33.028 33.028h33.028m0-660.56v33.028m0-33.028h33.028m-33.028 33.028v33.028m0-33.028h33.028m-33.028 33.028v33.028m0-33.028h33.028m-33.028 33.028v33.028m0-33.028h33.028m-33.028 33.028v33.028m0-33.028h33.028m-33.028 33.028v33.028m0-33.028h33.028m-33.028 33.028v33.028m0-33.028h33.028m-33.028 33.028v33.028m0-33.028h33.028m-33.028 33.028v33.028m0-33.028h33.028m-33.028 33.028v33.028m0-33.028h33.028m-33.028 33.028v33.028m0-33.028h33.028m-33.028 33.028v33.028m0-33.028h33.028m-33.028 33.028v33.028m0-33.028h33.028m-33.028 33.028v33.028m0-33.028h33.028m-33.028 33.028v33.028m0-33.028h33.028m-33.028 33.028v33.028m0-33.028h33.028m-33.028 33.028v33.028m0-33.028h33.028m-33.028 33.028v33.028m0-33.028h33.028m-33.028 33.028v33.028m0-33.028h33.028m-33.028 33.028v33.028m0-33.028h33.028m-33.028 33.028h33.028m0-660.56v33.028m0-33.028h33.028m-33.028 33.028v33.028m0-33.028h33.028m-33.028 33.028v33.028m0-33.028h33.028m-33.028 33.028v33.028m0-33.028h33.028m-33.028 33.028v33.028m0-33.028h33.028m-33.028 33.028v33.028m0-33.028h33.028m-33.028 33.028v33.028m0-33.028h33.028m-33.028 33.028v33.028m0-33.028h33.028m-33.028 33.028v33.028m0-33.028h33.028m-33.028 33.028v33.028m0-33.028h33.028m-33.028 33.028v33.028m0-33.028h33.028m-33.028 33.028v33.028m0-33.028h33.028m-33.028 33.028v33.028m0-33.028h33.028m-33.028 33.028v33.028m0-33.028h33.028m-33.028 33.028v33.028m0-33.028h33.028m-33.028 33.028v33.028m0-33.028h33.028m-33.028 33.028v33.028m0-33.028h33.028m-33.028 33.028v33.028m0-33.028h33.028m-33.028 33.028v33.028m0-33.028h33.028m-33.028 33.028v33.028m0-33.028h33.028m-33.028 33.028h33.028m0-660.56v33.028m0-33.028H1017m-33.025 33.028v33.028m0-33.028H1017m-33.025 33.028v33.028m0-33.028H1017m-33.025 33.028v33.028m0-33.028H1017m-33.025 33.028v33.028m0-33.028H1017m-33.025 33.028v33.028m0-33.028H1017m-33.025 33.028v33.028m0-33.028H1017m-33.025 33.028v33.028m0-33.028H1017m-33.025 33.028v33.028m0-33.028H1017m-33.025 33.028v33.028m0-33.028H1017m-33.025 33.028v33.028m0-33.028H1017m-33.025 33.028v33.028m0-33.028H1017m-33.025 33.028v33.028m0-33.028H1017m-33.025 33.028v33.028m0-33.028H1017m-33.025 33.028v33.028m0-33.028H1017m-33.025 33.028v33.028m0-33.028H1017m-33.025 33.028v33.028m0-33.028H1017m-33.025 33.028v33.028m0-33.028H1017m-33.025 33.028v33.028m0-33.028H1017m-33.025 33.028v33.028m0-33.028H1017m-33.025 33.028H1017m0-660.56v33.028m0-33.028h33.03M1017 43.794v33.028m0-33.028h33.03M1017 76.822v33.028m0-33.028h33.03M1017 109.85v33.028m0-33.028h33.03M1017 142.878v33.028m0-33.028h33.03M1017 175.906v33.028m0-33.028h33.03M1017 208.934v33.028m0-33.028h33.03M1017 241.962v33.028m0-33.028h33.03M1017 274.99v33.028m0-33.028h33.03M1017 308.018v33.028m0-33.028h33.03M1017 341.046v33.028m0-33.028h33.03M1017 374.074v33.028m0-33.028h33.03M1017 407.102v33.028m0-33.028h33.03M1017 440.13v33.028m0-33.028h33.03M1017 473.158v33.028m0-33.028h33.03M1017 506.186v33.028m0-33.028h33.03M1017 539.214v33.028m0-33.028h33.03M1017 572.242v33.028m0-33.028h33.03M1017 605.27v33.028m0-33.028h33.03M1017 638.298v33.028m0-33.028h33.03M1017 671.326h33.03m0-660.56v33.028m0-33.028h33.03m-33.03 33.028v33.028m0-33.028h33.03m-33.03 33.028v33.028m0-33.028h33.03m-33.03 33.028v33.028m0-33.028h33.03m-33.03 33.028v33.028m0-33.028h33.03m-33.03 33.028v33.028m0-33.028h33.03m-33.03 33.028v33.028m0-33.028h33.03m-33.03 33.028v33.028m0-33.028h33.03m-33.03 33.028v33.028m0-33.028h33.03m-33.03 33.028v33.028m0-33.028h33.03m-33.03 33.028v33.028m0-33.028h33.03m-33.03 33.028v33.028m0-33.028h33.03m-33.03 33.028v33.028m0-33.028h33.03m-33.03 33.028v33.028m0-33.028h33.03m-33.03 33.028v33.028m0-33.028h33.03m-33.03 33.028v33.028m0-33.028h33.03m-33.03 33.028v33.028m0-33.028h33.03m-33.03 33.028v33.028m0-33.028h33.03m-33.03 33.028v33.028m0-33.028h33.03m-33.03 33.028v33.028m0-33.028h33.03m-33.03 33.028h33.03m0-660.56v33.028m0-33.028h33.03m-33.03 33.028v33.028m0-33.028h33.03m-33.03 33.028v33.028m0-33.028h33.03m-33.03 33.028v33.028m0-33.028h33.03m-33.03 33.028v33.028m0-33.028h33.03m-33.03 33.028v33.028m0-33.028h33.03m-33.03 33.028v33.028m0-33.028h33.03m-33.03 33.028v33.028m0-33.028h33.03m-33.03 33.028v33.028m0-33.028h33.03m-33.03 33.028v33.028m0-33.028h33.03m-33.03 33.028v33.028m0-33.028h33.03m-33.03 33.028v33.028m0-33.028h33.03m-33.03 33.028v33.028m0-33.028h33.03m-33.03 33.028v33.028m0-33.028h33.03m-33.03 33.028v33.028m0-33.028h33.03m-33.03 33.028v33.028m0-33.028h33.03m-33.03 33.028v33.028m0-33.028h33.03m-33.03 33.028v33.028m0-33.028h33.03m-33.03 33.028v33.028m0-33.028h33.03m-33.03 33.028v33.028m0-33.028h33.03m-33.03 33.028h33.03m0-660.56v33.028m0-33.028h33.02m-33.02 33.028v33.028m0-33.028h33.02m-33.02 33.028v33.028m0-33.028h33.02m-33.02 33.028v33.028m0-33.028h33.02m-33.02 33.028v33.028m0-33.028h33.02m-33.02 33.028v33.028m0-33.028h33.02m-33.02 33.028v33.028m0-33.028h33.02m-33.02 33.028v33.028m0-33.028h33.02m-33.02 33.028v33.028m0-33.028h33.02m-33.02 33.028v33.028m0-33.028h33.02m-33.02 33.028v33.028m0-33.028h33.02m-33.02 33.028v33.028m0-33.028h33.02m-33.02 33.028v33.028m0-33.028h33.02m-33.02 33.028v33.028m0-33.028h33.02m-33.02 33.028v33.028m0-33.028h33.02m-33.02 33.028v33.028m0-33.028h33.02m-33.02 33.028v33.028m0-33.028h33.02m-33.02 33.028v33.028m0-33.028h33.02m-33.02 33.028v33.028m0-33.028h33.02m-33.02 33.028v33.028m0-33.028h33.02m-33.02 33.028h33.02m0-660.56v33.028m0-33.028h33.03m-33.03 33.028v33.028m0-33.028h33.03m-33.03 33.028v33.028m0-33.028h33.03m-33.03 33.028v33.028m0-33.028h33.03m-33.03 33.028v33.028m0-33.028h33.03m-33.03 33.028v33.028m0-33.028h33.03m-33.03 33.028v33.028m0-33.028h33.03m-33.03 33.028v33.028m0-33.028h33.03m-33.03 33.028v33.028m0-33.028h33.03m-33.03 33.028v33.028m0-33.028h33.03m-33.03 33.028v33.028m0-33.028h33.03m-33.03 33.028v33.028m0-33.028h33.03m-33.03 33.028v33.028m0-33.028h33.03m-33.03 33.028v33.028m0-33.028h33.03m-33.03 33.028v33.028m0-33.028h33.03m-33.03 33.028v33.028m0-33.028h33.03m-33.03 33.028v33.028m0-33.028h33.03m-33.03 33.028v33.028m0-33.028h33.03m-33.03 33.028v33.028m0-33.028h33.03m-33.03 33.028v33.028m0-33.028h33.03m-33.03 33.028h33.03m0-660.56v33.028m0-33.028h33.03m-33.03 33.028v33.028m0-33.028h33.03m-33.03 33.028v33.028m0-33.028h33.03m-33.03 33.028v33.028m0-33.028h33.03m-33.03 33.028v33.028m0-33.028h33.03m-33.03 33.028v33.028m0-33.028h33.03m-33.03 33.028v33.028m0-33.028h33.03m-33.03 33.028v33.028m0-33.028h33.03m-33.03 33.028v33.028m0-33.028h33.03m-33.03 33.028v33.028m0-33.028h33.03m-33.03 33.028v33.028m0-33.028h33.03m-33.03 33.028v33.028m0-33.028h33.03m-33.03 33.028v33.028m0-33.028h33.03m-33.03 33.028v33.028m0-33.028h33.03m-33.03 33.028v33.028m0-33.028h33.03m-33.03 33.028v33.028m0-33.028h33.03m-33.03 33.028v33.028m0-33.028h33.03m-33.03 33.028v33.028m0-33.028h33.03m-33.03 33.028v33.028m0-33.028h33.03m-33.03 33.028v33.028m0-33.028h33.03m-33.03 33.028h33.03m0-660.56v33.028m0-33.028h33.03m-33.03 33.028v33.028m0-33.028h33.03m-33.03 33.028v33.028m0-33.028h33.03m-33.03 33.028v33.028m0-33.028h33.03m-33.03 33.028v33.028m0-33.028h33.03m-33.03 33.028v33.028m0-33.028h33.03m-33.03 33.028v33.028m0-33.028h33.03m-33.03 33.028v33.028m0-33.028h33.03m-33.03 33.028v33.028m0-33.028h33.03m-33.03 33.028v33.028m0-33.028h33.03m-33.03 33.028v33.028m0-33.028h33.03m-33.03 33.028v33.028m0-33.028h33.03m-33.03 33.028v33.028m0-33.028h33.03m-33.03 33.028v33.028m0-33.028h33.03m-33.03 33.028v33.028m0-33.028h33.03m-33.03 33.028v33.028m0-33.028h33.03m-33.03 33.028v33.028m0-33.028h33.03m-33.03 33.028v33.028m0-33.028h33.03m-33.03 33.028v33.028m0-33.028h33.03m-33.03 33.028v33.028m0-33.028h33.03m-33.03 33.028h33.03m0-660.56v33.028m0-33.028h33.03m-33.03 33.028v33.028m0-33.028h33.03m-33.03 33.028v33.028m0-33.028h33.03m-33.03 33.028v33.028m0-33.028h33.03m-33.03 33.028v33.028m0-33.028h33.03m-33.03 33.028v33.028m0-33.028h33.03m-33.03 33.028v33.028m0-33.028h33.03m-33.03 33.028v33.028m0-33.028h33.03m-33.03 33.028v33.028m0-33.028h33.03m-33.03 33.028v33.028m0-33.028h33.03m-33.03 33.028v33.028m0-33.028h33.03m-33.03 33.028v33.028m0-33.028h33.03m-33.03 33.028v33.028m0-33.028h33.03m-33.03 33.028v33.028m0-33.028h33.03m-33.03 33.028v33.028m0-33.028h33.03m-33.03 33.028v33.028m0-33.028h33.03m-33.03 33.028v33.028m0-33.028h33.03m-33.03 33.028v33.028m0-33.028h33.03m-33.03 33.028v33.028m0-33.028h33.03m-33.03 33.028v33.028m0-33.028h33.03m-33.03 33.028h33.03m0-660.56v33.028m0-33.028h33.02m-33.02 33.028v33.028m0-33.028h33.02m-33.02 33.028v33.028m0-33.028h33.02m-33.02 33.028v33.028m0-33.028h33.02m-33.02 33.028v33.028m0-33.028h33.02m-33.02 33.028v33.028m0-33.028h33.02m-33.02 33.028v33.028m0-33.028h33.02m-33.02 33.028v33.028m0-33.028h33.02m-33.02 33.028v33.028m0-33.028h33.02m-33.02 33.028v33.028m0-33.028h33.02m-33.02 33.028v33.028m0-33.028h33.02m-33.02 33.028v33.028m0-33.028h33.02m-33.02 33.028v33.028m0-33.028h33.02m-33.02 33.028v33.028m0-33.028h33.02m-33.02 33.028v33.028m0-33.028h33.02m-33.02 33.028v33.028m0-33.028h33.02m-33.02 33.028v33.028m0-33.028h33.02m-33.02 33.028v33.028m0-33.028h33.02m-33.02 33.028v33.028m0-33.028h33.02m-33.02 33.028v33.028m0-33.028h33.02m-33.02 33.028h33.02m0-660.56v33.028m0-33.028h33.03m-33.03 33.028v33.028m0-33.028h33.03m-33.03 33.028v33.028m0-33.028h33.03m-33.03 33.028v33.028m0-33.028h33.03m-33.03 33.028v33.028m0-33.028h33.03m-33.03 33.028v33.028m0-33.028h33.03m-33.03 33.028v33.028m0-33.028h33.03m-33.03 33.028v33.028m0-33.028h33.03m-33.03 33.028v33.028m0-33.028h33.03m-33.03 33.028v33.028m0-33.028h33.03m-33.03 33.028v33.028m0-33.028h33.03m-33.03 33.028v33.028m0-33.028h33.03m-33.03 33.028v33.028m0-33.028h33.03m-33.03 33.028v33.028m0-33.028h33.03m-33.03 33.028v33.028m0-33.028h33.03m-33.03 33.028v33.028m0-33.028h33.03m-33.03 33.028v33.028m0-33.028h33.03m-33.03 33.028v33.028m0-33.028h33.03m-33.03 33.028v33.028m0-33.028h33.03m-33.03 33.028v33.028m0-33.028h33.03m-33.03 33.028h33.03m0-660.56v33.028m0-33.028h33.03m-33.03 33.028v33.028m0-33.028h33.03m-33.03 33.028v33.028m0-33.028h33.03m-33.03 33.028v33.028m0-33.028h33.03m-33.03 33.028v33.028m0-33.028h33.03m-33.03 33.028v33.028m0-33.028h33.03m-33.03 33.028v33.028m0-33.028h33.03m-33.03 33.028v33.028m0-33.028h33.03m-33.03 33.028v33.028m0-33.028h33.03m-33.03 33.028v33.028m0-33.028h33.03m-33.03 33.028v33.028m0-33.028h33.03m-33.03 33.028v33.028m0-33.028h33.03m-33.03 33.028v33.028m0-33.028h33.03m-33.03 33.028v33.028m0-33.028h33.03m-33.03 33.028v33.028m0-33.028h33.03m-33.03 33.028v33.028m0-33.028h33.03m-33.03 33.028v33.028m0-33.028h33.03m-33.03 33.028v33.028m0-33.028h33.03m-33.03 33.028v33.028m0-33.028h33.03m-33.03 33.028v33.028m0-33.028h33.03m-33.03 33.028h33.03m0-660.56v33.028m0-33.028h33.03m-33.03 33.028v33.028m0-33.028h33.03m-33.03 33.028v33.028m0-33.028h33.03m-33.03 33.028v33.028m0-33.028h33.03m-33.03 33.028v33.028m0-33.028h33.03m-33.03 33.028v33.028m0-33.028h33.03m-33.03 33.028v33.028m0-33.028h33.03m-33.03 33.028v33.028m0-33.028h33.03m-33.03 33.028v33.028m0-33.028h33.03m-33.03 33.028v33.028m0-33.028h33.03m-33.03 33.028v33.028m0-33.028h33.03m-33.03 33.028v33.028m0-33.028h33.03m-33.03 33.028v33.028m0-33.028h33.03m-33.03 33.028v33.028m0-33.028h33.03m-33.03 33.028v33.028m0-33.028h33.03m-33.03 33.028v33.028m0-33.028h33.03m-33.03 33.028v33.028m0-33.028h33.03m-33.03 33.028v33.028m0-33.028h33.03m-33.03 33.028v33.028m0-33.028h33.03m-33.03 33.028v33.028m0-33.028h33.03m-33.03 33.028h33.03m0-660.56v33.028m0-33.028h33.03v33.028m-33.03 0v33.028m0-33.028h33.03m-33.03 33.028v33.028m0-33.028h33.03m-33.03 33.028v33.028m0-33.028h33.03m-33.03 33.028v33.028m0-33.028h33.03m-33.03 33.028v33.028m0-33.028h33.03m-33.03 33.028v33.028m0-33.028h33.03m-33.03 33.028v33.028m0-33.028h33.03m-33.03 33.028v33.028m0-33.028h33.03m-33.03 33.028v33.028m0-33.028h33.03m-33.03 33.028v33.028m0-33.028h33.03m-33.03 33.028v33.028m0-33.028h33.03m-33.03 33.028v33.028m0-33.028h33.03m-33.03 33.028v33.028m0-33.028h33.03m-33.03 33.028v33.028m0-33.028h33.03m-33.03 33.028v33.028m0-33.028h33.03m-33.03 33.028v33.028m0-33.028h33.03m-33.03 33.028v33.028m0-33.028h33.03m-33.03 33.028v33.028m0-33.028h33.03m-33.03 33.028v33.028m0-33.028h33.03m-33.03 33.028h33.03v-33.028m0-594.504v33.028m0 0v33.028m0 0v33.028m0 0v33.028m0 0v33.028m0 0v33.028m0 0v33.028m0 0v33.028m0 0v33.028m0 0v33.028m0 0v33.028m0 0v33.028m0 0v33.028m0 0v33.028m0 0v33.028m0 0v33.028m0 0v33.028m0 0v33.028"/><path stroke="url(#b)" stroke-width="1.224" d="M125.245 132.969v9.908m0 0v9.909m0-9.909h-9.908m9.908 0h9.908m-9.908 254.316v9.908m0 0v9.909m0-9.909h-9.908m9.908 0h9.908m-9.908 254.316v9.908m0 0v9.909m0-9.909h-9.908m9.908 0h9.908m254.316-538.356v9.908m0 0v9.909m0-9.909h-9.908m9.908 0h9.909m-9.909 254.316v9.908m0 0v9.909m0-9.909h-9.908m9.908 0h9.909m-9.909 254.316v9.908m0 0v9.909m0-9.909h-9.908m9.908 0h9.909m254.315-538.356v9.908m0 0v9.909m0-9.909h-9.908m9.908 0h9.909m-9.909 254.316v9.908m0 0v9.909m0-9.909h-9.908m9.908 0h9.909m-9.909 254.316v9.908m0 0v9.909m0-9.909h-9.908m9.908 0h9.909m254.315-538.356v9.908m0 0v9.909m0-9.909h-9.908m9.908 0h9.909m-9.909 254.316v9.908m0 0v9.909m0-9.909h-9.908m9.908 0h9.909m-9.909 254.316v9.908m0 0v9.909m0-9.909h-9.908m9.908 0h9.909m254.314-538.356v9.908m0 0v9.909m0-9.909h-9.91m9.91 0h9.91m-9.91 254.316v9.908m0 0v9.909m0-9.909h-9.91m9.91 0h9.91m-9.91 254.316v9.908m0 0v9.909m0-9.909h-9.91m9.91 0h9.91m254.32-538.356v9.908m0 0v9.909m0-9.909h-9.91m9.91 0h9.9m-9.9 254.316v9.908m0 0v9.909m0-9.909h-9.91m9.91 0h9.9m-9.9 254.316v9.908m0 0v9.909m0-9.909h-9.91m9.91 0h9.9M125.245.857v9.908m0 0v9.909m0-9.909h-9.908m9.908 0h9.908m-9.908 254.316v9.908m0 0v9.909m0-9.909h-9.908m9.908 0h9.908m-9.908 254.316v9.908m0 0v9.909m0-9.909h-9.908m9.908 0h9.908M389.469.857v9.908m0 0v9.909m0-9.909h-9.908m9.908 0h9.909m-9.909 254.316v9.908m0 0v9.909m0-9.909h-9.908m9.908 0h9.909m-9.909 254.316v9.908m0 0v9.909m0-9.909h-9.908m9.908 0h9.909M653.693.857v9.908m0 0v9.909m0-9.909h-9.908m9.908 0h9.909m-9.909 254.316v9.908m0 0v9.909m0-9.909h-9.908m9.908 0h9.909m-9.909 254.316v9.908m0 0v9.909m0-9.909h-9.908m9.908 0h9.909M917.917.857v9.908m0 0v9.909m0-9.909h-9.908m9.908 0h9.909m-9.909 254.316v9.908m0 0v9.909m0-9.909h-9.908m9.908 0h9.909m-9.909 254.316v9.908m0 0v9.909m0-9.909h-9.908m9.908 0h9.909M1182.14.857v9.908m0 0v9.909m0-9.909h-9.91m9.91 0h9.91m-9.91 254.316v9.908m0 0v9.909m0-9.909h-9.91m9.91 0h9.91m-9.91 254.316v9.908m0 0v9.909m0-9.909h-9.91m9.91 0h9.91M1446.37.857v9.908m0 0v9.909m0-9.909h-9.91m9.91 0h9.9m-9.9 254.316v9.908m0 0v9.909m0-9.909h-9.91m9.91 0h9.9m-9.9 254.316v9.908m0 0v9.909m0-9.909h-9.91m9.91 0h9.9M-6.867 132.969v9.908m0 0v9.909m0-9.909h-9.908m9.908 0h9.908m-9.908 254.316v9.908m0 0v9.909m0-9.909h-9.908m9.908 0h9.908m-9.908 254.316v9.908m0 0v9.909m0-9.909h-9.908m9.908 0h9.908m254.316-538.356v9.908m0 0v9.909m0-9.909h-9.908m9.908 0h9.908m-9.908 254.316v9.908m0 0v9.909m0-9.909h-9.908m9.908 0h9.908m-9.908 254.316v9.908m0 0v9.909m0-9.909h-9.908m9.908 0h9.908m254.316-538.356v9.908m0 0v9.909m0-9.909h-9.908m9.908 0h9.909m-9.909 254.316v9.908m0 0v9.909m0-9.909h-9.908m9.908 0h9.909m-9.909 254.316v9.908m0 0v9.909m0-9.909h-9.908m9.908 0h9.909m254.315-538.356v9.908m0 0v9.909m0-9.909h-9.908m9.908 0h9.909m-9.909 254.316v9.908m0 0v9.909m0-9.909h-9.908m9.908 0h9.909m-9.909 254.316v9.908m0 0v9.909m0-9.909h-9.908m9.908 0h9.909m254.316-538.356v9.908m0 0v9.909m0-9.909h-9.91m9.91 0h9.91m-9.91 254.316v9.908m0 0v9.909m0-9.909h-9.91m9.91 0h9.91m-9.91 254.316v9.908m0 0v9.909m0-9.909h-9.91m9.91 0h9.91m254.31-538.356v9.908m0 0v9.909m0-9.909h-9.91m9.91 0h9.91m-9.91 254.316v9.908m0 0v9.909m0-9.909h-9.91m9.91 0h9.91m-9.91 254.316v9.908m0 0v9.909m0-9.909h-9.91m9.91 0h9.91M-6.867.857v9.908m0 0v9.909m0-9.909h-9.908m9.908 0h9.908m-9.908 254.316v9.908m0 0v9.909m0-9.909h-9.908m9.908 0h9.908m-9.908 254.316v9.908m0 0v9.909m0-9.909h-9.908m9.908 0h9.908M257.357.857v9.908m0 0v9.909m0-9.909h-9.908m9.908 0h9.908m-9.908 254.316v9.908m0 0v9.909m0-9.909h-9.908m9.908 0h9.908m-9.908 254.316v9.908m0 0v9.909m0-9.909h-9.908m9.908 0h9.908M521.581.857v9.908m0 0v9.909m0-9.909h-9.908m9.908 0h9.909m-9.909 254.316v9.908m0 0v9.909m0-9.909h-9.908m9.908 0h9.909m-9.909 254.316v9.908m0 0v9.909m0-9.909h-9.908m9.908 0h9.909M785.805.857v9.908m0 0v9.909m0-9.909h-9.908m9.908 0h9.909m-9.909 254.316v9.908m0 0v9.909m0-9.909h-9.908m9.908 0h9.909m-9.909 254.316v9.908m0 0v9.909m0-9.909h-9.908m9.908 0h9.909M1050.03.857v9.908m0 0v9.909m0-9.909h-9.91m9.91 0h9.91m-9.91 254.316v9.908m0 0v9.909m0-9.909h-9.91m9.91 0h9.91m-9.91 254.316v9.908m0 0v9.909m0-9.909h-9.91m9.91 0h9.91M1314.25.857v9.908m0 0v9.909m0-9.909h-9.91m9.91 0h9.91m-9.91 254.316v9.908m0 0v9.909m0-9.909h-9.91m9.91 0h9.91m-9.91 254.316v9.908m0 0v9.909m0-9.909h-9.91m9.91 0h9.91"/></g><defs><radialGradient id="a" cx="0" cy="0" r="1" gradientTransform="matrix(0 330.28 -586.755 0 719.751 341.046)" gradientUnits="userSpaceOnUse"><stop stop-color="#fff"/><stop offset="1" stop-color="#fff" stop-opacity="0"/></radialGradient><radialGradient id="b" cx="0" cy="0" r="1" gradientTransform="matrix(0 366.152 -600.659 0 719.749 341.045)" gradientUnits="userSpaceOnUse"><stop stop-color="#fff"/><stop offset="1" stop-color="#fff" stop-opacity="0"/></radialGradient></defs></svg>