<svg fill="none" height="42" viewBox="0 0 166 42" width="166" xmlns="http://www.w3.org/2000/svg" xmlns:xlink="http://www.w3.org/1999/xlink"><clipPath id="a"><path d="m.474609.681885h165.176v40.3932h-165.176z"/></clipPath><g clip-path="url(#a)" fill="#000"><path d="m11.6636 28.4577c-12.206805-.2264-14.25807-11.3749-6.97331-19.61407 5.59881-6.33239 18.11691-11.04942 25.58961-5.51409 2.2937 1.69908 3.1598 3.96035 3.2943 6.74166.0146.3028.0054.6158 0 .9193-.0095.5295.0656 1.1894 0 1.6854-.0183.1379-.2421.6429-.3065.9194-.3894 1.6734-1.6149 4.3291-2.6047 5.6691-.0968.1311-1.0367 1.1765-1.2258 1.379-1.6174 1.7323-4.5142 3.943-6.5885 5.0563-1.3273.7124-2.8527 1.3937-4.2901 1.8386-1.7258.5342-3.5565.8337-5.3628.9194-.5036.0239-1.0273.0093-1.5322 0zm-.7661-1.9919c.4998.148.8785.2119 1.379.3064 1.6497.3115 2.7455.4236 4.4434.1533 1.5259-.243 3.0322-.7827 4.4434-1.379 3.2926-1.3914 5.6495-3.4446 7.5078-6.4353.3963-.6378.5496-.8564.9193-1.6854.9306-2.0867 1.3815-3.4399 1.2258-5.8224-.0179-.2742-.13-.4453-.1532-.6129-1.4167-10.211036-14.6994-9.51365-21.19793-4.26702-6.76675 5.46322-8.35759 16.84402 1.43243 19.74232z"/><path d="m94.71 13.4421v8.0441c0 .0617.2476.9456.3002 1.0802.7043 1.8014 4.413 1.6915 5.1008.0308.046-.11.268-1.0488.268-1.111v-8.0441h2.682c.016 0 .229.2136.229.2299v8.4271c0 .2467.669 1.2135.93 1.369 1.263.7533 4.028.4961 4.515-1.1337.038-.1257.225-1.0897.225-1.1546v-7.7377h2.681c.016 0 .23.2136.23.2299v8.4271c0 1.2243-1.265 3.0531-2.31 3.6661-1.378.8084-5.313.818-6.683-.036-.312-.1945-.79-.7988-1.039-.7962-.412.0044-.633.5125-.889.6557-1.6219.9076-4.9813 1.0834-6.6504.2917-1.2894-.6117-2.5008-2.527-2.5008-3.9345v-8.2739c0-.0163.2136-.2299.2299-.2299z"/><path d="m45.8311 9.30518v5.43932c0 .0163.2136.2298.2298.2298h9.1933c.0162 0 .2298-.2135.2298-.2298v-5.43932h2.8346c.0162 0 .2298.21358.2298.22983v16.54779c0 .0163-.2136.2299-.2298.2299h-2.8346v-8.657c0-.0163-.2136-.2298-.2298-.2298h-9.1933c-.0162 0-.2298.2135-.2298.2298v8.657h-2.9112v-17.00752z"/><path d="m139.908 17.7324c.104-.8348-.352-1.4988-1.185-1.6492-1.211-.2908-7.912.2905-8.477-.1031-.21-.1458-.22-2.1891-.077-2.3944.109-.1571.298-.1311.462-.1509 1.742-.2107 7.356-.1647 9.009.1994 1.449.3194 2.743 1.5647 3.14 2.989.352 1.2668.366 6.432-.153 7.5812-.575 1.2716-1.734 1.9716-3.103 2.1069-1.466.1448-6.821.179-8.038-.2329-3.379-1.1434-3.277-6.6639-.11-8.068.118-.0521.75-.278.795-.278zm-7.468 5.7825c.169.1573.85.3213 1.109.3473 1.044.1047 4.489.136 5.411-.1064.449-.1179.681-.2317.873-.66.572-1.281.128-2.7396-1.38-2.9117-.894-.102-4.963-.1042-5.628.194-.955.4278-.976 2.589-.385 3.1368z"/><path d="m71.2662 17.7323c.2433-.5171-.5544-1.6854-.9959-1.6854h-8.657v-2.6048h8.3505c.0802 0 .9988.1792 1.1594.2197 1.3176.3326 2.5569 1.4514 2.8837 2.7855.3054 1.247.3393 5.6892.1571 7.0174-.2277 1.6597-1.6934 2.6893-3.2823 2.8465-1.4677.1452-6.8223.1785-8.0382-.2328-3.0147-1.0198-3.276-5.6369-.928-7.5076.2874-.229 1.3019-.8385 1.6131-.8385zm-6.63 2.4866c-1.7551.3573-1.7667 3.0645-.3762 3.5237.7199.2378 4.6442.2199 5.5512.1191 2.2482-.25 2.2826-3.4554-.1479-3.6837-.9866-.0927-4.1442-.1388-5.0271.0409z"/><path d="m116.773 9.30518v4.74982c1.874-.8967 6.362-.9669 8.108.0899.933.565 2.311 2.4151 2.311 3.5108v8.657h-2.911v-7.7377c0-.4619-.362-1.3949-.685-1.7664-.863-.9912-3.34-.8966-4.601-.7622-.971.1035-2.222 1.0517-2.222 2.069v8.1973h-2.834c-.016 0-.23-.2136-.23-.2299v-16.54779c0-.01625.214-.22983.23-.22983z"/><path d="m89.8057 26.3127h-2.9112v-8.3505c0-.6076-1.0161-1.5858-1.6-1.7709-.7104-.2252-3.5002-.2569-4.2268-.0721-.7952.2023-1.681 1.1683-1.681 1.9962v8.1973h-3.0644v-7.7376c0-1.0317.5729-2.5602 1.2189-3.3777 1.7478-2.2113 7.7089-2.2992 9.974-1.0735 1.0711.5796 2.2905 2.4891 2.2905 3.6851z"/><path d="m30.6634 19.2644c.8694 2.0342 1.2545 3.7538.9193 5.9756-.1513 1.0033-.6207 2.6199-1.0725 3.5241-2.403 4.8087-8.5908 7.3287-13.6347 5.2842-2.2295-.9037-4.7499-3.1603-5.2114-5.5907.5048.0094 1.0285.0239 1.5322 0 3.0309 4.8534 9.9428 5.1607 13.7898 1.0726.8482-.9013 1.6965-2.2157 2.1451-3.3709.6848-1.7635.7716-3.677.3064-5.5159.1891-.2025 1.129-1.2479 1.2258-1.379z"/><path d="m84.1367 30.8325c.0886-.4122.6892-.7822 1.1148-.6668.7291.1976 2.8377 4.5674 3.4184 5.4801.1361.214.3066.6261.5982.6277l3.212-5.6777c.3607-.7002 1.616-.3847 1.616.2367v8.0441c-.4277-.0714-1.6855.2602-1.6855-.383v-4.2136c-.3558-.0853-.2521.0673-.3511.1935-.7179.9147-1.301 2.7498-2.0298 3.6311-.4465.5401-1.1354.6613-1.6722.1517-.8463-1.3629-1.5164-2.8959-2.5354-4.1295v4.52c0 .3375-1.6854.3375-1.6854 0z"/><path d="m118.918 39.6428h4.061c.413 0 .852-.4643.688-.9188-3.574.5908-5.772.0088-5.36-4.0591.155-1.527 1.011-2.2717 2.52-2.3832 1.309-.0966 3.395-.2049 4.132 1.0904.54.9492.557 5.135.233 6.186-.33 1.0728-1.312 1.379-2.361 1.4691-.545.0467-3.306.0894-3.661-.0269-.427-.1398-.206-.9825-.252-1.3575zm1.639-5.9458c-.857.2561-1.232 3.4622.269 3.6552.501.0644 2.363.0725 2.687-.2399.464-.4475.453-2.5617.006-3.0655-.425-.478-2.397-.5184-2.962-.3498z"/><path d="m144.046 38.8768c-.398-.0679-1.514.2054-1.664-.2513-.32-.9801.364-3.7436-.239-4.5104-.674-.8559-2.387-.3791-2.387.5481v4.2136c-.396-.0567-1.366.1911-1.511-.2513-.26-.7938.12-2.958-.013-3.9701-.201-1.5198-2.613-1.0485-2.613-.1454v4.1369c0 .3375-1.685.3375-1.685 0v-4.2901c0-.6447.933-1.773 1.557-1.967.516-.1607 1.931-.1773 2.468-.0665.395.0816.861.5799 1.11.5805.28.0008.541-.4901.949-.5833.456-.1042 1.752-.0823 2.23.0041.565.1019 1.798 1.1929 1.798 1.7257z"/><path d="m127.804 36.7316c-.127.1198.312.6129.383.6129h4.674v1.5322h-4.827c-.079 0-1.275-.6701-1.371-.7738-.859-.9311-.893-4.8517.388-5.572.62-.3486 4.152-.3629 4.865-.1412 2.268.7054 1.446 4.3419-.358 4.3419zm.255-3.0391c-.571.1913-.563 1.4194.161 1.6277.315.091 2.367.0975 2.722.0293.768-.1476.913-1.4444.285-1.657-.222-.0749-2.945-.0748-3.168 0z"/><path d="m146.498 36.7317c.044.2184.312.6129.537.6129h4.52v1.5322h-4.827c-.282 0-1.343-.7748-1.541-1.064-.458-.6705-.522-3.2517-.342-4.037.053-.2338.7-1.123.895-1.2498.536-.3484 4.202-.3441 4.87-.1362 1.489.4625 1.703 2.8576.646 3.8138-.154.1391-.865.5281-1.004.5281zm.383-3.0644c-.64.1942-.344 1.6855 0 1.6855h2.912c.618 0 .651-1.6855.153-1.6855z"/><path d="m115.701 34.4334c.268-.2708-.418-.7661-.689-.7661h-4.061v-1.379h4.827c.209 0 1.151.7613 1.304.9943.609.9286.68 3.6361.128 4.575-.751 1.2768-3.33 1.143-4.656 1.0254-1.463-.1297-2.445-1.1603-2.206-2.6786.106-.6707.872-1.771 1.599-1.771.52 0 3.622.1334 3.754 0zm-3.294 1.379c-.518.2578-.456 1.5322 0 1.5322h3.064c.553 0 .395-1.5322 0-1.5322z"/><path d="m52.1126 38.8759c-2.1327.3812-1.916-.6661-2.7076-2.1499l-4.3156.0307c-.1692.3661-.8496 1.8948-1.0947 2.0457-.3337.2056-1.1218.0118-1.5348.0736-.0448-.2684.0379-.4773.12-.7225.4416-1.3172 2.1752-4.4457 2.9174-5.816.6174-1.1398 1.4456-3.2779 2.7605-1.4801.8925 2.4826 2.8587 5.0336 3.7352 7.4499.0693.1911.1652.3515.1196.5686zm-3.5235-3.5233c-.0412-1.0841-.958-1.9085-1.3024-2.9127-.1633-.001-1.3561 2.4934-1.4556 2.9127z"/><path d="m68.968 36.7317c.0438.2184.3121.6129.5363.6129h4.52v1.5322h-4.8264c-.0831 0-1.101-.6143-1.2337-.7582-.6613-.7177-.6783-3.4218-.5204-4.3667.0543-.3245.4364-.9533.7009-1.1378.6362-.4438 3.4153-.4125 4.2767-.3317 2.987.2804 2.1392 4.4493.3005 4.4493zm.3831-3.0644c-.6047.2131-.437 1.6854 0 1.6854h2.9112c.6181 0 .6519-1.6854.1532-1.6854z"/><path d="m100.224 34.4334c.149-.1401-.4848-.7661-.5358-.7661h-4.2136v-1.379h4.6734c.705 0 1.602 1.1155 1.726 1.7976.199 1.0901.258 3.6026-.677 4.3081-.813.6134-3.5357.6317-4.5633.4729-2.5221-.3896-2.0399-4.4335-.1631-4.4335zm-3.447 2.9112c.4359.1348 2.5558 0 3.2177 0 .3333 0 .3333-1.5322 0-1.5322h-3.0645c-.6059 0-.4715 1.4338-.1532 1.5322z"/><path d="m52.4195 38.8768v-1.5322h4.6733c.2597 0 .5757-.7421.0416-.9712-1.0989-.4714-3.7376.4656-4.5675-.7849-.4579-.6899-.431-2.1466.1555-2.7675.1002-.1061.7876-.5327.8463-.5327h5.0563c.328 0 .328 1.379 0 1.379h-4.137c-.347 0-.8127.712-.3902 1.0037.2376.164 3.0784.0344 3.8802.2562 1.2014.3323 1.5283 2.01 1.0706 2.9943-.1329.2859-1.2423.9553-1.4962.9553z"/><path d="m66.3633 32.2883v1.379h-4.3668c-.4563 0-.6393.8794-.3617 1.053.1639.1023 3.0753-.0069 3.8518.2068 1.2488.3437 1.4934 2.3386.8646 3.2481-.1238.1791-1.2065.6534-1.4525.6926-.6717.107-3.9505.1269-4.5879.0093-.6523-.1204-.3078-1.049-.3828-1.5325h4.6733c.1834 0 .6993-.655.0381-.9579-1.0064-.461-2.8829.2542-4.1544-.4418-1.3799-.7554-.7208-3.6566.5922-3.6566z"/><path d="m30.5098 28.7642c.4518-.9042.9211-2.5208 1.0725-3.5241 4.3944-1.4131 6.7166-5.9572 3.8044-10.0098-.4495-.6255-1.2762-1.6875-2.119-1.635.0644-.2764.2882-.7814.3065-.9193 2.9664 2.2128 5.055 5.5416 4.2447 9.3776-.7033 3.3294-4.09 5.9979-7.3091 6.7106z"/><path d="m102.829 34.0504c.33-1.8547 3.093-1.9038 4.518-1.7599 1.039.1049 2.377 1.1067 2.377 2.2195v4.137c0 .3405-1.838.3405-1.838 0v-4.137c0-.9458-2.362-1.1046-3.057-.4515-.749.7041-.014 3.5823-.336 4.5671-.149.4566-1.266.1833-1.664.2512.18-1.4415-.242-3.4615 0-4.8264z"/><path d="m159.521 38.8768c-.328-.0659-1.39.1358-1.549-.0893-.353-.4967-.011-3.2564-.146-4.1146-.247-1.5667-3.514-1.2193-3.514.1435v4.0604c-.398-.0679-1.515.2054-1.664-.2513-.213-.6503-.009-4.0311.239-4.7742.6-1.8022 2.95-1.7671 4.552-1.5495.687.0934 2.082 1.0847 2.082 1.7485z"/><path d="m78.4682 38.8769c-.3642-.0765-1.4398.1187-1.6636-.0214-.3663-.2293-.0843-4.4667-.1743-5.1889-1.3883-.0003-2.0773.3624-1.8401-1.379.29-.0475 1.775.0666 1.8401.0015.085-.085-.1643-1.0991.1427-1.3128.1299-.0904 1.6359-.1277 1.696-.0677.0674.0674-.069 1.3133-.0016 1.3806.0706.0703 1.6859-.0531 1.9934-.0016l.0019 1.2915c-.037.2472-1.9945-.1278-1.9945.3181z"/><path d="m162.125 33.8972c-.149-.4831-1.953-.0456-1.994-.3181l.002-1.2915c.427-.0774 1.549.1427 1.849-.0662.307-.2136.058-1.2276.143-1.3128.054-.0542 1.479-.0542 1.533 0 .068.0674-.069 1.3133-.001 1.3805.07.0704 1.686-.053 1.993-.0015v1.3805l-1.992-.0008v4.9797c0 .3362-1.245.219-1.533.2298z"/><path d="m107.58 6.54725h-1.072v-2.83457c0-.08384-.34-.61598-.526-.53111-.127.02783-.7.73409-.7.83755v2.52813h-1.072v-2.9878c0-.04018-.358-.41665-.515-.37031-1.436.76338.552 3.74787-1.631 3.35811v-3.90712c0-.41804.939-.1016 1.131-.12051.262-.02585.473-.2908.935-.27425.49.01755.838.476 1.045.4442.307-.04724.593-.4978 1.243-.43097.368.03787 1.162.68613 1.162.99441z"/><path d="m115.395 2.41035c.338-.09306.721.14441 1.004.13406.336-.0123.649-.40833 1.044-.27589.421.14109.067.92685.478.75348.218-.09218.415-.4602.912-.62008 3.612-1.16276 3.838 5.14256.075 4.23227-1.444-.34916-1.466-2.27624-1.216-3.45697-1.745.15802-1.564 2.02695-1.531 3.37088l-.766-.00079zm4.08.65232c-1.429.15819-1.196 2.79558-.028 2.86324 1.641.09504 1.491-3.02521.028-2.86324z"/><path d="m46.9037.87793v.91932h-2.9112v1.37899h2.7579v.91932h-2.7579v1.5322h2.8345c.2342 0 .2703.70053.2299.91933h-4.137v-5.66916z"/><path d="m122.576 2.42983c.199.12818.333 1.98099.709 2.27789.517-.77505.17-2.54134 1.377-2.30202.657.13024.437 1.78527.92 2.30433.196-.00456.357-3.20448 1.542-2.15142-.153.49978-.853 3.85878-1.026 3.96833-.095.05989-.919.05843-1.027-.00621-.313-.1875-.294-1.80147-.866-1.81377-.111-.00237-.218 1.70231-.405 1.82001-.09.05636-.945.05638-1.033.00039-.169-.1081-1.126-3.68012-1.078-3.87549.065-.26316.713-.33348.887-.22204z"/><path d="m74.4839 2.41019v4.06034c0 .04715-.4444.73839-.5065.79536-.8041.73803-3.4097.47507-3.3236-1.02443.9118-.27818.8725.31695 1.2569.5003.7353.35071 1.8096-.03134 1.653-.96-.3301-.01168-.51.24245-.8487.29738-2.176.35291-3.0978-2.65776-1.4023-3.54597 1.195-.62597 1.9527.16594 3.1712-.12298zm-1.1126 2.56571c.8917-.9471-.6605-2.69622-1.6492-1.57269-1.1306 1.28484.7054 2.57507 1.6492 1.57269z"/><path d="m60.3887.877986 1.0733-.000789v1.685463c.3339.02765.519-.27026.8541-.30533.5798-.06068 1.7499.53502 1.7499 1.14879v3.14102h-1.0726v-2.83457c0-.46629-1.5322-.60642-1.5322.15322v2.68135h-1.0725z"/><path d="m84.2448 6.1939c-1.4052 1.25672-3.676.33342-3.6429-1.7145.0469-2.89813 3.7432-2.76074 4.1124-.73057.1302.71579.1134 1.92376-.4695 2.44507zm-1.9982-2.9926c-.8347.29223-.8094 2.92357.5545 2.70893 1.4983-.23581 1.2074-3.3258-.5545-2.70893z"/><path d="m99.1124 2.29332c2.9496-.47223 3.1966 3.91432 1.0006 4.37133-3.1713.66007-3.5282-3.96672-1.0006-4.37133zm-.008.91337c-.8861.27139-.9527 3.10071.8605 2.54431.9181-.28157.8561-3.07009-.8605-2.54431z"/><path d="m109.686 2.29339c3.182-.5094 3.36 4.82058-.024 4.39326-2.291-.28933-2.368-4.01026.024-4.39326zm-.527 3.13679c1.292 1.63357 2.829-1.12419 1.477-2.16753-1.077-.83067-2.288 1.14212-1.477 2.16753z"/><path d="m78.7736 4.32552c-.0704-.3216-2.1253-3.18193-1.8378-3.446672 1.1603-.689459 1.9988 2.144662 2.2224 2.145992.6888.00407 1.0169-2.9755235 2.5281-2.068624-.0135.467714-1.5811 2.501994-1.7708 3.132244-.3235 1.07486.6016 2.78293-1.1419 2.45876-.0946-.64989.1304-1.62557 0-2.2217z"/><path d="m70.0397 6.54719c-.2168.0259-1.0725.04091-1.0725-.22983v-2.75797c0-.48275-1.5323-.16493-1.5323.30645v2.68135h-.9193v-4.13695c.3389-.09289.7215.14428 1.0044.13384.4324-.01597.6038-.39552 1.3335-.25438.3397.0657 1.1862.62665 1.1862.96325z"/><path d="m86.2815 2.56349v2.83458c0 .59936 1.6855.31855 1.6855-.45966v-2.52814c.2187-.04042.9193-.00432.9193.22983v3.90713c-1.0112-.34514-2.5607.65264-3.2934-.3073-.0659-.08632-.3839-.79559-.3839-.84186v-2.83458c0-.08459.8882-.15921 1.0725 0z"/><path d="m58.7481 3.74286c-.1473-.10868-.1475-.44844-.4583-.54422-1.574-.48494-1.8301 2.61514-.2723 2.59428.5636-.00755.9924-.98955 1.9103-.62391-.3069 2.09205-3.6017 2.06501-3.9459.03914-.0914-.53804-.0944-1.30403.1049-1.81325.5033-1.28614 2.5572-1.52301 3.4472-.51349.8525.96714-.0441 1.40884-.7859.86145z"/><path d="m98.5399.87793.0008.92014-1.8395-.00082v4.74984h-1.0725v-4.74984l-1.533.00082.0008-.92014z"/><path d="m51.0416 6.54713h-.9193v-2.68136c0-.93064-1.6854-.66512-1.6854.15322v2.52814h-.9193v-4.13695c.3693-.18839.8569.24734.9965.24972.1766.00301.5556-.4456 1.1843-.37441.3909.04428 1.3432.55549 1.3432.9674z"/><path d="m113.556 6.54713c-.33-.01851-.926.1315-1.051-.25122-.072-.21692-.072-3.41775 0-3.6341.172-.52154.933-.11037 1.261-.14261.27-.02646.625-.39704 1.015-.26263.137 1.44418-.062.82055-.699 1.21449-.106.0655-.526.63127-.526.70115z"/><path d="m52.7268 6.54724h-1.0725v-3.90712c0-.43169.9719-.09621 1.1546-.10046.3546-.00825.9818-.50382 1.2276-.13698.5138.767-1.3097 1.16756-1.3097 1.61642z"/><path d="m90.5717 6.54735h-.9194v-4.13695c.3793.04072.981-.20737.9223.30478.2659-.2339 1.1698-.79818 1.3633-.21116.2885.87539-1.3662.75998-1.3662 1.66841z"/><path d="m55.4847 2.41016h-1.0726v4.13695h1.0726z"/><path d="m65.5971 2.41016h-.9194v4.13695h.9194z"/><path d="m55.4635.900504c.1054.172166-.0175.655686.0228.897516l-1.074-.00007c-.4079-.887729.7142-1.448318 1.0512-.897446z"/><path d="m65.5987.877197h-.921v.920963h.921z"/><path d="m14.4216 18.1921c-.1296 1.2787.9595 2.889 1.7598 3.8327 1.3366 1.5764 2.6722 2.3545 4.5664 3.1024.2393.0944.4943.0421.4155.4195-1.4113.5964-2.9175 1.136-4.4434 1.379.0307-.7359-.9164-1.0138-1.3809-1.4538-1.1507-1.0898-1.7383-1.9692-2.4776-3.3525-.1146-.2144-.0604-.4847-.4317-.4032.211-.663.439-1.3156.7347-1.9466z"/><path d="m30.6631 10.9906c.0233.1676.1353.3387.1532.6129-1.2403-.2457-2.4208-.7847-3.6695-1.0037-4.7469-.83252-11.6877.7266-12.7251 6.2132-.1337.7074-.5782.7148-1.0691 1.3057-.2576.3101-1.0709 1.4445-1.2292 1.7587-.4619-1.5938.0538-3.6299.8552-5.0439 3.0283-5.34303 11.1055-6.0591 16.4255-4.3459.4388.1413.8057.414 1.259.503z"/><path d="m29.1308 26.1594c-.4486 1.1551-1.2969 2.4695-2.1451 3.3708-.8525-.3356-1.9179-.0796-2.8322-.1556-1.7044-.1415-4.1368-.9629-5.5949-1.8362 1.4374-.445 2.9628-1.1263 4.2902-1.8387.1009.3585.4107.2709.6777.3187.3984.0713 1.3931.2942 1.6972.2942h2.4515c.288 0 .9999-.3145 1.4556-.1532z"/><path d="m29.5914 17.4259c-.3698.829-.523 1.0476-.9194 1.6855-.7872-2.0818-3.5112-4.066-5.7472-4.2887-2.6899-.2679-5.1169.2704-7.2637 1.9265-.4579.3532-1.1852.9166-1.2386 1.4428l-1.2571 1.5775c-.2957.631-.5237 1.2836-.7347 1.9466-.0696.2185-.4597 1.0447-.4597 1.1492v2.2983c0 .3577.3947 1.1445.3064 1.6088-.5005-.0945-.8791-.1585-1.3789-.3065.1646-.56-.0429-1.1391.0028-1.7606.0947-1.2907.6434-3.678 1.2229-4.8278.1583-.3142.9716-1.4486 1.2292-1.7588.4909-.5908.9354-.5982 1.0691-1.3057.8491-.1825 1.524-1.055 2.2896-1.4643 4.3951-2.35 9.5254-1.5941 12.8793 2.0772z"/></g></svg>