<svg xmlns="http://www.w3.org/2000/svg" width="507" height="795" fill="none"><mask id="c" fill="#fff"><path d="M294.986.783c31.668 0 57.34 25.672 57.34 57.34V223.21h2.183c.151 0 .273.123.273.274v84.638a.274.274 0 0 1-.273.274h-2.183v356.388c0 31.668-25.672 57.34-57.34 57.34h-234.8c-31.668 0-57.34-25.672-57.34-57.34V327.779H.663a.273.273 0 0 1-.273-.272v-54.061c0-.15.122-.272.273-.272h2.183V258.43H.663a.273.273 0 0 1-.273-.273v-54.06c0-.151.122-.273.273-.273h2.183v-25.665H.663a.273.273 0 0 1-.273-.272v-25.392c0-.151.122-.273.273-.273h2.183V58.123c0-31.668 25.672-57.34 57.34-57.34h234.8Z"/></mask><path fill="url(#a)" d="M294.986.783c31.668 0 57.34 25.672 57.34 57.34V223.21h2.183c.151 0 .273.123.273.274v84.638a.274.274 0 0 1-.273.274h-2.183v356.388c0 31.668-25.672 57.34-57.34 57.34h-234.8c-31.668 0-57.34-25.672-57.34-57.34V327.779H.663a.273.273 0 0 1-.273-.272v-54.061c0-.15.122-.272.273-.272h2.183V258.43H.663a.273.273 0 0 1-.273-.273v-54.06c0-.151.122-.273.273-.273h2.183v-25.665H.663a.273.273 0 0 1-.273-.272v-25.392c0-.151.122-.273.273-.273h2.183V58.123c0-31.668 25.672-57.34 57.34-57.34h234.8Z"/><path fill="url(#b)" d="M294.986.783v-1 1Zm57.34 57.34h1-1Zm0 165.086h-1v1h1v-1Zm2.183 0v-1 1Zm0 85.186v1-1Zm-2.183 0v-1h-1v1h1Zm-57.34 413.728v1-1Zm-234.8 0v1-1ZM2.845 327.779h1v-1h-1v1Zm-2.456-.272h-1v.001l1-.001Zm0-54.061-1-.001v.001h1Zm2.456-.272v1h1v-1h-1Zm0-14.744h1v-1h-1v1Zm-2.456-.273h-1v.001l1-.001Zm0-54.06-1-.002v.002h1Zm2.456-.273v1h1v-1h-1Zm0-25.665h1v-1h-1v1Zm-2.456-.272h-1v.001l1-.001Zm2.456-25.665v1h1v-1h-1Zm0-94.099h-1 1ZM60.186.783v-1 1Zm234.8 0v1c31.116 0 56.34 25.225 56.34 56.34h2c0-32.22-26.12-58.34-58.34-58.34v1Zm57.34 57.34h-1V223.21h2V58.123h-1Zm0 165.086v1h2.183v-2h-2.183v1Zm2.183 0v1a.726.726 0 0 1-.727-.726h2c0-.704-.57-1.274-1.273-1.274v1Zm.273.274h-1v84.638h2v-84.638h-1Zm0 84.638h-1c0-.401.325-.726.727-.726v2c.703 0 1.273-.571 1.273-1.274h-1Zm-.273.274v-1h-2.183v2h2.183v-1Zm-2.183 0h-1v356.388h2V308.395h-1Zm0 356.388h-1c0 31.116-25.224 56.34-56.34 56.34v2c32.22 0 58.34-26.12 58.34-58.34h-1Zm-57.34 57.34v-1h-234.8v2h234.8v-1Zm-234.8 0v-1c-31.116 0-56.34-25.224-56.34-56.34h-2c0 32.221 26.12 58.34 58.34 58.34v-1Zm-57.34-57.34h1V327.779h-2v337.004h1Zm0-337.004v-1H.663v2h2.183v-1Zm-2.183 0v-1c.398 0 .726.323.727.727l-1 .001-1 .001c0 .706.574 1.271 1.273 1.271v-1Zm-.273-.272h1v-54.061h-2v54.061h1Zm0-54.061 1 .002a.727.727 0 0 1-.727.726v-2c-.7 0-1.272.566-1.273 1.271l1 .001Zm.273-.272v1h2.183v-2H.663v1Zm2.183 0h1V258.43h-2v14.744h1Zm0-14.744v-1H.663v2h2.183v-1Zm-2.183 0v-1c.398 0 .726.322.727.726l-1 .001-1 .001c0 .706.574 1.272 1.273 1.272v-1Zm-.273-.273h1v-54.06h-2v54.06h1Zm0-54.06 1 .001a.726.726 0 0 1-.727.726v-2c-.7 0-1.272.567-1.273 1.271l1 .002Zm.273-.273v1h2.183v-2H.663v1Zm2.183 0h1v-25.665h-2v25.665h1Zm0-25.665v-1H.663v2h2.183v-1Zm-2.183 0v-1c.398 0 .726.322.727.727l-1 .001-1 .001c0 .705.574 1.271 1.273 1.271v-1Zm-.273-.272h1v-25.392h-2v25.392h1Zm0-25.392h1a.726.726 0 0 1-.727.727v-2c-.703 0-1.273.57-1.273 1.273h1Zm.273-.273v1h2.183v-2H.663v1Zm2.183 0h1V58.123h-2v94.099h1Zm0-94.099h1c0-31.115 25.224-56.34 56.34-56.34v-2c-32.22 0-58.34 26.12-58.34 58.34h1ZM60.186.783v1h234.8v-2h-234.8v1Z" mask="url(#c)"/><mask id="e" width="339" height="714" x="8" y="4" maskUnits="userSpaceOnUse" style="mask-type:alpha"><rect width="338.36" height="713.371" x="8.406" y="4.566" fill="url(#d)" rx="54.34"/></mask><g mask="url(#e)"><rect width="497.344" height="834.325" x="-10.083" y="-16.22" fill="#000" rx="20.36"/><path fill="#fff" d="M63.439 39.966c2.331 0 4.275 1.636 4.275 5.346v.014c0 3.498-1.62 5.587-4.32 5.587-1.957 0-3.423-1.129-3.753-2.727l-.015-.08h1.877l.022.065c.286.726.931 1.195 1.877 1.195 1.701 0 2.412-1.627 2.486-3.63.007-.11.014-.22.014-.336h-.043c-.418.968-1.474 1.7-2.904 1.7-2.038 0-3.476-1.466-3.476-3.453v-.014c0-2.134 1.68-3.667 3.96-3.667Zm0 5.676c1.21 0 2.134-.851 2.134-2.032v-.007c0-1.173-.924-2.09-2.112-2.09-1.173 0-2.12.91-2.12 2.053v.015c0 1.203.895 2.06 2.098 2.06Zm6.636-1.834c-.594 0-1.064-.469-1.064-1.063s.47-1.055 1.064-1.055c.593 0 1.055.461 1.055 1.055 0 .594-.462 1.064-1.055 1.064Zm0 5.382c-.594 0-1.064-.469-1.064-1.063s.47-1.056 1.064-1.056c.593 0 1.055.462 1.055 1.056 0 .594-.462 1.063-1.055 1.063Zm7.56 1.54V48.7h-5.28v-1.614l4.392-6.936h2.691v6.995h1.437v1.554h-1.437v2.031h-1.804Zm-3.579-3.541h3.608v-5.61h-.044l-3.564 5.558v.052ZM84.71 50.73v-8.777h-.044L81.93 43.83v-1.737l2.764-1.943h1.87v10.58H84.71Z"/><g fill="#fff" opacity=".9"><rect width="2.73" height="3.276" x="246.389" y="46.013" rx=".273"/><rect width="2.73" height="4.915" x="250.211" y="44.375" rx=".273"/><rect width="2.73" height="6.826" x="254.307" y="42.464" rx=".273"/><rect width="2.73" height="9.01" x="258.129" y="40.28" rx=".273"/></g><g fill="#fff" opacity=".9"><path d="M282.468 42.637a9.796 9.796 0 0 0-6.974-2.903 9.798 9.798 0 0 0-6.99 2.919l1.544 1.544a7.624 7.624 0 0 1 5.446-2.28c2.123 0 4.045.866 5.43 2.264l1.544-1.544Z"/><path d="M279.959 45.146a6.264 6.264 0 0 0-4.465-1.863 6.26 6.26 0 0 0-4.48 1.88l1.544 1.544a4.084 4.084 0 0 1 2.936-1.24c1.143 0 2.177.469 2.92 1.224l1.545-1.545ZM277.449 47.656a2.724 2.724 0 0 0-1.955-.824c-.774 0-1.473.323-1.97.84l1.954 1.955 1.971-1.97Z"/></g><rect width="18.293" height="8.737" x="290.483" y="40.416" stroke="#fff" stroke-width=".819" opacity=".6" rx="1.775"/><rect width="16.382" height="6.826" x="291.438" y="41.372" fill="#fff" opacity=".9" rx="1.092"/><path fill="#fff" d="M309.731 43.556c.604 0 1.093.49 1.093 1.092v.273c0 .604-.489 1.092-1.093 1.092v-2.457Z" opacity=".6"/><rect width="44.504" height="1.911" x="253.761" y="55.296" fill="#fff" opacity=".6" rx=".956"/><rect width="339.058" height="686.764" x="8.203" y="72.341" fill="#212121" rx="20.36"/><path fill="url(#f)" d="M109.948 304.475c-3.034 0-5.464-.888-7.289-2.664-1.801-1.801-2.701-4.428-2.701-7.881v-5.846c0-3.454.9-6.068 2.701-7.844 1.825-1.801 4.255-2.701 7.289-2.701 3.009 0 5.303.851 6.882 2.553 1.603 1.677 2.405 3.971 2.405 6.882v.185h-2.368v-.259c0-2.122-.568-3.848-1.702-5.18-1.11-1.357-2.849-2.035-5.217-2.035-2.393 0-4.268.727-5.624 2.183-1.332 1.455-1.998 3.502-1.998 6.142v5.994c0 2.639.666 4.686 1.998 6.142 1.356 1.455 3.231 2.183 5.624 2.183 2.368 0 4.107-.666 5.217-1.998 1.134-1.357 1.702-3.096 1.702-5.217v-.555h2.368v.481c0 2.91-.802 5.217-2.405 6.919-1.579 1.677-3.873 2.516-6.882 2.516Zm14.601-.518v-17.982h2.146v2.257h.444c.345-.814.851-1.406 1.517-1.776.69-.37 1.64-.555 2.849-.555h2.109v2.072h-2.368c-1.357 0-2.442.382-3.256 1.147-.814.764-1.221 1.961-1.221 3.589v11.248h-2.22Zm21.296.518c-1.85 0-3.466-.383-4.847-1.147a8.34 8.34 0 0 1-3.182-3.293c-.765-1.406-1.147-3.022-1.147-4.847v-.444c0-1.85.382-3.466 1.147-4.847.764-1.406 1.813-2.492 3.145-3.256 1.356-.79 2.898-1.184 4.625-1.184 1.677 0 3.157.357 4.44 1.073 1.307.69 2.331 1.702 3.071 3.034.74 1.307 1.11 2.873 1.11 4.699v1.184h-15.318c.074 2.244.752 3.983 2.035 5.217 1.307 1.208 2.947 1.813 4.921 1.813 1.677 0 2.972-.383 3.885-1.147a7.534 7.534 0 0 0 2.146-2.812l1.998.888c-.37.814-.888 1.615-1.554 2.405-.642.764-1.48 1.406-2.516 1.924-1.036.493-2.356.74-3.959.74Zm-6.919-10.952h13.024c-.099-1.949-.728-3.441-1.887-4.477-1.16-1.061-2.652-1.591-4.477-1.591-1.801 0-3.293.53-4.477 1.591-1.184 1.036-1.912 2.528-2.183 4.477Zm26.257 10.952c-1.258 0-2.405-.21-3.441-.629-1.012-.444-1.813-1.086-2.405-1.924-.592-.839-.888-1.85-.888-3.034 0-1.209.296-2.208.888-2.997.592-.79 1.393-1.382 2.405-1.776 1.011-.395 2.133-.592 3.367-.592h6.586v-1.443c0-1.456-.42-2.59-1.258-3.404-.839-.814-2.06-1.221-3.663-1.221-1.579 0-2.837.394-3.774 1.184-.913.764-1.53 1.8-1.85 3.108l-2.146-.629a8.303 8.303 0 0 1 1.406-2.849c.641-.864 1.492-1.542 2.553-2.035 1.06-.518 2.331-.777 3.811-.777 2.269 0 4.02.592 5.254 1.776 1.258 1.184 1.887 2.836 1.887 4.958v8.732c0 .74.345 1.11 1.036 1.11h1.739v1.924h-2.368c-.765 0-1.369-.222-1.813-.666-.444-.469-.666-1.098-.666-1.887v-.259h-.37a8.114 8.114 0 0 1-1.258 1.591c-.494.518-1.147.937-1.961 1.258-.814.32-1.838.481-3.071.481Zm.148-1.998c1.899 0 3.428-.568 4.588-1.702 1.184-1.16 1.776-2.788 1.776-4.884v-.444h-6.549c-1.283 0-2.356.283-3.219.851-.839.542-1.258 1.393-1.258 2.553 0 1.159.431 2.059 1.295 2.701.888.616 2.01.925 3.367.925Zm20.977 1.48c-.962 0-1.69-.247-2.183-.74-.469-.494-.703-1.184-.703-2.072v-13.172h-5.772v-1.998h5.772v-6.734h2.22v6.734h6.29v1.998h-6.29v12.876c0 .74.37 1.11 1.11 1.11h4.218v1.998h-4.662Zm18.216.518c-1.85 0-3.465-.383-4.847-1.147a8.353 8.353 0 0 1-3.182-3.293c-.764-1.406-1.147-3.022-1.147-4.847v-.444c0-1.85.383-3.466 1.147-4.847.765-1.406 1.813-2.492 3.145-3.256 1.357-.79 2.899-1.184 4.625-1.184 1.678 0 3.158.357 4.44 1.073 1.308.69 2.331 1.702 3.071 3.034.74 1.307 1.11 2.873 1.11 4.699v1.184h-15.318c.074 2.244.753 3.983 2.035 5.217 1.308 1.208 2.948 1.813 4.921 1.813 1.678 0 2.973-.383 3.885-1.147a7.513 7.513 0 0 0 2.146-2.812l1.998.888c-.37.814-.888 1.615-1.554 2.405-.641.764-1.48 1.406-2.516 1.924-1.036.493-2.355.74-3.959.74Zm-6.919-10.952h13.024c-.098-1.949-.727-3.441-1.887-4.477-1.159-1.061-2.651-1.591-4.477-1.591-1.8 0-3.293.53-4.477 1.591-1.184 1.036-1.911 2.528-2.183 4.477Zm30.21 10.434v-25.9h2.368v25.9h-2.368Zm7.338 0v-2.146h3.7v-21.608h-3.7v-2.146h9.842c3.379 0 6.006.863 7.881 2.59 1.899 1.702 2.849 4.366 2.849 7.992v4.773c0 3.626-.95 6.29-2.849 7.992-1.875 1.702-4.502 2.553-7.881 2.553h-9.842Zm6.068-2.146h3.774c2.713 0 4.785-.654 6.216-1.961 1.43-1.308 2.146-3.417 2.146-6.327v-4.995c0-2.936-.716-5.045-2.146-6.327-1.431-1.308-3.503-1.961-6.216-1.961h-3.774v21.571Z"/><path fill="#F4F3FF" d="M69.928 367.082c-1.23 0-2.215-.36-2.955-1.08-.73-.73-1.095-1.795-1.095-3.195v-2.37c0-1.4.365-2.46 1.095-3.18.74-.73 1.725-1.095 2.955-1.095 1.22 0 2.15.345 2.79 1.035.65.68.975 1.61.975 2.79v.075h-.96v-.105c0-.86-.23-1.56-.69-2.1-.45-.55-1.155-.825-2.115-.825-.97 0-1.73.295-2.28.885-.54.59-.81 1.42-.81 2.49v2.43c0 1.07.27 1.9.81 2.49.55.59 1.31.885 2.28.885.96 0 1.665-.27 2.115-.81.46-.55.69-1.255.69-2.115v-.225h.96v.195c0 1.18-.325 2.115-.975 2.805-.64.68-1.57 1.02-2.79 1.02Zm5.92-.21v-7.29h.87v.915h.18c.14-.33.344-.57.614-.72.28-.15.665-.225 1.155-.225h.855v.84h-.96c-.55 0-.99.155-1.32.465-.33.31-.495.795-.495 1.455v4.56h-.9Zm8.633.21c-.75 0-1.405-.155-1.965-.465-.55-.32-.98-.765-1.29-1.335-.31-.57-.465-1.225-.465-1.965v-.18c0-.75.155-1.405.465-1.965.31-.57.735-1.01 1.275-1.32.55-.32 1.175-.48 1.875-.48.68 0 1.28.145 1.8.435.53.28.945.69 1.245 1.23.3.53.45 1.165.45 1.905v.48h-6.21c.03.91.305 1.615.825 2.115.53.49 1.195.735 1.995.735.68 0 1.205-.155 1.575-.465.38-.31.67-.69.87-1.14l.81.36c-.15.33-.36.655-.63.975-.26.31-.6.57-1.02.78-.42.2-.955.3-1.605.3Zm-2.805-4.44h5.28c-.04-.79-.295-1.395-.765-1.815-.47-.43-1.075-.645-1.815-.645-.73 0-1.335.215-1.815.645-.48.42-.775 1.025-.885 1.815Zm10.644 4.44c-.51 0-.974-.085-1.394-.255a2.29 2.29 0 0 1-.975-.78c-.24-.34-.36-.75-.36-1.23 0-.49.12-.895.36-1.215.24-.32.565-.56.975-.72.41-.16.864-.24 1.364-.24h2.67v-.585c0-.59-.17-1.05-.51-1.38-.34-.33-.835-.495-1.484-.495-.64 0-1.15.16-1.53.48-.37.31-.62.73-.75 1.26l-.87-.255c.12-.43.31-.815.57-1.155.26-.35.605-.625 1.035-.825.43-.21.944-.315 1.544-.315.92 0 1.63.24 2.13.72.51.48.766 1.15.766 2.01v3.54c0 .3.14.45.42.45h.704v.78h-.96c-.31 0-.555-.09-.735-.27-.18-.19-.27-.445-.27-.765v-.105h-.15c-.13.22-.3.435-.51.645-.2.21-.465.38-.794.51-.33.13-.746.195-1.246.195Zm.06-.81c.77 0 1.39-.23 1.86-.69.48-.47.72-1.13.72-1.98v-.18h-2.654c-.52 0-.956.115-1.305.345-.34.22-.51.565-.51 1.035s.174.835.525 1.095c.36.25.814.375 1.364.375Zm8.505.6c-.39 0-.685-.1-.885-.3-.19-.2-.285-.48-.285-.84v-5.34h-2.34v-.81h2.34v-2.73h.9v2.73h2.55v.81h-2.55v5.22c0 .3.15.45.45.45h1.71v.81h-1.89Zm7.385.21c-.75 0-1.405-.155-1.965-.465-.55-.32-.98-.765-1.29-1.335-.31-.57-.465-1.225-.465-1.965v-.18c0-.75.155-1.405.465-1.965.31-.57.735-1.01 1.275-1.32.55-.32 1.175-.48 1.875-.48.68 0 1.28.145 1.8.435.53.28.945.69 1.245 1.23.3.53.45 1.165.45 1.905v.48h-6.21c.03.91.305 1.615.825 2.115.53.49 1.195.735 1.995.735.68 0 1.205-.155 1.575-.465.38-.31.67-.69.87-1.14l.81.36c-.15.33-.36.655-.63.975-.26.31-.6.57-1.02.78-.42.2-.955.3-1.605.3Zm-2.805-4.44h5.28c-.04-.79-.295-1.395-.765-1.815-.47-.43-1.075-.645-1.815-.645-.73 0-1.335.215-1.815.645-.48.42-.775 1.025-.885 1.815Zm11.172 4.23 3.435-10.5h1.71l3.435 10.5h-1.005l-.9-2.79h-4.77l-.9 2.79h-1.005Zm2.175-3.66h4.23l-2.025-6.27h-.18l-2.025 6.27Zm15.196 3.87c-.75 0-1.42-.13-2.01-.39a3.17 3.17 0 0 1-1.395-1.215c-.34-.55-.51-1.245-.51-2.085v-.285h.96v.285c0 .97.275 1.69.825 2.16.56.46 1.27.69 2.13.69.87 0 1.54-.2 2.01-.6.47-.41.705-.93.705-1.56 0-.42-.105-.755-.315-1.005-.2-.26-.485-.465-.855-.615-.36-.16-.78-.3-1.26-.42l-.96-.24a8.28 8.28 0 0 1-1.53-.555 2.925 2.925 0 0 1-1.065-.885c-.26-.37-.39-.84-.39-1.41s.145-1.065.435-1.485c.3-.42.71-.74 1.23-.96.52-.23 1.125-.345 1.815-.345s1.31.12 1.86.36c.56.24 1 .595 1.32 1.065.33.46.495 1.04.495 1.74v.705h-.96v-.705c0-.55-.12-.995-.36-1.335-.24-.34-.565-.59-.975-.75a3.77 3.77 0 0 0-1.38-.24c-.73 0-1.335.17-1.815.51-.47.33-.705.81-.705 1.44 0 .42.095.755.285 1.005.2.25.475.45.825.6.36.15.78.285 1.26.405l.96.24a7.5 7.5 0 0 1 1.515.525c.46.21.83.505 1.11.885.28.37.42.86.42 1.47s-.155 1.14-.465 1.59c-.3.45-.725.8-1.275 1.05-.55.24-1.195.36-1.935.36Zm9.168 0c-.74 0-1.39-.155-1.95-.465a3.41 3.41 0 0 1-1.29-1.32c-.3-.57-.45-1.23-.45-1.98v-.18c0-.75.15-1.405.45-1.965.31-.57.74-1.01 1.29-1.32.56-.32 1.21-.48 1.95-.48s1.385.16 1.935.48c.56.31.99.75 1.29 1.32.31.56.465 1.215.465 1.965v.18c0 .75-.155 1.41-.465 1.98-.3.56-.73 1-1.29 1.32-.55.31-1.195.465-1.935.465Zm0-.81c.86 0 1.54-.27 2.04-.81.5-.55.75-1.275.75-2.175v-.12c0-.9-.25-1.62-.75-2.16-.5-.55-1.18-.825-2.04-.825-.85 0-1.53.275-2.04.825-.5.54-.75 1.26-.75 2.16v.12c0 .9.25 1.625.75 2.175.51.54 1.19.81 2.04.81Zm5.972.6v-10.5h.9v10.5h-.9Zm3.545 0v-7.29h.9v7.29h-.9Zm.45-8.55a.754.754 0 0 1-.555-.225.754.754 0 0 1-.225-.555c0-.23.075-.415.225-.555a.754.754 0 0 1 .555-.225c.23 0 .415.075.555.225.15.14.225.325.225.555 0 .22-.075.405-.225.555a.723.723 0 0 1-.555.225Zm6.245 8.76c-.65 0-1.24-.15-1.77-.45a3.475 3.475 0 0 1-1.275-1.305c-.31-.57-.465-1.24-.465-2.01v-.18c0-.77.155-1.435.465-1.995.31-.57.73-1.005 1.26-1.305a3.522 3.522 0 0 1 1.785-.465c.54 0 .995.075 1.365.225.37.14.67.325.9.555.24.22.425.455.555.705h.18v-4.485h.9v10.5h-.87v-1.335h-.18c-.21.4-.54.76-.99 1.08-.44.31-1.06.465-1.86.465Zm.21-.81c.83 0 1.5-.265 2.01-.795.52-.53.78-1.26.78-2.19v-.12c0-.93-.26-1.66-.78-2.19-.51-.53-1.18-.795-2.01-.795-.82 0-1.49.265-2.01.795-.52.53-.78 1.26-.78 2.19v.12c0 .93.26 1.66.78 2.19s1.19.795 2.01.795Zm10.174.6v-10.5h.96v10.5h-.96Zm2.975 0v-.87h1.5v-8.76h-1.5v-.87h3.99c1.37 0 2.435.35 3.195 1.05.77.69 1.155 1.77 1.155 3.24v1.935c0 1.47-.385 2.55-1.155 3.24-.76.69-1.825 1.035-3.195 1.035h-3.99Zm2.46-.87h1.53c1.1 0 1.94-.265 2.52-.795.58-.53.87-1.385.87-2.565v-2.025c0-1.19-.29-2.045-.87-2.565-.58-.53-1.42-.795-2.52-.795h-1.53v8.745Zm11.425-2.58v-.84h4.44v.84h-4.44Zm11.346 6.45v-.81h4.26c.3 0 .45-.15.45-.45v-3h-.18c-.12.24-.29.47-.51.69-.21.21-.49.385-.84.525-.34.13-.77.195-1.29.195s-1.005-.11-1.455-.33c-.44-.22-.795-.55-1.065-.99-.26-.44-.39-.995-.39-1.665v-4.455h.9v4.395c0 .79.2 1.36.6 1.71.4.35.935.525 1.605.525.75 0 1.375-.245 1.875-.735s.75-1.235.75-2.235v-3.66h.9v9.15c0 .36-.1.64-.3.84-.19.2-.48.3-.87.3h-4.44Zm11.585-2.79c-.74 0-1.39-.155-1.95-.465a3.41 3.41 0 0 1-1.29-1.32c-.3-.57-.45-1.23-.45-1.98v-.18c0-.75.15-1.405.45-1.965.31-.57.74-1.01 1.29-1.32.56-.32 1.21-.48 1.95-.48s1.385.16 1.935.48c.56.31.99.75 1.29 1.32.31.56.465 1.215.465 1.965v.18c0 .75-.155 1.41-.465 1.98-.3.56-.73 1-1.29 1.32-.55.31-1.195.465-1.935.465Zm0-.81c.86 0 1.54-.27 2.04-.81.5-.55.75-1.275.75-2.175v-.12c0-.9-.25-1.62-.75-2.16-.5-.55-1.18-.825-2.04-.825-.85 0-1.53.275-2.04.825-.5.54-.75 1.26-.75 2.16v.12c0 .9.25 1.625.75 2.175.51.54 1.19.81 2.04.81Zm8.777.75c-.52 0-1.005-.11-1.455-.33-.44-.22-.795-.55-1.065-.99-.26-.45-.39-1.01-.39-1.68v-4.44h.9v4.38c0 .79.2 1.365.6 1.725.4.35.935.525 1.605.525.75 0 1.375-.245 1.875-.735.5-.5.75-1.25.75-2.25v-3.645h.9v7.29h-.87v-1.35h-.18c-.18.39-.475.74-.885 1.05-.41.3-1.005.45-1.785.45Zm6.365-.15v-7.29h.87v.915h.18c.14-.33.345-.57.615-.72.28-.15.665-.225 1.155-.225h.855v.84h-.96c-.55 0-.99.155-1.32.465-.33.31-.495.795-.495 1.455v4.56h-.9Zm9.404 0v-7.29h.9v7.29h-.9Zm.45-8.55a.754.754 0 0 1-.555-.225.754.754 0 0 1-.225-.555c0-.23.075-.415.225-.555a.754.754 0 0 1 .555-.225c.23 0 .415.075.555.225.15.14.225.325.225.555 0 .22-.075.405-.225.555a.723.723 0 0 1-.555.225Zm6.245 8.76c-.65 0-1.24-.15-1.77-.45a3.475 3.475 0 0 1-1.275-1.305c-.31-.57-.465-1.24-.465-2.01v-.18c0-.77.155-1.435.465-1.995.31-.57.73-1.005 1.26-1.305a3.522 3.522 0 0 1 1.785-.465c.54 0 .995.075 1.365.225.37.14.67.325.9.555.24.22.425.455.555.705h.18v-4.485h.9v10.5h-.87v-1.335h-.18c-.21.4-.54.76-.99 1.08-.44.31-1.06.465-1.86.465Zm.21-.81c.83 0 1.5-.265 2.01-.795.52-.53.78-1.26.78-2.19v-.12c0-.93-.26-1.66-.78-2.19-.51-.53-1.18-.795-2.01-.795-.82 0-1.49.265-2.01.795-.52.53-.78 1.26-.78 2.19v.12c0 .93.26 1.66.78 2.19s1.19.795 2.01.795Zm9.697.81c-.75 0-1.405-.155-1.965-.465-.55-.32-.98-.765-1.29-1.335-.31-.57-.465-1.225-.465-1.965v-.18c0-.75.155-1.405.465-1.965.31-.57.735-1.01 1.275-1.32.55-.32 1.175-.48 1.875-.48.68 0 1.28.145 1.8.435.53.28.945.69 1.245 1.23.3.53.45 1.165.45 1.905v.48h-6.21c.03.91.305 1.615.825 2.115.53.49 1.195.735 1.995.735.68 0 1.205-.155 1.575-.465.38-.31.67-.69.87-1.14l.81.36c-.15.33-.36.655-.63.975-.26.31-.6.57-1.02.78-.42.2-.955.3-1.605.3Zm-2.805-4.44h5.28c-.04-.79-.295-1.395-.765-1.815-.47-.43-1.075-.645-1.815-.645-.73 0-1.335.215-1.815.645-.48.42-.775 1.025-.885 1.815Zm8.41 4.23v-7.29h.87v1.35h.18c.18-.39.475-.735.885-1.035.41-.31 1.005-.465 1.785-.465.53 0 1.015.11 1.455.33.44.22.79.555 1.05 1.005.27.44.405.995.405 1.665v4.44h-.9v-4.38c0-.8-.2-1.375-.6-1.725-.4-.35-.935-.525-1.605-.525-.75 0-1.375.25-1.875.75-.5.49-.75 1.235-.75 2.235v3.645h-.9Zm11.619 0c-.39 0-.685-.1-.885-.3-.19-.2-.285-.48-.285-.84v-5.34h-2.34v-.81h2.34v-2.73h.9v2.73h2.55v.81h-2.55v5.22c0 .3.15.45.45.45h1.71v.81h-1.89Zm4.289 0v-7.29h.9v7.29h-.9Zm.45-8.55a.754.754 0 0 1-.555-.225.754.754 0 0 1-.225-.555c0-.23.075-.415.225-.555a.754.754 0 0 1 .555-.225c.23 0 .415.075.555.225.15.14.225.325.225.555 0 .22-.075.405-.225.555a.723.723 0 0 1-.555.225Zm5.735 8.55c-.39 0-.685-.1-.885-.3-.19-.2-.285-.48-.285-.84v-5.34h-2.34v-.81h2.34v-2.73h.9v2.73h2.55v.81h-2.55v5.22c0 .3.15.45.45.45h1.71v.81h-1.89Zm5.204 3v-.81h4.26c.3 0 .45-.15.45-.45v-3h-.18c-.12.24-.29.47-.51.69-.21.21-.49.385-.84.525-.34.13-.77.195-1.29.195s-1.005-.11-1.455-.33c-.44-.22-.795-.55-1.065-.99-.26-.44-.39-.995-.39-1.665v-4.455h.9v4.395c0 .79.2 1.36.6 1.71.4.35.935.525 1.605.525.75 0 1.375-.245 1.875-.735s.75-1.235.75-2.235v-3.66h.9v9.15c0 .36-.1.64-.3.84-.19.2-.48.3-.87.3h-4.44Zm-211.696 16c-.39 0-.685-.1-.885-.3-.19-.2-.285-.48-.285-.84v-5.34h-2.34v-.81h2.34v-2.73h.9v2.73h2.55v.81h-2.55v5.22c0 .3.15.45.45.45h1.71v.81h-1.89Zm7.355.21c-.74 0-1.39-.155-1.95-.465a3.41 3.41 0 0 1-1.29-1.32c-.3-.57-.45-1.23-.45-1.98v-.18c0-.75.15-1.405.45-1.965.31-.57.74-1.01 1.29-1.32.56-.32 1.21-.48 1.95-.48s1.385.16 1.935.48c.56.31.99.75 1.29 1.32.31.56.465 1.215.465 1.965v.18c0 .75-.155 1.41-.465 1.98-.3.56-.73 1-1.29 1.32-.55.31-1.195.465-1.935.465Zm0-.81c.86 0 1.54-.27 2.04-.81.5-.55.75-1.275.75-2.175v-.12c0-.9-.25-1.62-.75-2.16-.5-.55-1.18-.825-2.04-.825-.85 0-1.53.275-2.04.825-.5.54-.75 1.26-.75 2.16v.12c0 .9.25 1.625.75 2.175.51.54 1.19.81 2.04.81Zm5.972.6v-10.5h.9v6.33h.18l3.735-3.12h1.32l-4.32 3.555 4.44 3.735h-1.305l-3.87-3.285h-.18v3.285h-.9Zm10.89.21c-.75 0-1.406-.155-1.966-.465-.55-.32-.98-.765-1.29-1.335-.31-.57-.465-1.225-.465-1.965v-.18c0-.75.156-1.405.466-1.965.31-.57.734-1.01 1.274-1.32.55-.32 1.175-.48 1.875-.48.68 0 1.28.145 1.8.435.53.28.945.69 1.245 1.23.3.53.45 1.165.45 1.905v.48h-6.21c.03.91.305 1.615.825 2.115.53.49 1.195.735 1.995.735.68 0 1.206-.155 1.576-.465.38-.31.67-.69.87-1.14l.81.36c-.15.33-.36.655-.63.975-.26.31-.6.57-1.02.78-.42.2-.956.3-1.606.3Zm-2.805-4.44h5.28c-.04-.79-.295-1.395-.765-1.815-.47-.43-1.075-.645-1.816-.645-.73 0-1.335.215-1.815.645-.48.42-.774 1.025-.884 1.815Zm8.409 4.23v-7.29h.87v1.35h.18c.18-.39.475-.735.885-1.035.41-.31 1.005-.465 1.785-.465.53 0 1.015.11 1.455.33.44.22.79.555 1.05 1.005.27.44.405.995.405 1.665v4.44h-.9v-4.38c0-.8-.2-1.375-.6-1.725-.4-.35-.935-.525-1.605-.525-.75 0-1.375.25-1.875.75-.5.49-.75 1.235-.75 2.235v3.645h-.9Zm12.538-3.45v-.84h4.44v.84h-4.44Zm13.071 3.45c-.39 0-.685-.1-.885-.3-.19-.2-.285-.48-.285-.84v-5.34h-2.34v-.81h2.34v-2.73h.9v2.73h2.55v.81h-2.55v5.22c0 .3.15.45.45.45h1.71v.81h-1.89Zm7.355.21c-.74 0-1.39-.155-1.95-.465a3.41 3.41 0 0 1-1.29-1.32c-.3-.57-.45-1.23-.45-1.98v-.18c0-.75.15-1.405.45-1.965.31-.57.74-1.01 1.29-1.32.56-.32 1.21-.48 1.95-.48s1.385.16 1.935.48c.56.31.99.75 1.29 1.32.31.56.465 1.215.465 1.965v.18c0 .75-.155 1.41-.465 1.98-.3.56-.73 1-1.29 1.32-.55.31-1.195.465-1.935.465Zm0-.81c.86 0 1.54-.27 2.04-.81.5-.55.75-1.275.75-2.175v-.12c0-.9-.25-1.62-.75-2.16-.5-.55-1.18-.825-2.04-.825-.85 0-1.53.275-2.04.825-.5.54-.75 1.26-.75 2.16v.12c0 .9.25 1.625.75 2.175.51.54 1.19.81 2.04.81Zm9.479-3.015v-.18c0-.77.155-1.43.465-1.98.32-.55.745-.975 1.275-1.275.53-.3 1.12-.45 1.77-.45.8 0 1.42.16 1.86.48.45.31.78.665.99 1.065h.18v-1.335h.84v9.15c0 .36-.095.64-.285.84-.19.2-.48.3-.87.3h-4.98v-.81h4.8c.31 0 .465-.15.465-.45v-3.135h-.18c-.13.24-.315.475-.555.705-.23.23-.53.42-.9.57-.37.14-.825.21-1.365.21-.65 0-1.245-.15-1.785-.45-.53-.3-.95-.725-1.26-1.275-.31-.56-.465-1.22-.465-1.98Zm3.72 2.895c.83 0 1.5-.26 2.01-.78.52-.52.78-1.235.78-2.145v-.12c0-.92-.26-1.635-.78-2.145-.51-.52-1.18-.78-2.01-.78-.82 0-1.49.26-2.01.78-.52.51-.78 1.225-.78 2.145v.12c0 .91.26 1.625.78 2.145s1.19.78 2.01.78Zm8.528.93c-.51 0-.975-.085-1.395-.255a2.29 2.29 0 0 1-.975-.78c-.24-.34-.36-.75-.36-1.23 0-.49.12-.895.36-1.215.24-.32.565-.56.975-.72.41-.16.865-.24 1.365-.24h2.67v-.585c0-.59-.17-1.05-.51-1.38-.34-.33-.835-.495-1.485-.495-.64 0-1.15.16-1.53.48-.37.31-.62.73-.75 1.26l-.87-.255c.12-.43.31-.815.57-1.155.26-.35.605-.625 1.035-.825.43-.21.945-.315 1.545-.315.92 0 1.63.24 2.13.72.51.48.765 1.15.765 2.01v3.54c0 .3.14.45.42.45h.705v.78h-.96c-.31 0-.555-.09-.735-.27-.18-.19-.27-.445-.27-.765v-.105h-.15c-.13.22-.3.435-.51.645-.2.21-.465.38-.795.51s-.745.195-1.245.195Zm.06-.81c.77 0 1.39-.23 1.86-.69.48-.47.72-1.13.72-1.98v-.18h-2.655c-.52 0-.955.115-1.305.345-.34.22-.51.565-.51 1.035s.175.835.525 1.095c.36.25.815.375 1.365.375Zm6.319.6v-7.29h.9v7.29h-.9Zm.45-8.55a.754.754 0 0 1-.555-.225.754.754 0 0 1-.225-.555c0-.23.075-.415.225-.555a.754.754 0 0 1 .555-.225c.23 0 .415.075.555.225.15.14.225.325.225.555 0 .22-.075.405-.225.555a.723.723 0 0 1-.555.225Zm3.095 8.55v-7.29h.87v1.35h.18c.18-.39.475-.735.885-1.035.41-.31 1.005-.465 1.785-.465.53 0 1.015.11 1.455.33.44.22.79.555 1.05 1.005.27.44.405.995.405 1.665v4.44h-.9v-4.38c0-.8-.2-1.375-.6-1.725-.4-.35-.935-.525-1.605-.525-.75 0-1.375.25-1.875.75-.5.49-.75 1.235-.75 2.235v3.645h-.9Zm15.031 0-2.73-7.29h.96l2.4 6.6h.18l2.4-6.6h.96l-2.73 7.29h-1.44Zm9.071.21c-.75 0-1.405-.155-1.965-.465-.55-.32-.98-.765-1.29-1.335-.31-.57-.465-1.225-.465-1.965v-.18c0-.75.155-1.405.465-1.965.31-.57.735-1.01 1.275-1.32.55-.32 1.175-.48 1.875-.48.68 0 1.28.145 1.8.435.53.28.945.69 1.245 1.23.3.53.45 1.165.45 1.905v.48h-6.21c.03.91.305 1.615.825 2.115.53.49 1.195.735 1.995.735.68 0 1.205-.155 1.575-.465.38-.31.67-.69.87-1.14l.81.36c-.15.33-.36.655-.63.975-.26.31-.6.57-1.02.78-.42.2-.955.3-1.605.3Zm-2.805-4.44h5.28c-.04-.79-.295-1.395-.765-1.815-.47-.43-1.075-.645-1.815-.645-.73 0-1.335.215-1.815.645-.48.42-.775 1.025-.885 1.815Zm8.41 4.23v-7.29h.87v.915h.18c.14-.33.345-.57.615-.72.28-.15.665-.225 1.155-.225h.855v.84h-.96c-.55 0-.99.155-1.32.465-.33.31-.495.795-.495 1.455v4.56h-.9Zm5.537 0v-7.29h.9v7.29h-.9Zm.45-8.55a.754.754 0 0 1-.555-.225.754.754 0 0 1-.225-.555c0-.23.075-.415.225-.555a.754.754 0 0 1 .555-.225c.23 0 .415.075.555.225.15.14.225.325.225.555 0 .22-.075.405-.225.555a.723.723 0 0 1-.555.225Zm4.625 8.55v-6.48h-2.4v-.81h2.4v-2.07c0-.36.095-.64.285-.84.2-.2.495-.3.885-.3h1.8v.81h-1.62c-.3 0-.45.15-.45.45v1.95h3.9v.81h-3.9v6.48h-.9Zm4.8 0v-7.29h.9v7.29h-.9Zm.45-8.55a.754.754 0 0 1-.555-.225.754.754 0 0 1-.225-.555c0-.23.075-.415.225-.555a.754.754 0 0 1 .555-.225c.23 0 .415.075.555.225.15.14.225.325.225.555 0 .22-.075.405-.225.555a.723.723 0 0 1-.555.225Zm6.453 8.76c-.75 0-1.405-.155-1.965-.465-.55-.32-.98-.765-1.29-1.335-.31-.57-.465-1.225-.465-1.965v-.18c0-.75.155-1.405.465-1.965.31-.57.735-1.01 1.275-1.32.55-.32 1.175-.48 1.875-.48.68 0 1.28.145 1.8.435.53.28.945.69 1.245 1.23.3.53.45 1.165.45 1.905v.48h-6.21c.03.91.305 1.615.825 2.115.53.49 1.195.735 1.995.735.68 0 1.205-.155 1.575-.465.38-.31.67-.69.87-1.14l.81.36c-.15.33-.36.655-.63.975-.26.31-.6.57-1.02.78-.42.2-.955.3-1.605.3Zm-2.805-4.44h5.28c-.04-.79-.295-1.395-.765-1.815-.47-.43-1.075-.645-1.815-.645-.73 0-1.335.215-1.815.645-.48.42-.775 1.025-.885 1.815Zm11.56 4.44c-.65 0-1.24-.15-1.77-.45a3.475 3.475 0 0 1-1.275-1.305c-.31-.57-.465-1.24-.465-2.01v-.18c0-.77.155-1.435.465-1.995.31-.57.73-1.005 1.26-1.305a3.522 3.522 0 0 1 1.785-.465c.54 0 .995.075 1.365.225.37.14.67.325.9.555.24.22.425.455.555.705h.18v-4.485h.9v10.5h-.87v-1.335h-.18c-.21.4-.54.76-.99 1.08-.44.31-1.06.465-1.86.465Zm.21-.81c.83 0 1.5-.265 2.01-.795.52-.53.78-1.26.78-2.19v-.12c0-.93-.26-1.66-.78-2.19-.51-.53-1.18-.795-2.01-.795-.82 0-1.49.265-2.01.795-.52.53-.78 1.26-.78 2.19v.12c0 .93.26 1.66.78 2.19s1.19.795 2.01.795Zm12.439.81c-.51 0-.975-.085-1.395-.255a2.29 2.29 0 0 1-.975-.78c-.24-.34-.36-.75-.36-1.23 0-.49.12-.895.36-1.215.24-.32.565-.56.975-.72.41-.16.865-.24 1.365-.24h2.67v-.585c0-.59-.17-1.05-.51-1.38-.34-.33-.835-.495-1.485-.495-.64 0-1.15.16-1.53.48-.37.31-.62.73-.75 1.26l-.87-.255c.12-.43.31-.815.57-1.155.26-.35.605-.625 1.035-.825.43-.21.945-.315 1.545-.315.92 0 1.63.24 2.13.72.51.48.765 1.15.765 2.01v3.54c0 .3.14.45.42.45h.705v.78h-.96c-.31 0-.555-.09-.735-.27-.18-.19-.27-.445-.27-.765v-.105h-.15c-.13.22-.3.435-.51.645-.2.21-.465.38-.795.51s-.745.195-1.245.195Zm.06-.81c.77 0 1.39-.23 1.86-.69.48-.47.72-1.13.72-1.98v-.18h-2.655c-.52 0-.955.115-1.305.345-.34.22-.51.565-.51 1.035s.175.835.525 1.095c.36.25.815.375 1.365.375Zm9.429.81c-.71 0-1.345-.15-1.905-.45a3.38 3.38 0 0 1-1.305-1.32c-.32-.57-.48-1.24-.48-2.01v-.15c0-.78.16-1.45.48-2.01.32-.57.755-1.005 1.305-1.305.56-.31 1.195-.465 1.905-.465.7 0 1.29.135 1.77.405.49.26.87.605 1.14 1.035.28.42.455.865.525 1.335l-.885.18a2.61 2.61 0 0 0-.375-1.065c-.2-.33-.48-.59-.84-.78-.36-.2-.805-.3-1.335-.3-.53 0-1.005.125-1.425.375-.42.24-.755.585-1.005 1.035-.24.44-.36.965-.36 1.575v.12c0 .61.12 1.14.36 1.59.25.44.585.785 1.005 1.035.42.24.895.36 1.425.36.8 0 1.41-.205 1.83-.615.42-.42.68-.93.78-1.53l.885.18c-.09.47-.28.92-.57 1.35-.28.42-.665.765-1.155 1.035-.48.26-1.07.39-1.77.39Zm9.038 0c-.71 0-1.345-.15-1.905-.45a3.38 3.38 0 0 1-1.305-1.32c-.32-.57-.48-1.24-.48-2.01v-.15c0-.78.16-1.45.48-2.01.32-.57.755-1.005 1.305-1.305.56-.31 1.195-.465 1.905-.465.7 0 1.29.135 1.77.405.49.26.87.605 1.14 1.035.28.42.455.865.525 1.335l-.885.18a2.61 2.61 0 0 0-.375-1.065c-.2-.33-.48-.59-.84-.78-.36-.2-.805-.3-1.335-.3-.53 0-1.005.125-1.425.375-.42.24-.755.585-1.005 1.035-.24.44-.36.965-.36 1.575v.12c0 .61.12 1.14.36 1.59.25.44.585.785 1.005 1.035.42.24.895.36 1.425.36.8 0 1.41-.205 1.83-.615.42-.42.68-.93.78-1.53l.885.18c-.09.47-.28.92-.57 1.35-.28.42-.665.765-1.155 1.035-.48.26-1.07.39-1.77.39Zm9.068 0c-.75 0-1.405-.155-1.965-.465-.55-.32-.98-.765-1.29-1.335-.31-.57-.465-1.225-.465-1.965v-.18c0-.75.155-1.405.465-1.965.31-.57.735-1.01 1.275-1.32.55-.32 1.175-.48 1.875-.48.68 0 1.28.145 1.8.435.53.28.945.69 1.245 1.23.3.53.45 1.165.45 1.905v.48h-6.21c.03.91.305 1.615.825 2.115.53.49 1.195.735 1.995.735.68 0 1.205-.155 1.575-.465.38-.31.67-.69.87-1.14l.81.36c-.15.33-.36.655-.63.975-.26.31-.6.57-1.02.78-.42.2-.955.3-1.605.3Zm-2.805-4.44h5.28c-.04-.79-.295-1.395-.765-1.815-.47-.43-1.075-.645-1.815-.645-.73 0-1.335.215-1.815.645-.48.42-.775 1.025-.885 1.815Zm11.305 4.44c-.88 0-1.635-.21-2.265-.63-.62-.42-1-1.115-1.14-2.085l.885-.165c.08.53.24.95.48 1.26.25.3.55.515.9.645.36.13.74.195 1.14.195.6 0 1.08-.12 1.44-.36.37-.25.555-.59.555-1.02 0-.44-.175-.745-.525-.915-.34-.17-.795-.305-1.365-.405l-.69-.12c-.46-.08-.875-.2-1.245-.36a2.345 2.345 0 0 1-.885-.675c-.21-.28-.315-.63-.315-1.05 0-.63.245-1.125.735-1.485.5-.36 1.16-.54 1.98-.54.83 0 1.495.19 1.995.57.51.37.83.91.96 1.62l-.84.18c-.1-.58-.34-.99-.72-1.23-.37-.24-.835-.36-1.395-.36-.55 0-.99.105-1.32.315-.33.21-.495.52-.495.93 0 .4.15.695.45.885.3.18.71.315 1.23.405l.69.12c.5.08.95.2 1.35.36.4.15.715.365.945.645.24.28.36.65.36 1.11 0 .69-.26 1.225-.78 1.605-.52.37-1.225.555-2.115.555Zm7.924 0c-.88 0-1.635-.21-2.265-.63-.62-.42-1-1.115-1.14-2.085l.885-.165c.08.53.24.95.48 1.26.25.3.55.515.9.645.36.13.74.195 1.14.195.6 0 1.08-.12 1.44-.36.37-.25.555-.59.555-1.02 0-.44-.175-.745-.525-.915-.34-.17-.795-.305-1.365-.405l-.69-.12c-.46-.08-.875-.2-1.245-.36a2.345 2.345 0 0 1-.885-.675c-.21-.28-.315-.63-.315-1.05 0-.63.245-1.125.735-1.485.5-.36 1.16-.54 1.98-.54.83 0 1.495.19 1.995.57.51.37.83.91.96 1.62l-.84.18c-.1-.58-.34-.99-.72-1.23-.37-.24-.835-.36-1.395-.36-.55 0-.99.105-1.32.315-.33.21-.495.52-.495.93 0 .4.15.695.45.885.3.18.71.315 1.23.405l.69.12c.5.08.95.2 1.35.36.4.15.715.365.945.645.24.28.36.65.36 1.11 0 .69-.26 1.225-.78 1.605-.52.37-1.225.555-2.115.555Zm-172.667 18.79c-.39 0-.685-.1-.885-.3-.19-.2-.285-.48-.285-.84v-5.34h-2.34v-.81h2.34v-2.73h.9v2.73h2.55v.81h-2.55v5.22c0 .3.15.45.45.45h1.71v.81h-1.89Zm7.355.21c-.74 0-1.39-.155-1.95-.465a3.41 3.41 0 0 1-1.29-1.32c-.3-.57-.45-1.23-.45-1.98v-.18c0-.75.15-1.405.45-1.965.31-.57.74-1.01 1.29-1.32.56-.32 1.21-.48 1.95-.48s1.385.16 1.935.48c.56.31.99.75 1.29 1.32.31.56.465 1.215.465 1.965v.18c0 .75-.155 1.41-.465 1.98-.3.56-.73 1-1.29 1.32-.55.31-1.195.465-1.935.465Zm0-.81c.86 0 1.54-.27 2.04-.81.5-.55.75-1.275.75-2.175v-.12c0-.9-.25-1.62-.75-2.16-.5-.55-1.18-.825-2.04-.825-.85 0-1.53.275-2.04.825-.5.54-.75 1.26-.75 2.16v.12c0 .9.25 1.625.75 2.175.51.54 1.19.81 2.04.81Zm11.039.6-1.65-7.29h.93l1.44 6.69h.18l1.875-6.69h1.53l1.875 6.69h.18l1.44-6.69h.93l-1.65 7.29h-1.575l-1.875-6.69h-.18l-1.875 6.69h-1.575Zm14.084.21c-.75 0-1.405-.155-1.965-.465-.55-.32-.98-.765-1.29-1.335-.31-.57-.465-1.225-.465-1.965v-.18c0-.75.155-1.405.465-1.965.31-.57.735-1.01 1.275-1.32.55-.32 1.175-.48 1.875-.48.68 0 1.28.145 1.8.435.53.28.945.69 1.245 1.23.3.53.45 1.165.45 1.905v.48h-6.21c.03.91.305 1.615.825 2.115.53.49 1.195.735 1.995.735.68 0 1.205-.155 1.575-.465.38-.31.67-.69.87-1.14l.81.36c-.15.33-.36.655-.63.975-.26.31-.6.57-1.02.78-.42.2-.955.3-1.605.3Zm-2.805-4.44h5.28c-.04-.79-.295-1.395-.765-1.815-.47-.43-1.075-.645-1.815-.645-.73 0-1.335.215-1.815.645-.48.42-.775 1.025-.885 1.815Zm12.31 4.44c-.8 0-1.425-.155-1.875-.465-.44-.32-.765-.68-.975-1.08h-.18v1.335h-.87v-10.5h.9v4.485h.18a2.666 2.666 0 0 1 1.455-1.26c.38-.15.835-.225 1.365-.225.66 0 1.255.155 1.785.465.53.3.95.735 1.26 1.305.31.56.465 1.225.465 1.995v.18c0 .77-.16 1.44-.48 2.01-.31.56-.73.995-1.26 1.305-.53.3-1.12.45-1.77.45Zm-.21-.81c.83 0 1.5-.265 2.01-.795.52-.53.78-1.26.78-2.19v-.12c0-.93-.26-1.66-.78-2.19-.51-.53-1.18-.795-2.01-.795-.82 0-1.49.265-2.01.795-.52.53-.78 1.26-.78 2.19v.12c0 .93.26 1.66.78 2.19s1.19.795 2.01.795Zm9.232.81c-.73 0-1.385-.14-1.965-.42a3.24 3.24 0 0 1-1.35-1.215c-.32-.54-.48-1.19-.48-1.95v-.285h.93v.3c0 .85.265 1.52.795 2.01.53.48 1.22.72 2.07.72.86 0 1.53-.23 2.01-.69.48-.46.72-1.04.72-1.74v-.09c0-.52-.125-.94-.375-1.26-.24-.32-.57-.555-.99-.705-.41-.16-.865-.24-1.365-.24h-1.545v-1.26l4.26-2.895v-.15h-6.27v-.84h7.2v1.35l-4.215 2.865v.15h.825c.65 0 1.23.115 1.74.345.51.22.915.55 1.215.99.3.43.45.97.45 1.62v.15c0 .65-.15 1.22-.45 1.71-.3.48-.725.855-1.275 1.125-.55.27-1.195.405-1.935.405Zm11.915 0c-.51 0-.975-.085-1.395-.255a2.29 2.29 0 0 1-.975-.78c-.24-.34-.36-.75-.36-1.23 0-.49.12-.895.36-1.215.24-.32.565-.56.975-.72.41-.16.865-.24 1.365-.24h2.67v-.585c0-.59-.17-1.05-.51-1.38-.34-.33-.835-.495-1.485-.495-.64 0-1.15.16-1.53.48-.37.31-.62.73-.75 1.26l-.87-.255c.12-.43.31-.815.57-1.155.26-.35.605-.625 1.035-.825.43-.21.945-.315 1.545-.315.92 0 1.63.24 2.13.72.51.48.765 1.15.765 2.01v3.54c0 .3.14.45.42.45h.705v.78h-.96c-.31 0-.555-.09-.735-.27-.18-.19-.27-.445-.27-.765v-.105h-.15c-.13.22-.3.435-.51.645-.2.21-.465.38-.795.51s-.745.195-1.245.195Zm.06-.81c.77 0 1.39-.23 1.86-.69.48-.47.72-1.13.72-1.98v-.18h-2.655c-.52 0-.955.115-1.305.345-.34.22-.51.565-.51 1.035s.175.835.525 1.095c.36.25.815.375 1.365.375Zm6.319.6v-7.29h.87v1.35h.18c.18-.39.475-.735.885-1.035.41-.31 1.005-.465 1.785-.465.53 0 1.015.11 1.455.33.44.22.79.555 1.05 1.005.27.44.405.995.405 1.665v4.44h-.9v-4.38c0-.8-.2-1.375-.6-1.725-.4-.35-.935-.525-1.605-.525-.75 0-1.375.25-1.875.75-.5.49-.75 1.235-.75 2.235v3.645h-.9Zm12.334.21c-.65 0-1.24-.15-1.77-.45a3.475 3.475 0 0 1-1.275-1.305c-.31-.57-.465-1.24-.465-2.01v-.18c0-.77.155-1.435.465-1.995.31-.57.73-1.005 1.26-1.305a3.522 3.522 0 0 1 1.785-.465c.54 0 .995.075 1.365.225.37.14.67.325.9.555.24.22.425.455.555.705h.18v-4.485h.9v10.5h-.87v-1.335h-.18c-.21.4-.54.76-.99 1.08-.44.31-1.06.465-1.86.465Zm.21-.81c.83 0 1.5-.265 2.01-.795.52-.53.78-1.26.78-2.19v-.12c0-.93-.26-1.66-.78-2.19-.51-.53-1.18-.795-2.01-.795-.82 0-1.49.265-2.01.795-.52.53-.78 1.26-.78 2.19v.12c0 .93.26 1.66.78 2.19s1.19.795 2.01.795Zm13.355.81c-.65 0-1.24-.15-1.77-.45a3.475 3.475 0 0 1-1.275-1.305c-.31-.57-.465-1.24-.465-2.01v-.18c0-.77.155-1.435.465-1.995.31-.57.73-1.005 1.26-1.305a3.522 3.522 0 0 1 1.785-.465c.54 0 .995.075 1.365.225.37.14.67.325.9.555.24.22.425.455.555.705h.18v-4.485h.9v10.5h-.87v-1.335h-.18c-.21.4-.54.76-.99 1.08-.44.31-1.06.465-1.86.465Zm.21-.81c.83 0 1.5-.265 2.01-.795.52-.53.78-1.26.78-2.19v-.12c0-.93-.26-1.66-.78-2.19-.51-.53-1.18-.795-2.01-.795-.82 0-1.49.265-2.01.795-.52.53-.78 1.26-.78 2.19v.12c0 .93.26 1.66.78 2.19s1.19.795 2.01.795Zm5.437.6 3.435-10.5h1.71l3.435 10.5h-1.005l-.9-2.79h-4.77l-.9 2.79h-1.005Zm2.175-3.66h4.23l-2.025-6.27h-.18l-2.025 6.27Zm8.144 6.66v-10.29h.87v1.335h.18c.21-.4.535-.755.975-1.065.45-.32 1.075-.48 1.875-.48.65 0 1.24.155 1.77.465.53.3.95.73 1.26 1.29.32.56.48 1.23.48 2.01v.18c0 .77-.155 1.44-.465 2.01-.31.56-.73.995-1.26 1.305-.53.3-1.125.45-1.785.45-.53 0-.985-.07-1.365-.21-.37-.15-.675-.34-.915-.57-.23-.23-.41-.465-.54-.705h-.18v4.275h-.9Zm3.69-3.6c.83 0 1.5-.265 2.01-.795.52-.53.78-1.26.78-2.19v-.12c0-.93-.26-1.66-.78-2.19-.51-.53-1.18-.795-2.01-.795-.82 0-1.49.265-2.01.795-.52.53-.78 1.26-.78 2.19v.12c0 .93.26 1.66.78 2.19s1.19.795 2.01.795Zm6.007 3.6v-10.29h.87v1.335h.18c.21-.4.535-.755.975-1.065.45-.32 1.075-.48 1.875-.48.65 0 1.24.155 1.77.465.53.3.95.73 1.26 1.29.32.56.48 1.23.48 2.01v.18c0 .77-.155 1.44-.465 2.01-.31.56-.73.995-1.26 1.305-.53.3-1.125.45-1.785.45-.53 0-.985-.07-1.365-.21-.37-.15-.675-.34-.915-.57-.23-.23-.41-.465-.54-.705h-.18v4.275h-.9Zm3.69-3.6c.83 0 1.5-.265 2.01-.795.52-.53.78-1.26.78-2.19v-.12c0-.93-.26-1.66-.78-2.19-.51-.53-1.18-.795-2.01-.795-.82 0-1.49.265-2.01.795-.52.53-.78 1.26-.78 2.19v.12c0 .93.26 1.66.78 2.19s1.19.795 2.01.795Zm8.903.81c-.88 0-1.635-.21-2.265-.63-.62-.42-1-1.115-1.14-2.085l.885-.165c.08.53.24.95.48 1.26.25.3.55.515.9.645.36.13.74.195 1.14.195.6 0 1.08-.12 1.44-.36.37-.25.555-.59.555-1.02 0-.44-.175-.745-.525-.915-.34-.17-.795-.305-1.365-.405l-.69-.12c-.46-.08-.875-.2-1.245-.36a2.345 2.345 0 0 1-.885-.675c-.21-.28-.315-.63-.315-1.05 0-.63.245-1.125.735-1.485.5-.36 1.16-.54 1.98-.54.83 0 1.495.19 1.995.57.51.37.83.91.96 1.62l-.84.18c-.1-.58-.34-.99-.72-1.23-.37-.24-.835-.36-1.395-.36-.55 0-.99.105-1.32.315-.33.21-.495.52-.495.93 0 .4.15.695.45.885.3.18.71.315 1.23.405l.69.12c.5.08.95.2 1.35.36.4.15.715.365.945.645.24.28.36.65.36 1.11 0 .69-.26 1.225-.78 1.605-.52.37-1.225.555-2.115.555Z"/><path stroke="#fff" stroke-width=".5" d="M181.345 91.424c15.507 0 30.718 1.35 45.489 3.934l1.428.254C329.817 114.02 410.949 191.05 435.335 290.39c-26.249-88.359-108.076-152.804-204.956-152.805-102.395 0-187.971 71.974-208.89 168.097l-.007.026v.008l-.01.045a215.116 215.116 0 0 0-4.845 41.585l-.005.255h109.355l.023-.005c30.087-5.732 52.934-31.722 53.839-63.269l.172-5.848.167 5.847c.905 31.548 23.752 57.539 53.84 63.27l.022.005h211.994v4.559c0 8.103-.375 16.123-1.098 24.034l-.15 1.581c-12.863 132.406-124.49 235.91-260.277 235.91a263.801 263.801 0 0 1-45.489-3.934l-1.428-.253C31.822 590.335-51.811 507.546-72.22 402.21c22.802 93.527 107.135 162.942 207.695 162.942 105.64 0 193.386-76.63 210.679-177.329a214.35 214.35 0 0 0 3.104-36.454v-1.105H233.945l-.023.005c-29.805 5.734-52.482 31.349-53.719 62.532l-.025.738-.167 5.845-.172-5.845c-.889-31.517-23.705-57.491-53.744-63.27l-.024-.005H17.111v-1.126l-.5-.009c-.013.38-.014.759-.014 1.135h-96.758l.044-2.908a265.63 265.63 0 0 1 1.686-24.838l.194-1.631C-62.481 192.083 46.91 92.207 179.78 91.429l1.564-.005Z" opacity=".09"/><rect width="249.832" height="65.003" x="55.069" y="452.24" fill="url(#g)" rx="32.502"/><path fill="#000" d="M134.131 492.236c-1.64 0-2.954-.48-3.94-1.44-.974-.973-1.46-2.393-1.46-4.26v-3.16c0-1.866.486-3.28 1.46-4.24.986-.973 2.3-1.46 3.94-1.46 1.626 0 2.866.46 3.72 1.38.866.907 1.3 2.147 1.3 3.72v.1h-1.28v-.14c0-1.146-.307-2.08-.92-2.8-.6-.733-1.54-1.1-2.82-1.1-1.294 0-2.307.394-3.04 1.18-.72.787-1.08 1.894-1.08 3.32v3.24c0 1.427.36 2.534 1.08 3.32.733.787 1.746 1.18 3.04 1.18 1.28 0 2.22-.36 2.82-1.08.613-.733.92-1.673.92-2.82v-.3h1.28v.26c0 1.574-.434 2.82-1.3 3.74-.854.907-2.094 1.36-3.72 1.36Zm7.892-.28v-9.72h1.16v1.22h.24c.187-.44.46-.76.82-.96.374-.2.887-.3 1.54-.3h1.14v1.12h-1.28c-.733 0-1.32.207-1.76.62-.44.414-.66 1.06-.66 1.94v6.08h-1.2Zm11.512.28c-1 0-1.874-.206-2.62-.62a4.498 4.498 0 0 1-1.72-1.78c-.414-.76-.62-1.633-.62-2.62v-.24c0-1 .206-1.873.62-2.62.413-.76.98-1.346 1.7-1.76.733-.426 1.566-.64 2.5-.64.906 0 1.706.194 2.4.58.706.374 1.26.92 1.66 1.64.4.707.6 1.554.6 2.54v.64h-8.28c.04 1.214.406 2.154 1.1 2.82.706.654 1.593.98 2.66.98.906 0 1.606-.206 2.1-.62.506-.413.893-.92 1.16-1.52l1.08.48c-.2.44-.48.874-.84 1.3-.347.414-.8.76-1.36 1.04-.56.267-1.274.4-2.14.4Zm-3.74-5.92h7.04c-.054-1.053-.394-1.86-1.02-2.42-.627-.573-1.434-.86-2.42-.86-.974 0-1.78.287-2.42.86-.64.56-1.034 1.367-1.18 2.42Zm14.193 5.92c-.68 0-1.3-.113-1.86-.34a3.048 3.048 0 0 1-1.3-1.04c-.32-.453-.48-1-.48-1.64 0-.653.16-1.193.48-1.62.32-.426.753-.746 1.3-.96a4.971 4.971 0 0 1 1.82-.32h3.56v-.78c0-.786-.227-1.4-.68-1.84-.454-.44-1.114-.66-1.98-.66-.854 0-1.534.214-2.04.64-.494.414-.827.974-1 1.68l-1.16-.34c.16-.573.413-1.086.76-1.54a3.54 3.54 0 0 1 1.38-1.1c.573-.28 1.26-.42 2.06-.42 1.226 0 2.173.32 2.84.96.68.64 1.02 1.534 1.02 2.68v4.72c0 .4.186.6.56.6h.94v1.04h-1.28c-.414 0-.74-.12-.98-.36-.24-.253-.36-.593-.36-1.02v-.14h-.2c-.174.294-.4.58-.68.86-.267.28-.62.507-1.06.68-.44.174-.994.26-1.66.26Zm.08-1.08c1.026 0 1.853-.306 2.48-.92.64-.626.96-1.506.96-2.64v-.24h-3.54c-.694 0-1.274.154-1.74.46-.454.294-.68.754-.68 1.38 0 .627.233 1.114.7 1.46.48.334 1.086.5 1.82.5Zm11.339.8c-.52 0-.914-.133-1.18-.4-.254-.266-.38-.64-.38-1.12v-7.12h-3.12v-1.08h3.12v-3.64h1.2v3.64h3.4v1.08h-3.4v6.96c0 .4.2.6.6.6h2.28v1.08h-2.52Zm9.846.28c-1 0-1.873-.206-2.62-.62a4.512 4.512 0 0 1-1.72-1.78c-.413-.76-.62-1.633-.62-2.62v-.24c0-1 .207-1.873.62-2.62a4.42 4.42 0 0 1 1.7-1.76c.734-.426 1.567-.64 2.5-.64.907 0 1.707.194 2.4.58.707.374 1.26.92 1.66 1.64.4.707.6 1.554.6 2.54v.64h-8.28c.04 1.214.407 2.154 1.1 2.82.707.654 1.594.98 2.66.98.907 0 1.607-.206 2.1-.62.507-.413.894-.92 1.16-1.52l1.08.48c-.2.44-.48.874-.84 1.3-.346.414-.8.76-1.36 1.04-.56.267-1.273.4-2.14.4Zm-3.74-5.92h7.04c-.053-1.053-.393-1.86-1.02-2.42-.626-.573-1.433-.86-2.42-.86-.973 0-1.78.287-2.42.86-.64.56-1.033 1.367-1.18 2.42Zm20.89 5.92c-1 0-1.893-.173-2.68-.52a4.224 4.224 0 0 1-1.86-1.62c-.453-.733-.68-1.66-.68-2.78v-.38h1.28v.38c0 1.294.367 2.254 1.1 2.88.747.614 1.693.92 2.84.92 1.16 0 2.053-.266 2.68-.8.627-.546.94-1.24.94-2.08 0-.56-.14-1.006-.42-1.34-.267-.346-.647-.62-1.14-.82-.48-.213-1.04-.4-1.68-.56l-1.28-.32c-.76-.2-1.44-.446-2.04-.74-.6-.306-1.073-.7-1.42-1.18-.347-.493-.52-1.12-.52-1.88 0-.76.193-1.42.58-1.98.4-.56.947-.986 1.64-1.28.693-.306 1.5-.46 2.42-.46.92 0 1.747.16 2.48.48.747.32 1.333.794 1.76 1.42.44.614.66 1.387.66 2.32v.94h-1.28v-.94c0-.733-.16-1.326-.48-1.78a2.796 2.796 0 0 0-1.3-1c-.547-.213-1.16-.32-1.84-.32-.973 0-1.78.227-2.42.68-.627.44-.94 1.08-.94 1.92 0 .56.127 1.007.38 1.34.267.334.633.6 1.1.8.48.2 1.04.38 1.68.54l1.28.32c.733.174 1.407.407 2.02.7a3.72 3.72 0 0 1 1.48 1.18c.373.494.56 1.147.56 1.96 0 .814-.207 1.52-.62 2.12-.4.6-.967 1.067-1.7 1.4-.733.32-1.593.48-2.58.48Zm12.224 0c-.986 0-1.853-.206-2.6-.62a4.546 4.546 0 0 1-1.72-1.76c-.4-.76-.6-1.64-.6-2.64v-.24c0-1 .2-1.873.6-2.62a4.383 4.383 0 0 1 1.72-1.76c.747-.426 1.614-.64 2.6-.64.987 0 1.847.214 2.58.64.747.414 1.32 1 1.72 1.76.414.747.62 1.62.62 2.62v.24c0 1-.206 1.88-.62 2.64a4.36 4.36 0 0 1-1.72 1.76c-.733.414-1.593.62-2.58.62Zm0-1.08c1.147 0 2.054-.36 2.72-1.08.667-.733 1-1.7 1-2.9v-.16c0-1.2-.333-2.16-1-2.88-.666-.733-1.573-1.1-2.72-1.1-1.133 0-2.04.367-2.72 1.1-.666.72-1 1.68-1 2.88v.16c0 1.2.334 2.167 1 2.9.68.72 1.587 1.08 2.72 1.08Zm7.963.8v-14h1.2v14h-1.2Zm4.726 0v-9.72h1.2v9.72h-1.2Zm.6-11.4c-.293 0-.54-.1-.74-.3-.2-.2-.3-.446-.3-.74 0-.306.1-.553.3-.74.2-.2.447-.3.74-.3.307 0 .554.1.74.3.2.187.3.434.3.74 0 .294-.1.54-.3.74-.186.2-.433.3-.74.3Zm8.327 11.68c-.867 0-1.653-.2-2.36-.6a4.629 4.629 0 0 1-1.7-1.74c-.413-.76-.62-1.653-.62-2.68v-.24c0-1.026.207-1.913.62-2.66.413-.76.973-1.34 1.68-1.74a4.698 4.698 0 0 1 2.38-.62c.72 0 1.327.1 1.82.3.493.187.893.434 1.2.74.32.294.567.607.74.94h.24v-5.98h1.2v14h-1.16v-1.78h-.24c-.28.534-.72 1.014-1.32 1.44-.587.414-1.413.62-2.48.62Zm.28-1.08c1.107 0 2-.353 2.68-1.06.693-.706 1.04-1.68 1.04-2.92v-.16c0-1.24-.347-2.213-1.04-2.92-.68-.706-1.573-1.06-2.68-1.06-1.093 0-1.987.354-2.68 1.06-.693.707-1.04 1.68-1.04 2.92v.16c0 1.24.347 2.214 1.04 2.92.693.707 1.587 1.06 2.68 1.06Zm13.566.8v-14h1.28v14h-1.28Zm3.966 0v-1.16h2v-11.68h-2v-1.16h5.32c1.827 0 3.247.467 4.26 1.4 1.027.92 1.54 2.36 1.54 4.32v2.58c0 1.96-.513 3.4-1.54 4.32-1.013.92-2.433 1.38-4.26 1.38h-5.32Zm3.28-1.16h2.04c1.467 0 2.587-.353 3.36-1.06.774-.706 1.16-1.846 1.16-3.42v-2.7c0-1.586-.386-2.726-1.16-3.42-.773-.706-1.893-1.06-3.36-1.06h-2.04v11.66Z"/><path stroke="#000" stroke-linecap="round" stroke-linejoin="round" stroke-width="2" d="M104.853 483a2.001 2.001 0 0 0-2 2c0 1.02-.1 2.51-.26 4m4.26-2.88c0 2.38 0 6.38-1 8.88m4.29-.98c.12-.6.43-2.3.5-3.02m-15.79-6a9.998 9.998 0 0 1 12.981-9.545 10.003 10.003 0 0 1 5.019 3.545m-18 10h.01m19.79 0c.2-2 .131-5.354 0-6m-16.8 9.5c.5-1.5 1-4.5 1-7.5a6 6 0 0 1 .34-2m2.31 12c.21-.66.45-1.32.57-2m-.22-13.2a5.997 5.997 0 0 1 8.197 2.199c.526.912.803 1.947.803 3.001v2"/><rect width="248.832" height="64.003" x="55.569" y="537.727" fill="#3C3C3C" stroke="#6A6B80" rx="32.002"/><path fill="url(#h)" d="M122.664 576.943v-1.16h2v-11.68h-2v-1.16h5.32c1.827 0 3.247.466 4.26 1.4 1.027.92 1.54 2.36 1.54 4.32v2.58c0 1.96-.513 3.4-1.54 4.32-1.013.92-2.433 1.38-4.26 1.38h-5.32Zm3.28-1.16h2.04c1.467 0 2.587-.354 3.36-1.06.773-.707 1.16-1.847 1.16-3.42v-2.7c0-1.587-.387-2.727-1.16-3.42-.773-.707-1.893-1.06-3.36-1.06h-2.04v11.66Zm15.202 1.44c-.986 0-1.853-.207-2.6-.62a4.56 4.56 0 0 1-1.72-1.76c-.4-.76-.6-1.64-.6-2.64v-.24c0-1 .2-1.874.6-2.62a4.377 4.377 0 0 1 1.72-1.76c.747-.427 1.614-.64 2.6-.64.987 0 1.847.213 2.58.64.747.413 1.32 1 1.72 1.76.414.746.62 1.62.62 2.62v.24c0 1-.206 1.88-.62 2.64a4.373 4.373 0 0 1-1.72 1.76c-.733.413-1.593.62-2.58.62Zm0-1.08c1.147 0 2.054-.36 2.72-1.08.667-.734 1-1.7 1-2.9v-.16c0-1.2-.333-2.16-1-2.88-.666-.734-1.573-1.1-2.72-1.1-1.133 0-2.04.366-2.72 1.1-.666.72-1 1.68-1 2.88v.16c0 1.2.334 2.166 1 2.9.68.72 1.587 1.08 2.72 1.08Zm16.639.8c-.52 0-.914-.134-1.18-.4-.254-.267-.38-.64-.38-1.12v-7.12h-3.12v-1.08h3.12v-3.64h1.2v3.64h3.4v1.08h-3.4v6.96c0 .4.2.6.6.6h2.28v1.08h-2.52Zm5.718 0v-14h1.2v5.98h.24c.16-.32.38-.62.66-.9a3.133 3.133 0 0 1 1.12-.7c.467-.187 1.047-.28 1.74-.28.707 0 1.353.146 1.94.44a3.33 3.33 0 0 1 1.4 1.32c.36.586.54 1.326.54 2.22v5.92h-1.2v-5.84c0-1.067-.267-1.827-.8-2.28-.533-.467-1.247-.7-2.14-.7-1 0-1.833.326-2.5.98-.667.653-1 1.646-1 2.98v4.86h-1.2Zm12.246 0v-9.72h1.2v9.72h-1.2Zm.6-11.4c-.293 0-.54-.1-.74-.3-.2-.2-.3-.447-.3-.74 0-.307.1-.554.3-.74.2-.2.447-.3.74-.3.307 0 .553.1.74.3.2.186.3.433.3.74 0 .293-.1.54-.3.74-.187.2-.433.3-.74.3Zm7.987 11.68c-1.174 0-2.18-.28-3.02-.84-.827-.56-1.334-1.487-1.52-2.78l1.18-.22c.106.706.32 1.266.64 1.68.333.4.733.686 1.2.86.48.173.986.26 1.52.26.8 0 1.44-.16 1.92-.48.493-.334.74-.787.74-1.36 0-.587-.234-.994-.7-1.22-.454-.227-1.06-.407-1.82-.54l-.92-.16a7.364 7.364 0 0 1-1.66-.48c-.494-.227-.887-.527-1.18-.9-.28-.374-.42-.84-.42-1.4 0-.84.326-1.5.98-1.98.666-.48 1.546-.72 2.64-.72 1.106 0 1.993.253 2.66.76.68.493 1.106 1.213 1.28 2.16l-1.12.24c-.134-.774-.454-1.32-.96-1.64-.494-.32-1.114-.48-1.86-.48-.734 0-1.32.14-1.76.42-.44.28-.66.693-.66 1.24 0 .533.2.926.6 1.18.4.24.946.42 1.64.54l.92.16a8.373 8.373 0 0 1 1.8.48c.533.2.953.486 1.26.86.32.373.48.866.48 1.48 0 .92-.347 1.633-1.04 2.14-.694.493-1.634.74-2.82.74Zm11.862-.28v-14h1.2v14h-1.2Zm7.707.28c-.68 0-1.3-.114-1.86-.34a3.055 3.055 0 0 1-1.3-1.04c-.32-.454-.48-1-.48-1.64 0-.654.16-1.194.48-1.62.32-.427.753-.747 1.3-.96a4.954 4.954 0 0 1 1.82-.32h3.56v-.78c0-.787-.227-1.4-.68-1.84-.453-.44-1.113-.66-1.98-.66-.853 0-1.533.213-2.04.64-.493.413-.827.973-1 1.68l-1.16-.34c.16-.574.413-1.087.76-1.54a3.537 3.537 0 0 1 1.38-1.1c.573-.28 1.26-.42 2.06-.42 1.227 0 2.173.32 2.84.96.68.64 1.02 1.533 1.02 2.68v4.72c0 .4.187.6.56.6h.94v1.04h-1.28c-.413 0-.74-.12-.98-.36-.24-.254-.36-.594-.36-1.02v-.14h-.2c-.173.293-.4.58-.68.86-.267.28-.62.506-1.06.68-.44.173-.993.26-1.66.26Zm.08-1.08c1.027 0 1.853-.307 2.48-.92.64-.627.96-1.507.96-2.64v-.24h-3.54c-.693 0-1.273.153-1.74.46-.453.293-.68.753-.68 1.38 0 .626.233 1.113.7 1.46.48.333 1.087.5 1.82.5Zm11.339.8c-.52 0-.914-.134-1.18-.4-.254-.267-.38-.64-.38-1.12v-7.12h-3.12v-1.08h3.12v-3.64h1.2v3.64h3.4v1.08h-3.4v6.96c0 .4.2.6.6.6h2.28v1.08h-2.52Zm9.847.28c-1 0-1.874-.207-2.62-.62a4.505 4.505 0 0 1-1.72-1.78c-.414-.76-.62-1.634-.62-2.62v-.24c0-1 .206-1.874.62-2.62.413-.76.98-1.347 1.7-1.76.733-.427 1.566-.64 2.5-.64.906 0 1.706.193 2.4.58.706.373 1.26.92 1.66 1.64.4.706.6 1.553.6 2.54v.64h-8.28c.04 1.213.406 2.153 1.1 2.82.706.653 1.593.98 2.66.98.906 0 1.606-.207 2.1-.62.506-.414.893-.92 1.16-1.52l1.08.48c-.2.44-.48.873-.84 1.3-.347.413-.8.76-1.36 1.04-.56.266-1.274.4-2.14.4Zm-3.74-5.92h7.04c-.054-1.054-.394-1.86-1.02-2.42-.627-.574-1.434-.86-2.42-.86-.974 0-1.78.286-2.42.86-.64.56-1.034 1.366-1.18 2.42Zm11.213 5.64v-9.72h1.16v1.22h.24c.186-.44.46-.76.82-.96.373-.2.886-.3 1.54-.3h1.14v1.12h-1.28c-.734 0-1.32.206-1.76.62-.44.413-.66 1.06-.66 1.94v6.08h-1.2Z"/><rect width="103.94" height="30.339" x="118.672" y="31.125" fill="#151515" rx="15.17"/><path fill="url(#i)" d="M151.225 203.922h10.622l.001-.151v.151h11.925a7.22 7.22 0 0 1 5.847 6.884l.047 1.58.045-1.58a7.222 7.222 0 0 1 5.847-6.884h12.564v.093c0 1.356-.116 2.684-.338 3.977-1.887 10.984-11.459 19.344-22.982 19.344-11.417 0-20.916-8.202-22.927-19.035 1.783 12.116 11.168 21.76 23.153 23.932 1.663.3 3.379.458 5.129.458 14.844 0 27.046-11.315 28.453-25.789.089-.921.136-1.856.136-2.801v-.525H185.57a7.218 7.218 0 0 1-5.858-6.884l-.045-1.58-.047 1.58a7.218 7.218 0 0 1-5.857 6.884H161.85a23.5 23.5 0 0 1 .529-4.536l.001-.009c2.282-10.485 11.618-18.337 22.787-18.337 11.013 0 20.243 7.634 22.687 17.898-2.273-11.456-11.391-20.447-22.913-22.536a28.897 28.897 0 0 0-5.129-.458c-14.602 0-26.647 10.949-28.377 25.085a29.302 29.302 0 0 0-.21 3.239Z"/><path fill="url(#j)" d="M161.847 203.922h-10.622v.007h10.622v-.007Z"/></g><g filter="url(#k)"><rect width="255.501" height="236.605" x="246.929" y="528.997" fill="#212121" stroke="url(#l)" rx="19.86"/><rect width="178.931" height="46.024" x="285.214" y="691.979" fill="url(#m)" stroke="url(#n)" stroke-width=".719" rx="23.012"/><path fill="url(#o)" d="M362.531 720.403c-1.18 0-2.119-.345-2.819-1.036-.7-.7-1.05-1.721-1.05-3.063v-2.272c0-1.343.35-2.359 1.05-3.049.7-.7 1.639-1.05 2.819-1.05 1.179 0 2.119.35 2.819 1.05.699.69 1.049 1.706 1.049 3.049v2.272c0 1.342-.35 2.363-1.049 3.063-.7.691-1.64 1.036-2.819 1.036Zm0-.834c.939 0 1.663-.283 2.171-.849.518-.566.777-1.361.777-2.387v-2.33c0-1.026-.259-1.822-.777-2.387-.508-.566-1.232-.849-2.171-.849-.93 0-1.654.283-2.172.849-.518.565-.776 1.361-.776 2.387v2.33c0 1.026.258 1.821.776 2.387.518.566 1.242.849 2.172.849Zm6.055.632v-10.067h.863v6.069h.172l3.581-2.991h1.266l-4.142 3.408 4.257 3.581h-1.251l-3.711-3.149h-.172v3.149h-.863Zm9.558.202c-.489 0-.935-.082-1.337-.245a2.187 2.187 0 0 1-.935-.748c-.23-.326-.345-.719-.345-1.179 0-.47.115-.858.345-1.165.23-.307.541-.537.935-.69.393-.154.829-.23 1.308-.23h2.56v-.561c0-.566-.163-1.007-.489-1.323-.326-.317-.8-.475-1.424-.475-.613 0-1.102.154-1.466.46-.355.298-.595.7-.72 1.208l-.834-.244c.115-.412.298-.781.547-1.107.249-.336.58-.6.992-.791.412-.202.906-.302 1.481-.302.883 0 1.563.23 2.043.69.489.46.733 1.102.733 1.927v3.394c0 .288.134.432.403.432h.676v.747h-.921c-.297 0-.532-.086-.704-.258-.173-.183-.259-.427-.259-.734v-.101h-.144a3.188 3.188 0 0 1-.489.619 2.106 2.106 0 0 1-.762.489c-.317.124-.715.187-1.194.187Zm.058-.777c.738 0 1.332-.22 1.783-.661.46-.451.69-1.084.69-1.899v-.172h-2.545c-.499 0-.916.11-1.252.33-.325.211-.488.542-.488.993 0 .45.167.8.503 1.05.345.239.781.359 1.309.359Zm6.766 3.452v-.777h4.085c.287 0 .431-.144.431-.431v-2.877h-.173c-.115.23-.278.451-.489.662a2.355 2.355 0 0 1-.805.503c-.326.125-.738.187-1.237.187-.498 0-.963-.105-1.395-.316a2.489 2.489 0 0 1-1.021-.949c-.249-.422-.374-.954-.374-1.597v-4.271h.863v4.214c0 .757.192 1.304.575 1.639.384.336.897.504 1.539.504.719 0 1.319-.235 1.798-.705.479-.47.719-1.184.719-2.143v-3.509h.863v8.773c0 .345-.096.613-.288.805-.182.192-.46.288-.834.288h-4.257Z"/><path fill="url(#p)" d="M334.014 604.229c-.719 0-1.361-.125-1.927-.374a3.036 3.036 0 0 1-1.337-1.165c-.326-.527-.489-1.194-.489-1.999v-.273h.92v.273c0 .93.264 1.62.791 2.071.537.441 1.218.662 2.042.662.834 0 1.477-.192 1.927-.576.451-.393.676-.891.676-1.495 0-.403-.1-.724-.302-.964-.192-.249-.465-.446-.82-.59a7.422 7.422 0 0 0-1.208-.402l-.92-.23a7.922 7.922 0 0 1-1.467-.533 2.8 2.8 0 0 1-1.021-.848c-.249-.355-.374-.805-.374-1.352 0-.546.139-1.021.417-1.424a2.716 2.716 0 0 1 1.179-.92c.499-.221 1.079-.331 1.741-.331.661 0 1.256.115 1.783.345.537.23.959.571 1.265 1.021.317.441.475.997.475 1.669v.676h-.92v-.676c0-.528-.115-.954-.346-1.28a2.002 2.002 0 0 0-.934-.719 3.6 3.6 0 0 0-1.323-.231c-.7 0-1.28.163-1.741.489-.45.317-.676.777-.676 1.381 0 .403.092.724.274.964.191.239.455.431.791.575a8.53 8.53 0 0 0 1.208.388l.92.23a7.199 7.199 0 0 1 1.453.504c.441.201.796.484 1.064.848.268.355.403.825.403 1.41 0 .584-.149 1.093-.446 1.524-.288.432-.695.767-1.223 1.007-.527.23-1.145.345-1.855.345Zm8.79 0c-.709 0-1.332-.149-1.869-.446a3.269 3.269 0 0 1-1.237-1.265c-.288-.547-.432-1.18-.432-1.899v-.172c0-.72.144-1.348.432-1.884a3.136 3.136 0 0 1 1.237-1.266c.537-.307 1.16-.46 1.869-.46.71 0 1.328.153 1.856.46.537.297.949.719 1.236 1.266.298.536.446 1.164.446 1.884v.172c0 .719-.148 1.352-.446 1.899a3.14 3.14 0 0 1-1.236 1.265c-.528.297-1.146.446-1.856.446Zm0-.777c.825 0 1.477-.259 1.956-.776.48-.528.719-1.223.719-2.086v-.115c0-.863-.239-1.553-.719-2.071-.479-.527-1.131-.791-1.956-.791-.815 0-1.467.264-1.956.791-.479.518-.719 1.208-.719 2.071v.115c0 .863.24 1.558.719 2.086.489.517 1.141.776 1.956.776Zm5.726.576V593.96h.863v10.068h-.863Zm3.399 0v-6.99h.863v6.99h-.863Zm.431-8.198a.722.722 0 0 1-.532-.216.722.722 0 0 1-.216-.532c0-.22.072-.398.216-.532a.722.722 0 0 1 .532-.216c.221 0 .398.072.532.216a.693.693 0 0 1 .216.532.722.722 0 0 1-.216.532.692.692 0 0 1-.532.216Zm5.988 8.399a3.381 3.381 0 0 1-1.697-.432 3.333 3.333 0 0 1-1.223-1.251c-.297-.546-.446-1.189-.446-1.927v-.172c0-.739.149-1.376.446-1.913.297-.547.7-.964 1.208-1.251a3.372 3.372 0 0 1 1.712-.446c.517 0 .954.072 1.308.215a2.4 2.4 0 0 1 .863.533c.23.211.408.436.532.676h.173v-4.301h.863v10.068h-.834v-1.28h-.173c-.201.383-.518.728-.949 1.035-.422.297-1.016.446-1.783.446Zm.201-.777c.796 0 1.438-.254 1.927-.762.499-.508.748-1.208.748-2.1v-.115c0-.891-.249-1.591-.748-2.099-.489-.509-1.131-.763-1.927-.763-.786 0-1.429.254-1.927.763-.499.508-.748 1.208-.748 2.099v.115c0 .892.249 1.592.748 2.1.498.508 1.141.762 1.927.762Zm11.96.576-3.236-10.068h.964l3.006 9.535h.172l3.006-9.535h.964l-3.236 10.068h-1.64Zm9.191.201c-.719 0-1.347-.149-1.884-.446a3.249 3.249 0 0 1-1.237-1.28c-.297-.546-.445-1.174-.445-1.884v-.172c0-.72.148-1.348.445-1.884a3.173 3.173 0 0 1 1.223-1.266c.527-.307 1.126-.46 1.798-.46.652 0 1.227.139 1.725.417a2.88 2.88 0 0 1 1.194 1.179c.288.508.431 1.117.431 1.827v.46h-5.954c.029.872.293 1.548.791 2.028.509.469 1.146.704 1.913.704.652 0 1.156-.148 1.51-.446.365-.297.643-.661.834-1.093l.777.346a4.057 4.057 0 0 1-.604.934 2.99 2.99 0 0 1-.978.748c-.403.192-.916.288-1.539.288Zm-2.689-4.257h5.062c-.038-.757-.283-1.338-.733-1.74-.451-.412-1.031-.619-1.74-.619-.7 0-1.28.207-1.741.619-.46.402-.743.983-.848 1.74Zm8.063 4.056v-6.99h.834v.877h.173c.134-.316.331-.546.589-.69.269-.144.638-.216 1.108-.216h.82v.806h-.921c-.527 0-.949.148-1.265.446-.317.297-.475.762-.475 1.395v4.372h-.863Zm5.309 0v-6.99h.863v6.99h-.863Zm.431-8.198a.722.722 0 0 1-.532-.216.722.722 0 0 1-.216-.532c0-.22.072-.398.216-.532a.722.722 0 0 1 .532-.216c.221 0 .398.072.532.216a.693.693 0 0 1 .216.532.722.722 0 0 1-.216.532.692.692 0 0 1-.532.216Zm4.435 8.198v-6.213h-2.301v-.777h2.301v-1.985c0-.345.091-.613.273-.805.192-.192.474-.288.848-.288h1.726v.777h-1.553c-.288 0-.431.144-.431.431v1.87h2.358v.777h-2.358v6.213h-.863Zm4.6 0v-6.99h.863v6.99h-.863Zm.431-8.198a.722.722 0 0 1-.532-.216.722.722 0 0 1-.215-.532c0-.22.071-.398.215-.532a.722.722 0 0 1 .532-.216c.221 0 .398.072.533.216a.696.696 0 0 1 .215.532.725.725 0 0 1-.215.532.696.696 0 0 1-.533.216Zm6.189 8.399c-.719 0-1.347-.149-1.884-.446a3.249 3.249 0 0 1-1.237-1.28c-.297-.546-.445-1.174-.445-1.884v-.172c0-.72.148-1.348.445-1.884a3.173 3.173 0 0 1 1.223-1.266c.527-.307 1.126-.46 1.798-.46.652 0 1.227.139 1.725.417a2.88 2.88 0 0 1 1.194 1.179c.288.508.431 1.117.431 1.827v.46h-5.954c.029.872.293 1.548.791 2.028.509.469 1.146.704 1.913.704.652 0 1.156-.148 1.51-.446.365-.297.643-.661.834-1.093l.777.346a4.057 4.057 0 0 1-.604.934 2.99 2.99 0 0 1-.978.748c-.403.192-.916.288-1.539.288Zm-2.689-4.257h5.062c-.038-.757-.283-1.338-.733-1.74-.451-.412-1.031-.619-1.74-.619-.7 0-1.28.207-1.741.619-.46.402-.743.983-.848 1.74Zm11.083 4.257a3.381 3.381 0 0 1-1.697-.432 3.33 3.33 0 0 1-1.222-1.251c-.298-.546-.446-1.189-.446-1.927v-.172c0-.739.148-1.376.446-1.913.297-.547.7-.964 1.208-1.251a3.369 3.369 0 0 1 1.711-.446c.518 0 .954.072 1.309.215.355.135.642.312.863.533.23.211.407.436.532.676h.173v-4.301h.862v10.068h-.834v-1.28h-.172c-.202.383-.518.728-.949 1.035-.422.297-1.017.446-1.784.446Zm.202-.777c.795 0 1.438-.254 1.927-.762.498-.508.748-1.208.748-2.1v-.115c0-.891-.25-1.591-.748-2.099-.489-.509-1.132-.763-1.927-.763-.787 0-1.429.254-1.928.763-.498.508-.747 1.208-.747 2.099v.115c0 .892.249 1.592.747 2.1.499.508 1.141.762 1.928.762Z"/><path fill="#F4F3FF" d="M278.988 635.028v-3.601l-3.302-5.499h.988l2.652 4.55h.156l2.652-4.55h.988l-3.302 5.499v3.601h-.832Zm7.249.182c-.641 0-1.205-.135-1.69-.403a2.962 2.962 0 0 1-1.118-1.144c-.26-.494-.39-1.066-.39-1.716v-.156c0-.65.13-1.218.39-1.703a2.838 2.838 0 0 1 1.118-1.144c.485-.278 1.049-.416 1.69-.416s1.2.138 1.677.416c.485.268.858.65 1.118 1.144.269.485.403 1.053.403 1.703v.156c0 .65-.134 1.222-.403 1.716-.26.485-.633.866-1.118 1.144-.477.268-1.036.403-1.677.403Zm0-.702c.745 0 1.335-.234 1.768-.702.433-.477.65-1.105.65-1.885v-.104c0-.78-.217-1.404-.65-1.872-.433-.477-1.023-.715-1.768-.715-.737 0-1.326.238-1.768.715-.433.468-.65 1.092-.65 1.872v.104c0 .78.217 1.408.65 1.885.442.468 1.031.702 1.768.702Zm7.606.65c-.45 0-.871-.096-1.261-.286a2.257 2.257 0 0 1-.923-.858c-.225-.39-.338-.876-.338-1.456v-3.848h.78v3.796c0 .684.174 1.183.52 1.495.347.303.811.455 1.391.455.65 0 1.192-.213 1.625-.637.434-.434.65-1.084.65-1.95v-3.159h.78v6.318h-.754v-1.17h-.156c-.156.338-.411.641-.767.91-.355.26-.871.39-1.547.39Zm5.517-.13v-6.318h.754v.793h.156c.121-.286.299-.494.533-.624.242-.13.576-.195 1.001-.195h.741v.728h-.832c-.477 0-.858.134-1.144.403-.286.268-.429.689-.429 1.261v3.952h-.78Zm8.124 0v-9.1h.832v4.108h.156l4.212-4.108h1.17l-4.706 4.498 4.862 4.602h-1.183l-4.355-4.186h-.156v4.186h-.832Zm10.238 0v-3.601l-3.302-5.499h.988l2.652 4.55h.156l2.652-4.55h.988l-3.302 5.499v3.601h-.832Zm8.322.182c-1.066 0-1.92-.312-2.561-.936-.633-.633-.949-1.556-.949-2.769v-2.054c0-1.214.316-2.132.949-2.756.641-.633 1.495-.949 2.561-.949 1.057 0 1.863.299 2.418.897.563.589.845 1.395.845 2.418v.065h-.832v-.091c0-.746-.199-1.352-.598-1.82-.39-.477-1.001-.715-1.833-.715-.841 0-1.499.255-1.976.767-.468.511-.702 1.23-.702 2.158v2.106c0 .927.234 1.646.702 2.158.477.511 1.135.767 1.976.767.832 0 1.443-.234 1.833-.702.399-.477.598-1.088.598-1.833v-.195h.832v.169c0 1.022-.282 1.833-.845 2.431-.555.589-1.361.884-2.418.884Zm8.482-.182v-9.1h.78v3.887h.156c.104-.208.247-.403.429-.585.19-.191.433-.343.728-.455.303-.122.68-.182 1.131-.182.459 0 .879.095 1.261.286.381.19.684.476.91.858.234.381.351.862.351 1.443v3.848h-.78v-3.796c0-.694-.174-1.188-.52-1.482-.347-.304-.811-.455-1.391-.455-.65 0-1.192.212-1.625.637-.434.424-.65 1.07-.65 1.937v3.159h-.78Zm9.897.182a3.2 3.2 0 0 1-1.209-.221 1.986 1.986 0 0 1-.845-.676c-.208-.295-.312-.65-.312-1.066 0-.425.104-.776.312-1.053a1.87 1.87 0 0 1 .845-.624 3.218 3.218 0 0 1 1.183-.208h2.314v-.507c0-.512-.148-.91-.442-1.196-.295-.286-.724-.429-1.287-.429-.555 0-.997.138-1.326.416-.321.268-.538.632-.65 1.092l-.754-.221c.104-.373.268-.707.494-1.001.225-.304.524-.542.897-.715.372-.182.819-.273 1.339-.273.797 0 1.412.208 1.846.624.442.416.663.996.663 1.742v3.068c0 .26.121.39.364.39h.611v.676h-.832c-.269 0-.481-.078-.637-.234-.156-.165-.234-.386-.234-.663v-.091h-.13c-.113.19-.26.377-.442.559a1.901 1.901 0 0 1-.689.442c-.286.112-.646.169-1.079.169Zm.052-.702c.667 0 1.204-.2 1.612-.598.416-.408.624-.98.624-1.716v-.156h-2.301c-.451 0-.828.099-1.131.299-.295.19-.442.489-.442.897 0 .407.151.723.455.949.312.216.706.325 1.183.325Zm7.934.702c-.763 0-1.417-.182-1.963-.546-.538-.364-.867-.967-.988-1.807l.767-.143c.069.459.208.823.416 1.092.216.26.476.446.78.559.312.112.641.169.988.169.52 0 .936-.104 1.248-.312.32-.217.481-.512.481-.884 0-.382-.152-.646-.455-.793-.295-.148-.689-.265-1.183-.351l-.598-.104a4.828 4.828 0 0 1-1.079-.312 2.038 2.038 0 0 1-.767-.585c-.182-.243-.273-.546-.273-.91 0-.546.212-.975.637-1.287.433-.312 1.005-.468 1.716-.468.719 0 1.295.164 1.729.494.442.32.719.788.832 1.404l-.728.156c-.087-.503-.295-.858-.624-1.066-.321-.208-.724-.312-1.209-.312-.477 0-.858.091-1.144.273-.286.182-.429.45-.429.806 0 .346.13.602.39.767.26.156.615.273 1.066.351l.598.104c.433.069.823.173 1.17.312.346.13.619.316.819.559.208.242.312.563.312.962 0 .598-.226 1.061-.676 1.391-.451.32-1.062.481-1.833.481Zm11.09 0c-.693 0-1.235-.135-1.625-.403-.381-.278-.663-.59-.845-.936h-.156v1.157h-.754v-9.1h.78v3.887h.156a2.302 2.302 0 0 1 1.261-1.092c.33-.13.724-.195 1.183-.195.572 0 1.088.134 1.547.403.46.26.824.637 1.092 1.131.269.485.403 1.061.403 1.729v.156c0 .667-.138 1.248-.416 1.742a2.913 2.913 0 0 1-1.092 1.131c-.459.26-.97.39-1.534.39Zm-.182-.702c.72 0 1.3-.23 1.742-.689.451-.46.676-1.092.676-1.898v-.104c0-.806-.225-1.439-.676-1.898-.442-.46-1.022-.689-1.742-.689-.71 0-1.291.229-1.742.689-.45.459-.676 1.092-.676 1.898v.104c0 .806.226 1.438.676 1.898.451.459 1.032.689 1.742.689Zm8.119.702c-.65 0-1.218-.135-1.703-.403a2.929 2.929 0 0 1-1.118-1.157c-.269-.494-.403-1.062-.403-1.703v-.156c0-.65.134-1.218.403-1.703a2.859 2.859 0 0 1 1.105-1.144c.476-.278 1.018-.416 1.625-.416.589 0 1.109.125 1.56.377.459.242.819.598 1.079 1.066.26.459.39 1.009.39 1.651v.416h-5.382c.026.788.264 1.399.715 1.833.459.424 1.035.637 1.729.637.589 0 1.044-.135 1.365-.403.329-.269.58-.598.754-.988l.702.312c-.13.286-.312.567-.546.845-.226.268-.52.494-.884.676-.364.173-.828.26-1.391.26Zm-2.431-3.848h4.576c-.035-.685-.256-1.209-.663-1.573-.408-.373-.932-.559-1.573-.559-.633 0-1.157.186-1.573.559-.416.364-.672.888-.767 1.573Zm10.2 3.848c-.65 0-1.217-.135-1.703-.403a2.942 2.942 0 0 1-1.118-1.157c-.268-.494-.403-1.062-.403-1.703v-.156c0-.65.135-1.218.403-1.703a2.865 2.865 0 0 1 1.105-1.144c.477-.278 1.019-.416 1.625-.416.59 0 1.11.125 1.56.377.46.242.819.598 1.079 1.066.26.459.39 1.009.39 1.651v.416h-5.382c.026.788.265 1.399.715 1.833.46.424 1.036.637 1.729.637.59 0 1.045-.135 1.365-.403.33-.269.581-.598.754-.988l.702.312c-.13.286-.312.567-.546.845-.225.268-.52.494-.884.676-.364.173-.827.26-1.391.26Zm-2.431-3.848h4.576c-.034-.685-.255-1.209-.663-1.573-.407-.373-.931-.559-1.573-.559-.632 0-1.157.186-1.573.559-.416.364-.671.888-.767 1.573Zm7.289 3.666v-6.318h.754v1.17h.156c.156-.338.411-.637.767-.897.355-.269.871-.403 1.547-.403.459 0 .879.095 1.261.286.381.19.684.481.91.871.234.381.351.862.351 1.443v3.848h-.78v-3.796c0-.694-.174-1.192-.52-1.495-.347-.304-.811-.455-1.391-.455-.65 0-1.192.216-1.625.65-.434.424-.65 1.07-.65 1.937v3.159h-.78Zm13.82.182c-.762 0-1.417-.182-1.963-.546-.537-.364-.866-.967-.988-1.807l.767-.143c.07.459.208.823.416 1.092.217.26.477.446.78.559.312.112.642.169.988.169.52 0 .936-.104 1.248-.312.321-.217.481-.512.481-.884 0-.382-.151-.646-.455-.793-.294-.148-.689-.265-1.183-.351l-.598-.104a4.86 4.86 0 0 1-1.079-.312 2.054 2.054 0 0 1-.767-.585c-.182-.243-.273-.546-.273-.91 0-.546.213-.975.637-1.287.434-.312 1.006-.468 1.716-.468.72 0 1.296.164 1.729.494.442.32.72.788.832 1.404l-.728.156c-.086-.503-.294-.858-.624-1.066-.32-.208-.723-.312-1.209-.312-.476 0-.858.091-1.144.273-.286.182-.429.45-.429.806 0 .346.13.602.39.767.26.156.616.273 1.066.351l.598.104a5.42 5.42 0 0 1 1.17.312c.347.13.62.316.819.559.208.242.312.563.312.962 0 .598-.225 1.061-.676 1.391-.45.32-1.061.481-1.833.481Zm6.791-.052a2.84 2.84 0 0 1-1.261-.286 2.251 2.251 0 0 1-.923-.858c-.226-.39-.338-.876-.338-1.456v-3.848h.78v3.796c0 .684.173 1.183.52 1.495.346.303.81.455 1.391.455.65 0 1.191-.213 1.625-.637.433-.434.65-1.084.65-1.95v-3.159h.78v6.318h-.754v-1.17h-.156c-.156.338-.412.641-.767.91-.356.26-.871.39-1.547.39Zm8.402.052c-.616 0-1.166-.13-1.651-.39a2.928 2.928 0 0 1-1.131-1.144c-.278-.494-.416-1.075-.416-1.742v-.13c0-.676.138-1.257.416-1.742a2.836 2.836 0 0 1 1.131-1.131c.485-.269 1.035-.403 1.651-.403.606 0 1.118.117 1.534.351.424.225.754.524.988.897.242.364.394.749.455 1.157l-.767.156a2.275 2.275 0 0 0-.325-.923 1.829 1.829 0 0 0-.728-.676c-.312-.174-.698-.26-1.157-.26-.46 0-.871.108-1.235.325a2.28 2.28 0 0 0-.871.897c-.208.381-.312.836-.312 1.365v.104c0 .528.104.988.312 1.378.216.381.507.68.871.897.364.208.775.312 1.235.312.693 0 1.222-.178 1.586-.533.364-.364.589-.806.676-1.326l.767.156a3.146 3.146 0 0 1-.494 1.17 2.806 2.806 0 0 1-1.001.897c-.416.225-.928.338-1.534.338Zm7.833 0c-.616 0-1.166-.13-1.651-.39a2.928 2.928 0 0 1-1.131-1.144c-.278-.494-.416-1.075-.416-1.742v-.13c0-.676.138-1.257.416-1.742a2.836 2.836 0 0 1 1.131-1.131c.485-.269 1.035-.403 1.651-.403.606 0 1.118.117 1.534.351.424.225.754.524.988.897.242.364.394.749.455 1.157l-.767.156a2.275 2.275 0 0 0-.325-.923 1.829 1.829 0 0 0-.728-.676c-.312-.174-.698-.26-1.157-.26-.46 0-.871.108-1.235.325a2.28 2.28 0 0 0-.871.897c-.208.381-.312.836-.312 1.365v.104c0 .528.104.988.312 1.378.216.381.507.68.871.897.364.208.775.312 1.235.312.693 0 1.222-.178 1.586-.533.364-.364.589-.806.676-1.326l.767.156a3.146 3.146 0 0 1-.494 1.17 2.806 2.806 0 0 1-1.001.897c-.416.225-.928.338-1.534.338Zm7.859 0c-.65 0-1.218-.135-1.703-.403a2.929 2.929 0 0 1-1.118-1.157c-.269-.494-.403-1.062-.403-1.703v-.156c0-.65.134-1.218.403-1.703a2.859 2.859 0 0 1 1.105-1.144c.476-.278 1.018-.416 1.625-.416.589 0 1.109.125 1.56.377.459.242.819.598 1.079 1.066.26.459.39 1.009.39 1.651v.416h-5.382c.026.788.264 1.399.715 1.833.459.424 1.035.637 1.729.637.589 0 1.044-.135 1.365-.403.329-.269.58-.598.754-.988l.702.312c-.13.286-.312.567-.546.845-.226.268-.52.494-.884.676-.364.173-.828.26-1.391.26Zm-2.431-3.848h4.576c-.035-.685-.256-1.209-.663-1.573-.408-.373-.932-.559-1.573-.559-.633 0-1.157.186-1.573.559-.416.364-.672.888-.767 1.573Zm9.797 3.848c-.762 0-1.417-.182-1.963-.546-.537-.364-.866-.967-.988-1.807l.767-.143c.07.459.208.823.416 1.092.217.26.477.446.78.559.312.112.642.169.988.169.52 0 .936-.104 1.248-.312.321-.217.481-.512.481-.884 0-.382-.151-.646-.455-.793-.294-.148-.689-.265-1.183-.351l-.598-.104a4.86 4.86 0 0 1-1.079-.312 2.054 2.054 0 0 1-.767-.585c-.182-.243-.273-.546-.273-.91 0-.546.213-.975.637-1.287.434-.312 1.006-.468 1.716-.468.72 0 1.296.164 1.729.494.442.32.72.788.832 1.404l-.728.156c-.086-.503-.294-.858-.624-1.066-.32-.208-.723-.312-1.209-.312-.476 0-.858.091-1.144.273-.286.182-.429.45-.429.806 0 .346.13.602.39.767.26.156.616.273 1.066.351l.598.104a5.42 5.42 0 0 1 1.17.312c.347.13.62.316.819.559.208.242.312.563.312.962 0 .598-.225 1.061-.676 1.391-.45.32-1.061.481-1.833.481Zm6.868 0c-.762 0-1.417-.182-1.963-.546-.537-.364-.866-.967-.988-1.807l.767-.143c.07.459.208.823.416 1.092.217.26.477.446.78.559.312.112.642.169.988.169.52 0 .936-.104 1.248-.312.321-.217.481-.512.481-.884 0-.382-.151-.646-.455-.793-.294-.148-.689-.265-1.183-.351l-.598-.104a4.86 4.86 0 0 1-1.079-.312 2.054 2.054 0 0 1-.767-.585c-.182-.243-.273-.546-.273-.91 0-.546.213-.975.637-1.287.434-.312 1.006-.468 1.716-.468.72 0 1.296.164 1.729.494.442.32.72.788.832 1.404l-.728.156c-.086-.503-.294-.858-.624-1.066-.32-.208-.723-.312-1.209-.312-.476 0-.858.091-1.144.273-.286.182-.429.45-.429.806 0 .346.13.602.39.767.26.156.616.273 1.066.351l.598.104a5.42 5.42 0 0 1 1.17.312c.347.13.62.316.819.559.208.242.312.563.312.962 0 .598-.225 1.061-.676 1.391-.45.32-1.061.481-1.833.481Zm5.533-.182v-5.616h-2.08v-.702h2.08v-1.794c0-.312.083-.555.247-.728.174-.174.429-.26.767-.26h1.56v.702h-1.404c-.26 0-.39.13-.39.39v1.69h2.132v.702h-2.132v5.616h-.78Zm6.882.13a2.84 2.84 0 0 1-1.261-.286 2.251 2.251 0 0 1-.923-.858c-.226-.39-.338-.876-.338-1.456v-3.848h.78v3.796c0 .684.173 1.183.52 1.495.346.303.81.455 1.391.455.65 0 1.191-.213 1.625-.637.433-.434.65-1.084.65-1.95v-3.159h.78v6.318h-.754v-1.17h-.156c-.156.338-.412.641-.767.91-.356.26-.871.39-1.547.39Zm5.516-.13v-9.1h.78v9.1h-.78Zm3.072 0v-9.1h.78v9.1h-.78Zm3.865 2.6v-.702h3.692c.26 0 .39-.13.39-.39v-2.6h-.156a2.314 2.314 0 0 1-.442.598 2.14 2.14 0 0 1-.728.455c-.294.112-.667.169-1.118.169-.45 0-.871-.096-1.261-.286a2.257 2.257 0 0 1-.923-.858c-.225-.382-.338-.863-.338-1.443v-3.861h.78v3.809c0 .684.174 1.178.52 1.482.347.303.811.455 1.391.455.65 0 1.192-.213 1.625-.637.434-.425.65-1.071.65-1.937v-3.172h.78v7.93c0 .312-.086.554-.26.728-.164.173-.416.26-.754.26h-3.848Zm-169.105 14.4-2.366-6.318h.832l2.08 5.72h.156l2.08-5.72h.832l-2.366 6.318h-1.248Zm7.861.182c-.65 0-1.217-.135-1.703-.403a2.942 2.942 0 0 1-1.118-1.157c-.268-.494-.403-1.062-.403-1.703v-.156c0-.65.135-1.218.403-1.703a2.865 2.865 0 0 1 1.105-1.144c.477-.278 1.019-.416 1.625-.416.59 0 1.11.125 1.56.377.46.242.819.598 1.079 1.066.26.459.39 1.009.39 1.651v.416h-5.382c.026.788.265 1.399.715 1.833.46.424 1.036.637 1.729.637.59 0 1.045-.135 1.365-.403.33-.269.581-.598.754-.988l.702.312c-.13.286-.312.567-.546.845-.225.268-.52.494-.884.676-.364.173-.827.26-1.391.26Zm-2.431-3.848h4.576c-.034-.685-.255-1.209-.663-1.573-.407-.373-.931-.559-1.573-.559-.632 0-1.157.186-1.573.559-.416.364-.671.888-.767 1.573Zm7.289 3.666v-6.318h.754v.793h.156c.121-.286.299-.494.533-.624.242-.13.576-.195 1.001-.195h.741v.728h-.832c-.477 0-.858.134-1.144.403-.286.268-.429.689-.429 1.261v3.952h-.78Zm4.799 0v-6.318h.78v6.318h-.78Zm.39-7.41a.653.653 0 0 1-.481-.195.655.655 0 0 1-.195-.481c0-.2.065-.36.195-.481.13-.13.29-.195.481-.195.199 0 .359.065.481.195.13.121.195.281.195.481 0 .19-.065.351-.195.481a.628.628 0 0 1-.481.195Zm4.008 7.41v-5.616h-2.08v-.702h2.08v-1.794c0-.312.082-.555.247-.728.173-.174.429-.26.767-.26h1.56v.702h-1.404c-.26 0-.39.13-.39.39v1.69h3.38v.702h-3.38v5.616h-.78Zm4.16 0v-6.318h.78v6.318h-.78Zm.39-7.41a.653.653 0 0 1-.481-.195.655.655 0 0 1-.195-.481c0-.2.065-.36.195-.481.13-.13.29-.195.481-.195.199 0 .359.065.481.195.13.121.195.281.195.481 0 .19-.065.351-.195.481a.628.628 0 0 1-.481.195Zm5.592 7.592c-.65 0-1.217-.135-1.703-.403a2.942 2.942 0 0 1-1.118-1.157c-.268-.494-.403-1.062-.403-1.703v-.156c0-.65.135-1.218.403-1.703a2.865 2.865 0 0 1 1.105-1.144c.477-.278 1.019-.416 1.625-.416.59 0 1.11.125 1.56.377.46.242.819.598 1.079 1.066.26.459.39 1.009.39 1.651v.416h-5.382c.026.788.265 1.399.715 1.833.46.424 1.036.637 1.729.637.59 0 1.045-.135 1.365-.403.33-.269.581-.598.754-.988l.702.312c-.13.286-.312.567-.546.845-.225.268-.52.494-.884.676-.364.173-.827.26-1.391.26Zm-2.431-3.848h4.576c-.034-.685-.255-1.209-.663-1.573-.407-.373-.931-.559-1.573-.559-.632 0-1.157.186-1.573.559-.416.364-.671.888-.767 1.573Zm10.019 3.848a3.06 3.06 0 0 1-1.534-.39 3.017 3.017 0 0 1-1.105-1.131c-.269-.494-.403-1.075-.403-1.742v-.156c0-.668.134-1.244.403-1.729a2.809 2.809 0 0 1 1.092-1.131 3.05 3.05 0 0 1 1.547-.403c.468 0 .862.065 1.183.195.321.121.581.281.78.481.208.19.368.394.481.611h.156v-3.887h.78v9.1h-.754v-1.157h-.156c-.182.346-.468.658-.858.936-.381.268-.919.403-1.612.403Zm.182-.702c.719 0 1.3-.23 1.742-.689.451-.46.676-1.092.676-1.898v-.104c0-.806-.225-1.439-.676-1.898-.442-.46-1.023-.689-1.742-.689-.711 0-1.291.229-1.742.689-.451.459-.676 1.092-.676 1.898v.104c0 .806.225 1.438.676 1.898.451.459 1.031.689 1.742.689Zm11.73.702c-.641 0-1.205-.135-1.69-.403a2.962 2.962 0 0 1-1.118-1.144c-.26-.494-.39-1.066-.39-1.716v-.156c0-.65.13-1.218.39-1.703a2.838 2.838 0 0 1 1.118-1.144c.485-.278 1.049-.416 1.69-.416s1.2.138 1.677.416c.485.268.858.65 1.118 1.144.269.485.403 1.053.403 1.703v.156c0 .65-.134 1.222-.403 1.716-.26.485-.633.866-1.118 1.144-.477.268-1.036.403-1.677.403Zm0-.702c.745 0 1.335-.234 1.768-.702.433-.477.65-1.105.65-1.885v-.104c0-.78-.217-1.404-.65-1.872-.433-.477-1.023-.715-1.768-.715-.737 0-1.326.238-1.768.715-.433.468-.65 1.092-.65 1.872v.104c0 .78.217 1.408.65 1.885.442.468 1.031.702 1.768.702Zm5.175.52v-6.318h.754v1.17h.156c.156-.338.412-.637.767-.897.356-.269.871-.403 1.547-.403.46 0 .88.095 1.261.286.382.19.685.481.91.871.234.381.351.862.351 1.443v3.848h-.78v-3.796c0-.694-.173-1.192-.52-1.495-.346-.304-.81-.455-1.391-.455-.65 0-1.191.216-1.625.65-.433.424-.65 1.07-.65 1.937v3.159h-.78Zm11.078 0v-6.448h1.612v.702h.234c.113-.217.299-.403.559-.559.26-.165.602-.247 1.027-.247.459 0 .828.091 1.105.273.277.173.49.403.637.689h.234c.147-.278.355-.507.624-.689.269-.182.65-.273 1.144-.273.399 0 .758.086 1.079.26.329.164.589.42.78.767.199.338.299.767.299 1.287v4.238h-1.638v-4.121c0-.356-.091-.62-.273-.793-.182-.182-.438-.273-.767-.273-.373 0-.663.121-.871.364-.199.234-.299.572-.299 1.014v3.809h-1.638v-4.121c0-.356-.091-.62-.273-.793-.182-.182-.438-.273-.767-.273-.373 0-.663.121-.871.364-.199.234-.299.572-.299 1.014v3.809h-1.638Zm13.098.182c-.46 0-.871-.078-1.235-.234a2.12 2.12 0 0 1-.871-.702c-.208-.312-.312-.689-.312-1.131 0-.442.104-.811.312-1.105.216-.304.511-.529.884-.676a3.405 3.405 0 0 1 1.3-.234h1.768v-.364c0-.304-.096-.551-.286-.741-.191-.2-.494-.299-.91-.299-.408 0-.711.095-.91.286-.2.182-.33.42-.39.715l-1.508-.507c.104-.33.268-.629.494-.897.234-.278.541-.499.923-.663.39-.174.862-.26 1.417-.26.849 0 1.521.212 2.015.637.494.424.741 1.04.741 1.846v2.405c0 .26.121.39.364.39h.52v1.352h-1.092c-.321 0-.585-.078-.793-.234a.741.741 0 0 1-.312-.624v-.013h-.247a1.828 1.828 0 0 1-.234.416c-.122.164-.312.312-.572.442-.26.13-.616.195-1.066.195Zm.286-1.326c.459 0 .832-.126 1.118-.377.294-.26.442-.603.442-1.027v-.13h-1.651c-.304 0-.542.065-.715.195a.642.642 0 0 0-.26.546c0 .234.091.424.273.572.182.147.446.221.793.221Zm4.788-2.054v-.208c0-.676.135-1.253.403-1.729a2.784 2.784 0 0 1 1.066-1.105c.451-.26.941-.39 1.469-.39.59 0 1.036.104 1.339.312.304.208.525.424.663.65h.234v-.78h1.612v7.592c0 .442-.13.793-.39 1.053-.26.268-.606.403-1.04.403h-4.316v-1.43h3.744c.243 0 .364-.13.364-.39v-1.677h-.234a2.247 2.247 0 0 1-.364.429 1.957 1.957 0 0 1-.624.351c-.26.095-.589.143-.988.143a2.972 2.972 0 0 1-1.469-.377 2.914 2.914 0 0 1-1.066-1.105c-.268-.486-.403-1.066-.403-1.742Zm3.406 1.794c.503 0 .923-.161 1.261-.481.338-.321.507-.772.507-1.352v-.13c0-.59-.169-1.04-.507-1.352-.329-.321-.749-.481-1.261-.481-.502 0-.923.16-1.261.481-.338.312-.507.762-.507 1.352v.13c0 .58.169 1.031.507 1.352.338.32.759.481 1.261.481Zm5.196 1.404v-6.448h1.638v6.448h-1.638Zm.819-7.202a1.08 1.08 0 0 1-.754-.286c-.199-.191-.299-.442-.299-.754s.1-.564.299-.754c.208-.191.46-.286.754-.286.304 0 .555.095.754.286.2.19.299.442.299.754s-.099.563-.299.754c-.199.19-.45.286-.754.286Zm5.663 7.384c-.624 0-1.191-.13-1.703-.39a2.951 2.951 0 0 1-1.196-1.131c-.294-.494-.442-1.092-.442-1.794v-.182c0-.702.148-1.3.442-1.794a2.951 2.951 0 0 1 1.196-1.131 3.705 3.705 0 0 1 1.703-.39c.616 0 1.144.108 1.586.325a2.75 2.75 0 0 1 1.066.897c.278.372.46.797.546 1.274l-1.586.338a1.844 1.844 0 0 0-.234-.702 1.292 1.292 0 0 0-.52-.494c-.216-.122-.489-.182-.819-.182-.329 0-.628.073-.897.221-.26.138-.468.351-.624.637-.147.277-.221.619-.221 1.027v.13c0 .407.074.754.221 1.04.156.277.364.489.624.637.269.138.568.208.897.208.494 0 .867-.126 1.118-.377.26-.26.425-.598.494-1.014l1.586.377a3.554 3.554 0 0 1-.585 1.261 2.817 2.817 0 0 1-1.066.884c-.442.216-.97.325-1.586.325Zm7.527 0c-.642 0-1.209-.135-1.703-.403a2.993 2.993 0 0 1-1.144-1.157c-.269-.503-.403-1.092-.403-1.768v-.156c0-.676.134-1.261.403-1.755a2.785 2.785 0 0 1 1.131-1.157c.485-.278 1.048-.416 1.69-.416.632 0 1.183.143 1.651.429.468.277.832.667 1.092 1.17.26.494.39 1.07.39 1.729v.559h-4.693c.017.442.182.801.494 1.079.312.277.693.416 1.144.416.459 0 .797-.1 1.014-.299.216-.2.381-.421.494-.663l1.339.702a4.24 4.24 0 0 1-.533.741c-.226.26-.529.485-.91.676-.382.182-.867.273-1.456.273Zm-1.573-4.147h3.016a1.278 1.278 0 0 0-.455-.897c-.26-.226-.603-.338-1.027-.338-.442 0-.793.112-1.053.338-.26.225-.421.524-.481.897Zm8.738 4.147c-.512 0-.993-.126-1.443-.377a2.857 2.857 0 0 1-1.066-1.131c-.269-.494-.403-1.092-.403-1.794v-.208c0-.702.134-1.3.403-1.794.268-.494.624-.867 1.066-1.118.442-.26.923-.39 1.443-.39.39 0 .715.047.975.143.268.086.485.199.65.338.164.138.29.286.377.442h.234v-3.393h1.638v9.1h-1.612v-.78h-.234c-.148.242-.377.463-.689.663-.304.199-.75.299-1.339.299Zm.494-1.43c.502 0 .923-.161 1.261-.481.338-.33.507-.806.507-1.43v-.13c0-.624-.169-1.097-.507-1.417-.33-.33-.75-.494-1.261-.494-.503 0-.923.164-1.261.494-.338.32-.507.793-.507 1.417v.13c0 .624.169 1.1.507 1.43.338.32.758.481 1.261.481Zm8.134 1.43c-.642 0-1.209-.135-1.703-.403a2.993 2.993 0 0 1-1.144-1.157c-.269-.503-.403-1.092-.403-1.768v-.156c0-.676.134-1.261.403-1.755a2.785 2.785 0 0 1 1.131-1.157c.485-.278 1.048-.416 1.69-.416.632 0 1.183.143 1.651.429.468.277.832.667 1.092 1.17.26.494.39 1.07.39 1.729v.559h-4.693c.017.442.182.801.494 1.079.312.277.693.416 1.144.416.459 0 .797-.1 1.014-.299.216-.2.381-.421.494-.663l1.339.702a4.24 4.24 0 0 1-.533.741c-.226.26-.529.485-.91.676-.382.182-.867.273-1.456.273Zm-1.573-4.147h3.016a1.278 1.278 0 0 0-.455-.897c-.26-.226-.603-.338-1.027-.338-.442 0-.793.112-1.053.338-.26.225-.421.524-.481.897Zm6.138 3.965v-6.448h1.612v.845h.234c.104-.226.299-.438.585-.637.286-.208.719-.312 1.3-.312.502 0 .94.117 1.313.351.381.225.676.541.884.949.208.398.312.866.312 1.404v3.848h-1.638v-3.718c0-.486-.122-.85-.364-1.092-.234-.243-.572-.364-1.014-.364-.503 0-.893.169-1.17.507-.278.329-.416.793-.416 1.391v3.276h-1.638Zm9.037.182c-.346 0-.641-.113-.884-.338-.234-.234-.351-.533-.351-.897s.117-.659.351-.884c.243-.234.538-.351.884-.351.356 0 .65.117.884.351.234.225.351.52.351.884s-.117.663-.351.897a1.224 1.224 0 0 1-.884.338Zm2.845-.182v-6.448h1.638v6.448h-1.638Zm.819-7.202a1.08 1.08 0 0 1-.754-.286c-.199-.191-.299-.442-.299-.754s.1-.564.299-.754c.208-.191.46-.286.754-.286.304 0 .555.095.754.286.2.19.299.442.299.754s-.099.563-.299.754c-.199.19-.45.286-.754.286Zm5.702 7.384c-.641 0-1.217-.13-1.729-.39a2.929 2.929 0 0 1-1.209-1.131c-.294-.494-.442-1.088-.442-1.781v-.208c0-.694.148-1.287.442-1.781a2.929 2.929 0 0 1 1.209-1.131c.512-.26 1.088-.39 1.729-.39.642 0 1.218.13 1.729.39.512.26.915.637 1.209 1.131.295.494.442 1.087.442 1.781v.208c0 .693-.147 1.287-.442 1.781a2.917 2.917 0 0 1-1.209 1.131c-.511.26-1.087.39-1.729.39Zm0-1.456c.503 0 .919-.161 1.248-.481.33-.33.494-.798.494-1.404v-.13c0-.607-.164-1.071-.494-1.391-.32-.33-.736-.494-1.248-.494-.502 0-.918.164-1.248.494-.329.32-.494.784-.494 1.391v.13c0 .606.165 1.074.494 1.404.33.32.746.481 1.248.481Zm-92.288 18.456c-.693 0-1.235-.135-1.625-.403-.381-.278-.663-.59-.845-.936h-.156v1.157h-.754v-9.1h.78v3.887h.156a2.292 2.292 0 0 1 1.261-1.092c.329-.13.724-.195 1.183-.195.572 0 1.088.134 1.547.403.459.26.823.637 1.092 1.131.269.485.403 1.061.403 1.729v.156c0 .667-.139 1.248-.416 1.742a2.927 2.927 0 0 1-1.092 1.131 3.06 3.06 0 0 1-1.534.39Zm-.182-.702c.719 0 1.3-.23 1.742-.689.451-.46.676-1.092.676-1.898v-.104c0-.806-.225-1.439-.676-1.898-.442-.46-1.023-.689-1.742-.689-.711 0-1.291.229-1.742.689-.451.459-.676 1.092-.676 1.898v.104c0 .806.225 1.438.676 1.898.451.459 1.031.689 1.742.689Zm5.999 3.12v-.702h3.692c.26 0 .39-.13.39-.39v-2.6h-.156a2.314 2.314 0 0 1-.442.598 2.14 2.14 0 0 1-.728.455c-.294.112-.667.169-1.118.169-.45 0-.871-.096-1.261-.286a2.257 2.257 0 0 1-.923-.858c-.225-.382-.338-.863-.338-1.443v-3.861h.78v3.809c0 .684.174 1.178.52 1.482.347.303.811.455 1.391.455.65 0 1.192-.213 1.625-.637.434-.425.65-1.071.65-1.937v-3.172h.78v7.93c0 .312-.086.554-.26.728-.164.173-.416.26-.754.26h-3.848Zm13.379-2.418c-.702 0-1.322-.126-1.859-.377a2.962 2.962 0 0 1-1.261-1.079c-.303-.468-.455-1.032-.455-1.69v-.364h1.69v.364c0 .546.169.957.507 1.235.338.268.797.403 1.378.403.589 0 1.027-.117 1.313-.351.295-.234.442-.533.442-.897 0-.252-.074-.455-.221-.611-.139-.156-.347-.282-.624-.377a6.888 6.888 0 0 0-.988-.286l-.299-.065a8.041 8.041 0 0 1-1.612-.52c-.442-.217-.784-.499-1.027-.845-.234-.347-.351-.798-.351-1.352 0-.555.13-1.027.39-1.417a2.53 2.53 0 0 1 1.118-.91c.485-.217 1.053-.325 1.703-.325.65 0 1.226.112 1.729.338.511.216.91.546 1.196.988.295.433.442.979.442 1.638v.39h-1.69v-.39c0-.347-.069-.624-.208-.832a1.096 1.096 0 0 0-.572-.468 2.337 2.337 0 0 0-.897-.156c-.52 0-.906.099-1.157.299-.243.19-.364.455-.364.793a.95.95 0 0 0 .169.572c.121.156.299.286.533.39.234.104.533.195.897.273l.299.065c.65.138 1.213.316 1.69.533.485.216.862.502 1.131.858.269.355.403.81.403 1.365a2.57 2.57 0 0 1-.429 1.469c-.277.416-.676.745-1.196.988-.511.234-1.118.351-1.82.351Zm7.845 0c-.641 0-1.218-.13-1.729-.39a2.929 2.929 0 0 1-1.209-1.131c-.295-.494-.442-1.088-.442-1.781v-.208c0-.694.147-1.287.442-1.781a2.929 2.929 0 0 1 1.209-1.131c.511-.26 1.088-.39 1.729-.39s1.218.13 1.729.39c.511.26.914.637 1.209 1.131.295.494.442 1.087.442 1.781v.208c0 .693-.147 1.287-.442 1.781a2.929 2.929 0 0 1-1.209 1.131c-.511.26-1.088.39-1.729.39Zm0-1.456c.503 0 .919-.161 1.248-.481.329-.33.494-.798.494-1.404v-.13c0-.607-.165-1.071-.494-1.391-.321-.33-.737-.494-1.248-.494-.503 0-.919.164-1.248.494-.329.32-.494.784-.494 1.391v.13c0 .606.165 1.074.494 1.404.329.32.745.481 1.248.481Zm4.892 1.274v-9.1h1.638v9.1h-1.638Zm3.453 0v-6.448h1.638v6.448h-1.638Zm.819-7.202c-.295 0-.546-.096-.754-.286-.199-.191-.299-.442-.299-.754s.1-.564.299-.754c.208-.191.459-.286.754-.286.303 0 .555.095.754.286.199.19.299.442.299.754s-.1.563-.299.754a1.05 1.05 0 0 1-.754.286Zm5.234 7.384c-.511 0-.992-.126-1.443-.377a2.863 2.863 0 0 1-1.066-1.131c-.269-.494-.403-1.092-.403-1.794v-.208c0-.702.134-1.3.403-1.794s.624-.867 1.066-1.118c.442-.26.923-.39 1.443-.39.39 0 .715.047.975.143.269.086.485.199.65.338.165.138.29.286.377.442h.234v-3.393h1.638v9.1h-1.612v-.78h-.234c-.147.242-.377.463-.689.663-.303.199-.75.299-1.339.299Zm.494-1.43c.503 0 .923-.161 1.261-.481.338-.33.507-.806.507-1.43v-.13c0-.624-.169-1.097-.507-1.417-.329-.33-.75-.494-1.261-.494-.503 0-.923.164-1.261.494-.338.32-.507.793-.507 1.417v.13c0 .624.169 1.1.507 1.43.338.32.758.481 1.261.481Z"/><path stroke="url(#q)" stroke-linecap="round" stroke-linejoin="round" stroke-width="2" d="m371.68 568.4 2 2 4-4m7 2c0 5.523-4.477 10-10 10s-10-4.477-10-10 4.477-10 10-10 10 4.477 10 10Z"/></g><defs><linearGradient id="a" x1="331.646" x2="40.5" y1="19.605" y2="712.554" gradientUnits="userSpaceOnUse"><stop stop-color="#1B1B1B"/><stop offset=".439" stop-color="#fff"/><stop offset=".584" stop-color="#0E0E0E"/><stop offset=".854" stop-color="#fff"/><stop offset=".973" stop-color="#1B1B1B"/></linearGradient><linearGradient id="b" x1="14.684" x2="326.123" y1="15.682" y2="710.747" gradientUnits="userSpaceOnUse"><stop/><stop offset=".128" stop-color="#fff"/><stop offset=".239" stop-color="#212121"/><stop offset=".48" stop-color="#BDBDBD"/><stop offset=".811" stop-color="#646464"/><stop offset="1" stop-color="#676159"/></linearGradient><linearGradient id="d" x1="324.878" x2="40.9" y1="16.162" y2="717.937" gradientUnits="userSpaceOnUse"><stop offset=".037" stop-color="#0F0F0F"/><stop offset=".124" stop-color="#757575"/><stop offset=".968" stop-color="#0F0F0F"/></linearGradient><linearGradient id="f" x1="17.567" x2="332.659" y1="290.957" y2="296.328" gradientUnits="userSpaceOnUse"><stop offset=".831" stop-color="#fff"/><stop offset="1" stop-color="#272727"/></linearGradient><linearGradient id="g" x1="65.337" x2="288.71" y1="517.244" y2="466.863" gradientUnits="userSpaceOnUse"><stop stop-color="#98B5FF"/><stop offset="1" stop-color="#BFA3D1"/></linearGradient><linearGradient id="h" x1="55.069" x2="300.821" y1="569.728" y2="573.77" gradientUnits="userSpaceOnUse"><stop offset=".831" stop-color="#fff"/><stop offset="1" stop-color="#272727"/></linearGradient><linearGradient id="i" x1="201.238" x2="149.508" y1="185.08" y2="222.465" gradientUnits="userSpaceOnUse"><stop offset=".055" stop-color="#fff"/><stop offset=".146" stop-color="#494949"/><stop offset=".428" stop-color="#fff"/><stop offset=".649" stop-color="#676767"/><stop offset=".746" stop-color="#fff" stop-opacity=".434"/><stop offset=".989"/></linearGradient><linearGradient id="j" x1="201.238" x2="149.508" y1="185.08" y2="222.465" gradientUnits="userSpaceOnUse"><stop offset=".055" stop-color="#fff"/><stop offset=".146" stop-color="#494949"/><stop offset=".428" stop-color="#fff"/><stop offset=".649" stop-color="#676767"/><stop offset=".746" stop-color="#fff" stop-opacity=".434"/><stop offset=".989"/></linearGradient><linearGradient id="l" x1="254.782" x2="493.641" y1="539.718" y2="782.429" gradientUnits="userSpaceOnUse"><stop/><stop offset=".207" stop-color="#fff"/><stop offset=".436"/><stop offset="1" stop-color="#BBB"/></linearGradient><linearGradient id="m" x1="374.679" x2="374.679" y1="693.47" y2="736.955" gradientUnits="userSpaceOnUse"><stop stop-color="#3C3C3C"/><stop offset="1" stop-color="#1D1D1D"/></linearGradient><linearGradient id="n" x1="291.68" x2="447.684" y1="745.714" y2="691.619" gradientUnits="userSpaceOnUse"><stop stop-color="#C0A3D0"/><stop offset="1" stop-color="#98B5FF"/></linearGradient><linearGradient id="o" x1="284.854" x2="461.57" y1="714.991" y2="717.897" gradientUnits="userSpaceOnUse"><stop offset=".831" stop-color="#fff"/><stop offset="1" stop-color="#272727"/></linearGradient><linearGradient id="p" x1="284.854" x2="461.57" y1="598.817" y2="601.723" gradientUnits="userSpaceOnUse"><stop offset=".831" stop-color="#fff"/><stop offset="1" stop-color="#272727"/></linearGradient><linearGradient id="q" x1="374.68" x2="374.68" y1="558.4" y2="578.4" gradientUnits="userSpaceOnUse"><stop stop-color="#BFA3D1"/><stop offset="1" stop-color="#98B5FF"/></linearGradient><filter id="k" width="284.501" height="265.605" x="222.429" y="528.497" color-interpolation-filters="sRGB" filterUnits="userSpaceOnUse"><feFlood flood-opacity="0" result="BackgroundImageFix"/><feColorMatrix in="SourceAlpha" result="hardAlpha" values="0 0 0 0 0 0 0 0 0 0 0 0 0 0 0 0 0 0 127 0"/><feOffset dx="-10" dy="14"/><feGaussianBlur stdDeviation="7"/><feComposite in2="hardAlpha" operator="out"/><feColorMatrix values="0 0 0 0 0 0 0 0 0 0 0 0 0 0 0 0 0 0 0.45 0"/><feBlend in2="BackgroundImageFix" result="effect1_dropShadow_439_2102"/><feBlend in="SourceGraphic" in2="effect1_dropShadow_439_2102" result="shape"/></filter></defs></svg>