<svg fill="none" height="170" viewBox="0 0 171 170" width="171" xmlns="http://www.w3.org/2000/svg" xmlns:xlink="http://www.w3.org/1999/xlink"><clipPath id="a"><path d="m.595703 0h170v170h-170z"/></clipPath><g clip-path="url(#a)" fill="#000"><path d="m168.472 78.6824c1.14.3449 1.773.9656 2.124 2.1017v10.3682h-2.973v-10.2281h-4.813v10.2281h-2.831v-10.2281h-4.812v10.2281h-2.831v-12.4699z"/><path d="m71.2278 78.6824v2.2418h-12.1733v7.9863h9.4838v-2.9423h-4.8126v-1.9616h7.5021v4.974c0 .9019-1.2783 2.1004-2.2066 2.1593-3.3077-.2505-7.2286.3785-10.4623.0125-1.0984-.1243-2.0757-1.0748-2.1943-2.1714-.1941-1.7944-.2054-6.3452.0003-8.127.1327-1.149.9828-1.7588 1.9819-2.1716z"/><path d="m15.5988 78.6824v2.2417h-12.17323v7.9864h9.48383v-2.9424h-4.67114v-1.9615h7.36054v5.114c0 .8042-1.3417 2.0074-2.2063 2.0194-3.2678-.2441-7.12464.3693-10.32124.0127-1.28386-.1433-2.192108-1.0489-2.335567-2.3119-.197938-1.7425-.178355-5.9433.002076-7.7049.136608-1.3337.867981-2.0613 2.121601-2.4535z"/><path d="m52.6847 78.6824v2.2418h-11.9609l-.2124.2102v7.7761h9.4839v-2.9423h-4.6712v-1.9616h7.3606v5.1141c0 .0619-.3669.8363-.4476.9581-.4011.6058-1.1648.9934-1.8875 1.0739-3.1629.3523-6.9601-.2638-10.1924 0-1.3556-.1947-2.1963-1.1131-2.3336-2.454-.1724-1.6835-.207-6.0543.0105-7.6925.1636-1.2326.9492-1.9787 2.1111-2.3238z"/><path d="m88.6384 78.6824v2.1017h-10.1208l-.2123.2102v2.3818l.2123.2102h7.7145v2.1017h-7.9268v3.3626h10.3331v2.1017h-13.1641v-12.4699z"/><path d="m142.144 78.6824v2.1017h-10.121l-.212.2102v2.3818l.212.2102h7.715v2.1017h-7.927v3.3626h10.333v2.1017h-13.164v-12.4699z"/><path d="m112.702 78.6824v4.7638h9.484v-4.7638h2.831v12.4699h-2.831v-5.3242h-9.484v5.3242h-2.831v-12.4699z"/><path d="m22.5347 78.6824-.0072 9.7449.2195.4832h8.1391v-10.2281h2.9726l-.034 10.5448c-.3414 1.2125-1.1847 1.8388-2.4371 1.931-2.3642.1742-7.1961.25-9.4903-.0055-1.3732-.1529-2.198-1.1305-2.3335-2.454l-.0016-10.0163z"/><path d="m104.067 78.6824c.644.1788 1.982 1.2036 1.982 1.8915v10.5784h-2.831v-10.2281h-8.6345v10.2281h-2.831v-12.4699z"/><path d="m148.372 78.6824h-2.972v12.4699h2.972z"/></g></svg>