<svg fill="none" height="173" viewBox="0 0 472 173" width="472" xmlns="http://www.w3.org/2000/svg" xmlns:xlink="http://www.w3.org/1999/xlink"><linearGradient id="a" gradientUnits="userSpaceOnUse" x1="238" x2="238" y1="-3.10432" y2="208.628"><stop offset=".0336538" stop-color="#464646"/><stop offset=".120192" stop-color="#fff"/><stop offset=".495192" stop-color="#fff"/><stop offset=".865627"/></linearGradient><path d="m55.0486 171.859c-10.2666 0-19.5066-1.76-27.72-5.28-8.2133-3.666-14.6666-8.8-19.35997-15.4-4.69334-6.6-7.040005-14.3-7.040005-23.1h26.839975c.5867 6.6 3.1534 12.027 7.7 16.28 4.6934 4.254 11.22 6.38 19.58 6.38 8.6534 0 15.4-2.053 20.24-6.16 4.84-4.253 7.26-9.68 7.26-16.28 0-5.133-1.54-9.313-4.62-12.54-2.9333-3.226-6.6733-5.72-11.22-7.48-4.4-1.76-10.56-3.666-18.48-5.72-9.9733-2.6395-18.1133-5.2795-24.42-7.9195-6.16-2.7867-11.44-7.04-15.83997-12.76-4.4-5.72-6.6-13.3467-6.6-22.8801 0-8.8 2.2-16.4999 6.6-23.0999 4.39997-6.6 10.55997-11.66 18.47997-15.18 7.92-3.5201 17.0867-5.2801 27.5-5.2801 14.8134 0 26.9134 3.74 36.3 11.22 9.5334 7.3334 14.8134 17.4534 15.8404 30.36h-27.7204c-.44-5.5733-3.08-10.3399-7.92-14.3-4.84-3.96-11.22-5.94-19.14-5.94-7.1866 0-13.0533 1.8334-17.6 5.5001-4.5466 3.6666-6.82 8.9466-6.82 15.8399 0 4.6934 1.3934 8.5801 4.18 11.6601 2.9334 2.9333 6.6 5.28 11 7.04s10.4134 3.6666 18.04 5.72c10.12 2.7866 18.3334 5.5733 24.64 8.36 6.4534 2.7866 11.88 7.1133 16.2804 12.9795 4.546 5.72 6.82 13.42 6.82 23.1 0 7.774-2.127 15.107-6.38 22-4.107 6.894-10.1937 12.467-18.2604 16.72-7.92 4.107-17.3066 6.16-28.16 6.16zm125.3434.44c-11.44 0-21.78-2.566-31.02-7.7-9.24-5.28-16.5-12.613-21.78-22-5.28-9.533-7.92-20.533-7.92-33 0-12.3195 2.713-23.2462 8.14-32.7795 5.427-9.5334 12.833-16.8667 22.22-22 9.387-5.1334 19.873-7.7 31.46-7.7s22.073 2.5666 31.46 7.7c9.387 5.1333 16.793 12.4666 22.22 22 5.427 9.5333 8.14 20.46 8.14 32.7795 0 12.32-2.787 23.247-8.36 32.78-5.573 9.534-13.2 16.94-22.88 22.22-9.533 5.134-20.093 7.7-31.68 7.7zm0-21.78c6.453 0 12.467-1.54 18.04-4.62 5.72-3.08 10.34-7.7 13.86-13.86s5.28-13.64 5.28-22.44-1.687-16.2062-5.06-22.2195c-3.373-6.16-7.847-10.78-13.42-13.86s-11.587-4.62-18.04-4.62-12.467 1.54-18.04 4.62c-5.427 3.08-9.753 7.7-12.98 13.86-3.227 6.0133-4.84 13.4195-4.84 22.2195 0 13.054 3.3 23.174 9.9 30.36 6.747 7.04 15.18 10.56 25.3 10.56zm103.163-142.99954v162.79954h-25.08v-162.79954zm36.058 25.52004c-4.547 0-8.36-1.54-11.44-4.6201-3.08-3.0799-4.62-6.8933-4.62-11.4399 0-4.5467 1.54-8.36005 4.62-11.44004 3.08-3.08001 6.893-4.620011 11.44-4.620011 4.4 0 8.14 1.540001 11.22 4.620011 3.08 3.07999 4.62 6.89334 4.62 11.44004 0 4.5466-1.54 8.36-4.62 11.4399-3.08 3.0801-6.82 4.6201-11.22 4.6201zm12.32 16.06v121.2195h-25.08v-121.2195zm14.938 60.0595c0-12.1729 2.493-22.9529 7.48-32.3395 5.133-9.3867 12.026-16.6467 20.68-21.7801 8.8-5.2799 18.553-7.9199 29.26-7.9199 7.92 0 15.693 1.76 23.32 5.28 7.773 3.3733 13.933 7.92 18.48 13.6399v-58.51994h25.3v162.79954h-25.3v-18.26c-4.107 5.867-9.827 10.707-17.16 14.52-7.187 3.814-15.474 5.72-24.86 5.72-10.56 0-20.24-2.64-29.04-7.92-8.654-5.426-15.547-12.906-20.68-22.44-4.987-9.68-7.48-20.606-7.48-32.78zm99.22.44c0-8.36-1.76-15.6195-5.28-21.7795-3.374-6.16-7.847-10.8534-13.42-14.08-5.574-3.2267-11.587-4.84-18.04-4.84-6.454 0-12.467 1.6133-18.04 4.84-5.574 3.08-10.12 7.7-13.64 13.86-3.374 6.0133-5.06 13.1995-5.06 21.5595s1.686 15.694 5.06 22c3.52 6.307 8.066 11.147 13.64 14.52 5.72 3.227 11.733 4.84 18.04 4.84 6.453 0 12.466-1.613 18.04-4.84 5.573-3.226 10.046-7.92 13.42-14.08 3.52-6.306 5.28-13.64 5.28-22z" fill="url(#a)"/></svg>