<svg fill="none" height="29" viewBox="0 0 31 29" width="31" xmlns="http://www.w3.org/2000/svg"><path d="m3.64476 23.9694v-20.6325 16.7271-3.1318zm0 2.9475c-.81056 0-1.5042-.2884-2.08093-.8651-.576727-.5767-.865582-1.2709-.866564-2.0824v-20.6325c0-.81056.288855-1.5042.866564-2.08093.57771-.576728 1.27136-.865583 2.08093-.866566h20.63254c.8105 0 1.5047.288855 2.0824.866566.5777.57771.866 1.27135.8651 2.08093v11.79h-2.9475v-11.79h-20.63254v20.6325h10.31624v2.9475zm18.20084 1.4737-5.2318-5.2318 2.1001-2.0632 3.1317 3.1317 6.2634-6.2634 2.0633 2.1001zm-13.77959-13.2637c.41757 0 .76783-.1415 1.05079-.4244.28296-.283.42395-.6328.42296-1.0493-.00098-.4166-.14246-.7664-.42444-1.0494-.28197-.2829-.63174-.4244-1.04931-.4244-.41756 0-.76733.1415-1.04931.4244-.28197.283-.42345.6328-.42444 1.0494-.00098.4165.1405.7668.42444 1.0507.28395.284.63372.425 1.04931.423zm0-5.895c.41757 0 .76783-.14148 1.05079-.42444s.42395-.63273.42296-1.04931c-.00098-.41658-.14246-.76635-.42444-1.04931-.28197-.28296-.63174-.42444-1.04931-.42444-.41756 0-.76733.14148-1.04931.42444-.28197.28296-.42345.63273-.42444 1.04931-.00098.41658.1405.76684.42444 1.05079.28395.28394.63372.42493 1.04931.42296zm4.42129 5.895h8.8425v-2.9475h-8.8425zm0-5.895h8.8425v-2.9475h-8.8425z" fill="#0073ff"/></svg>