<svg fill="none" height="100" viewBox="0 0 100 100" width="100" xmlns="http://www.w3.org/2000/svg" xmlns:xlink="http://www.w3.org/1999/xlink"><linearGradient id="a" gradientUnits="userSpaceOnUse" x1="54.1549" x2="54.1549" y1="12.2568" y2="91.4235"><stop offset="0" stop-color="#01ffff"/><stop offset="1" stop-color="#0173ff"/></linearGradient><path d="m20.8216 78.9235v-58.3333 47.2916-8.8541zm0 8.3333c-2.2917 0-4.2528-.8152-5.8833-2.4458-1.6306-1.6306-2.4472-3.5931-2.45-5.8875v-58.3333c0-2.2917.8166-4.2528 2.45-5.8834 1.6333-1.6305 3.5944-2.4472 5.8833-2.45h58.3334c2.2916 0 4.2541.8167 5.8875 2.45 1.6333 1.6334 2.4486 3.5945 2.4458 5.8834v33.3333h-8.3333v-33.3333h-58.3334v58.3333h29.1667v8.3333zm51.4584 4.1667-14.7917-14.7917 5.9375-5.8333 8.8542 8.8542 17.7083-17.7084 5.8333 5.9375zm-38.9584-37.5c1.1806 0 2.1709-.4 2.9709-1.2s1.1986-1.7889 1.1958-2.9667c-.0028-1.1777-.4028-2.1666-1.2-2.9666s-1.7861-1.2-2.9667-1.2c-1.1805 0-2.1694.4-2.9667 1.2-.7972.8-1.1972 1.7889-1.2 2.9666-.0027 1.1778.3973 2.1681 1.2 2.9709.8028.8027 1.7917 1.2014 2.9667 1.1958zm0-16.6667c1.1806 0 2.1709-.4 2.9709-1.2s1.1986-1.7889 1.1958-2.9666c-.0028-1.1778-.4028-2.1667-1.2-2.9667s-1.7861-1.2-2.9667-1.2c-1.1805 0-2.1694.4-2.9667 1.2-.7972.8-1.1972 1.7889-1.2 2.9667-.0027 1.1777.3973 2.168 1.2 2.9708.8028.8028 1.7917 1.2014 2.9667 1.1958zm12.5 16.6667h25v-8.3333h-25zm0-16.6667h25v-8.3333h-25z" fill="url(#a)"/></svg>