<svg fill="none" height="31" viewBox="0 0 32 31" width="32" xmlns="http://www.w3.org/2000/svg"><path d="m21.5918 2.56187h4.2916c.7588 0 1.4865.30143 2.023.83798.5366.53655.838 1.26427.838 2.02307v4.29157m-18.5968 18.59681h-4.29158c-.75879 0-1.48651-.3014-2.02306-.838-.53655-.5365-.83798-1.2643-.83798-2.0231v-4.2915m11.44422-17.16631v8.58311c0 1.5808-2.8825 2.8611-6.43739 2.8611-3.55485 0-6.43736-1.2803-6.43736-2.8611v-8.58311m12.87475 0c0 1.58073-2.8825 2.86105-6.43739 2.86105-3.55485 0-6.43736-1.28032-6.43736-2.86105m12.87475 0c0-1.58072-2.8825-2.86104-6.43739-2.86104-3.55485 0-6.43736 1.28032-6.43736 2.86104m12.87475 4.29158c0 1.58072-2.8825 2.86103-6.43739 2.86103-3.55485 0-6.43736-1.28031-6.43736-2.86103m25.03415 10.01363v2.8611h-5.7221v-2.8611c0-.7588.3015-1.4865.838-2.023.5366-.5366 1.2643-.838 2.0231-.838s1.4865.3014 2.023.838c.5366.5365.838 1.2642.838 2.023zm-9.2984 2.8611h12.8747v8.5831h-12.8747z" stroke="#0073ff" stroke-linecap="round" stroke-linejoin="round" stroke-width="1.71663"/></svg>