<svg fill="none" height="101" viewBox="0 0 101 101" width="101" xmlns="http://www.w3.org/2000/svg" xmlns:xlink="http://www.w3.org/1999/xlink"><linearGradient id="a" gradientUnits="userSpaceOnUse" x1="50.0788" x2="50.0788" y1="8.79919" y2="92.1325"><stop offset="0" stop-color="#01ffff"/><stop offset="1" stop-color="#0173ff"/></linearGradient><path d="m66.7454 12.9659h12.5c2.2102 0 4.3298.8779 5.8926 2.4407s2.4408 3.6825 2.4408 5.8926v12.5m-54.1667 54.1667h-12.5c-2.2101 0-4.3297-.878-5.8925-2.4408-1.5629-1.5628-2.4408-3.6824-2.4408-5.8926v-12.5m33.3333-50v25c0 4.6042-8.3958 8.3334-18.75 8.3334s-18.74999-3.7292-18.74999-8.3334v-25m37.49999 0c0 4.6042-8.3958 8.3334-18.75 8.3334s-18.74999-3.7292-18.74999-8.3334m37.49999 0c0-4.6041-8.3958-8.33331-18.75-8.33331s-18.74999 3.72921-18.74999 8.33331m37.49999 12.5c0 4.6042-8.3958 8.3334-18.75 8.3334s-18.74999-3.7292-18.74999-8.3334m72.91669 29.1667v8.3333h-16.6667v-8.3333c0-2.2101.878-4.3298 2.4408-5.8926s3.6824-2.4407 5.8925-2.4407c2.2102 0 4.3298.8779 5.8926 2.4407s2.4408 3.6825 2.4408 5.8926zm-27.0834 8.3333h37.5001v25h-37.5001z" stroke="url(#a)" stroke-linecap="round" stroke-linejoin="round" stroke-width="5"/></svg>