<svg fill="none" height="30" viewBox="0 0 30 30" width="30" xmlns="http://www.w3.org/2000/svg"><g fill="#0073ff"><path d="m2.11428 11.7462v5.4639h5.46392v1.8213h-7.285231v-7.2852zm16.39172 0v7.2852h-7.2852v-1.8213h5.4639v-5.4639zm-10.9278-10.927841v1.821311h-5.46392v5.46392h-1.821311v-7.285231zm10.9278 0v7.285231h-1.8213v-5.46392h-5.4639v-1.821311z"/><path d="m14.8634 22.6741c.9661 0 1.8926.3837 2.5758 1.0669.6831.6831 1.0668 1.6096 1.0668 2.5757s-.3837 1.8926-1.0668 2.5757c-.6832.6831-1.6097 1.0669-2.5758 1.0669-.966 0-1.8926-.3838-2.5757-1.0669s-1.0669-1.6096-1.0669-2.5757.3838-1.8926 1.0669-2.5757c.6831-.6832 1.6097-1.0669 2.5757-1.0669zm10.9279 0c.9661 0 1.8926.3837 2.5757 1.0669.6831.6831 1.0669 1.6096 1.0669 2.5757s-.3838 1.8926-1.0669 2.5757-1.6096 1.0669-2.5757 1.0669-1.8926-.3838-2.5757-1.0669c-.6832-.6831-1.0669-1.6096-1.0669-2.5757s.3837-1.8926 1.0669-2.5757c.6831-.6832 1.6096-1.0669 2.5757-1.0669zm-10.9279 1.5936c-.269 0-.5355.053-.7841.156-.2486.1029-.4744.2539-.6647.4441-.1903.1903-.3412.4162-.4442.6648-.1029.2486-.1559.515-.1559.7841 0 .269.053.5355.1559.7841.103.2486.2539.4744.4442.6647s.4161.3412.6647.4442c.2486.1029.5151.1559.7841.1559.5435 0 1.0646-.2158 1.4489-.6001.3842-.3842.6001-.9054.6001-1.4488 0-.5435-.2159-1.0646-.6001-1.4489-.3843-.3842-.9054-.6001-1.4489-.6001zm10.9279 0c-.2691 0-.5355.053-.7841.156-.2486.1029-.4745.2539-.6648.4441-.1902.1903-.3412.4162-.4441.6648-.103.2486-.156.515-.156.7841 0 .269.053.5355.156.7841.1029.2486.2539.4744.4441.6647.1903.1903.4162.3412.6648.4442.2486.1029.515.1559.7841.1559.5434 0 1.0646-.2158 1.4488-.6001.3843-.3842.6002-.9054.6002-1.4488 0-.5435-.2159-1.0646-.6002-1.4489-.3842-.3842-.9054-.6001-1.4488-.6001zm0-12.5215c.9661 0 1.8926.3838 2.5757 1.0669s1.0669 1.6096 1.0669 2.5757-.3838 1.8926-1.0669 2.5757c-.6831.6832-1.6096 1.0669-2.5757 1.0669s-1.8926-.3837-2.5757-1.0669c-.6832-.6831-1.0669-1.6096-1.0669-2.5757s.3837-1.8926 1.0669-2.5757c.6831-.6831 1.6096-1.0669 2.5757-1.0669zm0 1.5937c-.5434 0-1.0646.2158-1.4489.6001-.3842.3842-.6001.9054-.6001 1.4488s.2159 1.0646.6001 1.4489c.3843.3842.9055.6001 1.4489.6001s1.0646-.2159 1.4488-.6001c.3843-.3843.6002-.9055.6002-1.4489s-.2159-1.0646-.6002-1.4488c-.3842-.3843-.9054-.6001-1.4488-.6001zm-16.39179-7.05762c.96609 0 1.89259.38378 2.57569 1.0669.6832.68312 1.0669 1.60964 1.0669 2.57572 0 .9661-.3837 1.8926-1.0669 2.5757-.6831.6831-1.6096 1.0669-2.57569 1.0669-.96608 0-1.8926-.3838-2.57572-1.0669s-1.0669-1.6096-1.0669-2.5757c0-.96608.38378-1.8926 1.0669-2.57572s1.60964-1.0669 2.57572-1.0669zm0 1.59365c-.26908 0-.53552.053-.78411.15597s-.47447.25389-.66473.44416c-.19027.19026-.34119.41614-.44416.66473-.10298.24859-.15597.51503-.15597.78411 0 .2691.05299.5355.15597.7841.10297.2486.25389.4745.44416.6647.19026.1903.41614.3412.66473.4442s.51503.156.78411.156c.54342 0 1.06459-.2159 1.44879-.6002.3843-.3842.6002-.9054.6002-1.4488 0-.54342-.2159-1.06459-.6002-1.44884-.3842-.38426-.90537-.60013-1.44879-.60013z"/></g></svg>