<svg fill="none" height="100" viewBox="0 0 101 100" width="101" xmlns="http://www.w3.org/2000/svg" xmlns:xlink="http://www.w3.org/1999/xlink"><linearGradient id="a" gradientUnits="userSpaceOnUse" x1="50.0781" x2="50.0781" y1="-.243164" y2="99.7568"><stop offset="0" stop-color="#01ffff"/><stop offset="1" stop-color="#0173ff"/></linearGradient><clipPath id="b"><path d="m.078125-.243164h100v100h-100z"/></clipPath><g clip-path="url(#b)" fill="url(#a)"><path d="m6.32812 37.2568v18.75h18.74998v6.25h-24.999975v-25zm56.24998 0v25h-25v-6.25h18.75v-18.75zm-37.5-37.499964v6.250004h-18.74998v18.74996h-6.249995v-24.999964zm37.5 0v24.999964h-6.25v-18.74996h-18.75v-6.250004z"/><path d="m50.0781 74.7568c3.3152 0 6.4947 1.317 8.8389 3.6612s3.6611 5.5236 3.6611 8.8388-1.3169 6.4947-3.6611 8.8389-5.5237 3.6611-8.8389 3.6611-6.4946-1.3169-8.8388-3.6611-3.6612-5.5237-3.6612-8.8389 1.317-6.4946 3.6612-8.8388 5.5236-3.6612 8.8388-3.6612zm37.5 0c3.3152 0 6.4947 1.317 8.8389 3.6612s3.661 5.5236 3.661 8.8388-1.3168 6.4947-3.661 8.8389-5.5237 3.6611-8.8389 3.6611-6.4946-1.3169-8.8388-3.6611-3.6612-5.5237-3.6612-8.8389 1.317-6.4946 3.6612-8.8388 5.5236-3.6612 8.8388-3.6612zm-37.5 5.4688c-.9233 0-1.8376.1818-2.6907.5352s-1.6282.8713-2.2811 1.5242-1.1708 1.428-1.5242 2.2811-.5352 1.7674-.5352 2.6907c0 .9234.1818 1.8377.5352 2.6908s.8713 1.6282 1.5242 2.2811 1.428 1.1708 2.2811 1.5242c.8531.3533 1.7674.5352 2.6907.5352 1.8648 0 3.6533-.7408 4.9719-2.0594s2.0594-3.1071 2.0594-4.9719-.7408-3.6532-2.0594-4.9718-3.1071-2.0594-4.9719-2.0594zm37.5 0c-.9233 0-1.8377.1818-2.6907.5352-.8531.3534-1.6282.8713-2.2811 1.5242s-1.1709 1.428-1.5242 2.2811c-.3534.8531-.5352 1.7674-.5352 2.6907 0 .9234.1818 1.8377.5352 2.6908.3533.8531.8713 1.6282 1.5242 2.2811s1.428 1.1708 2.2811 1.5242c.853.3533 1.7674.5352 2.6907.5352 1.8648 0 3.6533-.7408 4.9719-2.0594s2.0594-3.1071 2.0594-4.9719-.7408-3.6532-2.0594-4.9718-3.1071-2.0594-4.9719-2.0594zm0-42.9688c3.3152 0 6.4947 1.317 8.8389 3.6612s3.661 5.5236 3.661 8.8388-1.3168 6.4947-3.661 8.8389-5.5237 3.6611-8.8389 3.6611-6.4946-1.3169-8.8388-3.6611-3.6612-5.5237-3.6612-8.8389 1.317-6.4946 3.6612-8.8388 5.5236-3.6612 8.8388-3.6612zm0 5.4688c-1.8648 0-3.6532.7408-4.9718 2.0594s-2.0594 3.107-2.0594 4.9718.7408 3.6533 2.0594 4.9719 3.107 2.0594 4.9718 2.0594 3.6533-.7408 4.9719-2.0594 2.0594-3.1071 2.0594-4.9719-.7408-3.6532-2.0594-4.9718-3.1071-2.0594-4.9719-2.0594zm-56.25-24.2188c3.3152 0 6.4947 1.317 8.8389 3.6612s3.6611 5.5236 3.6611 8.8388-1.3169 6.4947-3.6611 8.8389-5.5237 3.6611-8.8389 3.6611-6.4946-1.3169-8.8388-3.6611-3.6612-5.5237-3.6612-8.8389 1.317-6.4946 3.6612-8.8388 5.5236-3.6612 8.8388-3.6612zm0 5.4688c-.9233 0-1.8376.1819-2.6907.5352-.8531.3534-1.6282.8713-2.2811 1.5242s-1.1709 1.428-1.5242 2.2811c-.3534.8531-.5352 1.7674-.5352 2.6907 0 .9234.1818 1.8377.5352 2.6908.3533.8531.8713 1.6282 1.5242 2.2811s1.428 1.1708 2.2811 1.5242c.8531.3533 1.7674.5352 2.6907.5352 1.8648 0 3.6533-.7408 4.9719-2.0594s2.0594-3.1071 2.0594-4.9719-.7408-3.6532-2.0594-4.9718-3.1071-2.0594-4.9719-2.0594z"/></g></svg>