<svg fill="none" height="31" viewBox="0 0 31 31" width="31" xmlns="http://www.w3.org/2000/svg"><g fill="#0073ff"><path d="m26.9384 6.70184v.8637c0 2.21547 1.744 2.1222 1.9165 2.1222.1865 0 1.9165.10605 1.9165-2.1222v-.8637c0-2.21547-1.744-2.1222-1.9165-2.1222-.1865 0-1.9165-.10605-1.9165 2.1222zm2.715-.14055v1.13202c0 .8982-.2798 1.201-.7857 1.201-.506 0-.7986-.3028-.7986-1.201v-1.13074c0-.8752.2939-1.17801.7858-1.17801.5059-.01277.7985.30153.7985 1.17673zm-2.715 9.08421v.8637c0 2.2155 1.744 2.1222 1.9165 2.1222.1865 0 1.9165.106 1.9165-2.1222v-.8637c0-2.2155-1.744-2.1222-1.9165-2.1222-.1865 0-1.9165-.1061-1.9165 2.1222zm2.715-.1405v1.132c0 .8982-.2798 1.201-.7857 1.201-.506 0-.7986-.3028-.7986-1.201v-1.1308c0-.8752.2939-1.178.7858-1.178.5059-.0128.7985.3028.7985 1.178m-2.715 9.083v.8637c0 2.2154 1.744 2.1222 1.9165 2.1222.1865 0 1.9165.106 1.9165-2.1222v-.8637c0-2.2155-1.744-2.1222-1.9165-2.1222-.1865 0-1.9165-.1061-1.9165 2.1222zm2.715-.1406v1.132c0 .8982-.2798 1.201-.7857 1.201-.506 0-.7986-.3028-.7986-1.201v-1.1307c0-.8752.2939-1.178.7858-1.178.5059-.0128.7985.3015.7985 1.1767zm-7.8257-12.6361v.8637c0 2.2155 1.744 2.1222 1.9165 2.1222.1866 0 1.9165.106 1.9165-2.1222v-.8637c0-2.21547-1.744-2.1222-1.9165-2.1222-.1865 0-1.9165-.10605-1.9165 2.1222zm2.7151-.1405v1.132c0 .8982-.2798 1.201-.7858 1.201-.5059 0-.7985-.3028-.7985-1.201v-1.1308c0-.8752.2938-1.178.7857-1.178.506-.0128.7986.3028.7986 1.178m-2.7151-10.17402v.82665l1.2777-.30408v3.83427h1.2777v-5.110659m-2.5554 18.641139v.8267l1.2777-.3041v3.8342h1.2789v-5.1106m-3.8342 7.666v3.833h-20.442678v-3.833c0-3.3986 6.809958-5.1107 10.221278-5.1107 3.4114 0 10.2214 1.7121 10.2214 5.1107z"/><path d="m10.3287 19.9103c2.8226 0 5.1107-2.2881 5.1107-5.1106 0-2.8226-2.2881-5.11068-5.1107-5.11068-2.8225 0-5.11062 2.28808-5.11062 5.11068 0 2.8225 2.28812 5.1106 5.11062 5.1106z"/><path d="m22.9585 29.5606c0-.8752.2938-1.1781.7857-1.1781.506-.0127.7986.3029.7986 1.1781v.5711h1.1179v-.4319c0-2.2155-1.744-2.1222-1.9165-2.1222-.1865 0-1.9165-.106-1.9165 2.1222v.4319h1.1308z"/></g></svg>