<svg fill="none" height="100" viewBox="0 0 101 100" width="101" xmlns="http://www.w3.org/2000/svg" xmlns:xlink="http://www.w3.org/1999/xlink"><linearGradient id="a" gradientUnits="userSpaceOnUse" x1="49.9883" x2="49.9883" y1=".46582" y2="96.2992"><stop offset="0" stop-color="#01ffff"/><stop offset="1" stop-color="#0173ff"/></linearGradient><clipPath id="b"><path d="m.078125 0h100v100h-100z"/></clipPath><g clip-path="url(#b)" fill="url(#a)"><path d="m87.4883 19.8908v2.8167c0 7.225 5.6875 6.9208 6.25 6.9208.6083 0 6.25.3459 6.25-6.9208v-2.8167c0-7.225-5.6875-6.9208-6.25-6.9208-.6083 0-6.25-.3458-6.25 6.9208zm8.8541-.4583v3.6917c0 2.9291-.9125 3.9166-2.5625 3.9166s-2.6041-.9875-2.6041-3.9166v-3.6875c0-2.8542.9583-3.8417 2.5625-3.8417 1.65-.0417 2.6041.9833 2.6041 3.8375zm-8.8541 29.625v2.8167c0 7.225 5.6875 6.9208 6.25 6.9208.6083 0 6.25.3458 6.25-6.9208v-2.8167c0-7.225-5.6875-6.9208-6.25-6.9208-.6083 0-6.25-.3459-6.25 6.9208zm8.8541-.4583v3.6916c0 2.9292-.9125 3.9167-2.5625 3.9167s-2.6041-.9875-2.6041-3.9167v-3.6875c0-2.8541.9583-3.8416 2.5625-3.8416 1.65-.0417 2.6041.9875 2.6041 3.8416m-8.8541 29.6209v2.8166c0 7.225 5.6875 6.9209 6.25 6.9209.6083 0 6.25.3458 6.25-6.9209v-2.8166c0-7.225-5.6875-6.9209-6.25-6.9209-.6083 0-6.25-.3458-6.25 6.9209zm8.8541-.4584v3.6917c0 2.9292-.9125 3.9167-2.5625 3.9167s-2.6041-.9875-2.6041-3.9167v-3.6875c0-2.8542.9583-3.8417 2.5625-3.8417 1.65-.0416 2.6041.9834 2.6041 3.8375zm-25.5208-41.2083v2.8167c0 7.225 5.6875 6.9208 6.25 6.9208.6083 0 6.25.3458 6.25-6.9208v-2.8167c0-7.225-5.6875-6.9208-6.25-6.9208-.6083 0-6.25-.3459-6.25 6.9208zm8.8542-.4583v3.6916c0 2.9292-.9125 3.9167-2.5625 3.9167s-2.6042-.9875-2.6042-3.9167v-3.6875c0-2.8541.9583-3.8416 2.5625-3.8416 1.65-.0417 2.6042.9875 2.6042 3.8416m-8.8542-33.17915v2.69584l4.1667-.99167v12.50418h4.1666v-16.66668m-8.3333 60.79168v2.6958l4.1667-.9916v12.5041h4.1708v-16.6666m-12.5042 25v12.5h-66.6666188v-12.5c0-11.0834 22.2083188-16.6667 33.3333188-16.6667s33.3333 5.5833 33.3333 16.6667z"/><path d="m33.3216 62.9658c9.2048 0 16.6667-7.4619 16.6667-16.6666 0-9.2048-7.4619-16.6667-16.6667-16.6667-9.2047 0-16.6667 7.4619-16.6667 16.6667 0 9.2047 7.462 16.6666 16.6667 16.6666z"/><path d="m74.5091 94.4367c0-2.8542.9583-3.8417 2.5625-3.8417 1.65-.0417 2.6042.9875 2.6042 3.8417v1.8625h3.6458v-1.4084c0-7.225-5.6875-6.9208-6.25-6.9208-.6083 0-6.25-.3458-6.25 6.9208v1.4084h3.6875z"/></g></svg>