<svg xmlns="http://www.w3.org/2000/svg" width="239" height="487" fill="none"><mask id="b" fill="#fff"><path d="M198.7.824c21.324 0 38.611 17.287 38.611 38.61v111.163h1.469c.102 0 .184.083.184.184v56.992a.184.184 0 0 1-.184.184h-1.469v239.979c0 21.323-17.287 38.61-38.611 38.61H40.595c-21.324 0-38.61-17.286-38.61-38.61V221.011H.513a.185.185 0 0 1-.184-.184v-36.402c0-.102.082-.184.184-.184h1.47v-9.928H.514a.184.184 0 0 1-.184-.183v-36.402c0-.102.082-.184.184-.184h1.47v-17.282H.514a.184.184 0 0 1-.184-.184V102.98c0-.101.082-.183.184-.183h1.47V39.435c0-21.324 17.287-38.61 38.61-38.61H198.7Z"/></mask><path fill="url(#a)" d="M198.7.824c21.324 0 38.611 17.287 38.611 38.61v111.163h1.469c.102 0 .184.083.184.184v56.992a.184.184 0 0 1-.184.184h-1.469v239.979c0 21.323-17.287 38.61-38.611 38.61H40.595c-21.324 0-38.61-17.286-38.61-38.61V221.011H.513a.185.185 0 0 1-.184-.184v-36.402c0-.102.082-.184.184-.184h1.47v-9.928H.514a.184.184 0 0 1-.184-.183v-36.402c0-.102.082-.184.184-.184h1.47v-17.282H.514a.184.184 0 0 1-.184-.184V102.98c0-.101.082-.183.184-.183h1.47V39.435c0-21.324 17.287-38.61 38.61-38.61H198.7Z"/><path fill="#ADADAD" d="M198.7.824V.151v.673Zm38.611 149.773h-.674v.673h.674v-.673Zm1.469 0 .001-.674h-.001v.674Zm0 57.36v.673h.001l-.001-.673Zm-1.469 0v-.673h-.674v.673h.674ZM198.7 486.546v.673-.673Zm-158.105 0v-.673.673ZM1.985 221.011h.673v-.674h-.674v.674Zm-1.471 0-.002.673h.002v-.673Zm-.184-.184h-.673v.002l.673-.002Zm0-36.402-.673-.001v.001H.33Zm.184-.184v-.673H.512l.002.673Zm1.47 0v.674h.674v-.674h-.674Zm0-9.928h.674v-.673h-.674v.673Zm-1.47 0-.002.674h.002v-.674Zm-.184-.183h-.673v.001l.673-.001Zm0-36.402-.673-.001v.001H.33Zm.184-.184v-.673H.512l.002.673Zm1.47 0v.673h.674v-.673h-.674Zm0-17.282h.674v-.674h-.674v.674Zm-1.47 0-.002.673h.002v-.673ZM.33 102.98h-.673.673Zm.184-.183v-.673H.512l.002.673Zm1.47 0v.673h.674v-.673h-.674ZM40.594.824v.674-.674Zm158.106 0v.674c20.952 0 37.937 16.985 37.937 37.937h1.347C237.984 17.739 220.396.15 198.7.15v.673Zm38.611 38.61h-.674v111.163h1.347V39.435h-.673Zm0 111.163v.673h1.469v-1.347h-1.469v.674Zm1.469 0v.673a.488.488 0 0 1-.489-.489h1.346a.858.858 0 0 0-.856-.858l-.001.674Zm.184.184h-.673v56.992h1.346v-56.992h-.673Zm0 56.992h-.673a.49.49 0 0 1 .489-.489v.673l.001.673a.857.857 0 0 0 .856-.857h-.673Zm-.184.184v-.673h-1.469v1.346h1.469v-.673Zm-1.469 0h-.674v239.979h1.347V207.957h-.673Zm0 239.979h-.674c0 20.952-16.985 37.936-37.937 37.937v1.346c21.696 0 39.284-17.588 39.284-39.283h-.673Zm-38.611 38.61v-.673H40.595v1.346H198.7v-.673Zm-158.105 0v-.673c-20.952 0-37.937-16.985-37.937-37.937H1.31c0 21.695 17.588 39.283 39.284 39.283v-.673Zm-38.61-38.61h.673V221.011H1.31v226.925h.673Zm0-226.925v-.674H.513v1.347h1.47v-.673Zm-1.471 0 .001-.674a.49.49 0 0 1 .488.489l-.673.001-.673.002a.857.857 0 0 0 .855.855l.002-.673Zm-.184-.184h.673v-36.402H-.343v36.402H.33Zm0-36.402h.673a.49.49 0 0 1-.488.49l-.001-.674-.002-.673a.857.857 0 0 0-.855.856l.673.001Zm.184-.184v.674h1.47v-1.347H.514v.673Zm1.47 0h.674v-9.928H1.31v9.928h.673Zm0-9.928v-.673H.514v1.347h1.47v-.674Zm-1.47 0 .001-.673a.49.49 0 0 1 .488.488l-.673.002-.673.001a.858.858 0 0 0 .855.856l.002-.674Zm-.184-.183h.673v-36.402H-.343v36.402H.33Zm0-36.402h.673c0 .271-.22.489-.488.489l-.001-.673-.002-.673a.857.857 0 0 0-.855.856l.673.001Zm.184-.184v.673h1.47v-1.346H.514v.673Zm1.47 0h.674v-17.282H1.31v17.282h.673Zm0-17.282v-.674H.514v1.347h1.47v-.673Zm-1.47 0 .001-.674a.49.49 0 0 1 .488.49H-.343c0 .475.385.856.855.857l.002-.673Zm-.184-.184h.673V102.98H-.343v17.098H.33Zm0-17.098.673.001a.49.49 0 0 1-.488.489l-.001-.673-.002-.673a.857.857 0 0 0-.855.856H.33Zm.184-.183v.673h1.47v-1.346H.514v.673Zm1.47 0h.674V39.435H1.31v63.362h.673Zm0-63.362h.674c0-20.953 16.985-37.937 37.937-37.937V.15C18.899.15 1.31 17.739 1.31 39.435h.673ZM40.594.825v.673H198.7V.15H40.595v.673Z" mask="url(#b)"/><mask id="d" width="229" height="481" x="5" y="3" maskUnits="userSpaceOnUse" style="mask-type:alpha"><rect width="227.838" height="480.356" x="5.727" y="3.373" fill="url(#c)" rx="36.59"/></mask><g mask="url(#d)"><rect width="334.892" height="561.802" x="-6.721" y="-10.624" fill="#000" rx="13.71"/><rect width="228.308" height="462.44" x="5.594" y="49.009" fill="#F3F5F7" rx="13.71"/><rect width="128.284" height="33.378" x="51.605" y="296.649" fill="#0073FF" rx="16.689"/><path fill="#fff" d="M94.22 317.357c-.736 0-1.353-.162-1.853-.487a3.055 3.055 0 0 1-1.13-1.361c-.253-.579-.38-1.246-.38-2.003 0-.756.127-1.424.38-2.002a3.015 3.015 0 0 1 1.13-1.356c.5-.328 1.117-.493 1.853-.493.86 0 1.556.223 2.09.668.538.445.902 1.04 1.094 1.787l-.61.149c-.158-.62-.453-1.111-.884-1.474-.428-.366-.991-.55-1.69-.55-.605 0-1.11.139-1.514.416a2.57 2.57 0 0 0-.91 1.156c-.201.493-.304 1.059-.307 1.699-.007.64.09 1.207.292 1.7.206.489.512.875.92 1.155.407.278.914.416 1.52.416.698 0 1.261-.183 1.689-.549.431-.367.726-.858.883-1.474l.611.149c-.192.746-.556 1.342-1.094 1.787-.534.445-1.23.667-2.09.667Zm4.309-.154v-5.545h.54v1.33l-.134-.175c.061-.157.138-.303.23-.436.096-.137.194-.249.293-.334.148-.137.32-.24.519-.308.199-.072.399-.113.601-.123.202-.014.385.001.549.046v.559a1.973 1.973 0 0 0-.698-.03c-.247.03-.478.137-.693.318a1.463 1.463 0 0 0-.411.575c-.086.216-.14.443-.165.683a6.877 6.877 0 0 0-.035.693v2.747h-.596Zm5.755.154c-.531 0-.989-.118-1.376-.354a2.398 2.398 0 0 1-.899-1.011c-.212-.439-.318-.956-.318-1.551 0-.606.104-1.128.313-1.566.212-.442.51-.781.894-1.017.386-.236.845-.354 1.376-.354.537 0 .996.123 1.376.369.383.243.674.596.873 1.058.202.462.298 1.019.287 1.669h-.616v-.205c-.017-.76-.188-1.339-.513-1.736-.326-.397-.791-.596-1.397-.596-.626 0-1.111.208-1.453.622-.339.411-.509.992-.509 1.746 0 .746.17 1.324.509 1.735.342.411.823.616 1.443.616.428 0 .801-.099 1.119-.298.322-.201.577-.489.765-.862l.534.236a2.506 2.506 0 0 1-.965 1.109 2.69 2.69 0 0 1-1.443.39Zm-2.187-2.757v-.534h4.38v.534h-4.38Zm7.351 2.757c-.428 0-.784-.075-1.068-.226a1.544 1.544 0 0 1-.632-.595c-.14-.25-.21-.52-.21-.811 0-.315.065-.579.195-.791a1.55 1.55 0 0 1 .529-.514c.222-.13.467-.227.734-.292.305-.069.633-.127.986-.175.352-.051.688-.096 1.006-.133.322-.038.584-.071.786-.098l-.216.128c.014-.599-.099-1.044-.339-1.335-.236-.294-.653-.441-1.253-.441-.421 0-.768.096-1.042.287-.27.189-.46.481-.57.878l-.606-.169c.127-.503.382-.89.765-1.161.384-.27.875-.405 1.474-.405.51 0 .938.099 1.284.298.349.198.592.477.729.837.058.147.097.32.118.518.021.195.031.392.031.591v3.455h-.539v-1.458l.2.051c-.168.5-.461.885-.878 1.156-.418.27-.912.405-1.484.405Zm.031-.544c.376 0 .707-.067.991-.2.284-.137.513-.327.688-.57.178-.247.291-.536.339-.868.034-.185.053-.385.056-.601.004-.215.005-.374.005-.477l.257.164a27.8 27.8 0 0 1-.801.087c-.308.031-.623.069-.945.113a7.437 7.437 0 0 0-.873.17 2.459 2.459 0 0 0-.488.195c-.16.082-.296.197-.405.344a.934.934 0 0 0-.159.56c0 .167.041.335.123.503.085.168.226.306.421.416.195.109.459.164.791.164Zm6.945.39a3.164 3.164 0 0 1-.873.072 1.896 1.896 0 0 1-.77-.19 1.122 1.122 0 0 1-.503-.534 1.562 1.562 0 0 1-.154-.59 13.75 13.75 0 0 1-.015-.683v-5.161h.595v5.151c0 .232.002.426.005.58.007.15.043.289.108.416.123.236.318.38.585.431.268.048.608.039 1.022-.026v.534Zm-3.558-5.006v-.539h3.558v.539h-3.558Zm6.722 5.16c-.531 0-.989-.118-1.376-.354a2.404 2.404 0 0 1-.899-1.011c-.212-.439-.318-.956-.318-1.551 0-.606.104-1.128.313-1.566.212-.442.51-.781.894-1.017.387-.236.845-.354 1.376-.354.537 0 .996.123 1.376.369.383.243.674.596.873 1.058.202.462.298 1.019.287 1.669h-.616v-.205c-.017-.76-.188-1.339-.513-1.736s-.791-.596-1.397-.596c-.626 0-1.111.208-1.453.622-.339.411-.508.992-.508 1.746 0 .746.169 1.324.508 1.735.342.411.823.616 1.443.616.428 0 .801-.099 1.119-.298.322-.201.577-.489.765-.862l.534.236a2.506 2.506 0 0 1-.965 1.109 2.69 2.69 0 0 1-1.443.39Zm-2.187-2.757v-.534h4.38v.534h-4.38Zm10.416 2.757c-.507 0-.964-.083-1.371-.251a2.658 2.658 0 0 1-1.006-.714 2.417 2.417 0 0 1-.529-1.099l.606-.102c.126.492.397.881.811 1.165.418.284.919.426 1.504.426.398 0 .748-.063 1.053-.19.305-.126.543-.304.714-.534.171-.232.257-.503.257-.811 0-.223-.041-.409-.124-.56a1.07 1.07 0 0 0-.308-.369 1.677 1.677 0 0 0-.405-.237 3.958 3.958 0 0 0-.406-.149l-1.859-.554a3.361 3.361 0 0 1-.662-.267 2.122 2.122 0 0 1-.488-.375 1.6 1.6 0 0 1-.303-.488 1.712 1.712 0 0 1-.103-.606c0-.397.106-.744.319-1.042.212-.298.503-.529.873-.693a3.095 3.095 0 0 1 1.283-.252c.486.004.923.094 1.31.272.387.175.703.423.95.745.25.322.41.703.482 1.145l-.611.108a1.836 1.836 0 0 0-.369-.889 1.972 1.972 0 0 0-.75-.59 2.41 2.41 0 0 0-1.017-.211 2.286 2.286 0 0 0-.955.18 1.624 1.624 0 0 0-.647.498 1.15 1.15 0 0 0-.236.709c0 .274.074.493.221.657.15.161.333.288.549.38.219.092.428.168.627.226l1.489.442c.14.041.308.099.503.174.195.075.387.183.575.324.188.137.344.32.467.549.127.226.19.51.19.852 0 .333-.063.63-.19.894a1.871 1.871 0 0 1-.544.673c-.236.181-.515.32-.837.416a3.603 3.603 0 0 1-1.063.148Zm5.952 0c-.551 0-1.019-.125-1.402-.374a2.398 2.398 0 0 1-.878-1.038c-.202-.441-.303-.95-.303-1.525 0-.578.103-1.087.308-1.525.205-.441.5-.784.883-1.027.387-.243.851-.364 1.392-.364.551 0 1.018.125 1.402.375.386.246.679.588.878 1.027.202.438.303.943.303 1.514 0 .586-.101 1.099-.303 1.541a2.36 2.36 0 0 1-.884 1.027c-.386.246-.852.369-1.396.369Zm0-.575c.654 0 1.141-.219 1.463-.657.325-.438.488-1.006.488-1.705 0-.712-.163-1.28-.488-1.704-.325-.425-.813-.637-1.463-.637-.442 0-.806.101-1.094.303a1.8 1.8 0 0 0-.647.826c-.14.35-.21.754-.21 1.212 0 .712.164 1.284.492 1.715.333.432.819.647 1.459.647Zm3.815.421v-7.548h.59v7.548h-.59Zm2.236-6.665v-.754h.591v.754h-.591Zm0 6.665v-5.545h.591v5.545h-.591Zm4.265.154c-.524 0-.967-.128-1.33-.385a2.49 2.49 0 0 1-.826-1.052 3.802 3.802 0 0 1-.283-1.5c0-.547.094-1.042.283-1.484.188-.441.458-.79.811-1.047.356-.257.785-.385 1.289-.385.517 0 .953.126 1.309.38.356.253.625.6.806 1.042.182.438.272.936.272 1.494 0 .555-.09 1.053-.272 1.495a2.443 2.443 0 0 1-.791 1.052c-.345.26-.768.39-1.268.39Zm.036-.564c.414 0 .758-.103 1.032-.309.277-.208.483-.491.616-.847.137-.359.206-.765.206-1.217 0-.455-.069-.861-.206-1.217a1.784 1.784 0 0 0-.616-.831c-.274-.202-.614-.303-1.022-.303-.421 0-.768.104-1.042.313a1.816 1.816 0 0 0-.611.842c-.134.352-.2.751-.2 1.196 0 .449.068.853.205 1.212.14.356.346.639.616.847.274.209.615.314 1.022.314Zm1.854.41v-4.272h-.052v-3.122h.591v7.394h-.539Zm4.135 0v-7.394h.591v7.394h-.591Zm2.134 0v-7.394h2.203c.085 0 .224.002.416.005.195.004.38.019.554.047.555.075 1.015.284 1.381.626.367.339.641.77.822 1.294.181.52.272 1.095.272 1.725 0 .634-.091 1.212-.272 1.736-.181.52-.455.95-.822 1.289-.366.339-.826.546-1.381.621a5.54 5.54 0 0 1-.56.046c-.195.004-.332.005-.41.005h-2.203Zm.621-.58h1.582c.154 0 .313-.003.477-.01.165-.01.305-.026.421-.046.459-.083.829-.264 1.109-.545a2.48 2.48 0 0 0 .611-1.073c.131-.435.196-.916.196-1.443 0-.53-.065-1.011-.196-1.443a2.5 2.5 0 0 0-.616-1.073c-.28-.284-.648-.465-1.104-.544a3.24 3.24 0 0 0-.431-.041 7.953 7.953 0 0 0-.467-.016h-1.582v6.234Z"/><path stroke="#fff" stroke-linecap="round" stroke-linejoin="round" stroke-width=".777" d="M77.184 312.69a.78.78 0 0 0-.776.777c0 .396-.04.974-.101 1.553m1.654-1.118c0 .924 0 2.477-.388 3.448m1.666-.38c.046-.233.167-.893.194-1.173m-6.132-2.33a3.883 3.883 0 0 1 6.99-2.331m-6.99 3.884h.004m7.685 0c.078-.777.051-2.079 0-2.33m-6.524 3.689c.194-.582.388-1.747.388-2.912 0-.265.044-.528.132-.777m.897 4.66c.082-.256.175-.512.222-.776m-.086-5.127a2.336 2.336 0 0 1 2.331.001 2.327 2.327 0 0 1 1.165 2.019v.776"/><rect width="127.77" height="32.864" x="51.858" y="340.544" fill="#F3F5F7" stroke="#6A6B80" stroke-width=".513" rx="16.432"/><path fill="#000" d="M88.492 360.542v-7.394h2.202c.086 0 .224.002.416.005.195.003.38.019.555.046.554.076 1.015.284 1.381.627.366.339.64.77.822 1.294.181.52.272 1.095.272 1.725 0 .633-.09 1.212-.272 1.735-.182.521-.456.95-.822 1.289-.366.339-.827.546-1.381.622a5.56 5.56 0 0 1-.56.046l-.41.005h-2.203Zm.62-.58h1.582c.154 0 .313-.004.478-.011.164-.01.305-.025.42-.046.46-.082.83-.263 1.11-.544.28-.284.484-.642.611-1.073.13-.435.195-.916.195-1.443 0-.531-.065-1.012-.195-1.443a2.498 2.498 0 0 0-.616-1.073c-.28-.284-.649-.466-1.104-.544a3.089 3.089 0 0 0-.431-.041 7.155 7.155 0 0 0-.468-.016h-1.581v6.234Zm8.444.734c-.551 0-1.019-.125-1.402-.375a2.393 2.393 0 0 1-.878-1.037c-.202-.442-.303-.95-.303-1.525 0-.579.103-1.087.308-1.525.206-.442.5-.784.883-1.027.387-.243.85-.365 1.392-.365.55 0 1.018.125 1.402.375.386.247.68.589.878 1.027.202.438.303.943.303 1.515 0 .585-.101 1.099-.303 1.54a2.348 2.348 0 0 1-.883 1.027c-.387.247-.853.37-1.397.37Zm0-.575c.654 0 1.141-.219 1.463-.657.325-.438.488-1.007.488-1.705 0-.712-.163-1.28-.488-1.705-.325-.424-.813-.637-1.463-.637-.442 0-.806.101-1.094.303a1.809 1.809 0 0 0-.647.827 3.23 3.23 0 0 0-.21 1.212c0 .712.164 1.284.492 1.715.333.431.819.647 1.459.647Zm8.711.421a3.17 3.17 0 0 1-.873.072 1.913 1.913 0 0 1-.771-.19 1.126 1.126 0 0 1-.503-.534 1.562 1.562 0 0 1-.154-.591 13.72 13.72 0 0 1-.015-.683v-5.16h.595v5.15c0 .233.002.426.005.58.007.151.043.29.108.416a.8.8 0 0 0 .586.432c.267.048.607.039 1.022-.026v.534Zm-3.559-5.006v-.54h3.559v.54h-3.559Zm8.679 5.006v-2.886c0-.349-.036-.66-.107-.934a1.94 1.94 0 0 0-.319-.699 1.35 1.35 0 0 0-.534-.436 1.771 1.771 0 0 0-.755-.149c-.301 0-.563.053-.785.159a1.448 1.448 0 0 0-.545.437c-.14.188-.246.412-.318.672a3.287 3.287 0 0 0-.103.842l-.467-.056c0-.599.101-1.092.303-1.479.206-.39.481-.678.827-.863a2.4 2.4 0 0 1 1.165-.282c.305 0 .577.045.817.134.243.089.453.215.631.38.178.16.326.352.442.575.116.219.202.46.257.724.058.263.087.539.087.826v3.035h-.596Zm-4.061 0v-7.394h.539v4.272h.056v3.122h-.595Zm6.09-6.665v-.755h.59v.755h-.59Zm0 6.665v-5.546h.59v5.546h-.59Zm4.182.144c-.64 0-1.169-.135-1.586-.406a1.712 1.712 0 0 1-.771-1.13l.606-.102c.086.328.288.59.606.785.319.196.709.293 1.171.293.459 0 .823-.097 1.094-.293a.935.935 0 0 0 .405-.801.744.744 0 0 0-.128-.452c-.082-.119-.246-.229-.493-.328a10.757 10.757 0 0 0-1.099-.349c-.513-.137-.916-.274-1.206-.411-.288-.137-.492-.293-.612-.467a1.136 1.136 0 0 1-.174-.642c0-.305.087-.572.262-.801.174-.233.417-.414.729-.545.315-.13.678-.195 1.088-.195.411 0 .781.069 1.11.206.328.133.594.322.795.565.202.239.319.518.35.837l-.606.113a1.222 1.222 0 0 0-.539-.843c-.302-.208-.678-.315-1.13-.318-.428-.007-.777.079-1.048.257-.27.174-.405.405-.405.693 0 .164.046.305.138.421.096.113.264.217.504.313.239.096.578.199 1.016.308.534.137.95.278 1.248.421.301.144.514.314.637.509.123.191.185.429.185.713 0 .514-.192.918-.575 1.212-.38.291-.904.437-1.572.437Zm5.446-.144v-7.548h.59v7.548h-.59Zm3.735.154c-.428 0-.784-.075-1.068-.226a1.543 1.543 0 0 1-.631-.596 1.62 1.62 0 0 1-.211-.811c0-.315.065-.578.195-.791.134-.212.31-.383.529-.513.223-.13.467-.228.734-.293.305-.068.634-.126.986-.174a36.6 36.6 0 0 1 1.007-.134c.322-.038.583-.07.785-.097l-.215.128c.013-.599-.1-1.044-.339-1.335-.236-.294-.654-.442-1.253-.442-.421 0-.769.096-1.042.288-.271.188-.461.481-.57.878l-.606-.17c.126-.503.381-.89.765-1.16.383-.27.874-.406 1.473-.406.511 0 .938.1 1.284.298a1.6 1.6 0 0 1 .729.837c.059.147.098.32.118.519.021.195.031.392.031.59v3.456h-.539v-1.458l.2.051c-.167.5-.46.885-.878 1.155-.417.271-.912.406-1.484.406Zm.031-.544c.377 0 .707-.067.991-.201a1.77 1.77 0 0 0 .688-.569c.178-.247.291-.536.339-.868.034-.185.053-.385.057-.601.003-.216.005-.375.005-.478l.256.165c-.222.027-.489.056-.801.087-.308.031-.623.069-.944.113a7.659 7.659 0 0 0-.873.169c-.161.045-.324.11-.488.196a1.148 1.148 0 0 0-.406.344.931.931 0 0 0-.159.559c0 .168.041.336.123.504.086.167.226.306.421.415.196.11.459.165.791.165Zm6.946.39a3.17 3.17 0 0 1-.873.072 1.908 1.908 0 0 1-.77-.19 1.124 1.124 0 0 1-.504-.534 1.58 1.58 0 0 1-.154-.591 13.72 13.72 0 0 1-.015-.683v-5.16h.596v5.15c0 .233.001.426.005.58.007.151.043.29.108.416.123.237.318.38.585.432.267.048.608.039 1.022-.026v.534Zm-3.559-5.006v-.54h3.559v.54h-3.559Zm6.723 5.16c-.531 0-.99-.118-1.377-.354a2.399 2.399 0 0 1-.898-1.012c-.212-.438-.319-.955-.319-1.551 0-.605.105-1.127.314-1.566.212-.441.51-.78.893-1.016.387-.237.846-.355 1.376-.355.538 0 .996.124 1.376.37.384.243.675.596.873 1.058.202.462.298 1.018.288 1.669h-.616v-.206c-.017-.76-.189-1.338-.514-1.735s-.791-.596-1.396-.596c-.627 0-1.111.207-1.454.621-.339.411-.508.993-.508 1.746 0 .746.169 1.325.508 1.736.343.411.824.616 1.443.616.428 0 .801-.099 1.12-.298.321-.202.576-.489.765-.863l.534.237a2.514 2.514 0 0 1-.966 1.109c-.421.26-.902.39-1.442.39Zm-2.188-2.757v-.534h4.38v.534h-4.38Zm5.85 2.603v-5.546h.539v1.33l-.134-.174c.062-.158.139-.303.231-.437.096-.137.194-.248.293-.333.147-.137.32-.24.519-.309.198-.071.399-.113.6-.123.202-.014.386.002.55.046v.56a1.972 1.972 0 0 0-.698-.031 1.322 1.322 0 0 0-.694.319 1.457 1.457 0 0 0-.41.575 2.5 2.5 0 0 0-.165.683 6.849 6.849 0 0 0-.036.693v2.747h-.595ZM153.015 148.433c0-1.841.377-3.471 1.131-4.891.776-1.419 1.818-2.517 3.127-3.293 1.331-.799 2.806-1.198 4.425-1.198 1.197 0 2.373.266 3.526.799 1.175.51 2.107 1.197 2.795 2.062v-8.849h3.825v24.618h-3.825v-2.761c-.621.887-1.486 1.619-2.595 2.196-1.087.576-2.34.865-3.76.865-1.597 0-3.06-.4-4.391-1.198-1.309-.821-2.351-1.952-3.127-3.393-.754-1.464-1.131-3.116-1.131-4.957Zm15.004.066c0-1.264-.267-2.362-.799-3.293-.51-.932-1.186-1.642-2.029-2.129a5.352 5.352 0 0 0-2.728-.732c-.976 0-1.885.244-2.728.732-.843.465-1.531 1.164-2.063 2.095-.51.91-.765 1.997-.765 3.261s.255 2.373.765 3.327c.532.953 1.22 1.685 2.063 2.195a5.471 5.471 0 0 0 2.728.732c.976 0 1.885-.244 2.728-.732.843-.488 1.519-1.197 2.029-2.129.532-.954.799-2.063.799-3.327ZM148.893 136.922c-.688 0-1.264-.233-1.73-.699-.466-.465-.699-1.042-.699-1.73 0-.687.233-1.264.699-1.73.466-.465 1.042-.698 1.73-.698a2.31 2.31 0 0 1 1.696.698c.466.466.699 1.043.699 1.73 0 .688-.233 1.265-.699 1.73a2.307 2.307 0 0 1-1.696.699Zm1.863 2.429v18.33h-3.793v-18.33h3.793ZM143.44 133.063v24.618h-3.792v-24.618h3.792ZM127.84 157.981c-1.73 0-3.294-.388-4.691-1.165a8.623 8.623 0 0 1-3.293-3.327c-.799-1.441-1.198-3.105-1.198-4.99 0-1.863.41-3.515 1.231-4.957.821-1.441 1.941-2.55 3.36-3.327 1.419-.776 3.005-1.164 4.757-1.164 1.752 0 3.338.388 4.758 1.164 1.419.777 2.539 1.886 3.36 3.327.82 1.442 1.231 3.094 1.231 4.957s-.422 3.516-1.265 4.957a8.832 8.832 0 0 1-3.459 3.36c-1.442.777-3.039 1.165-4.791 1.165Zm0-3.294c.976 0 1.885-.233 2.728-.699.865-.465 1.564-1.164 2.096-2.095.532-.932.798-2.063.798-3.394 0-1.33-.255-2.45-.765-3.36-.51-.931-1.186-1.63-2.029-2.096a5.558 5.558 0 0 0-2.728-.698c-.976 0-1.885.233-2.728.698-.821.466-1.475 1.165-1.963 2.096-.488.91-.732 2.03-.732 3.36 0 1.974.499 3.504 1.497 4.591 1.02 1.065 2.296 1.597 3.826 1.597ZM108.886 157.914c-1.553 0-2.95-.266-4.192-.798-1.242-.555-2.218-1.331-2.928-2.329-.709-.998-1.064-2.163-1.064-3.493h4.058c.089.998.477 1.818 1.165 2.462.71.643 1.697.964 2.961.964 1.308 0 2.329-.31 3.06-.931.732-.643 1.098-1.464 1.098-2.462 0-.776-.233-1.408-.698-1.896-.444-.488-1.01-.865-1.697-1.131-.665-.266-1.597-.555-2.795-.865-1.508-.4-2.739-.799-3.692-1.198-.932-.421-1.73-1.065-2.396-1.93-.665-.864-.998-2.018-.998-3.459 0-1.331.333-2.496.998-3.494.666-.998 1.597-1.763 2.795-2.295s2.584-.798 4.158-.798c2.24 0 4.07.565 5.49 1.696 1.441 1.109 2.24 2.639 2.395 4.591h-4.192c-.066-.843-.466-1.563-1.197-2.162-.732-.599-1.697-.898-2.895-.898-1.087 0-1.974.277-2.661.831-.688.555-1.032 1.353-1.032 2.396 0 .709.211 1.297.633 1.763.443.443.998.798 1.663 1.064s1.575.555 2.728.865c1.53.422 2.772.843 3.726 1.264a6.039 6.039 0 0 1 2.462 1.963c.687.865 1.031 2.03 1.031 3.493 0 1.176-.322 2.285-.965 3.327-.621 1.043-1.541 1.885-2.761 2.529-1.198.621-2.617.931-4.258.931ZM88.052 138.888h2.015a2.618 2.618 0 0 0 2.615-2.615 2.619 2.619 0 0 0-2.615-2.616H76.71a10.361 10.361 0 0 0-7.374 3.054 10.424 10.424 0 0 0-2.882 9.27 10.398 10.398 0 0 0 4.459 6.775H68.89a2.61 2.61 0 0 0-2.608 2.608 2.61 2.61 0 0 0 2.608 2.607h11.987l1.367.015h.01c2.785 0 5.404-1.084 7.373-3.054a10.435 10.435 0 0 0 2.872-5.424 10.553 10.553 0 0 0 .01-3.845 10.4 10.4 0 0 0-4.458-6.775Zm2.873-2.615a.86.86 0 0 1-.858.859H78.384c-1.279 0-2.48.498-3.383 1.401l-.095.1-.07.072-.094.11-.06.07c-.029.035-.056.07-.083.106l-.063.08-.07.1-.065.091-.05.08c-.025.039-.051.078-.075.118-.007.01-.012.021-.018.032-.27.459-.462.958-.566 1.483l-.007.04a4.836 4.836 0 0 0-.064 1.35v.005l.001.003a4.771 4.771 0 0 0 1.531 3.072 4.77 4.77 0 0 0 3.231 1.256h2.407c.045 0 .09.001.133.003l.04.002.094.006.043.004.099.012.031.004c.043.006.086.013.128.021l.027.006c.034.006.066.013.1.021l.04.009.088.024.037.01.117.037.004.001c.04.014.08.028.12.044l.031.012a2.821 2.821 0 0 1 .214.095l.022.011a2.5 2.5 0 0 1 .224.125l.025.015.087.057.02.014c.072.049.14.102.208.157l.009.007.09.078.013.012.092.088c.064.064.125.13.183.199l.004.005c.028.033.056.067.082.102l.002.002a3.035 3.035 0 0 1 .349.583h-5.424a6.49 6.49 0 0 1-5.56-3.106 6.508 6.508 0 0 1-.966-3.42 6.505 6.505 0 0 1 1.91-4.615 6.481 6.481 0 0 1 4.616-1.912h11.944a.86.86 0 0 1 .858.859Zm-22.742 9.391a8.775 8.775 0 0 1 .01-3.215 8.663 8.663 0 0 1 3.01-5.062 8.256 8.256 0 0 0-1.354 4.936 8.265 8.265 0 0 0 1.219 3.96 8.234 8.234 0 0 0 7.055 3.941h5.655l-.013.073-.006.033a3.47 3.47 0 0 1-.03.132l-.007.03a3.106 3.106 0 0 1-.028.1l-.013.044-.03.088-.014.042a3.484 3.484 0 0 1-.04.101l-.01.025a2.898 2.898 0 0 1-.114.243l-.022.041-.046.081-.022.038c-.02.034-.041.067-.063.099l-.01.015c-.025.038-.05.074-.078.111l-.024.031a2.269 2.269 0 0 1-.09.114l-.063.073-.028.031a3.004 3.004 0 0 1-2.235.987H76.71a8.665 8.665 0 0 1-8.528-7.092Zm-.143 9.7c0-.47.382-.851.851-.851h11.9c1.28 0 2.48-.498 3.383-1.402a4.751 4.751 0 0 0 1.379-3.849v-.004l-.001-.002a4.764 4.764 0 0 0-1.536-3.063 4.77 4.77 0 0 0-3.225-1.249h-2.407c-.045 0-.089-.002-.133-.003l-.041-.003-.093-.006-.044-.004c-.033-.004-.066-.007-.098-.012l-.033-.004a2.671 2.671 0 0 1-.127-.021l-.027-.006a1.7 1.7 0 0 1-.14-.031 2.642 2.642 0 0 1-.09-.023l-.037-.011a2.242 2.242 0 0 1-.113-.035l-.008-.003a1.792 1.792 0 0 1-.121-.044l-.028-.011a2.94 2.94 0 0 1-.466-.234l-.019-.012a3.454 3.454 0 0 1-.093-.062l-.016-.01a2.976 2.976 0 0 1-.317-.253 2.991 2.991 0 0 1-.718-.994h5.26a6.486 6.486 0 0 1 5.566 3.12 6.504 6.504 0 0 1 .96 3.406 6.501 6.501 0 0 1-1.912 4.615 6.476 6.476 0 0 1-4.615 1.912h-11.99a.852.852 0 0 1-.851-.851Zm22.734-6.182a8.67 8.67 0 0 1-2.948 5.021l.064-.1a8.255 8.255 0 0 0 1.265-4.797 8.263 8.263 0 0 0-1.21-3.943 8.23 8.23 0 0 0-7.063-3.957H75.4l.01-.058.008-.04c.008-.044.018-.088.029-.131l.002-.009a3.406 3.406 0 0 1 .075-.25l.016-.045.035-.088.014-.038c.017-.04.035-.08.054-.119l.015-.032.045-.088.023-.044.043-.076.026-.043.053-.084.019-.029c.024-.036.05-.072.076-.108l.026-.034a2.308 2.308 0 0 1 .15-.182l.03-.034c.03-.033.06-.065.092-.096l.003-.003a3.004 3.004 0 0 1 2.14-.887h3.87a8.665 8.665 0 0 1 8.671 8.671 8.79 8.79 0 0 1-.15 1.623ZM82.536 209.978c-1.5 0-2.76-.331-3.78-.994-1.019-.67-1.787-1.595-2.303-2.775-.517-1.18-.775-2.541-.775-4.083 0-1.543.258-2.904.775-4.084.516-1.18 1.284-2.101 2.303-2.764 1.02-.67 2.28-1.005 3.78-1.005 1.752 0 3.173.454 4.261 1.361 1.096.907 1.84 2.122 2.23 3.644l-1.245.303c-.321-1.263-.922-2.265-1.801-3.005-.873-.747-2.02-1.12-3.445-1.12-1.235 0-2.265.283-3.089.848-.816.565-1.434 1.351-1.853 2.356-.412 1.005-.621 2.16-.628 3.466-.014 1.305.185 2.46.597 3.465.418.998 1.043 1.784 1.874 2.356.83.565 1.864.848 3.1.848 1.423 0 2.571-.373 3.444-1.12.88-.747 1.48-1.749 1.8-3.005l1.247.303c-.391 1.522-1.135 2.737-2.23 3.644-1.09.908-2.51 1.361-4.262 1.361Zm8.785-.314v-11.308h1.1v2.712l-.273-.356c.126-.321.283-.618.472-.89.195-.279.394-.506.596-.68.3-.28.653-.489 1.058-.629.405-.146.813-.23 1.225-.251.412-.028.785.003 1.12.094v1.142a4.006 4.006 0 0 0-1.424-.063c-.502.063-.973.279-1.413.649a2.984 2.984 0 0 0-.838 1.173 5.131 5.131 0 0 0-.335 1.392c-.049.482-.073.953-.073 1.414v5.601H91.32Zm11.735.314c-1.082 0-2.017-.241-2.806-.722-.788-.489-1.4-1.176-1.832-2.063-.433-.893-.65-1.947-.65-3.162 0-1.235.214-2.3.64-3.193.432-.901 1.04-1.592 1.821-2.073.789-.482 1.724-.723 2.806-.723 1.096 0 2.032.251 2.806.754.782.496 1.376 1.215 1.78 2.157.412.942.608 2.076.587 3.403h-1.257v-.419c-.035-1.55-.384-2.729-1.047-3.539-.663-.81-1.612-1.215-2.848-1.215-1.277 0-2.265.423-2.963 1.267-.69.838-1.036 2.025-1.036 3.56 0 1.522.345 2.702 1.036 3.539.698.838 1.679 1.257 2.942 1.257.873 0 1.634-.203 2.283-.608.656-.411 1.176-.998 1.56-1.759l1.089.482c-.454.977-1.11 1.731-1.969 2.262-.858.53-1.839.795-2.942.795Zm-4.46-5.622v-1.089h8.931v1.089h-8.931Zm14.99 5.622c-.873 0-1.598-.153-2.178-.46-.572-.308-1.001-.712-1.288-1.215a3.325 3.325 0 0 1-.429-1.654c0-.642.133-1.18.398-1.613a3.177 3.177 0 0 1 1.078-1.047 5.573 5.573 0 0 1 1.498-.597 24.156 24.156 0 0 1 2.01-.356 81.246 81.246 0 0 1 2.052-.272c.656-.077 1.19-.143 1.602-.199l-.44.262c.028-1.221-.202-2.129-.691-2.722-.481-.601-1.333-.901-2.554-.901-.859 0-1.568.196-2.126.587-.551.384-.939.98-1.162 1.79l-1.236-.345c.259-1.027.779-1.815 1.56-2.367.782-.551 1.784-.827 3.005-.827 1.04 0 1.913.203 2.618.607.712.405 1.208.974 1.487 1.707.118.3.199.653.241 1.058.041.397.062.799.062 1.204v7.046h-1.099v-2.973l.408.104c-.342 1.019-.938 1.805-1.79 2.356-.852.552-1.86.827-3.026.827Zm.063-1.11c.768 0 1.441-.136 2.021-.408a3.642 3.642 0 0 0 1.403-1.162c.363-.503.593-1.093.691-1.77.069-.377.108-.785.115-1.225.007-.439.01-.764.01-.973l.524.335c-.454.056-.998.115-1.634.178-.628.063-1.27.139-1.926.23-.656.091-1.25.206-1.78.346-.328.09-.66.223-.995.397a2.367 2.367 0 0 0-.827.702c-.216.3-.324.681-.324 1.141 0 .342.083.684.251 1.026.174.342.461.625.858.848.398.224.936.335 1.613.335Zm14.163.796a6.428 6.428 0 0 1-1.78.147 3.879 3.879 0 0 1-1.571-.388 2.284 2.284 0 0 1-1.026-1.089 3.184 3.184 0 0 1-.314-1.204 27.127 27.127 0 0 1-.032-1.392v-10.523h1.215v10.502c0 .475.004.869.01 1.183.014.307.088.59.22.848.252.482.65.775 1.194.88.544.097 1.239.08 2.084-.053v1.089Zm-7.256-10.208v-1.1h7.256v1.1h-7.256Zm13.707 10.522c-1.082 0-2.018-.241-2.806-.722-.789-.489-1.4-1.176-1.833-2.063-.432-.893-.649-1.947-.649-3.162 0-1.235.213-2.3.639-3.193.433-.901 1.04-1.592 1.822-2.073.789-.482 1.724-.723 2.806-.723 1.096 0 2.031.251 2.806.754.782.496 1.375 1.215 1.78 2.157.412.942.607 2.076.586 3.403h-1.256v-.419c-.035-1.55-.384-2.729-1.047-3.539-.663-.81-1.613-1.215-2.848-1.215-1.278 0-2.265.423-2.963 1.267-.691.838-1.037 2.025-1.037 3.56 0 1.522.346 2.702 1.037 3.539.698.838 1.678 1.257 2.942 1.257.872 0 1.633-.203 2.282-.608.656-.411 1.177-.998 1.56-1.759l1.089.482c-.453.977-1.11 1.731-1.968 2.262-.859.53-1.839.795-2.942.795Zm-4.461-5.622v-1.089h8.932v1.089h-8.932Zm16.33 5.308v-15.077h1.204v15.077h-1.204Zm4.351 0v-15.077h4.492c.174 0 .457.003.848.01.398.007.774.039 1.13.095 1.131.153 2.07.579 2.817 1.277.747.691 1.305 1.571 1.675 2.639.37 1.061.555 2.233.555 3.518 0 1.291-.185 2.471-.555 3.539-.37 1.061-.928 1.937-1.675 2.628-.747.691-1.686 1.113-2.817 1.266-.356.049-.736.081-1.141.095-.398.007-.677.01-.837.01h-4.492Zm1.267-1.183h3.225c.314 0 .638-.007.973-.021.335-.021.622-.052.859-.094.935-.168 1.689-.538 2.261-1.11.573-.579.988-1.309 1.246-2.188.266-.887.398-1.867.398-2.942 0-1.082-.132-2.063-.398-2.943-.265-.886-.684-1.616-1.256-2.188-.572-.579-1.323-.949-2.251-1.11a6.713 6.713 0 0 0-.88-.084 16.42 16.42 0 0 0-.952-.031h-3.225v12.711ZM50.658 238.345c-.552 0-1.015-.122-1.39-.366a2.291 2.291 0 0 1-.847-1.021c-.19-.434-.285-.934-.285-1.502 0-.567.095-1.068.285-1.501.19-.434.472-.773.847-1.017.375-.247.838-.37 1.39-.37.645 0 1.167.167 1.568.501.403.334.676.78.82 1.34l-.458.112c-.118-.465-.34-.833-.663-1.106-.32-.274-.743-.412-1.267-.412-.454 0-.833.104-1.136.312-.3.208-.527.497-.681.867a3.384 3.384 0 0 0-.231 1.274c-.005.481.068.905.22 1.275.153.367.383.656.689.867.305.208.685.312 1.14.312.523 0 .946-.138 1.266-.412.324-.275.545-.644.663-1.106l.458.112c-.144.56-.417 1.006-.82 1.34-.4.334-.923.501-1.568.501Zm3.232-.116v-4.159h.404v.997l-.1-.13c.046-.119.104-.228.173-.328.072-.102.145-.186.22-.25.11-.103.24-.18.389-.231.149-.054.299-.085.45-.093.152-.01.29.002.412.035v.42a1.469 1.469 0 0 0-.523-.023.99.99 0 0 0-.52.238 1.101 1.101 0 0 0-.308.432 1.89 1.89 0 0 0-.124.512c-.018.177-.027.35-.027.52v2.06h-.446Zm4.316.116c-.398 0-.742-.089-1.032-.266a1.798 1.798 0 0 1-.674-.759c-.16-.328-.239-.716-.239-1.163 0-.454.078-.846.235-1.174a1.77 1.77 0 0 1 .67-.763c.29-.177.634-.265 1.032-.265.403 0 .747.092 1.032.277.288.182.506.447.655.793.151.347.223.764.216 1.252h-.462v-.154c-.013-.57-.142-1.004-.386-1.302-.243-.298-.593-.447-1.047-.447-.47 0-.833.156-1.09.466-.254.308-.381.745-.381 1.31 0 .559.127.993.381 1.301.257.308.618.462 1.082.462.321 0 .601-.074.84-.223.241-.151.432-.367.574-.647l.4.177c-.167.36-.408.637-.724.832a2.018 2.018 0 0 1-1.082.293Zm-1.64-2.068v-.401h3.284v.401h-3.285Zm5.513 2.068c-.321 0-.588-.057-.801-.17a1.161 1.161 0 0 1-.474-.446 1.226 1.226 0 0 1-.158-.609c0-.236.05-.434.147-.593.1-.159.232-.287.396-.385.167-.098.35-.171.551-.22a8.93 8.93 0 0 1 .74-.131c.264-.038.516-.071.754-.1.242-.028.438-.052.59-.073l-.162.096c.01-.449-.075-.783-.255-1.001-.177-.221-.49-.331-.94-.331-.315 0-.575.072-.78.216-.204.141-.346.36-.428.658l-.455-.127c.095-.377.286-.667.574-.87.288-.203.656-.304 1.105-.304.383 0 .704.074.963.223.262.149.444.358.547.628.044.11.073.24.089.389.015.146.023.294.023.442v2.592H63.7v-1.093l.15.038a1.607 1.607 0 0 1-.658.867c-.313.202-.684.304-1.113.304Zm.023-.408c.282 0 .53-.051.743-.151.213-.102.385-.245.516-.427.134-.185.219-.402.255-.651.025-.139.04-.289.042-.451l.004-.358.192.124c-.167.02-.367.042-.6.065a17.49 17.49 0 0 0-.71.085c-.24.033-.459.075-.654.127-.12.033-.242.082-.366.146a.875.875 0 0 0-.304.258.703.703 0 0 0-.12.42c0 .126.032.252.093.377.064.126.17.23.316.312.146.082.344.124.593.124Zm5.21.292c-.222.049-.44.067-.656.054a1.437 1.437 0 0 1-.577-.142.845.845 0 0 1-.377-.401 1.168 1.168 0 0 1-.116-.443 10.025 10.025 0 0 1-.012-.512v-3.87h.447v3.862c0 .175.001.32.004.436a.741.741 0 0 0 .08.311.597.597 0 0 0 .44.324c.2.036.456.03.766-.019v.4Zm-2.67-3.755v-.404h2.67v.404h-2.67Zm5.042 3.871c-.398 0-.742-.089-1.032-.266a1.798 1.798 0 0 1-.674-.759c-.16-.328-.239-.716-.239-1.163 0-.454.079-.846.235-1.174a1.77 1.77 0 0 1 .67-.763c.29-.177.634-.265 1.032-.265.403 0 .748.092 1.032.277.288.182.506.447.655.793.152.347.224.764.216 1.252h-.462v-.154c-.013-.57-.142-1.004-.385-1.302-.244-.298-.594-.447-1.048-.447-.47 0-.833.156-1.09.466-.254.308-.381.745-.381 1.31 0 .559.127.993.381 1.301.257.308.618.462 1.082.462.321 0 .601-.074.84-.223.241-.151.432-.367.574-.647l.4.177c-.167.36-.408.637-.724.832a2.018 2.018 0 0 1-1.082.293Zm-1.64-2.068v-.401h3.285v.401h-3.285Zm5.544 1.952 1.964-5.545h.55l1.964 5.545h-.47l-1.886-5.314h.223l-1.876 5.314h-.47Zm.812-1.394v-.42h2.85v.42H74.4Zm7.782 1.51c-.38 0-.723-.063-1.029-.189a1.994 1.994 0 0 1-.755-.535 1.82 1.82 0 0 1-.396-.824l.454-.077c.095.369.298.661.609.874.313.213.69.319 1.128.319.298 0 .561-.047.79-.142.228-.095.406-.229.535-.401a.997.997 0 0 0 .192-.608.869.869 0 0 0-.092-.42.815.815 0 0 0-.231-.277 1.218 1.218 0 0 0-.304-.177 2.806 2.806 0 0 0-.305-.112l-1.394-.416a2.485 2.485 0 0 1-.496-.2 1.59 1.59 0 0 1-.366-.281 1.204 1.204 0 0 1-.228-.366 1.28 1.28 0 0 1-.076-.454c0-.298.08-.559.238-.782.16-.224.378-.397.655-.52.28-.126.6-.189.963-.189.364.003.692.071.982.204.29.131.527.317.712.559.188.241.308.527.362.858l-.458.081a1.37 1.37 0 0 0-.277-.666 1.475 1.475 0 0 0-.563-.443 1.805 1.805 0 0 0-.762-.158 1.722 1.722 0 0 0-.716.135 1.221 1.221 0 0 0-.486.374.857.857 0 0 0-.177.531c0 .205.055.37.166.493a1.2 1.2 0 0 0 .412.285c.164.069.32.126.47.169l1.117.332c.105.03.23.074.377.131.146.056.29.137.431.242.141.103.258.24.35.412.096.17.143.383.143.64 0 .249-.047.472-.142.67a1.408 1.408 0 0 1-.409.504c-.177.136-.386.24-.627.312a2.676 2.676 0 0 1-.797.112Zm4.463 0c-.413 0-.763-.094-1.051-.281a1.801 1.801 0 0 1-.659-.778 2.724 2.724 0 0 1-.227-1.144c0-.434.077-.815.231-1.144a1.77 1.77 0 0 1 .663-.77c.29-.182.638-.273 1.043-.273.414 0 .764.093 1.052.281.29.185.51.441.658.77.152.329.227.707.227 1.136 0 .439-.075.824-.227 1.155a1.768 1.768 0 0 1-.662.771c-.29.184-.64.277-1.048.277Zm0-.432c.49 0 .856-.164 1.098-.492.244-.329.366-.755.366-1.279 0-.534-.122-.96-.366-1.279-.244-.318-.61-.477-1.098-.477-.33 0-.604.076-.82.227a1.354 1.354 0 0 0-.485.62 2.425 2.425 0 0 0-.158.909c0 .534.123.963.37 1.286.249.324.613.485 1.093.485Zm2.862.316v-5.661h.443v5.661h-.443Zm1.677-4.998v-.567h.443v.567h-.443Zm0 4.998v-4.159h.443v4.159h-.443Zm3.199.116c-.393 0-.726-.096-.998-.289a1.866 1.866 0 0 1-.62-.79 2.855 2.855 0 0 1-.212-1.124c0-.411.07-.782.212-1.113.141-.331.344-.593.609-.786.267-.192.589-.288.966-.288.388 0 .715.095.982.285.267.189.469.45.605.781.136.329.204.702.204 1.121 0 .416-.068.789-.204 1.121a1.835 1.835 0 0 1-.593.789c-.26.195-.577.293-.951.293Zm.026-.424c.311 0 .57-.077.775-.231a1.38 1.38 0 0 0 .462-.635c.102-.27.154-.574.154-.913 0-.342-.052-.646-.154-.913a1.342 1.342 0 0 0-.462-.624c-.206-.151-.461-.227-.767-.227-.316 0-.576.078-.782.235a1.368 1.368 0 0 0-.458.632c-.1.264-.15.563-.15.897 0 .336.051.639.154.909.105.267.26.479.462.635.206.157.461.235.766.235Zm1.39.308v-3.204h-.038v-2.341h.443v5.545H95.8Zm3.102 0v-5.545h.443v5.545h-.443Zm1.601 0v-5.545h1.652c.064 0 .168.001.312.004.146.002.285.014.416.034.416.057.761.213 1.036.47.274.254.48.578.616.97.136.391.204.822.204 1.294 0 .475-.068.909-.204 1.302-.136.39-.342.713-.616.967-.275.254-.62.409-1.036.466a4.106 4.106 0 0 1-.42.034c-.146.003-.249.004-.308.004h-1.652Zm.466-.435h1.186c.115 0 .235-.002.358-.008.123-.007.228-.019.316-.034.344-.062.621-.198.832-.409.21-.213.363-.481.458-.804.097-.326.146-.687.146-1.083 0-.397-.049-.758-.146-1.082a1.887 1.887 0 0 0-.462-.805 1.487 1.487 0 0 0-.828-.408 2.724 2.724 0 0 0-.324-.031 6.347 6.347 0 0 0-.35-.011h-1.186v4.675Zm6.091-1.791v-.404h2.31v.404h-2.31Zm5.462 4.075.808-2.176.008.647-1.822-4.479h.474l1.564 3.89h-.247l1.421-3.89h.466l-2.21 6.008h-.462Zm4.926-1.733c-.414 0-.764-.094-1.052-.281a1.8 1.8 0 0 1-.658-.778 2.717 2.717 0 0 1-.227-1.144c0-.434.077-.815.231-1.144.154-.331.374-.588.662-.77.29-.182.638-.273 1.044-.273.413 0 .763.093 1.051.281.29.185.51.441.659.77.151.329.227.707.227 1.136 0 .439-.076.824-.227 1.155a1.773 1.773 0 0 1-.663.771c-.29.184-.639.277-1.047.277Zm0-.432c.49 0 .856-.164 1.097-.492.244-.329.366-.755.366-1.279 0-.534-.122-.96-.366-1.279-.244-.318-.61-.477-1.097-.477-.332 0-.605.076-.821.227a1.36 1.36 0 0 0-.485.62 2.43 2.43 0 0 0-.158.909c0 .534.123.963.37 1.286.249.324.614.485 1.094.485Zm4.382.413c-.228 0-.434-.034-.616-.101a1.424 1.424 0 0 1-.47-.281 1.613 1.613 0 0 1-.331-.431 2.178 2.178 0 0 1-.196-.547 3.046 3.046 0 0 1-.062-.62v-2.276h.447v2.164c0 .262.025.496.077.701.054.206.133.38.239.524.107.144.241.253.4.327.162.075.352.112.57.112.226 0 .421-.038.585-.115.167-.08.303-.19.409-.332.107-.141.187-.308.238-.5.054-.195.081-.407.081-.636l.351.043c0 .449-.077.82-.231 1.113a1.51 1.51 0 0 1-.617.647c-.259.138-.55.208-.874.208Zm1.414-.097v-.936h-.043v-3.223h.447v4.159h-.404Zm1.478 0v-4.159h.405v.997l-.1-.13c.046-.119.104-.228.173-.328.072-.102.145-.186.22-.25.11-.103.24-.18.388-.231.149-.054.3-.085.451-.093.152-.01.289.002.412.035v.42a1.47 1.47 0 0 0-.524-.023.994.994 0 0 0-.52.238 1.11 1.11 0 0 0-.308.432 1.898 1.898 0 0 0-.123.512c-.018.177-.027.35-.027.52v2.06h-.447Zm4.297-4.998v-.567h.443v.567h-.443Zm0 4.998v-4.159h.443v4.159h-.443Zm3.199.116c-.393 0-.726-.096-.998-.289a1.871 1.871 0 0 1-.62-.79 2.858 2.858 0 0 1-.212-1.124c0-.411.071-.782.212-1.113.141-.331.344-.593.609-.786.267-.192.589-.288.966-.288.388 0 .715.095.982.285.267.189.469.45.605.781.136.329.204.702.204 1.121 0 .416-.068.789-.204 1.121a1.836 1.836 0 0 1-.593.789c-.259.195-.576.293-.951.293Zm.027-.424c.31 0 .568-.077.774-.231a1.38 1.38 0 0 0 .462-.635c.103-.27.154-.574.154-.913 0-.342-.051-.646-.154-.913a1.347 1.347 0 0 0-.462-.624c-.206-.151-.461-.227-.767-.227-.315 0-.576.078-.781.235a1.364 1.364 0 0 0-.459.632c-.1.264-.15.563-.15.897 0 .336.051.639.154.909.105.267.259.479.462.635.206.157.461.235.767.235Zm1.39.308v-3.204h-.039v-2.341h.443v5.545h-.404Zm3.196.116c-.398 0-.742-.089-1.032-.266a1.798 1.798 0 0 1-.674-.759c-.159-.328-.239-.716-.239-1.163 0-.454.079-.846.235-1.174.159-.331.383-.586.67-.763.291-.177.635-.265 1.032-.265.404 0 .748.092 1.033.277.287.182.505.447.654.793.152.347.224.764.216 1.252h-.462v-.154c-.013-.57-.141-1.004-.385-1.302-.244-.298-.593-.447-1.048-.447-.47 0-.833.156-1.09.466-.254.308-.381.745-.381 1.31 0 .559.127.993.381 1.301.257.308.618.462 1.082.462.321 0 .601-.074.84-.223.241-.151.433-.367.574-.647l.4.177c-.167.36-.408.637-.724.832a2.014 2.014 0 0 1-1.082.293Zm-1.64-2.068v-.401h3.285v.401h-3.285Zm7.32 1.952v-2.164c0-.262-.027-.496-.081-.701a1.46 1.46 0 0 0-.238-.524 1.02 1.02 0 0 0-.401-.327 1.317 1.317 0 0 0-.566-.112c-.226 0-.422.04-.589.12a1.073 1.073 0 0 0-.408.327 1.49 1.49 0 0 0-.239.504 2.427 2.427 0 0 0-.077.632l-.351-.042c0-.45.076-.819.227-1.109.155-.293.361-.509.621-.647.259-.142.55-.212.874-.212.228 0 .432.033.612.1.182.067.34.162.474.285.133.121.244.264.331.431.087.165.151.346.192.543.044.198.066.405.066.62v2.276h-.447Zm-3.046 0v-4.159h.404v.936h.043v3.223h-.447Zm6.697 0a2.357 2.357 0 0 1-.655.054 1.435 1.435 0 0 1-.577-.142.847.847 0 0 1-.378-.401 1.178 1.178 0 0 1-.115-.443 9.645 9.645 0 0 1-.012-.512v-3.87h.447v3.862c0 .175.001.32.004.436a.735.735 0 0 0 .081.311.595.595 0 0 0 .439.324c.2.036.455.03.766-.019v.4Zm-2.669-3.755v-.404h2.669v.404h-2.669Zm3.541-1.243v-.567h.442v.567h-.442Zm0 4.998v-4.159h.442v4.159h-.442Zm3.807 0a2.357 2.357 0 0 1-.655.054 1.44 1.44 0 0 1-.578-.142.845.845 0 0 1-.377-.401 1.18 1.18 0 0 1-.116-.443 10.962 10.962 0 0 1-.011-.512v-3.87h.446v3.862c0 .175.002.32.004.436a.735.735 0 0 0 .081.311.599.599 0 0 0 .439.324c.2.036.456.03.767-.019v.4Zm-2.669-3.755v-.404h2.669v.404h-2.669Zm3.959 5.604.808-2.176.008.647-1.821-4.479h.473l1.564 3.89h-.247l1.421-3.89h.466l-2.21 6.008h-.462Zm7.119-1.849a2.357 2.357 0 0 1-.655.054 1.435 1.435 0 0 1-.577-.142.847.847 0 0 1-.378-.401 1.16 1.16 0 0 1-.115-.443 9.645 9.645 0 0 1-.012-.512v-3.87h.447v3.862c0 .175.001.32.004.436a.75.75 0 0 0 .08.311.599.599 0 0 0 .439.324c.201.036.456.03.767-.019v.4Zm-2.669-3.755v-.404h2.669v.404h-2.669Zm5.034 3.871c-.413 0-.764-.094-1.051-.281a1.803 1.803 0 0 1-.659-.778 2.732 2.732 0 0 1-.227-1.144c0-.434.077-.815.231-1.144.154-.331.375-.588.662-.77.29-.182.638-.273 1.044-.273.413 0 .764.093 1.051.281.29.185.51.441.659.77.151.329.227.707.227 1.136 0 .439-.076.824-.227 1.155a1.767 1.767 0 0 1-.663.771c-.29.184-.639.277-1.047.277Zm0-.432c.49 0 .856-.164 1.098-.492.243-.329.365-.755.365-1.279 0-.534-.122-.96-.365-1.279-.244-.318-.61-.477-1.098-.477-.331 0-.605.076-.82.227a1.355 1.355 0 0 0-.486.62 2.431 2.431 0 0 0-.157.909c0 .534.123.963.369 1.286.249.324.614.485 1.094.485Zm2.784.316v-5.545h.447v3.389l1.968-2.003h.62l-2.06 2.08 2.353 2.079h-.69l-2.191-2.002v2.002h-.447Zm5.355.116c-.398 0-.742-.089-1.032-.266a1.792 1.792 0 0 1-.674-.759c-.16-.328-.239-.716-.239-1.163 0-.454.078-.846.235-1.174.159-.331.382-.586.67-.763.29-.177.634-.265 1.032-.265.403 0 .747.092 1.032.277.288.182.506.447.655.793.151.347.223.764.215 1.252h-.462v-.154c-.013-.57-.141-1.004-.385-1.302-.244-.298-.593-.447-1.047-.447-.47 0-.833.156-1.09.466-.254.308-.381.745-.381 1.31 0 .559.127.993.381 1.301.257.308.617.462 1.082.462.321 0 .601-.074.839-.223.242-.151.433-.367.574-.647l.401.177c-.167.36-.408.637-.724.832a2.02 2.02 0 0 1-1.082.293Zm-1.641-2.068v-.401h3.285v.401h-3.285Zm7.321 1.952v-2.164c0-.262-.027-.496-.081-.701a1.462 1.462 0 0 0-.239-.524 1.014 1.014 0 0 0-.401-.327 1.314 1.314 0 0 0-.566-.112c-.226 0-.422.04-.589.12-.164.077-.3.186-.408.327a1.51 1.51 0 0 0-.239.504 2.47 2.47 0 0 0-.077.632l-.35-.042c0-.45.075-.819.227-1.109.154-.293.361-.509.62-.647.259-.142.551-.212.874-.212.229 0 .433.033.612.1.183.067.341.162.474.285.134.121.244.264.331.431.088.165.152.346.193.543.044.198.065.405.065.62v2.276h-.446Zm-3.047 0v-4.159h.405v.936h.042v3.223h-.447Zm5.956-2.226v-.404h2.31v.404h-2.31Zm7.06 2.226a2.357 2.357 0 0 1-.655.054 1.44 1.44 0 0 1-.578-.142.85.85 0 0 1-.377-.401 1.18 1.18 0 0 1-.116-.443 10.962 10.962 0 0 1-.011-.512v-3.87h.447v3.862c0 .175.001.32.004.436a.75.75 0 0 0 .08.311.599.599 0 0 0 .439.324c.201.036.456.03.767-.019v.4Zm-2.669-3.755v-.404h2.669v.404h-2.669Zm5.034 3.871c-.413 0-.764-.094-1.051-.281a1.796 1.796 0 0 1-.659-.778 2.732 2.732 0 0 1-.227-1.144c0-.434.077-.815.231-1.144.154-.331.375-.588.662-.77.29-.182.638-.273 1.044-.273.413 0 .764.093 1.051.281.29.185.51.441.659.77.151.329.227.707.227 1.136 0 .439-.076.824-.227 1.155a1.767 1.767 0 0 1-.663.771c-.29.184-.639.277-1.047.277Zm0-.432c.49 0 .856-.164 1.097-.492.244-.329.366-.755.366-1.279 0-.534-.122-.96-.366-1.279-.243-.318-.609-.477-1.097-.477-.331 0-.605.076-.82.227a1.355 1.355 0 0 0-.486.62 2.43 2.43 0 0 0-.158.909c0 .534.124.963.37 1.286.249.324.614.485 1.094.485Zm-134.926 13.28c-.206 0-.411-.03-.616-.092a1.72 1.72 0 0 1-.57-.293 1.66 1.66 0 0 1-.451-.535l.4-.239c.126.257.305.44.536.551.23.11.466.165.705.165.336 0 .602-.062.797-.188a1.02 1.02 0 0 0 .423-.559c.085-.246.128-.553.128-.92v-1.09h.046v-2.923h.404v4.013c0 .123-.002.241-.008.354a3.042 3.042 0 0 1-.034.339c-.047.321-.142.585-.285.793a1.286 1.286 0 0 1-.586.47c-.244.103-.54.154-.89.154Zm-.02-1.848c-.392 0-.725-.096-.997-.289a1.866 1.866 0 0 1-.62-.79 2.855 2.855 0 0 1-.212-1.124c0-.411.07-.782.212-1.113.141-.331.344-.593.608-.786.268-.192.59-.288.967-.288.388 0 .715.095.982.285.267.189.469.45.605.781.136.329.204.702.204 1.121 0 .416-.068.789-.204 1.121a1.835 1.835 0 0 1-.593.789c-.26.195-.577.293-.952.293Zm.027-.424c.311 0 .57-.077.775-.231a1.38 1.38 0 0 0 .462-.635c.102-.27.154-.574.154-.913 0-.342-.052-.646-.154-.913a1.342 1.342 0 0 0-.462-.624c-.206-.151-.461-.227-.767-.227-.316 0-.576.078-.782.235a1.368 1.368 0 0 0-.458.632c-.1.264-.15.563-.15.897 0 .336.051.639.154.909.105.267.26.479.462.635.206.157.46.235.766.235Zm4.075.424c-.321 0-.588-.057-.801-.17a1.16 1.16 0 0 1-.474-.446 1.226 1.226 0 0 1-.158-.609c0-.236.049-.434.146-.593.1-.159.233-.287.397-.385.167-.098.35-.171.55-.22a8.93 8.93 0 0 1 .74-.131c.265-.038.516-.071.755-.1.241-.028.438-.052.59-.073l-.162.096c.01-.449-.075-.783-.255-1.001-.177-.221-.49-.331-.94-.331-.315 0-.576.072-.781.216-.203.141-.345.36-.428.658l-.454-.127c.095-.377.286-.667.574-.87.287-.203.656-.304 1.105-.304.383 0 .704.074.963.223.262.149.444.358.547.628.043.11.073.24.088.389.016.146.024.294.024.442v2.592h-.405v-1.093l.15.038a1.607 1.607 0 0 1-.658.867c-.314.202-.684.304-1.113.304Zm.023-.408c.282 0 .53-.051.743-.151.213-.102.385-.245.516-.427.134-.185.218-.402.254-.651a2.71 2.71 0 0 0 .043-.451l.004-.358.192.124c-.167.02-.367.042-.6.065a17.49 17.49 0 0 0-.71.085 5.39 5.39 0 0 0-.654.127c-.12.033-.242.082-.366.146a.875.875 0 0 0-.304.258.703.703 0 0 0-.12.42c0 .126.031.252.093.377.064.126.17.23.316.312.146.082.344.124.593.124Zm3.08-4.706v-.567h.442v.567h-.443Zm0 4.998v-4.159h.442v4.159h-.443Zm4.646 0v-2.164c0-.262-.027-.496-.08-.701a1.453 1.453 0 0 0-.24-.524 1.016 1.016 0 0 0-.4-.327 1.317 1.317 0 0 0-.566-.112c-.226 0-.423.04-.59.12-.164.077-.3.186-.408.327a1.501 1.501 0 0 0-.238.504 2.457 2.457 0 0 0-.078.632l-.35-.042c0-.45.076-.819.227-1.109.154-.293.361-.509.62-.647.26-.142.551-.212.874-.212.229 0 .433.033.613.1.182.067.34.162.474.285.133.121.243.264.33.431.088.165.152.346.193.543.044.198.066.405.066.62v2.276h-.447Zm-3.046 0v-4.159h.404v.936h.042v3.223h-.446Zm7.157 0-1.51-4.159h.458l1.287 3.555 1.282-3.555h.462l-1.51 4.159h-.47Zm4.237.116c-.398 0-.742-.089-1.032-.266a1.799 1.799 0 0 1-.674-.759c-.16-.328-.239-.716-.239-1.163 0-.454.078-.846.235-1.174.16-.331.383-.586.67-.763.29-.177.634-.265 1.032-.265.403 0 .747.092 1.032.277.288.182.506.447.655.793.151.347.223.764.216 1.252h-.463v-.154c-.012-.57-.14-1.004-.385-1.302-.243-.298-.593-.447-1.047-.447-.47 0-.833.156-1.09.466-.254.308-.381.745-.381 1.31 0 .559.127.993.381 1.301.257.308.617.462 1.082.462.321 0 .601-.074.84-.223.241-.151.432-.367.574-.647l.4.177c-.167.36-.408.637-.724.832a2.018 2.018 0 0 1-1.082.293Zm-1.64-2.068v-.401h3.284v.401H71.38Zm4.386 1.952v-4.159h.405v.997l-.1-.13a1.57 1.57 0 0 1 .173-.328c.072-.102.145-.186.22-.25.11-.103.24-.18.389-.231.148-.054.299-.085.45-.093.152-.01.289.002.412.035v.42a1.468 1.468 0 0 0-.523-.023.99.99 0 0 0-.52.238 1.101 1.101 0 0 0-.308.432 1.89 1.89 0 0 0-.124.512c-.018.177-.027.35-.027.52v2.06h-.447Zm2.755-4.998v-.567h.443v.567h-.443Zm0 4.998v-4.159h.443v4.159h-.443Zm2.032 0v-4.548c0-.108.005-.21.015-.308.013-.098.038-.19.073-.277a.917.917 0 0 1 .162-.247.778.778 0 0 1 .239-.177.99.99 0 0 1 .285-.081c.1-.015.205-.023.316-.023h.535v.385h-.497c-.228 0-.4.055-.516.166-.113.11-.17.293-.17.547v4.563h-.442Zm-.74-3.755v-.404h2.365v.404h-2.364Zm3.174-1.243v-.567h.443v.567h-.443Zm0 4.998v-4.159h.443v4.159h-.443Zm3.309.116c-.398 0-.742-.089-1.032-.266a1.799 1.799 0 0 1-.674-.759c-.16-.328-.24-.716-.24-1.163 0-.454.08-.846.236-1.174.159-.331.382-.586.67-.763.29-.177.634-.265 1.032-.265.403 0 .747.092 1.032.277.288.182.506.447.655.793.151.347.223.764.216 1.252h-.463v-.154c-.012-.57-.14-1.004-.385-1.302-.244-.298-.593-.447-1.047-.447-.47 0-.833.156-1.09.466-.254.308-.381.745-.381 1.31 0 .559.127.993.38 1.301.258.308.618.462 1.083.462.32 0 .6-.074.84-.223.24-.151.432-.367.573-.647l.4.177c-.166.36-.407.637-.723.832a2.018 2.018 0 0 1-1.082.293Zm-1.64-2.068v-.401h3.284v.401h-3.285Zm5.984 2.068c-.392 0-.725-.096-.997-.289a1.865 1.865 0 0 1-.62-.79 2.855 2.855 0 0 1-.212-1.124c0-.411.07-.782.212-1.113.141-.331.344-.593.609-.786.267-.192.589-.288.966-.288.388 0 .715.095.982.285.267.189.469.45.605.781.136.329.204.702.204 1.121 0 .416-.068.789-.204 1.121a1.834 1.834 0 0 1-.593.789c-.26.195-.577.293-.951.293Zm.028-.424c.31 0 .568-.077.774-.231.208-.157.362-.368.462-.635.102-.27.154-.574.154-.913 0-.342-.052-.646-.154-.913a1.343 1.343 0 0 0-.462-.624c-.206-.151-.461-.227-.767-.227-.316 0-.576.078-.782.235a1.368 1.368 0 0 0-.458.632c-.1.264-.15.563-.15.897 0 .336.051.639.154.909.105.267.26.479.462.635.206.157.461.235.767.235Zm1.39.308v-3.204h-.039v-2.341h.443v5.545h-.404Zm4.226.116c-.321 0-.588-.057-.801-.17a1.16 1.16 0 0 1-.474-.446 1.226 1.226 0 0 1-.158-.609c0-.236.049-.434.147-.593.1-.159.232-.287.396-.385.167-.098.35-.171.55-.22a8.93 8.93 0 0 1 .74-.131c.265-.038.516-.071.755-.1.242-.028.438-.052.59-.073l-.162.096c.01-.449-.075-.783-.255-1.001-.177-.221-.49-.331-.94-.331-.315 0-.576.072-.781.216-.203.141-.345.36-.428.658l-.454-.127c.095-.377.286-.667.574-.87.287-.203.656-.304 1.105-.304.383 0 .704.074.963.223.262.149.444.358.547.628.043.11.073.24.088.389.016.146.023.294.023.442v2.592h-.404v-1.093l.15.038a1.607 1.607 0 0 1-.658.867c-.314.202-.684.304-1.113.304Zm.023-.408c.282 0 .53-.051.743-.151.213-.102.385-.245.516-.427.134-.185.218-.402.254-.651.026-.139.04-.289.043-.451l.004-.358.192.124c-.167.02-.367.042-.6.065a17.49 17.49 0 0 0-.71.085 5.39 5.39 0 0 0-.654.127c-.12.033-.242.082-.366.146a.875.875 0 0 0-.304.258.703.703 0 0 0-.12.42c0 .126.031.252.093.377.064.126.17.23.316.312.146.082.344.124.593.124Zm4.701.408c-.416 0-.767-.093-1.052-.277a1.788 1.788 0 0 1-.65-.775 2.887 2.887 0 0 1-.228-1.143c.005-.439.082-.823.231-1.152.152-.331.37-.588.655-.77.285-.182.634-.273 1.048-.273.403 0 .757.097 1.063.292.308.193.521.458.639.797l-.432.158a1.23 1.23 0 0 0-.496-.6 1.418 1.418 0 0 0-.778-.216c-.329 0-.6.076-.813.227a1.34 1.34 0 0 0-.477.62c-.106.265-.16.57-.166.917.008.531.132.959.374 1.282.244.321.604.481 1.082.481.295 0 .55-.068.766-.204a1.3 1.3 0 0 0 .501-.593l.439.15c-.162.352-.388.62-.678.805-.29.183-.633.274-1.028.274Zm4.099 0c-.416 0-.766-.093-1.051-.277a1.789 1.789 0 0 1-.651-.775 2.893 2.893 0 0 1-.227-1.143 2.85 2.85 0 0 1 .231-1.152 1.75 1.75 0 0 1 .654-.77c.285-.182.635-.273 1.048-.273.403 0 .757.097 1.063.292.308.193.521.458.639.797l-.431.158a1.233 1.233 0 0 0-.497-.6 1.416 1.416 0 0 0-.778-.216c-.329 0-.599.076-.812.227a1.334 1.334 0 0 0-.478.62c-.105.265-.16.57-.166.917.008.531.133.959.374 1.282.244.321.605.481 1.082.481.295 0 .551-.068.766-.204.219-.136.386-.333.501-.593l.439.15c-.162.352-.388.62-.678.805-.29.183-.633.274-1.028.274Zm4.115 0c-.398 0-.742-.089-1.032-.266a1.798 1.798 0 0 1-.674-.759c-.159-.328-.239-.716-.239-1.163 0-.454.078-.846.235-1.174.159-.331.382-.586.67-.763.29-.177.634-.265 1.032-.265.403 0 .747.092 1.032.277.288.182.506.447.655.793.151.347.223.764.216 1.252h-.463v-.154c-.012-.57-.141-1.004-.385-1.302-.244-.298-.593-.447-1.047-.447-.47 0-.833.156-1.09.466-.254.308-.381.745-.381 1.31 0 .559.127.993.381 1.301.257.308.617.462 1.082.462.321 0 .601-.074.84-.223.241-.151.432-.367.573-.647l.401.177c-.167.36-.408.637-.724.832a2.02 2.02 0 0 1-1.082.293Zm-1.641-2.068v-.401h3.285v.401h-3.285Zm5.924 2.06c-.48 0-.877-.101-1.19-.304a1.285 1.285 0 0 1-.578-.847l.455-.077a.963.963 0 0 0 .454.589c.239.146.532.219.878.219.344 0 .618-.073.821-.219a.704.704 0 0 0 .304-.601.558.558 0 0 0-.096-.339c-.062-.09-.185-.172-.37-.246a8.004 8.004 0 0 0-.824-.262 5.684 5.684 0 0 1-.905-.308c-.216-.103-.369-.22-.459-.351a.85.85 0 0 1-.131-.481c0-.229.066-.429.197-.601.131-.175.313-.311.547-.408.236-.098.508-.146.816-.146.308 0 .586.051.832.154.246.1.445.241.597.423.151.18.239.389.262.628l-.455.085a.912.912 0 0 0-.404-.632c-.226-.157-.508-.236-.847-.239-.321-.005-.583.059-.786.193-.203.131-.304.304-.304.52 0 .123.035.228.104.316.072.084.198.163.377.234.18.072.434.149.763.232.4.102.712.207.936.315.226.108.385.235.477.382a.963.963 0 0 1 .139.535c0 .385-.144.688-.432.909-.285.218-.677.327-1.178.327Zm4.002 0c-.481 0-.877-.101-1.19-.304a1.282 1.282 0 0 1-.578-.847l.454-.077a.968.968 0 0 0 .455.589c.239.146.531.219.878.219.344 0 .617-.073.82-.219a.702.702 0 0 0 .304-.601.558.558 0 0 0-.096-.339c-.062-.09-.185-.172-.37-.246a7.844 7.844 0 0 0-.824-.262 5.684 5.684 0 0 1-.905-.308c-.215-.103-.368-.22-.458-.351a.85.85 0 0 1-.131-.481c0-.229.065-.429.196-.601.131-.175.314-.311.547-.408a2.12 2.12 0 0 1 .817-.146c.308 0 .585.051.832.154.246.1.445.241.596.423.152.18.239.389.262.628l-.454.085a.919.919 0 0 0-.404-.632c-.226-.157-.509-.236-.848-.239-.321-.005-.583.059-.785.193-.203.131-.305.304-.305.52 0 .123.035.228.104.316.072.084.198.163.378.234.18.072.434.149.762.232.401.102.713.207.936.315.226.108.385.235.478.382a.971.971 0 0 1 .138.535c0 .385-.143.688-.431.909-.285.218-.678.327-1.178.327Zm6.213-.108a2.357 2.357 0 0 1-.655.054 1.435 1.435 0 0 1-.577-.142.847.847 0 0 1-.378-.401 1.178 1.178 0 0 1-.115-.443 9.645 9.645 0 0 1-.012-.512v-3.87h.447v3.862c0 .175.001.32.004.436a.735.735 0 0 0 .081.311.597.597 0 0 0 .439.324c.2.036.456.03.766-.019v.4Zm-2.669-3.755v-.404h2.669v.404h-2.669Zm5.034 3.871c-.413 0-.764-.094-1.051-.281a1.803 1.803 0 0 1-.659-.778 2.732 2.732 0 0 1-.227-1.144c0-.434.077-.815.231-1.144.154-.331.375-.588.663-.77.29-.182.638-.273 1.043-.273.414 0 .764.093 1.052.281.29.185.509.441.658.77.152.329.227.707.227 1.136 0 .439-.075.824-.227 1.155a1.765 1.765 0 0 1-.662.771c-.29.184-.64.277-1.048.277Zm0-.432c.491 0 .857-.164 1.098-.492.244-.329.366-.755.366-1.279 0-.534-.122-.96-.366-1.279-.244-.318-.61-.477-1.098-.477-.331 0-.604.076-.82.227a1.353 1.353 0 0 0-.485.62 2.411 2.411 0 0 0-.158.909c0 .534.123.963.37 1.286.249.324.613.485 1.093.485Zm5.212.316-1.27-4.159h.454l1.044 3.416 1.043-3.416h.428l1.047 3.416 1.048-3.416h.446l-1.27 4.159h-.416l-1.067-3.462-1.071 3.462h-.416Zm6.5.116c-.398 0-.742-.089-1.032-.266a1.798 1.798 0 0 1-.674-.759c-.159-.328-.239-.716-.239-1.163 0-.454.078-.846.235-1.174.159-.331.382-.586.67-.763.29-.177.634-.265 1.032-.265.403 0 .747.092 1.032.277.288.182.506.447.655.793.151.347.223.764.215 1.252h-.462v-.154c-.012-.57-.141-1.004-.385-1.302-.244-.298-.593-.447-1.047-.447-.47 0-.833.156-1.09.466-.254.308-.381.745-.381 1.31 0 .559.127.993.381 1.301.257.308.617.462 1.082.462.321 0 .601-.074.84-.223.241-.151.432-.367.573-.647l.401.177c-.167.36-.408.637-.724.832a2.02 2.02 0 0 1-1.082.293Zm-1.641-2.068v-.401h3.285v.401h-3.285Zm6.209 2.068c-.375 0-.692-.098-.951-.293a1.828 1.828 0 0 1-.593-.789 2.931 2.931 0 0 1-.204-1.121c0-.419.068-.792.204-1.121a1.74 1.74 0 0 1 .604-.781c.267-.19.595-.285.982-.285.378 0 .7.096.967.288a1.8 1.8 0 0 1 .608.786c.142.331.212.702.212 1.113 0 .416-.072.791-.215 1.124a1.833 1.833 0 0 1-.62.79c-.27.193-.601.289-.994.289Zm-1.822-.116v-5.545h.443v2.341h-.038v3.204h-.405Zm1.795-.308c.305 0 .56-.078.762-.235.206-.156.36-.368.463-.635a2.49 2.49 0 0 0 .158-.909c0-.334-.052-.633-.155-.897a1.362 1.362 0 0 0-.458-.632c-.203-.157-.462-.235-.778-.235-.305 0-.561.076-.766.227a1.34 1.34 0 0 0-.462.624 2.522 2.522 0 0 0-.154.913c0 .339.05.643.15.913.103.267.257.478.462.635.208.154.467.231.778.231Zm4.159.42c-.272 0-.521-.046-.747-.139a1.656 1.656 0 0 1-.582-.404 1.677 1.677 0 0 1-.358-.632l.42-.134c.103.292.267.513.493.662.226.149.483.221.77.216.267-.008.494-.068.682-.181.19-.113.335-.27.435-.47.1-.2.15-.437.15-.709 0-.411-.117-.738-.35-.982-.234-.246-.545-.37-.932-.37-.103 0-.215.016-.335.047a1.535 1.535 0 0 0-.331.115l-.239-.354 2.249-2.126.096.239h-2.884v-.435h3.138v.439l-2.006 1.918-.008-.212c.398-.072.752-.044 1.063.084.313.126.558.332.736.617.179.285.269.625.269 1.02 0 .36-.074.674-.223.944a1.583 1.583 0 0 1-.609.624 1.776 1.776 0 0 1-.897.223Zm5.477.004c-.321 0-.588-.057-.801-.17a1.161 1.161 0 0 1-.473-.446 1.219 1.219 0 0 1-.158-.609c0-.236.049-.434.146-.593.1-.159.232-.287.397-.385.167-.098.35-.171.55-.22a8.94 8.94 0 0 1 .74-.131c.264-.038.516-.071.755-.1.241-.028.437-.052.589-.073l-.162.096c.01-.449-.074-.783-.254-1.001-.177-.221-.49-.331-.94-.331-.315 0-.576.072-.781.216-.203.141-.346.36-.428.658l-.454-.127c.095-.377.286-.667.573-.87.288-.203.656-.304 1.106-.304.382 0 .703.074.963.223.261.149.444.358.546.628.044.11.074.24.089.389.015.146.023.294.023.442v2.592h-.404v-1.093l.15.038a1.605 1.605 0 0 1-.659.867c-.313.202-.684.304-1.113.304Zm.024-.408c.282 0 .53-.05.743-.151.213-.102.385-.245.516-.427.133-.185.218-.402.254-.651a2.63 2.63 0 0 0 .042-.451c.003-.161.004-.281.004-.358l.193.124c-.167.02-.367.042-.601.065-.231.023-.467.051-.709.085a5.389 5.389 0 0 0-.654.127 1.85 1.85 0 0 0-.366.146.869.869 0 0 0-.304.258.7.7 0 0 0-.12.42c0 .126.031.252.093.377.064.126.169.23.315.312.147.082.344.124.594.124Zm6.048.292v-2.164c0-.262-.027-.496-.081-.701a1.46 1.46 0 0 0-.238-.524 1.02 1.02 0 0 0-.401-.327 1.317 1.317 0 0 0-.566-.112c-.226 0-.422.04-.589.12a1.073 1.073 0 0 0-.408.327 1.49 1.49 0 0 0-.239.504 2.427 2.427 0 0 0-.077.632l-.351-.042c0-.45.076-.819.228-1.109a1.49 1.49 0 0 1 .62-.647c.259-.142.55-.212.874-.212.228 0 .432.033.612.1.182.067.34.162.474.285.133.121.244.264.331.431.087.165.151.346.193.543.043.198.065.405.065.62v2.276h-.447Zm-3.046 0v-4.159h.404v.936h.043v3.223H155Zm6.074.116c-.393 0-.726-.096-.998-.289a1.871 1.871 0 0 1-.62-.79 2.858 2.858 0 0 1-.212-1.124c0-.411.071-.782.212-1.113.141-.331.344-.593.609-.786.267-.192.589-.288.966-.288.388 0 .715.095.982.285.267.189.469.45.605.781.136.329.204.702.204 1.121 0 .416-.068.789-.204 1.121a1.836 1.836 0 0 1-.593.789c-.259.195-.577.293-.951.293Zm.027-.424c.31 0 .568-.077.774-.231a1.38 1.38 0 0 0 .462-.635c.103-.27.154-.574.154-.913 0-.342-.051-.646-.154-.913a1.347 1.347 0 0 0-.462-.624c-.206-.151-.461-.227-.767-.227-.315 0-.576.078-.781.235a1.364 1.364 0 0 0-.459.632c-.1.264-.15.563-.15.897 0 .336.051.639.154.909.105.267.259.479.462.635.206.157.461.235.767.235Zm1.39.308v-3.204h-.039v-2.341h.443v5.545h-.404Zm4.623.116c-.393 0-.726-.096-.998-.289a1.871 1.871 0 0 1-.62-.79 2.858 2.858 0 0 1-.212-1.124c0-.411.071-.782.212-1.113.141-.331.344-.593.609-.786.267-.192.589-.288.966-.288.388 0 .715.095.982.285.267.189.469.45.605.781.136.329.204.702.204 1.121 0 .416-.068.789-.204 1.121a1.836 1.836 0 0 1-.593.789c-.26.195-.577.293-.951.293Zm.027-.424c.31 0 .568-.077.774-.231a1.38 1.38 0 0 0 .462-.635c.102-.27.154-.574.154-.913 0-.342-.052-.646-.154-.913a1.347 1.347 0 0 0-.462-.624c-.206-.151-.461-.227-.767-.227-.316 0-.576.078-.782.235a1.37 1.37 0 0 0-.458.632c-.1.264-.15.563-.15.897 0 .336.051.639.154.909.105.267.259.479.462.635.206.157.461.235.767.235Zm1.39.308v-3.204h-.039v-2.341h.443v5.545h-.404Zm1.097 0 1.964-5.545h.551l1.964 5.545h-.47l-1.887-5.314h.224l-1.876 5.314h-.47Zm.813-1.394v-.42h2.85v.42h-2.85Zm6.178 1.51c-.375 0-.692-.098-.952-.293a1.836 1.836 0 0 1-.593-.789 2.931 2.931 0 0 1-.204-1.121c0-.419.068-.792.204-1.121.136-.331.338-.592.605-.781.267-.19.594-.285.982-.285.377 0 .7.096.967.288a1.8 1.8 0 0 1 .608.786c.141.331.212.702.212 1.113 0 .416-.072.791-.216 1.124a1.826 1.826 0 0 1-.62.79c-.269.193-.6.289-.993.289Zm-1.822 1.733v-6.008h.404v3.204h.039v2.804h-.443Zm1.795-2.157c.305 0 .559-.078.762-.235.206-.156.36-.368.462-.635a2.47 2.47 0 0 0 .158-.909c0-.334-.051-.633-.154-.897a1.37 1.37 0 0 0-.458-.632c-.203-.157-.462-.235-.778-.235-.305 0-.561.076-.766.227-.206.149-.36.357-.462.624a2.522 2.522 0 0 0-.155.913c0 .339.051.643.151.913.102.267.256.478.462.635.208.154.467.231.778.231Zm4.525.424c-.375 0-.692-.098-.952-.293a1.836 1.836 0 0 1-.593-.789 2.931 2.931 0 0 1-.204-1.121c0-.419.068-.792.204-1.121.136-.331.338-.592.605-.781.267-.19.594-.285.982-.285.377 0 .7.096.967.288a1.8 1.8 0 0 1 .608.786c.141.331.212.702.212 1.113 0 .416-.072.791-.216 1.124a1.826 1.826 0 0 1-.62.79c-.269.193-.601.289-.993.289Zm-1.822 1.733v-6.008h.404v3.204h.039v2.804h-.443Zm1.795-2.157c.305 0 .559-.078.762-.235.206-.156.36-.368.462-.635a2.47 2.47 0 0 0 .158-.909c0-.334-.051-.633-.154-.897a1.37 1.37 0 0 0-.458-.632c-.203-.157-.462-.235-.778-.235-.306 0-.561.076-.766.227-.206.149-.36.357-.462.624a2.522 2.522 0 0 0-.155.913c0 .339.051.643.151.913.102.267.256.478.462.635.208.154.467.231.778.231Zm4.217.416c-.48 0-.877-.101-1.19-.304a1.285 1.285 0 0 1-.578-.847l.455-.077a.966.966 0 0 0 .454.589c.239.146.532.219.878.219.344 0 .618-.073.821-.219a.704.704 0 0 0 .304-.601.558.558 0 0 0-.096-.339c-.062-.09-.185-.172-.37-.246a8.004 8.004 0 0 0-.824-.262 5.684 5.684 0 0 1-.905-.308c-.216-.103-.369-.22-.459-.351a.85.85 0 0 1-.13-.481c0-.229.065-.429.196-.601.131-.175.313-.311.547-.408.236-.098.508-.146.816-.146.308 0 .586.051.832.154.247.1.446.241.597.423.151.18.239.389.262.628l-.455.085a.912.912 0 0 0-.404-.632c-.226-.157-.508-.236-.847-.239-.321-.005-.583.059-.786.193-.203.131-.304.304-.304.52 0 .123.035.228.104.316.072.084.198.163.377.234.18.072.434.149.763.232.4.102.712.207.936.315.226.108.385.235.477.382a.963.963 0 0 1 .139.535c0 .385-.144.688-.431.909-.285.218-.678.327-1.179.327Z"/></g><defs><linearGradient id="a" x1="13.495" x2="119.647" y1="26.118" y2="486.546" gradientUnits="userSpaceOnUse"><stop offset=".087" stop-color="#4A4A4A"/><stop offset=".113" stop-color="#B0B0B0"/><stop offset=".141" stop-color="#4A4A4A"/><stop offset=".815" stop-color="#4A4A4A"/><stop offset=".854" stop-color="#B0B0B0"/><stop offset=".89" stop-color="#4A4A4A"/></linearGradient><linearGradient id="c" x1="218.827" x2="27.606" y1="11.181" y2="483.729" gradientUnits="userSpaceOnUse"><stop offset=".037" stop-color="#0F0F0F"/><stop offset=".124" stop-color="#757575"/><stop offset=".968" stop-color="#0F0F0F"/></linearGradient></defs></svg>