<svg xmlns="http://www.w3.org/2000/svg" width="306" height="622" fill="none"><mask id="b" fill="#fff"><path d="M254.469.297c27.292 0 49.417 22.125 49.417 49.417v142.277h1.882c.129 0 .235.105.235.235v72.945c0 .13-.106.236-.235.236h-1.882v307.146c0 27.293-22.125 49.418-49.417 49.418H52.11c-27.292 0-49.417-22.125-49.417-49.418v-290.44H.812a.236.236 0 0 1-.236-.236v-46.589c0-.13.106-.236.236-.236h1.881v-12.707H.812a.235.235 0 0 1-.236-.235v-46.59c0-.13.106-.235.236-.235h1.881v-22.119H.812a.236.236 0 0 1-.236-.236v-21.883c0-.13.106-.235.236-.235h1.881V49.714C2.693 22.422 24.818.297 52.11.297H254.47Z"/></mask><path fill="url(#a)" d="M254.469.297c27.292 0 49.417 22.125 49.417 49.417v142.277h1.882c.129 0 .235.105.235.235v72.945c0 .13-.106.236-.235.236h-1.882v307.146c0 27.293-22.125 49.418-49.417 49.418H52.11c-27.292 0-49.417-22.125-49.417-49.418v-290.44H.812a.236.236 0 0 1-.236-.236v-46.589c0-.13.106-.236.236-.236h1.881v-12.707H.812a.235.235 0 0 1-.236-.235v-46.59c0-.13.106-.235.236-.235h1.881v-22.119H.812a.236.236 0 0 1-.236-.236v-21.883c0-.13.106-.235.236-.235h1.881V49.714C2.693 22.422 24.818.297 52.11.297H254.47Z"/><path fill="#ADADAD" d="M254.469.297v-.861.861Zm49.417 49.417h.862-.862Zm0 142.277h-.862v.862h.862v-.862Zm1.882 0 .001-.862h-.001v.862Zm.235.235h.862v-.001l-.862.001Zm0 72.945.862.002v-.002h-.862Zm-.235.236v.862h.001l-.001-.862Zm-1.882 0v-.862h-.862v.862h.862Zm-49.417 356.564v.862-.862ZM2.693 282.113h.862v-.862h-.862v.862Zm0-47.061v.862h.862v-.862h-.862Zm0-12.707h.862v-.862h-.862v.862Zm0-47.06v.861h.862v-.861h-.862Zm0-22.119h.862v-.862h-.862v.862Zm-2.117-.236h-.862.862Zm0-21.883h.862-.862Zm2.117-.235v.862h.862v-.862h-.862Zm0-81.098h-.861.861ZM254.47.297v.862c26.816 0 48.555 21.739 48.555 48.555h1.724c-.001-27.768-22.511-50.278-50.279-50.278v.861Zm49.417 49.417h-.862v142.277h1.724V49.714h-.862Zm0 142.277v.862h1.882v-1.724h-1.882v.862Zm1.882 0-.002.862a.627.627 0 0 1-.625-.626l.862-.001.862-.001a1.098 1.098 0 0 0-1.096-1.096l-.001.862Zm.235.235h-.862v72.945h1.724v-72.945h-.862Zm0 72.945-.862-.001a.627.627 0 0 1 .625-.625l.002.862.001.862a1.098 1.098 0 0 0 1.096-1.096l-.862-.002Zm-.235.236v-.862h-1.882v1.724h1.882v-.862Zm-1.882 0h-.862v307.146h1.724V265.407h-.862Zm0 307.146h-.862c0 26.817-21.739 48.556-48.555 48.556v1.724c27.768 0 50.279-22.511 50.279-50.28h-.862Zm-49.417 49.418v-.862H52.11v1.724H254.47v-.862Zm-202.359 0v-.862c-26.816 0-48.555-21.739-48.555-48.556H1.832c0 27.769 22.51 50.28 50.278 50.28v-.862ZM2.693 572.553h.862v-290.44H1.832v290.44h.861Zm0-290.44v-.862H.812v1.724h1.881v-.862Zm-1.881 0v-.862c.346 0 .626.28.626.626H-.286c0 .606.492 1.098 1.098 1.098v-.862Zm-.236-.236h.862v-46.589H-.286v46.589h.862Zm0-46.589h.862c0 .346-.28.626-.626.626v-1.724c-.606 0-1.098.492-1.098 1.098h.862Zm.236-.236v.862h1.881v-1.724H.812v.862Zm1.881 0h.862v-12.707H1.832v12.707h.861Zm0-12.707v-.862H.812v1.724h1.881v-.862Zm-1.881 0v-.862c.346 0 .626.281.626.627H-.286c0 .606.492 1.097 1.098 1.097v-.862Zm-.236-.235h.862v-46.59H-.286v46.59h.862Zm0-46.59h.862c0 .346-.28.626-.626.626V174.423c-.606 0-1.098.491-1.098 1.097h.862Zm.236-.235v.861h1.881V174.423H.812v.862Zm1.881 0h.862v-22.119H1.832v22.119h.861Zm0-22.119v-.862H.812V154.027h1.881v-.861Zm-1.881 0v-.862c.346 0 .626.28.626.626H-.286c0 .606.492 1.097 1.098 1.097v-.861Zm-.236-.236h.862v-21.883H-.286v21.883h.862Zm0-21.883h.862c0 .346-.28.627-.626.627v-1.724c-.606 0-1.098.491-1.098 1.097h.862Zm.236-.235v.862h1.881v-1.724H.812v.862Zm1.881 0h.862V49.714H1.832v81.098h.861Zm0-81.098h.862C3.555 22.898 25.294 1.16 52.11 1.16V-.564c-27.768 0-50.278 22.51-50.278 50.278h.861ZM52.11.297v.862H254.47V-.564H52.11v.861Z" mask="url(#b)"/><mask id="d" width="293" height="616" x="7" y="3" maskUnits="userSpaceOnUse" style="mask-type:alpha"><rect width="291.609" height="614.806" x="7.482" y="3.559" fill="url(#c)" rx="46.832"/></mask><g mask="url(#d)"><rect width="428.627" height="719.048" x="-8.447" y="-14.355" fill="#000" rx="17.547"/><rect width="292.211" height="591.875" x="7.314" y="61.969" fill="#F3F5F7" rx="17.547"/><rect width="164.19" height="42.72" x="66.205" y="368.923" fill="#0073FF" rx="21.36"/><path fill="#fff" d="M125.298 395.788c-.649 0-1.234-.107-1.755-.322a3.397 3.397 0 0 1-1.288-.914 3.105 3.105 0 0 1-.677-1.406l.776-.131a2.503 2.503 0 0 0 1.038 1.491c.534.364 1.176.546 1.925.546.509 0 .958-.081 1.348-.243.39-.162.694-.39.913-.684.219-.298.329-.644.329-1.038 0-.285-.053-.524-.158-.716a1.398 1.398 0 0 0-.394-.474 2.156 2.156 0 0 0-.519-.302 4.886 4.886 0 0 0-.52-.191l-2.379-.709a4.252 4.252 0 0 1-.847-.342c-.246-.14-.454-.3-.625-.48a2.057 2.057 0 0 1-.388-.624 2.197 2.197 0 0 1-.131-.776c0-.508.136-.953.408-1.334a2.66 2.66 0 0 1 1.117-.887c.477-.215 1.025-.322 1.643-.322.622.004 1.181.12 1.676.348.495.224.9.541 1.215.953.32.412.526.901.618 1.466l-.782.138a2.334 2.334 0 0 0-.473-1.137 2.529 2.529 0 0 0-.96-.756 3.062 3.062 0 0 0-1.301-.269 2.898 2.898 0 0 0-1.222.23c-.351.157-.627.37-.828.637-.202.267-.303.57-.303.907 0 .351.095.631.283.841.193.206.427.368.703.487.281.118.548.214.802.289l1.906.565c.18.053.394.127.644.223.25.097.495.235.736.414.241.176.44.41.598.704.162.289.243.652.243 1.091 0 .425-.081.806-.243 1.143a2.403 2.403 0 0 1-.697.861c-.302.232-.659.41-1.071.532a4.599 4.599 0 0 1-1.36.191Zm7.63 0c-.679 0-1.266-.151-1.761-.453a3.072 3.072 0 0 1-1.15-1.295c-.272-.561-.407-1.223-.407-1.985 0-.775.133-1.444.4-2.004.272-.566.653-.999 1.144-1.302.495-.302 1.082-.453 1.761-.453.688 0 1.275.158 1.762.473.49.311.863.762 1.117 1.354.258.591.381 1.303.368 2.136h-.789v-.263c-.022-.973-.241-1.713-.657-2.221-.416-.509-1.012-.763-1.788-.763-.801 0-1.421.265-1.859.795-.434.526-.651 1.271-.651 2.235 0 .955.217 1.696.651 2.221.438.526 1.053.789 1.846.789.548 0 1.025-.127 1.433-.381.412-.259.738-.627.979-1.104l.684.302a3.216 3.216 0 0 1-1.236 1.42c-.539.332-1.154.499-1.847.499Zm-2.799-3.529v-.684h5.606v.684h-5.606Zm10.411 3.529c-.679 0-1.266-.151-1.761-.453a3.066 3.066 0 0 1-1.15-1.295c-.272-.561-.408-1.223-.408-1.985 0-.775.134-1.444.401-2.004.272-.566.653-.999 1.144-1.302.495-.302 1.082-.453 1.761-.453.688 0 1.275.158 1.761.473.491.311.863.762 1.118 1.354.258.591.381 1.303.368 2.136h-.789v-.263c-.022-.973-.241-1.713-.657-2.221-.416-.509-1.012-.763-1.788-.763-.802 0-1.422.265-1.86.795-.433.526-.65 1.271-.65 2.235 0 .955.217 1.696.65 2.221.438.526 1.054.789 1.847.789.548 0 1.025-.127 1.433-.381.412-.259.738-.627.979-1.104l.683.302a3.208 3.208 0 0 1-1.235 1.42c-.539.332-1.155.499-1.847.499Zm-2.8-3.529v-.684h5.606v.684h-5.606Zm10.119 3.332v-9.464h3.568c.092 0 .191.004.296.013.11.005.224.018.342.04.473.074.878.245 1.216.512.341.263.602.596.782.999.179.399.269.839.269 1.321 0 .487-.09.931-.269 1.334-.18.399-.441.732-.782.999a2.595 2.595 0 0 1-1.216.506 4.934 4.934 0 0 1-.638.053h-2.813v3.687h-.755Zm.755-4.43h2.8a4.231 4.231 0 0 0 .585-.052 1.77 1.77 0 0 0 .854-.414c.228-.211.399-.463.513-.756.114-.294.171-.603.171-.927 0-.324-.057-.631-.171-.92a1.945 1.945 0 0 0-.513-.749 1.744 1.744 0 0 0-.854-.421 2.628 2.628 0 0 0-.315-.046 3.501 3.501 0 0 0-.27-.013h-2.8v4.298Zm8.727 4.627c-.547 0-1.003-.096-1.367-.289a1.977 1.977 0 0 1-.808-.763 2.08 2.08 0 0 1-.27-1.038c0-.403.084-.74.25-1.012a1.98 1.98 0 0 1 .677-.657c.285-.167.598-.292.94-.375.39-.087.81-.162 1.262-.223.451-.066.88-.123 1.288-.171.412-.048.747-.09 1.005-.125l-.276.164c.018-.766-.127-1.336-.433-1.708-.303-.377-.837-.566-1.604-.566-.539 0-.984.123-1.334.368-.346.241-.589.616-.73 1.124l-.775-.217c.162-.644.488-1.139.979-1.485.491-.346 1.12-.519 1.886-.519.653 0 1.201.127 1.643.381.447.254.758.611.934 1.071.074.189.124.41.151.664.026.25.039.502.039.756v4.423h-.69v-1.867l.256.066c-.214.64-.589 1.133-1.123 1.479-.535.346-1.168.519-1.9.519Zm.04-.697c.482 0 .904-.085 1.268-.256.364-.175.657-.418.881-.729.228-.316.372-.686.433-1.111.044-.237.068-.493.073-.769.004-.276.006-.48.006-.611l.329.21c-.285.035-.627.072-1.025.112-.395.039-.798.087-1.21.144-.411.057-.784.13-1.117.217-.206.057-.414.14-.624.25a1.476 1.476 0 0 0-.519.44c-.136.189-.204.427-.204.717 0 .214.052.429.158.644.109.214.289.392.539.532.249.14.587.21 1.012.21Zm5.124.5v-7.098h.69v1.702l-.171-.223c.079-.202.177-.388.295-.559.123-.175.248-.318.375-.427.188-.175.41-.307.664-.394.254-.092.51-.145.769-.158.258-.018.493.002.703.059v.716a2.549 2.549 0 0 0-.894-.039 1.69 1.69 0 0 0-.887.407 1.887 1.887 0 0 0-.526.736 3.273 3.273 0 0 0-.21.875 8.687 8.687 0 0 0-.046.887v3.516h-.762Zm8.335 0a4.049 4.049 0 0 1-1.117.092 2.457 2.457 0 0 1-.986-.243 1.434 1.434 0 0 1-.644-.684 1.996 1.996 0 0 1-.197-.756c-.013-.254-.02-.545-.02-.874v-6.605h.762v6.592c0 .298.003.546.007.743.009.193.055.37.138.532.158.302.407.486.749.552.342.062.778.051 1.308-.033v.684Zm-4.554-6.408v-.69h4.554v.69h-4.554Zm11.108 6.408v-3.694c0-.447-.046-.845-.138-1.196a2.469 2.469 0 0 0-.407-.894 1.736 1.736 0 0 0-.684-.558 2.259 2.259 0 0 0-.966-.191c-.385 0-.721.068-1.005.204a1.844 1.844 0 0 0-.697.559c-.18.241-.315.528-.407.861a4.149 4.149 0 0 0-.132 1.077l-.598-.072c0-.767.129-1.398.388-1.893.263-.499.615-.867 1.058-1.104.442-.241.94-.361 1.492-.361.39 0 .738.057 1.045.171.311.114.58.276.808.486.228.206.416.451.565.736.149.28.259.589.329.927.074.337.112.69.112 1.058v3.884h-.763Zm-5.198 0v-7.098h.69v1.597h.072v5.501h-.762Zm10.562.197c-.679 0-1.267-.151-1.762-.453a3.072 3.072 0 0 1-1.15-1.295c-.271-.561-.407-1.223-.407-1.985 0-.775.133-1.444.401-2.004a3.021 3.021 0 0 1 1.143-1.302c.495-.302 1.082-.453 1.762-.453.687 0 1.275.158 1.761.473.491.311.863.762 1.117 1.354.259.591.381 1.303.368 2.136h-.789v-.263c-.021-.973-.24-1.713-.657-2.221-.416-.509-1.012-.763-1.787-.763-.802 0-1.422.265-1.86.795-.434.526-.651 1.271-.651 2.235 0 .955.217 1.696.651 2.221.438.526 1.054.789 1.847.789.547 0 1.025-.127 1.432-.381.412-.259.739-.627.979-1.104l.684.302a3.216 3.216 0 0 1-1.236 1.42c-.538.332-1.154.499-1.846.499Zm-2.8-3.529v-.684h5.606v.684h-5.606Zm7.487 3.332v-7.098h.69v1.702l-.171-.223c.079-.202.177-.388.296-.559.122-.175.247-.318.374-.427.189-.175.41-.307.664-.394.254-.092.511-.145.769-.158.259-.018.493.002.703.059v.716a2.544 2.544 0 0 0-.893-.039 1.69 1.69 0 0 0-.888.407 1.874 1.874 0 0 0-.525.736c-.11.277-.18.568-.211.875-.03.302-.046.598-.046.887v3.516h-.762Zm6.935.184c-.819 0-1.496-.173-2.031-.519a2.191 2.191 0 0 1-.986-1.446l.776-.132c.109.421.368.756.775 1.006.408.25.907.374 1.499.374.587 0 1.054-.124 1.4-.374.346-.25.519-.592.519-1.025 0-.237-.055-.43-.164-.579-.106-.153-.316-.293-.631-.42a13.99 13.99 0 0 0-1.407-.447c-.657-.175-1.172-.351-1.544-.526-.368-.175-.629-.375-.782-.598-.149-.223-.224-.497-.224-.822 0-.389.112-.731.335-1.025.224-.298.535-.53.934-.696.403-.167.867-.25 1.393-.25s.999.088 1.42.263c.42.171.76.412 1.018.723.259.306.408.663.447 1.071l-.775.145a1.564 1.564 0 0 0-.69-1.078c-.386-.268-.868-.403-1.446-.408-.548-.009-.995.101-1.341.329-.346.223-.519.519-.519.887 0 .21.059.39.177.539.123.145.338.278.644.401.307.123.741.254 1.302.394.683.175 1.215.355 1.597.539.385.184.657.401.815.651.157.245.236.55.236.913 0 .657-.245 1.174-.736 1.551-.486.373-1.157.559-2.011.559Z"/><path stroke="#fff" stroke-linecap="round" stroke-linejoin="round" stroke-width=".994" d="M98.945 389.453a.996.996 0 0 0-.994.994c0 .507-.05 1.248-.13 1.988m2.118-1.431c0 1.183 0 3.171-.497 4.414m2.133-.487c.059-.299.214-1.144.248-1.502m-7.848-2.982a4.97 4.97 0 0 1 8.947-2.982m-8.947 4.97h.005m9.837 0c.099-.994.065-2.661 0-2.982m-8.351 4.722c.248-.746.497-2.237.497-3.728 0-.339.056-.675.169-.994m1.148 5.965c.105-.328.224-.656.284-.994m-.11-6.562a2.981 2.981 0 0 1 4.075 1.093c.262.454.399.968.399 1.492v.994"/><path fill="#000" d="M195.997 189.221c0-2.356.483-4.443 1.448-6.259.994-1.817 2.328-3.222 4.003-4.216 1.703-1.022 3.591-1.533 5.663-1.533 1.533 0 3.037.341 4.513 1.022 1.505.653 2.697 1.533 3.577 2.64v-11.326h4.897v31.509h-4.897v-3.534c-.795 1.135-1.902 2.072-3.321 2.81-1.391.738-2.995 1.107-4.812 1.107-2.044 0-3.917-.511-5.62-1.533-1.675-1.05-3.009-2.498-4.003-4.343-.965-1.873-1.448-3.988-1.448-6.344Zm19.204.085c0-1.618-.341-3.023-1.022-4.215-.653-1.193-1.519-2.101-2.597-2.725a6.849 6.849 0 0 0-3.492-.937 6.843 6.843 0 0 0-3.491.937c-1.079.596-1.959 1.49-2.64 2.682-.653 1.164-.98 2.555-.98 4.173 0 1.618.327 3.037.98 4.258.681 1.221 1.561 2.157 2.64 2.81 1.107.625 2.27.937 3.491.937a6.849 6.849 0 0 0 3.492-.937c1.078-.624 1.944-1.533 2.597-2.725.681-1.221 1.022-2.64 1.022-4.258ZM190.722 174.488c-.88 0-1.618-.298-2.214-.894-.596-.596-.894-1.334-.894-2.214 0-.88.298-1.618.894-2.214.596-.596 1.334-.894 2.214-.894.851 0 1.575.298 2.171.894.597.596.895 1.334.895 2.214 0 .88-.298 1.618-.895 2.214a2.956 2.956 0 0 1-2.171.894Zm2.384 3.109v23.461h-4.854v-23.461h4.854ZM183.743 169.549v31.509h-4.854v-31.509h4.854ZM163.777 201.441c-2.215 0-4.216-.496-6.004-1.49a11.044 11.044 0 0 1-4.216-4.258c-1.022-1.845-1.532-3.974-1.532-6.387 0-2.384.525-4.499 1.575-6.344 1.05-1.845 2.484-3.265 4.301-4.258 1.816-.994 3.846-1.491 6.088-1.491 2.243 0 4.273.497 6.089 1.491 1.817.993 3.251 2.413 4.301 4.258 1.05 1.845 1.575 3.96 1.575 6.344 0 2.385-.539 4.499-1.618 6.344a11.302 11.302 0 0 1-4.428 4.301c-1.845.994-3.889 1.49-6.131 1.49Zm0-4.215a7.103 7.103 0 0 0 3.491-.894c1.107-.596 2.001-1.491 2.683-2.683.681-1.192 1.021-2.64 1.021-4.343 0-1.703-.326-3.137-.979-4.3-.653-1.193-1.519-2.087-2.597-2.683a7.107 7.107 0 0 0-3.492-.894 7.1 7.1 0 0 0-3.491.894c-1.051.596-1.888 1.49-2.512 2.683-.625 1.163-.937 2.597-.937 4.3 0 2.526.638 4.485 1.916 5.876 1.306 1.363 2.938 2.044 4.897 2.044ZM139.517 201.356c-1.987 0-3.775-.34-5.365-1.022-1.59-.709-2.839-1.703-3.747-2.98-.908-1.278-1.363-2.768-1.363-4.471h5.195c.114 1.277.61 2.327 1.49 3.151.909.823 2.172 1.234 3.79 1.234 1.675 0 2.981-.397 3.917-1.192.937-.823 1.406-1.873 1.406-3.151 0-.993-.299-1.802-.895-2.427-.567-.624-1.291-1.107-2.171-1.447-.852-.341-2.044-.71-3.577-1.107-1.93-.511-3.506-1.022-4.726-1.533-1.192-.54-2.214-1.363-3.066-2.47-.852-1.107-1.277-2.583-1.277-4.428 0-1.703.425-3.194 1.277-4.471.852-1.277 2.044-2.257 3.577-2.938s3.307-1.022 5.322-1.022c2.867 0 5.209.724 7.026 2.172 1.845 1.419 2.867 3.378 3.066 5.876h-5.366c-.085-1.079-.596-2.002-1.532-2.768-.937-.767-2.172-1.15-3.705-1.15-1.391 0-2.526.355-3.406 1.065-.88.709-1.32 1.731-1.32 3.065 0 .909.27 1.661.809 2.257.568.568 1.277 1.022 2.129 1.363.851.34 2.015.709 3.491 1.107 1.959.539 3.549 1.078 4.769 1.618 1.249.539 2.3 1.377 3.151 2.512.88 1.107 1.32 2.597 1.32 4.471 0 1.504-.411 2.924-1.235 4.258-.794 1.334-1.972 2.413-3.534 3.236-1.533.795-3.349 1.192-5.45 1.192ZM112.852 177.005h2.579a3.35 3.35 0 0 0 3.347-3.347 3.351 3.351 0 0 0-3.347-3.348H98.337a13.258 13.258 0 0 0-9.438 3.909 13.348 13.348 0 0 0-3.672 6.922 13.485 13.485 0 0 0-.017 4.942 13.31 13.31 0 0 0 5.707 8.671h-2.59a3.341 3.341 0 0 0-3.337 3.338 3.341 3.341 0 0 0 3.338 3.337h15.343l1.749.019h.012c3.565 0 6.917-1.388 9.437-3.909a13.356 13.356 0 0 0 3.677-6.942 13.537 13.537 0 0 0 .012-4.921 13.308 13.308 0 0 0-5.706-8.671Zm3.678-3.347a1.1 1.1 0 0 1-1.099 1.099h-14.953a6.08 6.08 0 0 0-4.33 1.793c-.042.042-.081.086-.122.128l-.088.093c-.042.046-.081.093-.121.14-.026.03-.052.059-.077.09-.037.044-.071.09-.106.135-.027.034-.055.068-.08.102-.032.043-.061.086-.091.129-.028.039-.056.077-.083.117-.022.033-.042.068-.064.102-.032.05-.065.1-.096.151l-.023.041a6.043 6.043 0 0 0-.725 1.897l-.008.052a6.181 6.181 0 0 0-.082 1.728v.007l.001.004a6.104 6.104 0 0 0 1.96 3.931 6.108 6.108 0 0 0 4.135 1.607h3.081c.057 0 .114.001.17.004l.052.003.12.008.055.005.126.015.04.005c.055.008.109.017.163.027l.036.007.126.027.052.013a2.357 2.357 0 0 1 .161.043c.05.015.1.03.149.047l.005.001.154.056.04.016.112.047a4.269 4.269 0 0 1 .162.075l.028.014c.049.025.098.05.146.077l.012.007c.043.024.086.05.128.075l.032.02a7.042 7.042 0 0 1 .137.091 3.768 3.768 0 0 1 .278.21c.039.032.077.066.114.099a6.241 6.241 0 0 1 .136.128v.001c.082.081.16.166.234.254l.005.006.106.131.002.003a3.92 3.92 0 0 1 .446.746h-6.943a8.305 8.305 0 0 1-7.115-3.976 8.327 8.327 0 0 1-1.237-4.377 8.32 8.32 0 0 1 2.446-5.906 8.295 8.295 0 0 1 5.906-2.447h15.288a1.1 1.1 0 0 1 1.099 1.099Zm-29.108 12.019a11.234 11.234 0 0 1 .014-4.115 11.091 11.091 0 0 1 3.85-6.478l-.127.199a10.57 10.57 0 0 0-1.605 6.119c.08 1.792.62 3.545 1.56 5.068a10.54 10.54 0 0 0 9.029 5.043h7.239l-.017.094-.007.043c-.012.056-.024.112-.038.168l-.01.038a3.104 3.104 0 0 1-.09.297l-.019.055a4.86 4.86 0 0 1-.132.317l-.02.041a6.119 6.119 0 0 1-.058.114l-.027.052-.059.104-.029.048a3.438 3.438 0 0 1-.081.128l-.012.018a3.32 3.32 0 0 1-.13.182l-.077.099-.039.047-.08.093-.037.041a3.846 3.846 0 0 1-2.861 1.262h-5.223a11.09 11.09 0 0 1-10.914-9.077Zm-.183 12.415a1.09 1.09 0 0 1 1.089-1.089h15.231a6.077 6.077 0 0 0 4.33-1.794 6.085 6.085 0 0 0 1.764-4.927v-.005l-.001-.002a6.098 6.098 0 0 0-1.966-3.92 6.106 6.106 0 0 0-4.127-1.6h-3.081c-.057 0-.114-.001-.171-.004l-.052-.002c-.04-.003-.08-.005-.119-.009a2.632 2.632 0 0 1-.182-.02l-.042-.005a4.38 4.38 0 0 1-.163-.027l-.034-.007a5.305 5.305 0 0 1-.294-.07l-.047-.013a6.446 6.446 0 0 1-.145-.046l-.01-.003a4.038 4.038 0 0 1-.156-.057l-.036-.014a4.376 4.376 0 0 1-.117-.049l-.04-.018a4.99 4.99 0 0 1-.122-.058l-.026-.012c-.099-.05-.196-.105-.29-.163l-.024-.015a4.778 4.778 0 0 1-.12-.079l-.02-.013a3.786 3.786 0 0 1-.4-.318l-.006-.005a3.84 3.84 0 0 1-.92-1.273h6.733a8.304 8.304 0 0 1 7.125 3.993 8.332 8.332 0 0 1 1.227 4.36 8.33 8.33 0 0 1-2.446 5.907 8.291 8.291 0 0 1-5.906 2.446H88.328c-.6 0-1.09-.489-1.09-1.089Zm29.097-7.912a11.084 11.084 0 0 1-3.057 5.769c-.23.231-.469.45-.716.658l.082-.128a10.569 10.569 0 0 0 1.619-6.141 10.572 10.572 0 0 0-1.548-5.046 10.533 10.533 0 0 0-9.041-5.065h-7.016l.013-.074.01-.051a4.05 4.05 0 0 1 .037-.168c0-.004.002-.007.003-.011.013-.052.027-.103.043-.154l.016-.054.037-.112.02-.058a4.77 4.77 0 0 1 .044-.113l.02-.048c.02-.051.043-.102.067-.153l.02-.04a3.51 3.51 0 0 1 .057-.113l.03-.056.055-.097.033-.055.068-.108.025-.037a4.14 4.14 0 0 1 .13-.182l.074-.094.04-.05.078-.089.039-.043c.038-.042.077-.083.117-.124l.004-.003a3.845 3.845 0 0 1 2.739-1.135h4.954a11.09 11.09 0 0 1 10.904 13.175ZM103.602 263.552V249.73h1.104v13.822h-1.104Zm3.989 0V249.73h4.118c.16 0 .42.003.778.009.365.007.71.035 1.037.087 1.036.14 1.897.531 2.582 1.171.685.633 1.197 1.44 1.536 2.419.339.972.509 2.048.509 3.225 0 1.184-.17 2.265-.509 3.245-.339.972-.851 1.775-1.536 2.409-.685.634-1.546 1.021-2.582 1.161-.327.045-.675.074-1.047.087-.364.006-.62.009-.768.009h-4.118Zm1.162-1.084h2.956c.288 0 .586-.007.893-.019.307-.02.57-.048.787-.087.858-.153 1.549-.493 2.074-1.017.524-.531.905-1.2 1.142-2.007.243-.812.365-1.711.365-2.697 0-.992-.122-1.891-.365-2.697-.243-.813-.627-1.482-1.152-2.007-.525-.531-1.213-.87-2.064-1.017a6.253 6.253 0 0 0-.806-.077 14.55 14.55 0 0 0-.874-.029h-2.956v11.654Zm20.069 1.372c-.948 0-1.802-.156-2.563-.47a4.95 4.95 0 0 1-1.882-1.334 4.538 4.538 0 0 1-.989-2.054l1.133-.192a3.664 3.664 0 0 0 1.517 2.179c.781.531 1.718.796 2.812.796.743 0 1.399-.118 1.968-.355.57-.237 1.015-.569 1.334-.998.32-.435.48-.941.48-1.517 0-.416-.076-.765-.23-1.046a2.022 2.022 0 0 0-.576-.691 3.12 3.12 0 0 0-.758-.442 6.963 6.963 0 0 0-.759-.278l-3.474-1.037a6.254 6.254 0 0 1-1.239-.499 3.962 3.962 0 0 1-.912-.701 2.99 2.99 0 0 1-.566-.912 3.186 3.186 0 0 1-.192-1.132c0-.743.198-1.392.595-1.949.397-.557.941-.989 1.632-1.296.698-.314 1.497-.47 2.4-.47.909.006 1.724.176 2.448.508a4.558 4.558 0 0 1 1.775 1.392c.468.602.768 1.315.903 2.141l-1.143.201a3.408 3.408 0 0 0-.691-1.66 3.67 3.67 0 0 0-1.401-1.104 4.496 4.496 0 0 0-1.901-.394c-.672-.006-1.267.106-1.785.336-.512.231-.915.541-1.21.931a2.147 2.147 0 0 0-.441 1.325c0 .512.137.922.412 1.229.282.301.624.537 1.028.71.409.173.799.314 1.171.423l2.783.825c.263.077.576.186.941.326.365.141.723.343 1.075.605.352.256.643.599.874 1.027.237.423.355.954.355 1.594 0 .621-.118 1.177-.355 1.67a3.514 3.514 0 0 1-1.018 1.258 4.776 4.776 0 0 1-1.564.777 6.706 6.706 0 0 1-1.987.278Zm11.126 0c-1.031 0-1.904-.233-2.621-.7-.717-.467-1.264-1.114-1.641-1.939-.378-.826-.567-1.776-.567-2.851 0-1.082.192-2.032.576-2.851.384-.826.935-1.466 1.651-1.92.724-.454 1.591-.682 2.602-.682 1.03 0 1.904.234 2.62.701.724.461 1.271 1.101 1.642 1.92.377.819.566 1.763.566 2.832 0 1.094-.189 2.054-.566 2.879-.378.82-.928 1.46-1.651 1.92-.723.461-1.594.691-2.611.691Zm0-1.075c1.222 0 2.134-.409 2.736-1.228.608-.819.912-1.882.912-3.187 0-1.331-.304-2.394-.912-3.187-.608-.794-1.52-1.191-2.736-1.191-.826 0-1.507.189-2.045.567-.537.371-.941.886-1.209 1.545-.263.653-.394 1.408-.394 2.266 0 1.331.307 2.4.922 3.206.62.806 1.529 1.209 2.726 1.209Zm7.132.787v-14.11h1.104v14.11h-1.104Zm4.181-12.459v-1.411h1.104v1.411h-1.104Zm0 12.459v-10.367h1.104v10.367h-1.104Zm7.973.288c-.979 0-1.808-.24-2.487-.719-.671-.487-1.187-1.143-1.545-1.968-.352-.832-.528-1.767-.528-2.803 0-1.024.176-1.949.528-2.774.352-.826.858-1.479 1.517-1.959.665-.48 1.468-.72 2.409-.72.966 0 1.782.237 2.448.711.665.473 1.168 1.123 1.507 1.948.339.819.509 1.751.509 2.794 0 1.036-.17 1.968-.509 2.793-.339.826-.832 1.482-1.478 1.968-.647.486-1.437.729-2.371.729Zm.067-1.055c.774 0 1.417-.192 1.929-.576.519-.391.903-.919 1.152-1.584.256-.672.384-1.431.384-2.275 0-.851-.128-1.61-.384-2.275-.256-.666-.64-1.184-1.152-1.555-.512-.378-1.148-.567-1.91-.567-.787 0-1.437.195-1.949.586-.512.384-.892.909-1.142 1.574-.249.659-.374 1.405-.374 2.237 0 .838.128 1.593.384 2.265.262.666.646 1.194 1.152 1.584.512.39 1.148.586 1.91.586Zm3.465.767v-7.986h-.096v-5.836h1.104v13.822h-1.008Zm3.888-12.459v-1.411h1.104v1.411h-1.104Zm0 12.459v-10.367h1.104v10.367h-1.104Zm5.064 0v-11.336c0-.269.012-.525.038-.768.032-.243.093-.474.182-.691.096-.218.231-.423.404-.615a1.93 1.93 0 0 1 .595-.441c.224-.103.46-.17.71-.202.25-.038.512-.057.787-.057h1.335v.96h-1.239c-.569 0-.998.137-1.286.412-.282.275-.422.73-.422 1.363v11.375h-1.104Zm-1.843-9.359v-1.008h5.894v1.008h-5.894Zm7.896-3.1v-1.411h1.104v1.411h-1.104Zm0 12.459v-10.367h1.104v10.367h-1.104Zm8.261.288c-.992 0-1.849-.22-2.573-.662-.723-.448-1.283-1.078-1.679-1.891-.397-.819-.596-1.785-.596-2.899 0-1.133.196-2.109.586-2.928.397-.825.953-1.459 1.67-1.9.723-.442 1.581-.663 2.573-.663 1.005 0 1.862.231 2.572.691.717.455 1.261 1.114 1.632 1.978.378.864.557 1.904.538 3.12h-1.152v-.384c-.032-1.421-.352-2.502-.96-3.245-.608-.742-1.478-1.113-2.611-1.113-1.171 0-2.077.387-2.717 1.161-.633.768-.95 1.856-.95 3.264 0 1.395.317 2.477.95 3.244.64.768 1.54 1.152 2.698 1.152.8 0 1.497-.185 2.092-.556.602-.378 1.079-.916 1.431-1.613l.998.441c-.416.896-1.017 1.588-1.805 2.074-.787.486-1.686.729-2.697.729Zm-4.089-5.154v-.999h8.188v.999h-8.188Zm14.919 5.154c-.979 0-1.808-.24-2.486-.719-.672-.487-1.187-1.143-1.546-1.968-.352-.832-.528-1.767-.528-2.803 0-1.024.176-1.949.528-2.774.352-.826.858-1.479 1.517-1.959.665-.48 1.469-.72 2.409-.72.967 0 1.783.237 2.448.711.666.473 1.168 1.123 1.507 1.948.339.819.509 1.751.509 2.794 0 1.036-.17 1.968-.509 2.793-.339.826-.832 1.482-1.478 1.968s-1.437.729-2.371.729Zm.067-1.055c.774 0 1.418-.192 1.93-.576.518-.391.902-.919 1.151-1.584.256-.672.384-1.431.384-2.275 0-.851-.128-1.61-.384-2.275-.256-.666-.64-1.184-1.151-1.555-.512-.378-1.149-.567-1.911-.567-.787 0-1.436.195-1.948.586-.512.384-.893.909-1.143 1.574-.249.659-.374 1.405-.374 2.237 0 .838.128 1.593.384 2.265.262.666.646 1.194 1.152 1.584.512.39 1.149.586 1.91.586Zm3.465.767v-7.986h-.096v-5.836h1.104v13.822h-1.008ZM66.275 299.993v-3.891l-3.072-5.325h.852l2.591 4.48 2.586-4.48h.85l-3.064 5.325v3.891h-.743Zm6.509.192c-.687 0-1.27-.156-1.747-.468a2.983 2.983 0 0 1-1.095-1.292c-.251-.551-.377-1.184-.377-1.901 0-.721.128-1.354.384-1.9a2.94 2.94 0 0 1 1.1-1.28c.483-.303 1.06-.455 1.735-.455.687 0 1.269.156 1.747.467.482.308.847.734 1.094 1.28.252.546.378 1.176.378 1.888 0 .73-.126 1.37-.378 1.92a2.937 2.937 0 0 1-1.1 1.28c-.483.307-1.063.461-1.741.461Zm0-.717c.815 0 1.423-.273 1.824-.819.405-.546.608-1.255.608-2.125 0-.887-.203-1.595-.608-2.124-.406-.529-1.014-.794-1.824-.794-.55 0-1.005.126-1.363.378a2.24 2.24 0 0 0-.807 1.03c-.175.435-.262.938-.262 1.51 0 .888.205 1.6.614 2.138.414.537 1.02.806 1.818.806Zm7.282.685a2.96 2.96 0 0 1-1.023-.167 2.386 2.386 0 0 1-.781-.467 2.68 2.68 0 0 1-.55-.717 3.641 3.641 0 0 1-.327-.908 5.064 5.064 0 0 1-.102-1.031v-3.782h.742v3.597c0 .435.043.823.128 1.164.09.342.222.632.397.871.179.239.4.42.665.544.27.123.585.185.947.185.376 0 .7-.064.973-.192.277-.132.504-.315.679-.55.179-.235.311-.512.396-.832a3.95 3.95 0 0 0 .135-1.056l.582.071c0 .746-.128 1.363-.384 1.849-.252.482-.593.84-1.024 1.075-.43.23-.915.346-1.453.346Zm2.35-.16v-1.555h-.071v-5.357h.742v6.912h-.672Zm10.08 0v-3.597c0-.435-.044-.823-.133-1.165a2.405 2.405 0 0 0-.397-.87 1.687 1.687 0 0 0-.666-.544 2.199 2.199 0 0 0-.94-.185c-.376 0-.702.066-.98.198a1.8 1.8 0 0 0-.678.544 2.506 2.506 0 0 0-.397.838 4.07 4.07 0 0 0-.128 1.05l-.582-.071c0-.746.126-1.361.377-1.843.256-.486.6-.844 1.03-1.075.432-.234.916-.352 1.454-.352.38 0 .718.056 1.017.167.303.111.565.268.787.473.222.201.405.44.55.717.145.273.252.574.32.902.073.329.11.672.11 1.031v3.782h-.743Zm-5.061 0v-6.912h.672v1.555h.07v5.357h-.742Zm10.272.192c-.687 0-1.27-.156-1.747-.468a2.983 2.983 0 0 1-1.095-1.292c-.251-.551-.377-1.184-.377-1.901 0-.721.128-1.354.384-1.9a2.94 2.94 0 0 1 1.1-1.28c.483-.303 1.06-.455 1.735-.455.687 0 1.269.156 1.747.467.482.308.847.734 1.094 1.28.252.546.378 1.176.378 1.888 0 .73-.126 1.37-.378 1.92a2.937 2.937 0 0 1-1.1 1.28c-.483.307-1.063.461-1.741.461Zm0-.717c.815 0 1.423-.273 1.824-.819.405-.546.608-1.255.608-2.125 0-.887-.203-1.595-.608-2.124-.406-.529-1.014-.794-1.824-.794-.55 0-1.005.126-1.363.378a2.24 2.24 0 0 0-.807 1.03c-.175.435-.262.938-.262 1.51 0 .888.205 1.6.614 2.138.414.537 1.02.806 1.818.806Zm5.849.525-2.112-6.912h.755l1.734 5.677 1.734-5.677h.711l1.74 5.677 1.741-5.677h.742l-2.111 6.912h-.692l-1.772-5.753-1.779 5.753h-.691Zm13.599.192c-.687 0-1.269-.156-1.747-.468a2.983 2.983 0 0 1-1.094-1.292c-.252-.551-.378-1.184-.378-1.901 0-.721.128-1.354.384-1.9a2.94 2.94 0 0 1 1.101-1.28c.482-.303 1.06-.455 1.734-.455.687 0 1.269.156 1.747.467.482.308.847.734 1.095 1.28.251.546.377 1.176.377 1.888 0 .73-.126 1.37-.377 1.92a2.939 2.939 0 0 1-1.101 1.28c-.482.307-1.062.461-1.741.461Zm0-.717c.815 0 1.423-.273 1.824-.819.405-.546.608-1.255.608-2.125 0-.887-.203-1.595-.608-2.124-.405-.529-1.013-.794-1.824-.794-.55 0-1.005.126-1.363.378-.358.247-.627.59-.806 1.03-.175.435-.263.938-.263 1.51 0 .888.205 1.6.615 2.138.414.537 1.019.806 1.817.806Zm5.849.525-2.112-6.912h.755l1.735 5.677 1.734-5.677h.71l1.741 5.677 1.741-5.677h.742l-2.112 6.912h-.691l-1.773-5.753-1.779 5.753h-.691Zm13.264 0v-3.597c0-.435-.044-.823-.134-1.165a2.404 2.404 0 0 0-.397-.87 1.691 1.691 0 0 0-.665-.544 2.2 2.2 0 0 0-.941-.185c-.376 0-.702.066-.979.198a1.808 1.808 0 0 0-.679.544 2.511 2.511 0 0 0-.396.838c-.086.32-.128.67-.128 1.05l-.583-.071c0-.746.126-1.361.378-1.843.256-.486.599-.844 1.03-1.075a2.995 2.995 0 0 1 1.453-.352 2.9 2.9 0 0 1 1.017.167c.303.111.566.268.788.473.221.201.405.44.55.717.145.273.252.574.32.902.072.329.109.672.109 1.031v3.782h-.743Zm-5.062 0v-6.912h.672v1.555h.071v5.357h-.743Zm11.036 3.071 1.344-3.615.012 1.075-3.027-7.443h.788l2.598 6.464h-.41l2.362-6.464h.774l-3.673 9.983h-.768Zm8.186-2.879c-.687 0-1.27-.156-1.748-.468a2.99 2.99 0 0 1-1.094-1.292c-.252-.551-.377-1.184-.377-1.901 0-.721.128-1.354.384-1.9a2.938 2.938 0 0 1 1.1-1.28c.482-.303 1.06-.455 1.735-.455.686 0 1.269.156 1.747.467.482.308.846.734 1.094 1.28.252.546.377 1.176.377 1.888 0 .73-.125 1.37-.377 1.92a2.939 2.939 0 0 1-1.101 1.28c-.482.307-1.062.461-1.74.461Zm0-.717c.814 0 1.422-.273 1.823-.819.406-.546.608-1.255.608-2.125 0-.887-.202-1.595-.608-2.124-.405-.529-1.013-.794-1.823-.794-.551 0-1.005.126-1.364.378-.358.247-.627.59-.806 1.03-.175.435-.262.938-.262 1.51 0 .888.204 1.6.614 2.138.414.537 1.02.806 1.818.806Zm7.282.685c-.379 0-.721-.056-1.024-.167a2.38 2.38 0 0 1-.78-.467 2.679 2.679 0 0 1-.551-.717 3.625 3.625 0 0 1-.326-.908 5.077 5.077 0 0 1-.103-1.031v-3.782h.743v3.597c0 .435.042.823.128 1.164.089.342.222.632.397.871.179.239.401.42.665.544.269.123.585.185.947.185.376 0 .7-.064.973-.192.277-.132.503-.315.678-.55.179-.235.312-.512.397-.832.09-.324.134-.676.134-1.056l.583.071c0 .746-.128 1.363-.384 1.849-.252.482-.593.84-1.024 1.075-.431.23-.915.346-1.453.346Zm2.349-.16v-1.555h-.071v-5.357h.743v6.912h-.672Zm2.457 0v-6.912h.672v1.658l-.166-.218c.077-.196.173-.377.288-.544.119-.17.241-.309.365-.416.183-.17.399-.298.646-.384.247-.089.497-.141.749-.153.251-.017.48.002.684.057v.698a2.462 2.462 0 0 0-.87-.039 1.655 1.655 0 0 0-.864.397 1.837 1.837 0 0 0-.512.717 3.171 3.171 0 0 0-.205.851 8.803 8.803 0 0 0-.044.864v3.424h-.743Zm7.012 0v-9.216h2.746c.106 0 .279.003.518.007.243.004.474.023.691.057.691.094 1.265.355 1.722.781.456.423.797.96 1.024 1.613.226.648.339 1.365.339 2.15 0 .789-.113 1.51-.339 2.163-.227.649-.568 1.184-1.024 1.606-.457.423-1.031.681-1.722.775-.217.03-.45.049-.697.057-.244.005-.414.007-.512.007h-2.746Zm.775-.723h1.971c.192 0 .39-.005.595-.013.205-.013.379-.032.525-.058.571-.102 1.032-.328 1.382-.678.35-.354.604-.8.761-1.338a6.26 6.26 0 0 0 .244-1.798c0-.661-.082-1.261-.244-1.798-.162-.542-.418-.988-.768-1.338-.349-.354-.808-.58-1.375-.678a3.988 3.988 0 0 0-.538-.051 9.396 9.396 0 0 0-.582-.019h-1.971v7.769Zm7.815-7.584v-.941h.736v.941h-.736Zm0 8.307v-6.912h.736v6.912h-.736Zm5.347 3.263c-.341 0-.682-.051-1.024-.153a2.837 2.837 0 0 1-.947-.487 2.762 2.762 0 0 1-.749-.889l.666-.397c.209.427.505.732.889.915.384.184.775.275 1.172.275.558 0 1-.104 1.324-.313.329-.205.563-.514.704-.928.141-.41.211-.919.211-1.53v-1.811h.077v-4.857h.672v6.668c0 .205-.004.402-.013.589a4.858 4.858 0 0 1-.057.563c-.077.534-.235.973-.474 1.319-.239.35-.563.61-.973.78-.405.171-.898.256-1.478.256Zm-.032-3.071c-.653 0-1.205-.16-1.657-.48a3.115 3.115 0 0 1-1.031-1.312c-.234-.555-.352-1.178-.352-1.869 0-.682.118-1.299.352-1.849.235-.551.572-.986 1.011-1.306.444-.32.98-.48 1.607-.48.644 0 1.188.158 1.632.474.443.316.778.749 1.004 1.299.226.546.34 1.167.34 1.862 0 .691-.114 1.312-.34 1.862-.226.551-.554.988-.985 1.312-.431.325-.958.487-1.581.487Zm.045-.704c.516 0 .945-.128 1.286-.384.346-.26.602-.612.768-1.056a4.23 4.23 0 0 0 .256-1.517c0-.567-.085-1.073-.256-1.517-.17-.443-.426-.789-.768-1.036-.341-.252-.766-.378-1.273-.378-.525 0-.958.13-1.299.391a2.262 2.262 0 0 0-.762 1.049 4.2 4.2 0 0 0-.249 1.491c0 .559.085 1.062.255 1.51.175.444.431.796.768 1.056.342.261.766.391 1.274.391Zm4.902-7.795v-.941h.736v.941h-.736Zm0 8.307v-6.912h.736v6.912h-.736Zm6.326 0c-.367.081-.73.111-1.088.089a2.375 2.375 0 0 1-.96-.237 1.399 1.399 0 0 1-.627-.665 1.952 1.952 0 0 1-.192-.736 16.448 16.448 0 0 1-.019-.851v-6.432h.742v6.419c0 .29.002.531.007.723.008.188.053.361.134.519a.993.993 0 0 0 .729.537c.333.06.758.049 1.274-.032v.666Zm-4.435-6.24v-.672h4.435v.672h-4.435Zm7.752 6.432c-.534 0-.977-.094-1.331-.282a1.918 1.918 0 0 1-.787-.742 2.033 2.033 0 0 1-.263-1.011c0-.393.081-.721.243-.986a1.94 1.94 0 0 1 .659-.64c.278-.162.583-.284.916-.365.379-.085.789-.157 1.228-.217.44-.064.858-.12 1.255-.167.401-.047.727-.087.979-.121l-.269.16c.017-.747-.124-1.301-.422-1.664-.295-.367-.815-.55-1.562-.55-.525 0-.958.119-1.299.358-.337.235-.574.599-.71 1.094l-.755-.211c.157-.627.475-1.109.953-1.446.478-.337 1.09-.506 1.837-.506.635 0 1.169.124 1.6.371.435.248.738.596.908 1.044.073.183.122.398.147.646.026.243.039.488.039.736v4.307h-.672v-1.818l.25.064c-.21.623-.574 1.103-1.095 1.44-.52.337-1.137.506-1.849.506Zm.038-.679c.469 0 .881-.083 1.235-.249.354-.171.64-.408.858-.711.222-.307.362-.667.422-1.081.043-.231.066-.48.071-.749.004-.269.006-.467.006-.595l.32.205c-.277.034-.61.07-.998.109-.384.038-.777.085-1.178.14a9.26 9.26 0 0 0-1.088.212c-.2.055-.403.136-.608.243-.2.102-.369.245-.505.428-.133.184-.199.416-.199.698 0 .209.051.418.154.627.107.209.281.382.525.519.243.136.571.204.985.204Zm5.118.487v-9.408h.735v9.408h-.735Zm5.349 0v-9.216h.736v9.216h-.736Zm2.659 0v-9.216h2.746c.106 0 .279.003.518.007.243.004.474.023.691.057.691.094 1.265.355 1.722.781.456.423.798.96 1.024 1.613.226.648.339 1.365.339 2.15 0 .789-.113 1.51-.339 2.163-.226.649-.568 1.184-1.024 1.606-.457.423-1.031.681-1.722.775-.217.03-.45.049-.697.057-.243.005-.414.007-.512.007h-2.746Zm.775-.723h1.971c.192 0 .39-.005.595-.013.205-.013.38-.032.525-.058.571-.102 1.032-.328 1.382-.678.35-.354.604-.8.761-1.338a6.225 6.225 0 0 0 .244-1.798c0-.661-.081-1.261-.244-1.798-.162-.542-.418-.988-.767-1.338-.35-.354-.809-.58-1.376-.678a3.971 3.971 0 0 0-.538-.051 9.396 9.396 0 0 0-.582-.019h-1.971v7.769Zm13.084.915c-.686 0-1.269-.156-1.747-.468a2.99 2.99 0 0 1-1.094-1.292c-.252-.551-.377-1.184-.377-1.901 0-.721.128-1.354.383-1.9a2.94 2.94 0 0 1 1.101-1.28c.482-.303 1.06-.455 1.734-.455.687 0 1.27.156 1.748.467.482.308.846.734 1.094 1.28.252.546.377 1.176.377 1.888 0 .73-.125 1.37-.377 1.92a2.939 2.939 0 0 1-1.101 1.28c-.482.307-1.062.461-1.741.461Zm0-.717c.815 0 1.423-.273 1.824-.819.406-.546.608-1.255.608-2.125 0-.887-.202-1.595-.608-2.124-.405-.529-1.013-.794-1.824-.794-.55 0-1.004.126-1.363.378-.358.247-.627.59-.806 1.03-.175.435-.262.938-.262 1.51 0 .888.204 1.6.614 2.138.414.537 1.02.806 1.817.806Zm9.689.525v-3.597c0-.435-.044-.823-.134-1.165a2.404 2.404 0 0 0-.397-.87 1.691 1.691 0 0 0-.665-.544 2.2 2.2 0 0 0-.941-.185c-.375 0-.702.066-.979.198a1.808 1.808 0 0 0-.679.544 2.511 2.511 0 0 0-.396.838c-.086.32-.128.67-.128 1.05l-.583-.071c0-.746.126-1.361.378-1.843.256-.486.599-.844 1.03-1.075a2.995 2.995 0 0 1 1.453-.352 2.9 2.9 0 0 1 1.017.167c.303.111.566.268.788.473.221.201.405.44.55.717.145.273.252.574.32.902.072.329.109.672.109 1.031v3.782h-.743Zm-5.062 0v-6.912h.672v1.555h.071v5.357h-.743Zm7.334-3.699v-.672h3.84v.672h-3.84ZM57.903 317.185c-.69 0-1.273-.154-1.747-.461a2.967 2.967 0 0 1-1.081-1.286c-.243-.551-.37-1.184-.378-1.901.009-.73.137-1.367.384-1.913a2.914 2.914 0 0 1 1.088-1.28c.474-.303 1.054-.455 1.74-.455.67 0 1.26.162 1.767.487.512.32.866.761 1.062 1.324l-.716.263a2.055 2.055 0 0 0-.826-.999 2.355 2.355 0 0 0-1.293-.358c-.546 0-.996.126-1.35.378-.354.247-.618.59-.793 1.03-.175.439-.267.947-.276 1.523.013.883.22 1.593.621 2.131.406.533 1.005.8 1.798.8.491 0 .916-.113 1.274-.339a2.16 2.16 0 0 0 .832-.986l.73.25c-.27.584-.645 1.03-1.127 1.337-.482.303-1.052.455-1.709.455Zm9.24-.192v-3.597c0-.435-.045-.823-.135-1.165a2.405 2.405 0 0 0-.396-.87 1.687 1.687 0 0 0-.666-.544 2.199 2.199 0 0 0-.94-.185c-.376 0-.703.066-.98.198-.273.128-.499.309-.678.544a2.506 2.506 0 0 0-.397.838 4.07 4.07 0 0 0-.128 1.05l-.582-.071c0-.746.126-1.361.377-1.843.256-.486.6-.844 1.03-1.075.431-.234.916-.352 1.453-.352.38 0 .72.056 1.018.167.303.111.565.268.787.473.222.201.405.44.55.717.145.273.252.574.32.902.073.329.109.672.109 1.031v3.782h-.742Zm-5.062 0v-9.216h.672v5.325h.07v3.891h-.742Zm9.458.192c-.533 0-.977-.094-1.33-.282a1.925 1.925 0 0 1-.788-.742 2.034 2.034 0 0 1-.262-1.011c0-.393.08-.721.243-.986.166-.264.386-.478.659-.64.277-.162.582-.284.915-.365.38-.085.79-.157 1.229-.217a47.5 47.5 0 0 1 1.254-.167c.401-.047.727-.087.98-.121l-.27.16c.017-.747-.123-1.301-.422-1.664-.294-.367-.815-.55-1.561-.55-.525 0-.958.119-1.3.358-.337.235-.573.599-.71 1.094l-.755-.211c.158-.627.476-1.109.953-1.446.478-.337 1.09-.506 1.837-.506.636 0 1.17.124 1.6.371.435.248.738.596.909 1.044.072.183.121.398.147.646.026.243.038.488.038.736v4.307h-.672v-1.818l.25.064c-.209.623-.574 1.103-1.094 1.44-.52.337-1.137.506-1.85.506Zm.039-.679c.469 0 .88-.083 1.235-.249.354-.171.64-.408.857-.711.222-.307.363-.667.423-1.081.042-.231.066-.48.07-.749.004-.269.006-.467.006-.595l.32.205c-.277.034-.61.07-.998.109a31.51 31.51 0 0 0-1.177.14 9.262 9.262 0 0 0-1.088.212c-.2.055-.403.136-.608.243-.2.102-.37.245-.506.428-.132.184-.198.416-.198.698 0 .209.051.418.153.627.107.209.282.382.525.519.243.136.572.204.986.204Zm5.117-7.82v-.941h.736v.941h-.736Zm0 8.307v-6.912h.736v6.912h-.736Zm7.721 0v-3.597c0-.435-.044-.823-.134-1.165a2.405 2.405 0 0 0-.397-.87 1.687 1.687 0 0 0-.665-.544 2.199 2.199 0 0 0-.941-.185c-.376 0-.702.066-.98.198-.272.128-.498.309-.678.544a2.506 2.506 0 0 0-.396.838 4.07 4.07 0 0 0-.128 1.05l-.583-.071c0-.746.126-1.361.378-1.843.256-.486.6-.844 1.03-1.075.431-.234.915-.352 1.453-.352.38 0 .719.056 1.017.167.303.111.566.268.788.473.221.201.405.44.55.717.145.273.252.574.32.902.072.329.109.672.109 1.031v3.782h-.743Zm-5.062 0v-6.912h.672v1.555h.07v5.357h-.742Zm12.021.192c-.533 0-.977-.094-1.331-.282a1.925 1.925 0 0 1-.787-.742 2.034 2.034 0 0 1-.263-1.011c0-.393.082-.721.244-.986.166-.264.386-.478.659-.64.277-.162.582-.284.915-.365.38-.085.79-.157 1.229-.217a47.5 47.5 0 0 1 1.254-.167c.401-.047.727-.087.98-.121l-.27.16c.017-.747-.123-1.301-.422-1.664-.294-.367-.815-.55-1.561-.55-.525 0-.958.119-1.3.358-.337.235-.573.599-.71 1.094l-.755-.211c.158-.627.476-1.109.953-1.446.478-.337 1.09-.506 1.837-.506.636 0 1.17.124 1.6.371.435.248.738.596.909 1.044.072.183.121.398.147.646.025.243.038.488.038.736v4.307h-.672v-1.818l.25.064c-.21.623-.574 1.103-1.094 1.44-.52.337-1.137.506-1.85.506Zm.038-.679c.47 0 .882-.083 1.236-.249.354-.171.64-.408.857-.711.222-.307.363-.667.422-1.081.043-.231.067-.48.07-.749.005-.269.007-.467.007-.595l.32.205c-.277.034-.61.07-.998.109a31.51 31.51 0 0 0-1.177.14 9.262 9.262 0 0 0-1.088.212c-.201.055-.404.136-.608.243-.2.102-.37.245-.506.428-.132.184-.198.416-.198.698 0 .209.05.418.153.627.107.209.282.382.525.519.243.136.572.204.986.204Zm10.052.487v-3.597c0-.435-.045-.823-.134-1.165a2.42 2.42 0 0 0-.397-.87 1.687 1.687 0 0 0-.666-.544 2.196 2.196 0 0 0-.94-.185c-.376 0-.702.066-.98.198-.273.128-.499.309-.678.544a2.506 2.506 0 0 0-.397.838c-.085.32-.128.67-.128 1.05l-.582-.071c0-.746.126-1.361.377-1.843.257-.486.6-.844 1.03-1.075.432-.234.916-.352 1.454-.352.38 0 .718.056 1.017.167.303.111.565.268.787.473.222.201.405.44.55.717.146.273.252.574.32.902.073.329.109.672.109 1.031v3.782h-.742Zm-5.062 0v-6.912h.672v1.555h.07v5.357h-.742Zm10.093.192c-.653 0-1.206-.16-1.658-.48a3.113 3.113 0 0 1-1.03-1.312c-.235-.555-.352-1.178-.352-1.869 0-.682.117-1.299.352-1.849a3.05 3.05 0 0 1 1.011-1.306c.444-.32.979-.48 1.606-.48.644 0 1.188.158 1.632.474.444.316.779.749 1.005 1.299.226.546.339 1.167.339 1.862 0 .691-.113 1.312-.339 1.862-.226.551-.555.988-.986 1.312-.431.325-.958.487-1.58.487Zm.044-.704c.517 0 .945-.128 1.287-.384a2.3 2.3 0 0 0 .768-1.056c.17-.448.256-.954.256-1.517 0-.567-.086-1.073-.256-1.517-.171-.443-.427-.789-.768-1.036-.342-.252-.766-.378-1.274-.378-.525 0-.958.13-1.299.391a2.267 2.267 0 0 0-.761 1.049c-.167.44-.25.937-.25 1.491 0 .559.085 1.062.256 1.51.175.444.431.796.768 1.056.341.261.766.391 1.273.391Zm2.311.512v-5.325h-.064v-3.891h.736v9.216h-.672Zm7.022.192c-.533 0-.977-.094-1.331-.282a1.924 1.924 0 0 1-.787-.742 2.032 2.032 0 0 1-.262-1.011c0-.393.081-.721.243-.986.166-.264.386-.478.659-.64.277-.162.582-.284.915-.365.38-.085.789-.157 1.229-.217.439-.064.857-.12 1.254-.167.401-.047.727-.087.979-.121l-.269.16c.017-.747-.123-1.301-.422-1.664-.294-.367-.815-.55-1.561-.55-.525 0-.958.119-1.3.358-.337.235-.573.599-.71 1.094l-.755-.211c.158-.627.476-1.109.953-1.446.478-.337 1.09-.506 1.837-.506.636 0 1.169.124 1.6.371.435.248.738.596.909 1.044.072.183.121.398.147.646.025.243.038.488.038.736v4.307h-.672v-1.818l.25.064c-.209.623-.574 1.103-1.094 1.44-.521.337-1.137.506-1.85.506Zm.039-.679c.469 0 .881-.083 1.235-.249.354-.171.64-.408.857-.711a2.4 2.4 0 0 0 .423-1.081c.042-.231.066-.48.07-.749.004-.269.006-.467.006-.595l.32.205c-.277.034-.61.07-.998.109-.384.038-.776.085-1.178.14a9.24 9.24 0 0 0-1.087.212 3.036 3.036 0 0 0-.608.243 1.438 1.438 0 0 0-.506.428c-.132.184-.198.416-.198.698 0 .209.051.418.153.627.107.209.282.382.525.519.243.136.572.204.986.204Zm4.989.487v-6.912h.672v1.658l-.166-.218c.076-.196.172-.377.287-.544.12-.17.242-.309.365-.416.184-.17.399-.298.647-.384.247-.089.497-.141.748-.153.252-.017.48.002.685.057v.698a2.462 2.462 0 0 0-.87-.039 1.655 1.655 0 0 0-.864.397 1.827 1.827 0 0 0-.512.717 3.134 3.134 0 0 0-.205.851 8.51 8.51 0 0 0-.045.864v3.424h-.742Zm7.172.192c-.661 0-1.233-.148-1.715-.442a2.99 2.99 0 0 1-1.12-1.261c-.264-.546-.396-1.19-.396-1.932 0-.755.13-1.406.39-1.952.265-.55.636-.973 1.114-1.267.482-.295 1.053-.442 1.715-.442.669 0 1.241.154 1.715.461.477.303.84.742 1.088 1.318.251.576.371 1.27.358 2.08h-.768v-.256c-.021-.947-.235-1.668-.64-2.163-.405-.495-.985-.742-1.741-.742-.78 0-1.384.258-1.811.774-.422.512-.633 1.237-.633 2.176 0 .93.211 1.651.633 2.163.427.512 1.026.768 1.799.768.533 0 .998-.124 1.395-.371.401-.252.719-.61.953-1.075l.666.294a3.135 3.135 0 0 1-1.203 1.382c-.525.325-1.125.487-1.799.487Zm-2.726-3.437v-.665h5.459v.665h-5.459Zm9.853 3.245v-9.216h.736v4.378l4.383-4.378h.973l-4.409 4.429 4.793 4.787h-.985l-4.755-4.71v4.71h-.736Zm9.55 0v-3.891l-3.072-5.325h.851l2.592 4.48 2.586-4.48h.851l-3.066 5.325v3.891h-.742Zm7.866.192c-.917 0-1.687-.203-2.31-.608a3.799 3.799 0 0 1-1.408-1.696c-.316-.721-.474-1.553-.474-2.496 0-.943.158-1.775.474-2.496a3.753 3.753 0 0 1 1.408-1.689c.623-.41 1.393-.615 2.31-.615 1.071 0 1.939.278 2.604.832.67.555 1.125 1.297 1.364 2.227l-.762.186c-.196-.772-.563-1.384-1.101-1.837-.533-.456-1.235-.684-2.105-.684-.755 0-1.385.172-1.888.518-.499.346-.877.825-1.133 1.44-.251.614-.379 1.32-.384 2.118-.008.798.113 1.504.365 2.118a3.21 3.21 0 0 0 1.146 1.44c.507.346 1.139.519 1.894.519.87 0 1.572-.229 2.105-.685.538-.457.905-1.069 1.101-1.837l.762.186c-.239.93-.694 1.672-1.364 2.227-.665.554-1.533.832-2.604.832Zm5.241-4.467v-.672h3.84v.672h-3.84Zm7.935 4.275-3.264-9.216h.781l2.931 8.294 2.95-8.294h.781l-3.264 9.216h-.915Zm7.228.192c-.662 0-1.233-.148-1.715-.442a2.983 2.983 0 0 1-1.12-1.261c-.265-.546-.397-1.19-.397-1.932 0-.755.13-1.406.39-1.952.265-.55.636-.973 1.114-1.267.482-.295 1.054-.442 1.715-.442.67 0 1.241.154 1.715.461.478.303.84.742 1.088 1.318.252.576.371 1.27.358 2.08h-.768v-.256c-.021-.947-.234-1.668-.64-2.163-.405-.495-.985-.742-1.74-.742-.781 0-1.385.258-1.811.774-.423.512-.634 1.237-.634 2.176 0 .93.211 1.651.634 2.163.426.512 1.026.768 1.798.768.533 0 .998-.124 1.395-.371.401-.252.719-.61.954-1.075l.665.294a3.123 3.123 0 0 1-1.203 1.382c-.525.325-1.124.487-1.798.487Zm-2.726-3.437v-.665h5.458v.665h-5.458Zm7.29 3.245v-6.912h.672v1.658l-.167-.218c.077-.196.173-.377.288-.544.12-.17.241-.309.365-.416.184-.17.399-.298.647-.384.247-.089.497-.141.748-.153.252-.017.48.002.685.057v.698a2.462 2.462 0 0 0-.87-.039 1.652 1.652 0 0 0-.864.397 1.817 1.817 0 0 0-.512.717 3.134 3.134 0 0 0-.205.851 8.51 8.51 0 0 0-.045.864v3.424h-.742Zm4.577-8.307v-.941h.736v.941h-.736Zm0 8.307v-6.912h.736v6.912h-.736Zm3.377 0v-7.558c0-.179.008-.35.025-.512a1.81 1.81 0 0 1 .122-.461c.064-.145.153-.281.268-.409.12-.128.252-.227.397-.295.15-.068.307-.113.474-.134.166-.026.341-.039.525-.039h.889v.64h-.825c-.38 0-.666.092-.858.276-.188.183-.282.486-.282.908v7.584h-.735Zm-1.229-6.24v-.672h3.929v.672h-3.929Zm5.273-2.067v-.941h.736v.941h-.736Zm0 8.307v-6.912h.736v6.912h-.736Zm5.498.192c-.661 0-1.233-.148-1.715-.442a2.99 2.99 0 0 1-1.12-1.261c-.264-.546-.396-1.19-.396-1.932 0-.755.13-1.406.39-1.952.265-.55.636-.973 1.114-1.267.482-.295 1.053-.442 1.715-.442.669 0 1.241.154 1.715.461.478.303.84.742 1.088 1.318.251.576.371 1.27.358 2.08h-.768v-.256c-.021-.947-.235-1.668-.64-2.163-.405-.495-.985-.742-1.741-.742-.78 0-1.384.258-1.811.774-.422.512-.633 1.237-.633 2.176 0 .93.211 1.651.633 2.163.427.512 1.026.768 1.799.768.533 0 .998-.124 1.395-.371.401-.252.719-.61.953-1.075l.666.294a3.135 3.135 0 0 1-1.203 1.382c-.525.325-1.124.487-1.799.487Zm-2.726-3.437v-.665h5.459v.665h-5.459Zm9.946 3.437c-.652 0-1.205-.16-1.657-.48a3.105 3.105 0 0 1-1.03-1.312c-.235-.555-.352-1.178-.352-1.869 0-.682.117-1.299.352-1.849.234-.551.571-.986 1.011-1.306.443-.32.979-.48 1.606-.48.644 0 1.188.158 1.632.474.444.316.778.749 1.005 1.299.226.546.339 1.167.339 1.862 0 .691-.113 1.312-.339 1.862-.227.551-.555.988-.986 1.312-.431.325-.958.487-1.581.487Zm.045-.704c.516 0 .945-.128 1.286-.384.346-.26.602-.612.768-1.056a4.23 4.23 0 0 0 .256-1.517c0-.567-.085-1.073-.256-1.517-.17-.443-.426-.789-.768-1.036-.341-.252-.765-.378-1.273-.378-.525 0-.958.13-1.299.391a2.275 2.275 0 0 0-.762 1.049 4.2 4.2 0 0 0-.249 1.491c0 .559.085 1.062.256 1.51.175.444.431.796.768 1.056.341.261.765.391 1.273.391Zm2.31.512v-5.325h-.064v-3.891h.736v9.216h-.672Zm8.693 0a3.913 3.913 0 0 1-1.088.089 2.375 2.375 0 0 1-.96-.237 1.399 1.399 0 0 1-.627-.665 1.952 1.952 0 0 1-.192-.736 16.448 16.448 0 0 1-.019-.851v-6.432h.742v6.419c0 .29.002.531.007.723.008.188.053.361.134.519a.994.994 0 0 0 .73.537c.332.06.757.049 1.273-.032v.666Zm-4.435-6.24v-.672h4.435v.672h-4.435Zm8.365 6.432c-.687 0-1.269-.156-1.747-.468a2.983 2.983 0 0 1-1.094-1.292c-.252-.551-.378-1.184-.378-1.901 0-.721.128-1.354.384-1.9a2.94 2.94 0 0 1 1.101-1.28c.482-.303 1.06-.455 1.734-.455.687 0 1.27.156 1.747.467.482.308.847.734 1.095 1.28.251.546.377 1.176.377 1.888 0 .73-.126 1.37-.377 1.92a2.939 2.939 0 0 1-1.101 1.28c-.482.307-1.062.461-1.741.461Zm0-.717c.815 0 1.423-.273 1.824-.819.405-.546.608-1.255.608-2.125 0-.887-.203-1.595-.608-2.124-.405-.529-1.013-.794-1.824-.794-.55 0-1.004.126-1.363.378-.358.247-.627.59-.806 1.03-.175.435-.262.938-.262 1.51 0 .888.204 1.6.614 2.138.414.537 1.02.806 1.817.806Zm9.186.717c-.533 0-.977-.094-1.331-.282a1.924 1.924 0 0 1-.787-.742 2.032 2.032 0 0 1-.262-1.011c0-.393.081-.721.243-.986.166-.264.386-.478.659-.64.277-.162.582-.284.915-.365.38-.085.789-.157 1.229-.217.439-.064.857-.12 1.254-.167.401-.047.727-.087.979-.121l-.269.16c.017-.747-.123-1.301-.422-1.664-.294-.367-.815-.55-1.561-.55-.525 0-.958.119-1.3.358-.337.235-.573.599-.71 1.094l-.755-.211c.158-.627.476-1.109.953-1.446.478-.337 1.091-.506 1.837-.506.636 0 1.169.124 1.6.371.435.248.738.596.909 1.044.072.183.121.398.147.646.026.243.038.488.038.736v4.307h-.672v-1.818l.25.064c-.209.623-.574 1.103-1.094 1.44-.521.337-1.137.506-1.85.506Zm.039-.679c.469 0 .881-.083 1.235-.249.354-.171.64-.408.857-.711a2.4 2.4 0 0 0 .423-1.081c.042-.231.066-.48.07-.749.004-.269.006-.467.006-.595l.32.205c-.277.034-.61.07-.998.109-.384.038-.776.085-1.177.14a9.219 9.219 0 0 0-1.088.212 3.036 3.036 0 0 0-.608.243 1.438 1.438 0 0 0-.506.428c-.132.184-.198.416-.198.698 0 .209.051.418.153.627.107.209.282.382.525.519.243.136.572.204.986.204Zm5.117.487v-9.408h.736v9.408h-.736Zm2.787 0v-9.408h.736v9.408h-.736Zm8.057.192c-.687 0-1.269-.156-1.747-.468a2.985 2.985 0 0 1-1.095-1.292c-.251-.551-.377-1.184-.377-1.901 0-.721.128-1.354.384-1.9a2.94 2.94 0 0 1 1.101-1.28c.482-.303 1.06-.455 1.734-.455.687 0 1.269.156 1.747.467.482.308.847.734 1.094 1.28.252.546.378 1.176.378 1.888 0 .73-.126 1.37-.378 1.92a2.932 2.932 0 0 1-1.101 1.28c-.482.307-1.062.461-1.74.461Zm0-.717c.815 0 1.423-.273 1.824-.819.405-.546.608-1.255.608-2.125 0-.887-.203-1.595-.608-2.124-.406-.529-1.014-.794-1.824-.794-.551 0-1.005.126-1.363.378-.359.247-.627.59-.807 1.03-.175.435-.262.938-.262 1.51 0 .888.205 1.6.614 2.138.414.537 1.02.806 1.818.806Zm5.343.525v-7.558c0-.179.009-.35.026-.512a1.81 1.81 0 0 1 .122-.461c.064-.145.153-.281.268-.409.12-.128.252-.227.397-.295.15-.068.307-.113.474-.134.166-.026.341-.039.525-.039h.889v.64h-.825c-.38 0-.666.092-.858.276-.188.183-.282.486-.282.908v7.584h-.736Zm-1.228-6.24v-.672h3.929v.672h-3.929ZM94.507 334.185c-.687 0-1.27-.156-1.747-.468a2.982 2.982 0 0 1-1.094-1.292c-.252-.551-.378-1.184-.378-1.901 0-.721.128-1.354.384-1.9a2.94 2.94 0 0 1 1.1-1.28c.483-.303 1.061-.455 1.735-.455.687 0 1.27.156 1.747.467a2.9 2.9 0 0 1 1.094 1.28c.252.546.378 1.176.378 1.888 0 .73-.126 1.37-.378 1.92a2.936 2.936 0 0 1-1.1 1.28c-.482.307-1.063.461-1.741.461Zm0-.717c.815 0 1.423-.273 1.824-.819.405-.546.608-1.255.608-2.125 0-.887-.203-1.595-.608-2.124-.405-.529-1.013-.794-1.824-.794-.55 0-1.005.126-1.363.378-.358.247-.627.59-.806 1.03-.175.435-.263.938-.263 1.51 0 .888.205 1.6.615 2.138.413.537 1.02.806 1.817.806Zm7.283.685a2.96 2.96 0 0 1-1.024-.167 2.384 2.384 0 0 1-.78-.467 2.68 2.68 0 0 1-.551-.717 3.645 3.645 0 0 1-.327-.908 5.056 5.056 0 0 1-.102-1.031v-3.782h.742v3.597c0 .435.043.823.128 1.164.09.342.222.632.397.871.179.239.401.42.666.544.268.123.584.185.947.185.375 0 .699-.064.972-.192.278-.132.504-.315.679-.55a2.37 2.37 0 0 0 .397-.832c.089-.324.134-.676.134-1.056l.582.071c0 .746-.128 1.363-.384 1.849-.251.482-.593.84-1.024 1.075-.43.23-.915.346-1.452.346Zm2.348-.16v-1.555h-.07v-5.357h.742v6.912h-.672Zm2.458 0v-6.912h.672v1.658l-.167-.218c.077-.196.173-.377.288-.544.12-.17.241-.309.365-.416.184-.17.399-.298.647-.384.247-.089.497-.141.748-.153.252-.017.48.002.685.057v.698a2.462 2.462 0 0 0-.87-.039 1.652 1.652 0 0 0-.864.397 1.817 1.817 0 0 0-.512.717 3.134 3.134 0 0 0-.205.851 8.51 8.51 0 0 0-.045.864v3.424h-.742Zm7.012 0v-9.216h3.475c.089 0 .185.005.288.013.106.004.217.017.332.039.461.072.856.239 1.184.499.333.256.587.58.762.972.175.389.262.817.262 1.287 0 .473-.087.906-.262 1.299a2.55 2.55 0 0 1-.762.973 2.52 2.52 0 0 1-1.184.492 5.4 5.4 0 0 1-.332.039 3.76 3.76 0 0 1-.288.013h-2.739v3.59h-.736Zm.736-4.314h2.726a3.25 3.25 0 0 0 .569-.051 1.72 1.72 0 0 0 .832-.403c.222-.205.389-.45.5-.736a2.49 2.49 0 0 0 .166-.902c0-.316-.056-.615-.166-.896a1.895 1.895 0 0 0-.5-.73 1.701 1.701 0 0 0-.832-.409 2.877 2.877 0 0 0-.569-.058h-2.726v4.185Zm8.497 4.506c-.533 0-.977-.094-1.331-.282a1.924 1.924 0 0 1-.787-.742 2.032 2.032 0 0 1-.262-1.011c0-.393.081-.721.243-.986.166-.264.386-.478.659-.64.277-.162.582-.284.915-.365.38-.085.789-.157 1.229-.217.439-.064.857-.12 1.254-.167.401-.047.728-.087.979-.121l-.268.16c.017-.747-.124-1.301-.423-1.664-.294-.367-.815-.55-1.561-.55-.525 0-.958.119-1.299.358-.337.235-.574.599-.711 1.094l-.755-.211c.158-.627.476-1.109.954-1.446.477-.337 1.09-.506 1.836-.506.636 0 1.169.124 1.6.371.435.248.738.596.909 1.044.072.183.121.398.147.646.026.243.038.488.038.736v4.307h-.671v-1.818l.249.064c-.209.623-.574 1.103-1.094 1.44-.521.337-1.137.506-1.85.506Zm.039-.679c.469 0 .881-.083 1.235-.249.354-.171.64-.408.857-.711a2.4 2.4 0 0 0 .423-1.081c.042-.231.066-.48.07-.749.004-.269.007-.467.007-.595l.32.205c-.278.034-.611.07-.999.109-.384.038-.776.085-1.177.14a9.26 9.26 0 0 0-1.088.212 3.06 3.06 0 0 0-.608.243 1.438 1.438 0 0 0-.506.428c-.132.184-.198.416-.198.698 0 .209.051.418.153.627.107.209.282.382.525.519.243.136.572.204.986.204Zm4.989.487v-6.912h.672v1.658l-.166-.218a2.59 2.59 0 0 1 .288-.544c.119-.17.241-.309.364-.416.184-.17.399-.298.647-.384.247-.089.497-.141.749-.153.251-.017.479.002.684.057v.698a2.462 2.462 0 0 0-.87-.039 1.655 1.655 0 0 0-.864.397 1.827 1.827 0 0 0-.512.717 3.134 3.134 0 0 0-.205.851 8.51 8.51 0 0 0-.045.864v3.424h-.742Zm8.117 0c-.367.081-.73.111-1.088.089a2.367 2.367 0 0 1-.96-.237 1.394 1.394 0 0 1-.627-.665 1.952 1.952 0 0 1-.192-.736 16.448 16.448 0 0 1-.019-.851v-6.432h.742v6.419c0 .29.002.531.006.723.009.188.054.361.135.519a.99.99 0 0 0 .729.537c.333.06.757.049 1.274-.032v.666Zm-4.435-6.24v-.672h4.435v.672h-4.435Zm10.817 6.24v-3.597c0-.435-.045-.823-.135-1.165a2.403 2.403 0 0 0-.396-.87 1.687 1.687 0 0 0-.666-.544 2.197 2.197 0 0 0-.941-.185 2.26 2.26 0 0 0-.979.198 1.797 1.797 0 0 0-.678.544 2.513 2.513 0 0 0-.397.838c-.085.32-.128.67-.128 1.05l-.582-.071c0-.746.126-1.361.377-1.843.256-.486.6-.844 1.031-1.075a2.994 2.994 0 0 1 1.452-.352c.38 0 .719.056 1.018.167.303.111.565.268.787.473.222.201.405.44.55.717.145.273.252.574.32.902.073.329.109.672.109 1.031v3.782h-.742Zm-5.062 0v-6.912h.672v1.555h.07v5.357h-.742Zm10.285.192c-.662 0-1.233-.148-1.716-.442a2.981 2.981 0 0 1-1.119-1.261c-.265-.546-.397-1.19-.397-1.932 0-.755.13-1.406.39-1.952.265-.55.636-.973 1.114-1.267.482-.295 1.053-.442 1.715-.442.67 0 1.241.154 1.715.461.478.303.84.742 1.088 1.318.251.576.371 1.27.358 2.08h-.768v-.256c-.021-.947-.235-1.668-.64-2.163-.405-.495-.985-.742-1.74-.742-.781 0-1.385.258-1.812.774-.422.512-.633 1.237-.633 2.176 0 .93.211 1.651.633 2.163.427.512 1.027.768 1.799.768.533 0 .998-.124 1.395-.371.401-.252.719-.61.953-1.075l.666.294a3.123 3.123 0 0 1-1.203 1.382c-.525.325-1.124.487-1.798.487Zm-2.727-3.437v-.665h5.459v.665h-5.459Zm7.291 3.245v-6.912h.672v1.658l-.167-.218c.077-.196.173-.377.288-.544.12-.17.241-.309.365-.416.183-.17.399-.298.646-.384.248-.089.497-.141.749-.153.252-.017.48.002.685.057v.698a2.467 2.467 0 0 0-.871-.039 1.649 1.649 0 0 0-.863.397 1.817 1.817 0 0 0-.512.717 3.134 3.134 0 0 0-.205.851 8.51 8.51 0 0 0-.045.864v3.424h-.742Zm7.012 0v-9.216h3.475c.089 0 .185.005.287.013.107.004.218.017.333.039.461.072.856.239 1.184.499.333.256.587.58.762.972.175.389.262.817.262 1.287 0 .473-.087.906-.262 1.299a2.55 2.55 0 0 1-.762.973 2.52 2.52 0 0 1-1.184.492 5.34 5.34 0 0 1-.333.039 3.713 3.713 0 0 1-.287.013h-2.739v3.59h-.736Zm.736-4.314h2.726a3.25 3.25 0 0 0 .569-.051c.333-.068.61-.202.832-.403.222-.205.388-.45.499-.736.111-.286.167-.586.167-.902 0-.316-.056-.615-.167-.896a1.893 1.893 0 0 0-.499-.73 1.706 1.706 0 0 0-.832-.409 2.877 2.877 0 0 0-.569-.058h-2.726v4.185Zm6.978 4.314v-9.408h.736v9.408h-.736Zm4.656.192c-.533 0-.977-.094-1.331-.282a1.924 1.924 0 0 1-.787-.742 2.032 2.032 0 0 1-.262-1.011c0-.393.081-.721.243-.986.166-.264.386-.478.659-.64.277-.162.582-.284.915-.365.38-.085.79-.157 1.229-.217.439-.064.857-.12 1.254-.167.401-.047.728-.087.979-.121l-.268.16c.017-.747-.124-1.301-.423-1.664-.294-.367-.815-.55-1.561-.55-.525 0-.958.119-1.299.358-.337.235-.574.599-.711 1.094l-.755-.211c.158-.627.476-1.109.954-1.446.478-.337 1.09-.506 1.836-.506.636 0 1.169.124 1.6.371.435.248.738.596.909 1.044.072.183.122.398.147.646.026.243.039.488.039.736v4.307h-.672v-1.818l.249.064c-.209.623-.574 1.103-1.094 1.44-.521.337-1.137.506-1.85.506Zm.039-.679c.469 0 .881-.083 1.235-.249.354-.171.64-.408.857-.711a2.4 2.4 0 0 0 .423-1.081c.042-.231.066-.48.07-.749.004-.269.007-.467.007-.595l.32.205c-.278.034-.611.07-.999.109-.384.038-.776.085-1.177.14a9.26 9.26 0 0 0-1.088.212 3.06 3.06 0 0 0-.608.243 1.438 1.438 0 0 0-.506.428c-.132.184-.198.416-.198.698 0 .209.051.418.154.627.106.209.281.382.524.519.243.136.572.204.986.204Zm8.656.487a3.913 3.913 0 0 1-1.088.089 2.375 2.375 0 0 1-.96-.237 1.399 1.399 0 0 1-.627-.665 1.952 1.952 0 0 1-.192-.736 16.448 16.448 0 0 1-.019-.851v-6.432h.742v6.419c0 .29.002.531.007.723.008.188.053.361.134.519a.994.994 0 0 0 .73.537c.332.06.757.049 1.273-.032v.666Zm-4.435-6.24v-.672h4.435v.672h-4.435Zm6.472 6.24v-7.558c0-.179.009-.35.026-.512.021-.162.061-.316.121-.461.064-.145.154-.281.269-.409.119-.128.252-.227.397-.295.149-.068.307-.113.473-.134a3.41 3.41 0 0 1 .525-.039h.89v.64h-.826c-.38 0-.665.092-.857.276-.188.183-.282.486-.282.908v7.584h-.736Zm-1.229-6.24v-.672h3.93v.672h-3.93Zm7.534 6.432c-.686 0-1.269-.156-1.747-.468a2.99 2.99 0 0 1-1.094-1.292c-.252-.551-.378-1.184-.378-1.901 0-.721.128-1.354.384-1.9a2.94 2.94 0 0 1 1.101-1.28c.482-.303 1.06-.455 1.734-.455.687 0 1.27.156 1.747.467a2.9 2.9 0 0 1 1.095 1.28c.252.546.377 1.176.377 1.888 0 .73-.125 1.37-.377 1.92a2.939 2.939 0 0 1-1.101 1.28c-.482.307-1.062.461-1.741.461Zm0-.717c.815 0 1.423-.273 1.824-.819.406-.546.608-1.255.608-2.125 0-.887-.202-1.595-.608-2.124-.405-.529-1.013-.794-1.824-.794-.55 0-1.004.126-1.363.378-.358.247-.627.59-.806 1.03-.175.435-.262.938-.262 1.51 0 .888.204 1.6.614 2.138.414.537 1.02.806 1.817.806Zm4.627.525v-6.912h.672v1.658l-.166-.218c.077-.196.173-.377.288-.544.119-.17.241-.309.365-.416.183-.17.399-.298.646-.384.247-.089.497-.141.749-.153.251-.017.48.002.684.057v.698a2.462 2.462 0 0 0-.87-.039 1.655 1.655 0 0 0-.864.397 1.837 1.837 0 0 0-.512.717 3.171 3.171 0 0 0-.205.851 8.803 8.803 0 0 0-.044.864v3.424h-.743Zm12.673 0 .013-4.646c0-.559-.16-.997-.48-1.312-.316-.32-.71-.48-1.184-.48-.269 0-.535.062-.8.185-.26.124-.478.325-.652.602-.175.277-.263.653-.263 1.126l-.518-.083c-.017-.503.074-.941.275-1.312.205-.375.486-.665.845-.87a2.463 2.463 0 0 1 1.235-.307c.678 0 1.226.209 1.645.627.422.418.633.99.633 1.715l-.013 4.755h-.736Zm-8.223 0v-6.912h.672v1.555h.064v5.357h-.736Zm4.115 0 .013-4.576c0-.572-.156-1.024-.468-1.357-.311-.337-.716-.505-1.215-.505-.508 0-.92.175-1.236.525-.315.345-.473.808-.473 1.388l-.512-.256c0-.448.102-.844.307-1.19a2.23 2.23 0 0 1 .838-.826c.359-.2.768-.3 1.229-.3.414 0 .792.087 1.133.262.341.175.614.439.819.794.205.349.307.789.307 1.318l-.013 4.723h-.729Zm9.075.179c-.798 0-1.457-.169-1.977-.506a2.128 2.128 0 0 1-.96-1.408l.755-.128c.106.41.358.736.755.98.397.243.883.364 1.459.364.572 0 1.026-.121 1.363-.364.337-.244.506-.576.506-.999 0-.23-.054-.418-.16-.563-.103-.149-.308-.286-.615-.409a13.503 13.503 0 0 0-1.369-.436c-.64-.17-1.141-.341-1.504-.512-.358-.17-.612-.364-.762-.582-.145-.218-.217-.484-.217-.8 0-.38.109-.712.326-.998.218-.29.521-.516.909-.679.392-.162.845-.243 1.357-.243s.972.086 1.382.256c.409.167.74.401.992.704.252.299.397.647.435 1.043l-.755.141a1.521 1.521 0 0 0-.672-1.049c-.376-.261-.845-.393-1.408-.397-.533-.009-.968.098-1.305.32-.338.217-.506.505-.506.864 0 .204.058.379.173.524.119.141.328.271.627.391.299.119.721.247 1.267.384.666.17 1.184.345 1.555.525.376.179.64.39.794.633.153.239.23.536.23.89 0 .64-.239 1.143-.717 1.51-.473.363-1.126.544-1.958.544Z"/></g><defs><linearGradient id="a" x1="17.427" x2="153.29" y1="32.67" y2="621.971" gradientUnits="userSpaceOnUse"><stop offset=".087" stop-color="#4A4A4A"/><stop offset=".113" stop-color="#B0B0B0"/><stop offset=".141" stop-color="#4A4A4A"/><stop offset=".815" stop-color="#4A4A4A"/><stop offset=".854" stop-color="#B0B0B0"/><stop offset=".89" stop-color="#4A4A4A"/></linearGradient><linearGradient id="c" x1="280.228" x2="35.486" y1="13.552" y2="618.365" gradientUnits="userSpaceOnUse"><stop offset=".037" stop-color="#0F0F0F"/><stop offset=".124" stop-color="#757575"/><stop offset=".968" stop-color="#0F0F0F"/></linearGradient></defs></svg>